G04 ================== begin FILE IDENTIFICATION RECORD ==================*
G04 Layout Name:  PCB EDITOR TUTORIAL_COMPLETE.brd*
G04 Film Name:    ASSEMBLY*
G04 File Format:  Gerber RS274X*
G04 File Origin:  Cadence Allegro 17.2-S037*
G04 Origin Date:  Sun Apr 15 09:58:16 2018*
G04 *
G04 Layer:  REF DES/ASSEMBLY_TOP*
G04 Layer:  PIN/TOP*
G04 Layer:  PACKAGE GEOMETRY/ASSEMBLY_TOP*
G04 Layer:  DRAWING FORMAT/OUTLINE*
G04 Layer:  DRAWING FORMAT/TITLE_BLOCK*
G04 Layer:  DRAWING FORMAT/TITLE_DATA*
G04 Layer:  DRAWING FORMAT/REVISION_BLOCK*
G04 Layer:  DRAWING FORMAT/REVISION_DATA*
G04 Layer:  BOARD GEOMETRY/DESIGN_OUTLINE*
G04 *
G04 Offset:    (0.0000 0.0000)*
G04 Mirror:    No*
G04 Mode:      Positive*
G04 Rotation:  0*
G04 FullContactRelief:  No*
G04 UndefLineWidth:     0.1270*
G04 ================== end FILE IDENTIFICATION RECORD ====================*
%FSLAX25Y25*MOIN*%
%IR0*IPPOS*OFA0.00000B0.00000*MIA0B0*SFA1.00000B1.00000*%
%ADD21R,.074799X.074799*%
%ADD23R,.01378X.055118*%
%ADD13R,.055X.017*%
%ADD19R,.01161X.062988*%
%ADD16R,.062988X.01161*%
%ADD24C,.056*%
%ADD10C,.16*%
%ADD11R,.07874X.04724*%
%ADD18R,.037402X.01752*%
%ADD20R,.082681X.062988*%
%ADD17R,.074799X.043311*%
%ADD15C,.074*%
%ADD22R,.07087X.074799*%
%ADD14R,.035429X.027559*%
%ADD12R,.027559X.035429*%
%ADD25C,.008*%
%ADD26C,.005*%
%ADD27C,.006*%
G75*
%LPD*%
G75*
G54D10*
X15748Y15748D03*
Y181102D03*
X377953Y15748D03*
Y181102D03*
G54D20*
X63937Y167126D03*
X88346D03*
G54D11*
X15748Y58843D03*
Y46244D03*
G54D12*
Y82677D03*
X10630D03*
X15748Y70866D03*
X10630D03*
X15748Y94488D03*
X20866D03*
X115354Y66929D03*
X110236D03*
Y94488D03*
X115354D03*
G54D21*
X71417Y177165D03*
X80866D03*
G54D22*
X61181D03*
X91102D03*
G54D13*
X25274Y118012D03*
Y115453D03*
Y112894D03*
Y110335D03*
X7874D03*
Y112894D03*
Y115453D03*
Y118012D03*
G54D14*
Y144291D03*
Y139173D03*
X18307Y144291D03*
Y139173D03*
X34705Y100984D03*
Y95866D03*
X61181Y22244D03*
Y17126D03*
X110236Y80118D03*
Y85236D03*
G54D23*
X73583Y166732D03*
X76142D03*
X78701D03*
X71024D03*
X81260D03*
G54D15*
X56491Y58069D03*
X46491Y59069D03*
X86491D03*
X76491Y58069D03*
X66491Y59069D03*
X96491Y58069D03*
G54D24*
X143701Y62992D03*
Y70866D03*
Y78740D03*
Y86614D03*
Y94488D03*
Y102362D03*
Y110236D03*
Y118110D03*
Y125984D03*
Y133858D03*
X151575Y62992D03*
Y70866D03*
Y78740D03*
Y86614D03*
Y94488D03*
Y102362D03*
Y110236D03*
Y118110D03*
Y125984D03*
Y133858D03*
G54D25*
G01X52677Y79094D02*
X91339D01*
G01X52677Y117756D02*
Y79094D01*
G01X91339Y117756D02*
X52677D01*
G01X62756Y185630D02*
X60394Y187992D01*
G01X91339Y79094D02*
Y117756D01*
G01X89528Y185630D02*
X91890Y187992D01*
G54D16*
X49961Y83661D03*
Y85630D03*
Y87598D03*
Y89567D03*
Y91535D03*
Y93504D03*
Y95472D03*
Y97441D03*
Y99409D03*
Y101378D03*
Y103346D03*
Y105315D03*
Y107283D03*
Y109252D03*
Y111220D03*
Y113189D03*
X94055Y89567D03*
Y87598D03*
Y85630D03*
Y83661D03*
Y113189D03*
Y111220D03*
Y109252D03*
Y107283D03*
Y105315D03*
Y103346D03*
Y101378D03*
Y99409D03*
Y97441D03*
Y95472D03*
Y93504D03*
Y91535D03*
G54D26*
G01X10630Y46244D02*
Y58843D01*
G01D02*
X20866D01*
G01D02*
Y46244D01*
G01D02*
X10630D01*
G01X62756Y165945D02*
X67480D01*
G01X62756D02*
Y182874D01*
G01X84803Y171457D02*
X67480D01*
G01D02*
Y165945D01*
G01X84803Y171457D02*
Y165945D01*
G01X89528D02*
X84803D01*
G01X64331Y185630D02*
X62756D01*
G01Y182874D02*
Y185630D01*
G01X89528Y182874D02*
X62756D01*
G01X87165Y188189D02*
X65315D01*
G01X64331Y187402D02*
Y185630D01*
G01X65315Y188189D02*
G03X64331Y187402I-59J-935D01*
G01X89528Y182874D02*
Y165945D01*
G01Y185630D02*
X87953D01*
G01X89528D02*
Y182874D01*
G01X87953Y185630D02*
Y187205D01*
G01D02*
G03X87165Y188189I-935J59D01*
G01X131890Y25591D02*
X372047D01*
G01X131890Y171260D02*
Y25591D01*
G01Y171260D02*
X372047D01*
G01Y80709D02*
Y25591D01*
G01X415354Y80709D02*
X372047D01*
G01D02*
Y116142D01*
G01Y171260D02*
Y116142D01*
G01D02*
X415354D01*
G01D02*
Y80709D01*
G01X-70366Y-240657D02*
Y609343D01*
X1037134D01*
Y-240657D01*
X-70366D01*
G01X-40866Y-214157D02*
Y585843D01*
X1004134D01*
Y-214157D01*
X-40866D01*
G01X0Y0D02*
Y196850D01*
X393701D01*
Y0D01*
X0D01*
G01X11008Y81477D02*
Y83839D01*
X12189D01*
Y81477D01*
X11008D01*
G01X14208D02*
Y83839D01*
X15389D01*
Y81477D01*
X14208D01*
G01X11008Y69666D02*
Y72028D01*
X12189D01*
Y69666D01*
X11008D01*
G01X14208D02*
Y72028D01*
X15389D01*
Y69666D01*
X14208D01*
G01X20488Y95688D02*
Y93326D01*
X19307D01*
Y95688D01*
X20488D01*
G01X17288D02*
Y93326D01*
X16107D01*
Y95688D01*
X17288D01*
G01X15374Y120273D02*
G03X17774I1200J0D01*
G01X10474D02*
Y108073D01*
G01X22674D02*
Y120273D01*
G01X10474Y108073D02*
X22674D01*
G01X26624Y118762D02*
X22674D01*
G01Y117262D02*
X26624D01*
G01X22674Y118762D02*
Y117262D01*
G01X26624Y116203D02*
X22674D01*
G01Y114703D02*
X26624D01*
G01X22674Y116203D02*
Y114703D01*
G01X26624Y113644D02*
X22674D01*
G01Y112144D02*
X26624D01*
G01X22674Y113644D02*
Y112144D01*
G01X26624Y111085D02*
X22674D01*
G01Y109585D02*
X26624D01*
G01X22674Y111085D02*
Y109585D01*
G01X6524D02*
X10474D01*
G01X6524Y111085D02*
Y109585D01*
G01X10474Y111085D02*
X6524D01*
G01X10474Y109585D02*
Y111085D01*
G01X6524Y112144D02*
X10474D01*
G01X6524Y113644D02*
Y112144D01*
G01X10474Y113644D02*
X6524D01*
G01X10474Y112144D02*
Y113644D01*
G01X6524Y114703D02*
X10474D01*
G01X6524Y116203D02*
Y114703D01*
G01X10474Y116203D02*
X6524D01*
G01X10474Y114703D02*
Y116203D01*
G01X6524Y117262D02*
X10474D01*
G01X6524Y118762D02*
Y117262D01*
G01X10474Y118762D02*
X6524D01*
G01X10474Y117262D02*
Y118762D01*
G01X9074Y139551D02*
X6712D01*
Y140732D01*
X9074D01*
Y139551D01*
G01Y142751D02*
X6712D01*
Y143932D01*
X9074D01*
Y142751D01*
G01X19507Y139551D02*
X17145D01*
Y140732D01*
X19507D01*
Y139551D01*
G01Y142751D02*
X17145D01*
Y143932D01*
X19507D01*
Y142751D01*
G01X10581Y122307D02*
X13367Y125973D01*
G01X11974Y126640D02*
Y121640D01*
G01X13367Y122307D02*
X10581Y125973D01*
G01X10074Y124140D02*
X13874D01*
G01X22674Y120273D02*
X10474D01*
G01X45341Y57419D02*
Y59719D01*
X47641D01*
Y57419D01*
X45341D01*
G01X52520Y88976D02*
X48780D01*
Y90157D01*
X52520D01*
Y88976D01*
G01Y87008D02*
X48780D01*
Y88189D01*
X52520D01*
Y87008D01*
G01Y85039D02*
X48780D01*
Y86220D01*
X52520D01*
Y85039D01*
G01Y83071D02*
X48780D01*
Y84252D01*
X52520D01*
Y83071D01*
G01Y112598D02*
X48780D01*
Y113779D01*
X52520D01*
Y112598D01*
G01Y110630D02*
X48780D01*
Y111811D01*
X52520D01*
Y110630D01*
G01Y108661D02*
X48780D01*
Y109842D01*
X52520D01*
Y108661D01*
G01Y106693D02*
X48780D01*
Y107874D01*
X52520D01*
Y106693D01*
G01Y104724D02*
X48780D01*
Y105905D01*
X52520D01*
Y104724D01*
G01Y102756D02*
X48780D01*
Y103937D01*
X52520D01*
Y102756D01*
G01Y100787D02*
X48780D01*
Y101968D01*
X52520D01*
Y100787D01*
G01Y98819D02*
X48780D01*
Y100000D01*
X52520D01*
Y98819D01*
G01Y96850D02*
X48780D01*
Y98031D01*
X52520D01*
Y96850D01*
G01Y94882D02*
X48780D01*
Y96063D01*
X52520D01*
Y94882D01*
G01Y92913D02*
X48780D01*
Y94094D01*
X52520D01*
Y92913D01*
G01Y90945D02*
X48780D01*
Y92126D01*
X52520D01*
Y90945D01*
G01X35905Y96244D02*
X33543D01*
Y97425D01*
X35905D01*
Y96244D01*
G01Y99444D02*
X33543D01*
Y100625D01*
X35905D01*
Y99444D01*
G01X26624Y117262D02*
Y118762D01*
G01Y114703D02*
Y116203D01*
G01Y112144D02*
Y113644D01*
G01Y109585D02*
Y111085D01*
G01X70138Y16230D02*
X73878D01*
G01X70138Y23120D02*
Y16230D01*
G01X73878Y23120D02*
X70138D01*
G01X73878Y16230D02*
Y23120D01*
G01X69508Y11230D02*
X74508D01*
G01X72008Y8230D02*
X72508Y11230D01*
G01X72008Y8230D02*
X73008Y11230D01*
G01X72008Y8230D02*
X73508Y11230D01*
G01X72008Y8230D02*
X74008Y11230D01*
G01X72008Y8230D02*
X74508Y11230D01*
G01X72008Y8230D02*
X71508Y11230D01*
G01X72008Y8230D02*
X71008Y11230D01*
G01X72008Y8230D02*
X70508Y11230D01*
G01X72008Y8230D02*
X70008Y11230D01*
G01X72008Y8230D02*
X69508Y11230D01*
G01Y8230D02*
X74508D01*
G01X72008Y12230D02*
Y7230D01*
G01X62381Y17504D02*
X60019D01*
Y18685D01*
X62381D01*
Y17504D01*
G01Y20704D02*
X60019D01*
Y21885D01*
X62381D01*
Y20704D01*
G01X55341Y57419D02*
Y59719D01*
X57641D01*
Y57419D01*
X55341D01*
G01X65341D02*
Y59719D01*
X67641D01*
Y57419D01*
X65341D01*
G01X75341D02*
Y59719D01*
X77641D01*
Y57419D01*
X75341D01*
G01X57835Y75197D02*
X56654D01*
Y78937D01*
X57835D01*
Y75197D01*
G01X59803D02*
X58622D01*
Y78937D01*
X59803D01*
Y75197D01*
G01X61772D02*
X60591D01*
Y78937D01*
X61772D01*
Y75197D01*
G01X63740D02*
X62559D01*
Y78937D01*
X63740D01*
Y75197D01*
G01X65709D02*
X64528D01*
Y78937D01*
X65709D01*
Y75197D01*
G01X67677D02*
X66496D01*
Y78937D01*
X67677D01*
Y75197D01*
G01X69646D02*
X68465D01*
Y78937D01*
X69646D01*
Y75197D01*
G01X71614D02*
X70433D01*
Y78937D01*
X71614D01*
Y75197D01*
G01X73583D02*
X72402D01*
Y78937D01*
X73583D01*
Y75197D01*
G01X75551D02*
X74370D01*
Y78937D01*
X75551D01*
Y75197D01*
G01X77520D02*
X76339D01*
Y78937D01*
X77520D01*
Y75197D01*
G01X79488D02*
X78307D01*
Y78937D01*
X79488D01*
Y75197D01*
G01X81457D02*
X80276D01*
Y78937D01*
X81457D01*
Y75197D01*
G01X83425D02*
X82244D01*
Y78937D01*
X83425D01*
Y75197D01*
G01X85394D02*
X84213D01*
Y78937D01*
X85394D01*
Y75197D01*
G01Y117913D02*
X84213D01*
Y121653D01*
X85394D01*
Y117913D01*
G01X83425D02*
X82244D01*
Y121653D01*
X83425D01*
Y117913D01*
G01X81457D02*
X80276D01*
Y121653D01*
X81457D01*
Y117913D01*
G01X79488D02*
X78307D01*
Y121653D01*
X79488D01*
Y117913D01*
G01X77520D02*
X76339D01*
Y121653D01*
X77520D01*
Y117913D01*
G01X75551D02*
X74370D01*
Y121653D01*
X75551D01*
Y117913D01*
G01X73583D02*
X72402D01*
Y121653D01*
X73583D01*
Y117913D01*
G01X71614D02*
X70433D01*
Y121653D01*
X71614D01*
Y117913D01*
G01X69646D02*
X68465D01*
Y121653D01*
X69646D01*
Y117913D01*
G01X67677D02*
X66496D01*
Y121653D01*
X67677D01*
Y117913D01*
G01X65709D02*
X64528D01*
Y121653D01*
X65709D01*
Y117913D01*
G01X63740D02*
X62559D01*
Y121653D01*
X63740D01*
Y117913D01*
G01X61772D02*
X60591D01*
Y121653D01*
X61772D01*
Y117913D01*
G01X59803D02*
X58622D01*
Y121653D01*
X59803D01*
Y117913D01*
G01X57835D02*
X56654D01*
Y121653D01*
X57835D01*
Y117913D01*
G01X85341Y57419D02*
Y59719D01*
X87641D01*
Y57419D01*
X85341D01*
G01X95341D02*
Y59719D01*
X97641D01*
Y57419D01*
X95341D01*
G01X87362Y75197D02*
X86181D01*
Y78937D01*
X87362D01*
Y75197D01*
G01X95236Y83071D02*
X91496D01*
Y84252D01*
X95236D01*
Y83071D01*
G01Y85039D02*
X91496D01*
Y86220D01*
X95236D01*
Y85039D01*
G01Y87008D02*
X91496D01*
Y88189D01*
X95236D01*
Y87008D01*
G01Y88976D02*
X91496D01*
Y90157D01*
X95236D01*
Y88976D01*
G01X109036Y84858D02*
X111398D01*
Y83677D01*
X109036D01*
Y84858D01*
G01Y81658D02*
X111398D01*
Y80477D01*
X109036D01*
Y81658D01*
G01X110614Y65729D02*
Y68091D01*
X111795D01*
Y65729D01*
X110614D01*
G01X113814D02*
Y68091D01*
X114995D01*
Y65729D01*
X113814D01*
G01X95236Y90945D02*
X91496D01*
Y92126D01*
X95236D01*
Y90945D01*
G01Y92913D02*
X91496D01*
Y94094D01*
X95236D01*
Y92913D01*
G01Y94882D02*
X91496D01*
Y96063D01*
X95236D01*
Y94882D01*
G01Y96850D02*
X91496D01*
Y98031D01*
X95236D01*
Y96850D01*
G01Y98819D02*
X91496D01*
Y100000D01*
X95236D01*
Y98819D01*
G01Y100787D02*
X91496D01*
Y101968D01*
X95236D01*
Y100787D01*
G01Y102756D02*
X91496D01*
Y103937D01*
X95236D01*
Y102756D01*
G01Y104724D02*
X91496D01*
Y105905D01*
X95236D01*
Y104724D01*
G01Y106693D02*
X91496D01*
Y107874D01*
X95236D01*
Y106693D01*
G01Y108661D02*
X91496D01*
Y109842D01*
X95236D01*
Y108661D01*
G01Y110630D02*
X91496D01*
Y111811D01*
X95236D01*
Y110630D01*
G01Y112598D02*
X91496D01*
Y113779D01*
X95236D01*
Y112598D01*
G01X87362Y117913D02*
X86181D01*
Y121653D01*
X87362D01*
Y117913D01*
G01X114976Y95688D02*
Y93326D01*
X113795D01*
Y95688D01*
X114976D01*
G01X111776D02*
Y93326D01*
X110595D01*
Y95688D01*
X111776D01*
G01X224634Y-213157D02*
Y-33157D01*
X1004634D01*
G01X232830Y-155657D02*
Y-150657D01*
X235237D01*
G01X234350Y-153074D02*
X232830D01*
G01X237867Y-155657D02*
Y-150657D01*
X239450D01*
X239957Y-150907D01*
X240274Y-151241D01*
X240400Y-151907D01*
X240274Y-152574D01*
X239894Y-152991D01*
X239450Y-153241D01*
X237867D01*
G01X239450D02*
X240400Y-155657D01*
G01X242650D02*
X244234Y-150657D01*
X245817Y-155657D01*
G01X245247Y-153907D02*
X243220D01*
G01X250727Y-151074D02*
X250347Y-150824D01*
X249904Y-150657D01*
X249397D01*
X248827Y-150907D01*
X248384Y-151324D01*
X248067Y-151824D01*
X247814Y-152657D01*
X247750Y-153407D01*
X247877Y-154157D01*
X248067Y-154657D01*
X248447Y-155157D01*
X248891Y-155491D01*
X249334Y-155657D01*
X249777D01*
X250220Y-155491D01*
X250600Y-155241D01*
X250917Y-154907D01*
G01X254434Y-150657D02*
Y-155657D01*
G01X252977Y-150657D02*
X255891D01*
G01X258774D02*
X260294D01*
G01X259534D02*
Y-155657D01*
G01X258774D02*
X260294D01*
G01X264634D02*
X264127Y-155574D01*
X263684Y-155241D01*
X263304Y-154741D01*
X263050Y-154157D01*
X262924Y-153491D01*
Y-152824D01*
X263050Y-152157D01*
X263304Y-151574D01*
X263684Y-151074D01*
X264127Y-150741D01*
X264634Y-150657D01*
X265141Y-150741D01*
X265584Y-151074D01*
X265964Y-151574D01*
X266217Y-152157D01*
X266344Y-152824D01*
Y-153491D01*
X266217Y-154157D01*
X265964Y-154741D01*
X265584Y-155241D01*
X265141Y-155574D01*
X264634Y-155657D01*
G01X268277D02*
Y-150657D01*
X271191Y-155657D01*
Y-150657D01*
G01X273504Y-154991D02*
X274011Y-155407D01*
X274581Y-155657D01*
X275087D01*
X275594Y-155407D01*
X275974Y-154991D01*
X276164Y-154407D01*
X276037Y-153824D01*
X275720Y-153324D01*
X275150Y-152991D01*
X274391Y-152824D01*
X273947Y-152491D01*
X273757Y-151907D01*
X273884Y-151324D01*
X274200Y-150907D01*
X274644Y-150657D01*
X275087D01*
X275531Y-150824D01*
X275911Y-151241D01*
G01X284337Y-153991D02*
X285857D01*
G01X285034Y-152907D02*
Y-155074D01*
G01X232450Y-140657D02*
X234034Y-135657D01*
X235617Y-140657D01*
G01X235047Y-138907D02*
X233020D01*
G01X237677Y-140657D02*
Y-135657D01*
X240591Y-140657D01*
Y-135657D01*
G01X244614Y-138157D02*
X245881D01*
Y-139657D01*
X245500Y-140157D01*
X245057Y-140491D01*
X244424Y-140657D01*
X243791Y-140491D01*
X243347Y-140157D01*
X242967Y-139657D01*
X242714Y-139074D01*
X242587Y-138407D01*
Y-137824D01*
X242714Y-137324D01*
X242967Y-136741D01*
X243347Y-136241D01*
X243727Y-135907D01*
X244234Y-135657D01*
X244677D01*
X245184Y-135824D01*
X245564Y-136157D01*
G01X248067Y-135657D02*
Y-140657D01*
X250600D01*
G01X255700D02*
X253167D01*
Y-135657D01*
X255700D01*
G01X254687Y-138074D02*
X253167D01*
G01X258204Y-139991D02*
X258711Y-140407D01*
X259281Y-140657D01*
X259787D01*
X260294Y-140407D01*
X260674Y-139991D01*
X260864Y-139407D01*
X260737Y-138824D01*
X260420Y-138324D01*
X259850Y-137991D01*
X259091Y-137824D01*
X258647Y-137491D01*
X258457Y-136907D01*
X258584Y-136324D01*
X258900Y-135907D01*
X259344Y-135657D01*
X259787D01*
X260231Y-135824D01*
X260611Y-136241D01*
G01X269037Y-138991D02*
X270557D01*
G01X269734Y-137907D02*
Y-140074D01*
G01X232641Y-124657D02*
X233020Y-125241D01*
X233527Y-125574D01*
X234097Y-125657D01*
X234604Y-125574D01*
X235111Y-125157D01*
X235427Y-124657D01*
X235491Y-124157D01*
X235364Y-123574D01*
X234920Y-123157D01*
X234477Y-122991D01*
X233907D01*
G01X234477D02*
X234857Y-122741D01*
X235174Y-122324D01*
X235300Y-121824D01*
X235174Y-121324D01*
X234857Y-120907D01*
X234287Y-120657D01*
X233717Y-120741D01*
X233147Y-121074D01*
G01X242967Y-125657D02*
Y-120657D01*
X244487D01*
X244994Y-120907D01*
X245374Y-121491D01*
X245500Y-122157D01*
X245374Y-122824D01*
X245057Y-123324D01*
X244487Y-123574D01*
X242967D01*
G01X248067Y-120657D02*
Y-125657D01*
X250600D01*
G01X258141D02*
Y-120657D01*
X259407D01*
X259914Y-120907D01*
X260294Y-121241D01*
X260611Y-121741D01*
X260864Y-122324D01*
X260927Y-123157D01*
X260864Y-123991D01*
X260611Y-124574D01*
X260294Y-125074D01*
X259914Y-125407D01*
X259407Y-125657D01*
X258141D01*
G01X265900D02*
X263367D01*
Y-120657D01*
X265900D01*
G01X264887Y-123074D02*
X263367D01*
G01X271127Y-121074D02*
X270747Y-120824D01*
X270304Y-120657D01*
X269797D01*
X269227Y-120907D01*
X268784Y-121324D01*
X268467Y-121824D01*
X268214Y-122657D01*
X268150Y-123407D01*
X268277Y-124157D01*
X268467Y-124657D01*
X268847Y-125157D01*
X269291Y-125491D01*
X269734Y-125657D01*
X270177D01*
X270620Y-125491D01*
X271000Y-125241D01*
X271317Y-124907D01*
G01X274074Y-120657D02*
X275594D01*
G01X274834D02*
Y-125657D01*
G01X274074D02*
X275594D01*
G01X278287D02*
Y-120657D01*
X279934Y-124824D01*
X281581Y-120657D01*
Y-125657D01*
G01X283450D02*
X285034Y-120657D01*
X286617Y-125657D01*
G01X286047Y-123907D02*
X284020D01*
G01X288867Y-120657D02*
Y-125657D01*
X291400D01*
G01X293904Y-124991D02*
X294411Y-125407D01*
X294981Y-125657D01*
X295487D01*
X295994Y-125407D01*
X296374Y-124991D01*
X296564Y-124407D01*
X296437Y-123824D01*
X296120Y-123324D01*
X295550Y-122991D01*
X294791Y-122824D01*
X294347Y-122491D01*
X294157Y-121907D01*
X294284Y-121324D01*
X294600Y-120907D01*
X295044Y-120657D01*
X295487D01*
X295931Y-120824D01*
X296311Y-121241D01*
G01X304737Y-123991D02*
X306257D01*
G01X305434Y-122907D02*
Y-125074D01*
G01X232830Y-106491D02*
X233211Y-105991D01*
X233654Y-105741D01*
X234161Y-105657D01*
X234794Y-105824D01*
X235237Y-106241D01*
X235364Y-106741D01*
X235300Y-107241D01*
X235047Y-107657D01*
X233781Y-108491D01*
X233211Y-109074D01*
X232830Y-109907D01*
X232704Y-110657D01*
X235364D01*
G01X242967D02*
Y-105657D01*
X244487D01*
X244994Y-105907D01*
X245374Y-106491D01*
X245500Y-107157D01*
X245374Y-107824D01*
X245057Y-108324D01*
X244487Y-108574D01*
X242967D01*
G01X248067Y-105657D02*
Y-110657D01*
X250600D01*
G01X258141D02*
Y-105657D01*
X259407D01*
X259914Y-105907D01*
X260294Y-106241D01*
X260611Y-106741D01*
X260864Y-107324D01*
X260927Y-108157D01*
X260864Y-108991D01*
X260611Y-109574D01*
X260294Y-110074D01*
X259914Y-110407D01*
X259407Y-110657D01*
X258141D01*
G01X265900D02*
X263367D01*
Y-105657D01*
X265900D01*
G01X264887Y-108074D02*
X263367D01*
G01X271127Y-106074D02*
X270747Y-105824D01*
X270304Y-105657D01*
X269797D01*
X269227Y-105907D01*
X268784Y-106324D01*
X268467Y-106824D01*
X268214Y-107657D01*
X268150Y-108407D01*
X268277Y-109157D01*
X268467Y-109657D01*
X268847Y-110157D01*
X269291Y-110491D01*
X269734Y-110657D01*
X270177D01*
X270620Y-110491D01*
X271000Y-110241D01*
X271317Y-109907D01*
G01X274074Y-105657D02*
X275594D01*
G01X274834D02*
Y-110657D01*
G01X274074D02*
X275594D01*
G01X278287D02*
Y-105657D01*
X279934Y-109824D01*
X281581Y-105657D01*
Y-110657D01*
G01X283450D02*
X285034Y-105657D01*
X286617Y-110657D01*
G01X286047Y-108907D02*
X284020D01*
G01X288867Y-105657D02*
Y-110657D01*
X291400D01*
G01X293904Y-109991D02*
X294411Y-110407D01*
X294981Y-110657D01*
X295487D01*
X295994Y-110407D01*
X296374Y-109991D01*
X296564Y-109407D01*
X296437Y-108824D01*
X296120Y-108324D01*
X295550Y-107991D01*
X294791Y-107824D01*
X294347Y-107491D01*
X294157Y-106907D01*
X294284Y-106324D01*
X294600Y-105907D01*
X295044Y-105657D01*
X295487D01*
X295931Y-105824D01*
X296311Y-106241D01*
G01X304737Y-108991D02*
X306257D01*
G01X305434Y-107907D02*
Y-110074D01*
G01X234034Y-90657D02*
Y-95657D01*
G01X232577Y-90657D02*
X235491D01*
G01X239134Y-95657D02*
X238627Y-95574D01*
X238184Y-95241D01*
X237804Y-94741D01*
X237550Y-94157D01*
X237424Y-93491D01*
Y-92824D01*
X237550Y-92157D01*
X237804Y-91574D01*
X238184Y-91074D01*
X238627Y-90741D01*
X239134Y-90657D01*
X239641Y-90741D01*
X240084Y-91074D01*
X240464Y-91574D01*
X240717Y-92157D01*
X240844Y-92824D01*
Y-93491D01*
X240717Y-94157D01*
X240464Y-94741D01*
X240084Y-95241D01*
X239641Y-95574D01*
X239134Y-95657D01*
G01X242967Y-90657D02*
Y-95657D01*
X245500D01*
G01X250600D02*
X248067D01*
Y-90657D01*
X250600D01*
G01X249587Y-93074D02*
X248067D01*
G01X253167Y-95657D02*
Y-90657D01*
X254750D01*
X255257Y-90907D01*
X255574Y-91241D01*
X255700Y-91907D01*
X255574Y-92574D01*
X255194Y-92991D01*
X254750Y-93241D01*
X253167D01*
G01X254750D02*
X255700Y-95657D01*
G01X257950D02*
X259534Y-90657D01*
X261117Y-95657D01*
G01X260547Y-93907D02*
X258520D01*
G01X263177Y-95657D02*
Y-90657D01*
X266091Y-95657D01*
Y-90657D01*
G01X271127Y-91074D02*
X270747Y-90824D01*
X270304Y-90657D01*
X269797D01*
X269227Y-90907D01*
X268784Y-91324D01*
X268467Y-91824D01*
X268214Y-92657D01*
X268150Y-93407D01*
X268277Y-94157D01*
X268467Y-94657D01*
X268847Y-95157D01*
X269291Y-95491D01*
X269734Y-95657D01*
X270177D01*
X270620Y-95491D01*
X271000Y-95241D01*
X271317Y-94907D01*
G01X276100Y-95657D02*
X273567D01*
Y-90657D01*
X276100D01*
G01X275087Y-93074D02*
X273567D01*
G01X278604Y-94991D02*
X279111Y-95407D01*
X279681Y-95657D01*
X280187D01*
X280694Y-95407D01*
X281074Y-94991D01*
X281264Y-94407D01*
X281137Y-93824D01*
X280820Y-93324D01*
X280250Y-92991D01*
X279491Y-92824D01*
X279047Y-92491D01*
X278857Y-91907D01*
X278984Y-91324D01*
X279300Y-90907D01*
X279744Y-90657D01*
X280187D01*
X280631Y-90824D01*
X281011Y-91241D01*
G01X290134Y-95657D02*
X289627Y-95574D01*
X289184Y-95241D01*
X288804Y-94741D01*
X288550Y-94157D01*
X288424Y-93491D01*
Y-92824D01*
X288550Y-92157D01*
X288804Y-91574D01*
X289184Y-91074D01*
X289627Y-90741D01*
X290134Y-90657D01*
X290641Y-90741D01*
X291084Y-91074D01*
X291464Y-91574D01*
X291717Y-92157D01*
X291844Y-92824D01*
Y-93491D01*
X291717Y-94157D01*
X291464Y-94741D01*
X291084Y-95241D01*
X290641Y-95574D01*
X290134Y-95657D01*
G01X293777D02*
Y-90657D01*
X296691Y-95657D01*
Y-90657D01*
G01X300334Y-95824D02*
X300207Y-95741D01*
Y-95574D01*
X300334Y-95491D01*
X300461Y-95574D01*
Y-95741D01*
X300334Y-95824D01*
G01Y-93574D02*
X300207Y-93491D01*
Y-93324D01*
X300334Y-93241D01*
X300461Y-93324D01*
Y-93491D01*
X300334Y-93574D01*
G01X232641Y-78157D02*
Y-73157D01*
X233907D01*
X234414Y-73407D01*
X234794Y-73741D01*
X235111Y-74241D01*
X235364Y-74824D01*
X235427Y-75657D01*
X235364Y-76491D01*
X235111Y-77074D01*
X234794Y-77574D01*
X234414Y-77907D01*
X233907Y-78157D01*
X232641D01*
G01X238374Y-73157D02*
X239894D01*
G01X239134D02*
Y-78157D01*
G01X238374D02*
X239894D01*
G01X242587D02*
Y-73157D01*
X244234Y-77324D01*
X245881Y-73157D01*
Y-78157D01*
G01X250600D02*
X248067D01*
Y-73157D01*
X250600D01*
G01X249587Y-75574D02*
X248067D01*
G01X252977Y-78157D02*
Y-73157D01*
X255891Y-78157D01*
Y-73157D01*
G01X258204Y-77491D02*
X258711Y-77907D01*
X259281Y-78157D01*
X259787D01*
X260294Y-77907D01*
X260674Y-77491D01*
X260864Y-76907D01*
X260737Y-76324D01*
X260420Y-75824D01*
X259850Y-75491D01*
X259091Y-75324D01*
X258647Y-74991D01*
X258457Y-74407D01*
X258584Y-73824D01*
X258900Y-73407D01*
X259344Y-73157D01*
X259787D01*
X260231Y-73324D01*
X260611Y-73741D01*
G01X263874Y-73157D02*
X265394D01*
G01X264634D02*
Y-78157D01*
G01X263874D02*
X265394D01*
G01X269734D02*
X269227Y-78074D01*
X268784Y-77741D01*
X268404Y-77241D01*
X268150Y-76657D01*
X268024Y-75991D01*
Y-75324D01*
X268150Y-74657D01*
X268404Y-74074D01*
X268784Y-73574D01*
X269227Y-73241D01*
X269734Y-73157D01*
X270241Y-73241D01*
X270684Y-73574D01*
X271064Y-74074D01*
X271317Y-74657D01*
X271444Y-75324D01*
Y-75991D01*
X271317Y-76657D01*
X271064Y-77241D01*
X270684Y-77741D01*
X270241Y-78074D01*
X269734Y-78157D01*
G01X273377D02*
Y-73157D01*
X276291Y-78157D01*
Y-73157D01*
G01X278604Y-77491D02*
X279111Y-77907D01*
X279681Y-78157D01*
X280187D01*
X280694Y-77907D01*
X281074Y-77491D01*
X281264Y-76907D01*
X281137Y-76324D01*
X280820Y-75824D01*
X280250Y-75491D01*
X279491Y-75324D01*
X279047Y-74991D01*
X278857Y-74407D01*
X278984Y-73824D01*
X279300Y-73407D01*
X279744Y-73157D01*
X280187D01*
X280631Y-73324D01*
X281011Y-73741D01*
G01X288550Y-78157D02*
X290134Y-73157D01*
X291717Y-78157D01*
G01X291147Y-76407D02*
X289120D01*
G01X293967Y-78157D02*
Y-73157D01*
X295550D01*
X296057Y-73407D01*
X296374Y-73741D01*
X296500Y-74407D01*
X296374Y-75074D01*
X295994Y-75491D01*
X295550Y-75741D01*
X293967D01*
G01X295550D02*
X296500Y-78157D01*
G01X301600D02*
X299067D01*
Y-73157D01*
X301600D01*
G01X300587Y-75574D02*
X299067D01*
G01X309774Y-73157D02*
X311294D01*
G01X310534D02*
Y-78157D01*
G01X309774D02*
X311294D01*
G01X314177D02*
Y-73157D01*
X317091Y-78157D01*
Y-73157D01*
G01X325074D02*
X326594D01*
G01X325834D02*
Y-78157D01*
G01X325074D02*
X326594D01*
G01X329477D02*
Y-73157D01*
X332391Y-78157D01*
Y-73157D01*
G01X337427Y-73574D02*
X337047Y-73324D01*
X336604Y-73157D01*
X336097D01*
X335527Y-73407D01*
X335084Y-73824D01*
X334767Y-74324D01*
X334514Y-75157D01*
X334450Y-75907D01*
X334577Y-76657D01*
X334767Y-77157D01*
X335147Y-77657D01*
X335591Y-77991D01*
X336034Y-78157D01*
X336477D01*
X336920Y-77991D01*
X337300Y-77741D01*
X337617Y-77407D01*
G01X339804Y-78157D02*
Y-73157D01*
G01X342464D02*
Y-78157D01*
G01Y-75657D02*
X339804D01*
G01X347500Y-78157D02*
X344967D01*
Y-73157D01*
X347500D01*
G01X346487Y-75574D02*
X344967D01*
G01X350004Y-77491D02*
X350511Y-77907D01*
X351081Y-78157D01*
X351587D01*
X352094Y-77907D01*
X352474Y-77491D01*
X352664Y-76907D01*
X352537Y-76324D01*
X352220Y-75824D01*
X351650Y-75491D01*
X350891Y-75324D01*
X350447Y-74991D01*
X350257Y-74407D01*
X350384Y-73824D01*
X350700Y-73407D01*
X351144Y-73157D01*
X351587D01*
X352031Y-73324D01*
X352411Y-73741D01*
G01X224634Y-63157D02*
X584634D01*
G01X232641Y-45657D02*
Y-49241D01*
X232894Y-49991D01*
X233400Y-50491D01*
X234034Y-50657D01*
X234667Y-50491D01*
X235174Y-49991D01*
X235427Y-49241D01*
Y-45657D01*
G01X237677Y-50657D02*
Y-45657D01*
X240591Y-50657D01*
Y-45657D01*
G01X242967D02*
Y-50657D01*
X245500D01*
G01X250600D02*
X248067D01*
Y-45657D01*
X250600D01*
G01X249587Y-48074D02*
X248067D01*
G01X253104Y-49991D02*
X253611Y-50407D01*
X254181Y-50657D01*
X254687D01*
X255194Y-50407D01*
X255574Y-49991D01*
X255764Y-49407D01*
X255637Y-48824D01*
X255320Y-48324D01*
X254750Y-47991D01*
X253991Y-47824D01*
X253547Y-47491D01*
X253357Y-46907D01*
X253484Y-46324D01*
X253800Y-45907D01*
X254244Y-45657D01*
X254687D01*
X255131Y-45824D01*
X255511Y-46241D01*
G01X258204Y-49991D02*
X258711Y-50407D01*
X259281Y-50657D01*
X259787D01*
X260294Y-50407D01*
X260674Y-49991D01*
X260864Y-49407D01*
X260737Y-48824D01*
X260420Y-48324D01*
X259850Y-47991D01*
X259091Y-47824D01*
X258647Y-47491D01*
X258457Y-46907D01*
X258584Y-46324D01*
X258900Y-45907D01*
X259344Y-45657D01*
X259787D01*
X260231Y-45824D01*
X260611Y-46241D01*
G01X269734Y-50657D02*
X269227Y-50574D01*
X268784Y-50241D01*
X268404Y-49741D01*
X268150Y-49157D01*
X268024Y-48491D01*
Y-47824D01*
X268150Y-47157D01*
X268404Y-46574D01*
X268784Y-46074D01*
X269227Y-45741D01*
X269734Y-45657D01*
X270241Y-45741D01*
X270684Y-46074D01*
X271064Y-46574D01*
X271317Y-47157D01*
X271444Y-47824D01*
Y-48491D01*
X271317Y-49157D01*
X271064Y-49741D01*
X270684Y-50241D01*
X270241Y-50574D01*
X269734Y-50657D01*
G01X274834Y-45657D02*
Y-50657D01*
G01X273377Y-45657D02*
X276291D01*
G01X278604Y-50657D02*
Y-45657D01*
G01X281264D02*
Y-50657D01*
G01Y-48157D02*
X278604D01*
G01X286300Y-50657D02*
X283767D01*
Y-45657D01*
X286300D01*
G01X285287Y-48074D02*
X283767D01*
G01X288867Y-50657D02*
Y-45657D01*
X290450D01*
X290957Y-45907D01*
X291274Y-46241D01*
X291400Y-46907D01*
X291274Y-47574D01*
X290894Y-47991D01*
X290450Y-48241D01*
X288867D01*
G01X290450D02*
X291400Y-50657D01*
G01X293334Y-45657D02*
X294220Y-50657D01*
X295234Y-45657D01*
X296247Y-50657D01*
X297134Y-45657D01*
G01X299574D02*
X301094D01*
G01X300334D02*
Y-50657D01*
G01X299574D02*
X301094D01*
G01X304104Y-49991D02*
X304611Y-50407D01*
X305181Y-50657D01*
X305687D01*
X306194Y-50407D01*
X306574Y-49991D01*
X306764Y-49407D01*
X306637Y-48824D01*
X306320Y-48324D01*
X305750Y-47991D01*
X304991Y-47824D01*
X304547Y-47491D01*
X304357Y-46907D01*
X304484Y-46324D01*
X304800Y-45907D01*
X305244Y-45657D01*
X305687D01*
X306131Y-45824D01*
X306511Y-46241D01*
G01X311800Y-50657D02*
X309267D01*
Y-45657D01*
X311800D01*
G01X310787Y-48074D02*
X309267D01*
G01X319404Y-49991D02*
X319911Y-50407D01*
X320481Y-50657D01*
X320987D01*
X321494Y-50407D01*
X321874Y-49991D01*
X322064Y-49407D01*
X321937Y-48824D01*
X321620Y-48324D01*
X321050Y-47991D01*
X320291Y-47824D01*
X319847Y-47491D01*
X319657Y-46907D01*
X319784Y-46324D01*
X320100Y-45907D01*
X320544Y-45657D01*
X320987D01*
X321431Y-45824D01*
X321811Y-46241D01*
G01X324567Y-50657D02*
Y-45657D01*
X326087D01*
X326594Y-45907D01*
X326974Y-46491D01*
X327100Y-47157D01*
X326974Y-47824D01*
X326657Y-48324D01*
X326087Y-48574D01*
X324567D01*
G01X332200Y-50657D02*
X329667D01*
Y-45657D01*
X332200D01*
G01X331187Y-48074D02*
X329667D01*
G01X337427Y-46074D02*
X337047Y-45824D01*
X336604Y-45657D01*
X336097D01*
X335527Y-45907D01*
X335084Y-46324D01*
X334767Y-46824D01*
X334514Y-47657D01*
X334450Y-48407D01*
X334577Y-49157D01*
X334767Y-49657D01*
X335147Y-50157D01*
X335591Y-50491D01*
X336034Y-50657D01*
X336477D01*
X336920Y-50491D01*
X337300Y-50241D01*
X337617Y-49907D01*
G01X340374Y-45657D02*
X341894D01*
G01X341134D02*
Y-50657D01*
G01X340374D02*
X341894D01*
G01X345030D02*
Y-45657D01*
X347437D01*
G01X346550Y-48074D02*
X345030D01*
G01X350574Y-45657D02*
X352094D01*
G01X351334D02*
Y-50657D01*
G01X350574D02*
X352094D01*
G01X357700D02*
X355167D01*
Y-45657D01*
X357700D01*
G01X356687Y-48074D02*
X355167D01*
G01X360141Y-50657D02*
Y-45657D01*
X361407D01*
X361914Y-45907D01*
X362294Y-46241D01*
X362611Y-46741D01*
X362864Y-47324D01*
X362927Y-48157D01*
X362864Y-48991D01*
X362611Y-49574D01*
X362294Y-50074D01*
X361914Y-50407D01*
X361407Y-50657D01*
X360141D01*
G01X374634Y-33157D02*
Y-213157D01*
G01Y-178157D02*
X584634D01*
G01X374634Y-153157D02*
X584634D01*
G01X374634Y-123157D02*
X584634D01*
G01X374634Y-93157D02*
X584634D01*
G01X417839Y-49818D02*
X418465Y-50343D01*
X419170Y-50657D01*
X419797D01*
X420424Y-50343D01*
X420894Y-49818D01*
X421129Y-49082D01*
X420972Y-48348D01*
X420580Y-47718D01*
X419876Y-47297D01*
X418935Y-47087D01*
X418387Y-46668D01*
X418152Y-45933D01*
X418309Y-45198D01*
X418700Y-44672D01*
X419249Y-44357D01*
X419797D01*
X420346Y-44567D01*
X420816Y-45093D01*
G01X424844Y-44357D02*
X426724D01*
G01X425784D02*
Y-50657D01*
G01X424844D02*
X426724D01*
G01X432554Y-47507D02*
X434120D01*
Y-49398D01*
X433650Y-50028D01*
X433102Y-50448D01*
X432319Y-50657D01*
X431535Y-50448D01*
X430987Y-50028D01*
X430517Y-49398D01*
X430204Y-48663D01*
X430047Y-47822D01*
Y-47087D01*
X430204Y-46457D01*
X430517Y-45722D01*
X430987Y-45093D01*
X431457Y-44672D01*
X432084Y-44357D01*
X432632D01*
X433259Y-44567D01*
X433729Y-44987D01*
G01X436582Y-50657D02*
Y-44357D01*
X440185Y-50657D01*
Y-44357D01*
G01X442726Y-50657D02*
X444684Y-44357D01*
X446642Y-50657D01*
G01X445937Y-48453D02*
X443430D01*
G01X450984Y-44357D02*
Y-50657D01*
G01X449182Y-44357D02*
X452785D01*
G01X455561D02*
Y-48872D01*
X455874Y-49818D01*
X456500Y-50448D01*
X457284Y-50657D01*
X458067Y-50448D01*
X458694Y-49818D01*
X459007Y-48872D01*
Y-44357D01*
G01X462017Y-50657D02*
Y-44357D01*
X463976D01*
X464602Y-44672D01*
X464994Y-45093D01*
X465150Y-45933D01*
X464994Y-46772D01*
X464524Y-47297D01*
X463976Y-47613D01*
X462017D01*
G01X463976D02*
X465150Y-50657D01*
G01X471450D02*
X468317D01*
Y-44357D01*
X471450D01*
G01X470197Y-47402D02*
X468317D01*
G01X474539Y-49818D02*
X475165Y-50343D01*
X475870Y-50657D01*
X476497D01*
X477124Y-50343D01*
X477594Y-49818D01*
X477829Y-49082D01*
X477672Y-48348D01*
X477280Y-47718D01*
X476576Y-47297D01*
X475635Y-47087D01*
X475087Y-46668D01*
X474852Y-45933D01*
X475009Y-45198D01*
X475400Y-44672D01*
X475949Y-44357D01*
X476497D01*
X477046Y-44567D01*
X477516Y-45093D01*
G01X504634Y-150657D02*
Y-153157D01*
G01Y-150657D02*
Y-33157D01*
G01Y494343D02*
Y464343D01*
G01Y584343D02*
Y494343D01*
G01Y524343D02*
X1004634D01*
G01X504634Y554343D02*
X1004634D01*
G01X530261Y-50657D02*
Y-44357D01*
X531827D01*
X532454Y-44672D01*
X532924Y-45093D01*
X533316Y-45722D01*
X533629Y-46457D01*
X533707Y-47507D01*
X533629Y-48557D01*
X533316Y-49293D01*
X532924Y-49922D01*
X532454Y-50343D01*
X531827Y-50657D01*
X530261D01*
G01X536326D02*
X538284Y-44357D01*
X540242Y-50657D01*
G01X539537Y-48453D02*
X537030D01*
G01X544584Y-44357D02*
Y-50657D01*
G01X542782Y-44357D02*
X546385D01*
G01X552450Y-50657D02*
X549317D01*
Y-44357D01*
X552450D01*
G01X551197Y-47402D02*
X549317D01*
G01X510884Y534343D02*
Y544343D01*
X514009D01*
X515009Y543842D01*
X515634Y543176D01*
X515884Y541843D01*
X515634Y540509D01*
X514884Y539676D01*
X514009Y539176D01*
X510884D01*
G01X514009D02*
X515884Y534343D01*
G01X525884D02*
X520884D01*
Y544343D01*
X525884D01*
G01X523884Y539509D02*
X520884D01*
G01X530259Y544343D02*
X533384Y534343D01*
X536509Y544343D01*
G01X544634Y494343D02*
Y464343D01*
G01Y494343D02*
Y554343D01*
G01X584634Y-33157D02*
Y-213157D01*
G01X590759Y-196824D02*
X591759Y-197657D01*
X592884Y-198157D01*
X593884D01*
X594884Y-197657D01*
X595634Y-196824D01*
X596009Y-195657D01*
X595759Y-194491D01*
X595134Y-193491D01*
X594009Y-192824D01*
X592509Y-192491D01*
X591634Y-191824D01*
X591259Y-190657D01*
X591509Y-189491D01*
X592134Y-188658D01*
X593009Y-188157D01*
X593884D01*
X594759Y-188491D01*
X595509Y-189324D01*
G01X606134Y-188991D02*
X605384Y-188491D01*
X604509Y-188157D01*
X603509D01*
X602384Y-188658D01*
X601509Y-189491D01*
X600884Y-190491D01*
X600384Y-192157D01*
X600259Y-193657D01*
X600509Y-195157D01*
X600884Y-196157D01*
X601634Y-197158D01*
X602509Y-197824D01*
X603384Y-198157D01*
X604259D01*
X605134Y-197824D01*
X605884Y-197324D01*
X606509Y-196658D01*
G01X610259Y-198157D02*
X613384Y-188157D01*
X616509Y-198157D01*
G01X615384Y-194657D02*
X611384D01*
G01X620884Y-188157D02*
Y-198157D01*
X625884D01*
G01X635884D02*
X630884D01*
Y-188157D01*
X635884D01*
G01X633884Y-192991D02*
X630884D01*
G01X834634Y-183157D02*
X584634D01*
G01X590759Y-156824D02*
X591759Y-157657D01*
X592884Y-158157D01*
X593884D01*
X594884Y-157657D01*
X595634Y-156824D01*
X596009Y-155657D01*
X595759Y-154491D01*
X595134Y-153491D01*
X594009Y-152824D01*
X592509Y-152491D01*
X591634Y-151824D01*
X591259Y-150657D01*
X591509Y-149491D01*
X592134Y-148658D01*
X593009Y-148157D01*
X593884D01*
X594759Y-148491D01*
X595509Y-149324D01*
G01X601884Y-148157D02*
X604883D01*
G01X603384D02*
Y-158157D01*
G01X601884D02*
X604883D01*
G01X611009Y-148157D02*
X615759D01*
X611009Y-158157D01*
X615759D01*
G01X625884D02*
X620884D01*
Y-148157D01*
X625884D01*
G01X623884Y-152991D02*
X620884D01*
G01X1004634Y-143157D02*
X584634D01*
G01X1004634Y-83157D02*
X584634D01*
G01X615634Y534343D02*
Y544343D01*
X618134D01*
X619134Y543842D01*
X619884Y543176D01*
X620509Y542176D01*
X621009Y541009D01*
X621134Y539343D01*
X621009Y537676D01*
X620509Y536509D01*
X619884Y535509D01*
X619134Y534843D01*
X618134Y534343D01*
X615634D01*
G01X630884D02*
X625884D01*
Y544343D01*
X630884D01*
G01X628884Y539509D02*
X625884D01*
G01X635759Y535676D02*
X636759Y534843D01*
X637884Y534343D01*
X638884D01*
X639884Y534843D01*
X640634Y535676D01*
X641009Y536843D01*
X640759Y538009D01*
X640134Y539009D01*
X639009Y539676D01*
X637509Y540009D01*
X636634Y540676D01*
X636259Y541843D01*
X636509Y543009D01*
X637134Y543842D01*
X638009Y544343D01*
X638884D01*
X639759Y544009D01*
X640509Y543176D01*
G01X651134Y543509D02*
X650384Y544009D01*
X649509Y544343D01*
X648509D01*
X647384Y543842D01*
X646509Y543009D01*
X645884Y542009D01*
X645384Y540343D01*
X645259Y538843D01*
X645509Y537343D01*
X645884Y536343D01*
X646634Y535342D01*
X647509Y534676D01*
X648384Y534343D01*
X649259D01*
X650134Y534676D01*
X650884Y535176D01*
X651509Y535842D01*
G01X655884Y534343D02*
Y544343D01*
X659009D01*
X660009Y543842D01*
X660634Y543176D01*
X660884Y541843D01*
X660634Y540509D01*
X659884Y539676D01*
X659009Y539176D01*
X655884D01*
G01X659009D02*
X660884Y534343D01*
G01X666884Y544343D02*
X669883D01*
G01X668384D02*
Y534343D01*
G01X666884D02*
X669883D01*
G01X675884D02*
Y544343D01*
X678884D01*
X679884Y543842D01*
X680634Y542676D01*
X680884Y541343D01*
X680634Y540009D01*
X680009Y539009D01*
X678884Y538509D01*
X675884D01*
G01X688384Y544343D02*
Y534343D01*
G01X685509Y544343D02*
X691259D01*
G01X696884D02*
X699883D01*
G01X698384D02*
Y534343D01*
G01X696884D02*
X699883D01*
G01X708384D02*
X707384Y534509D01*
X706509Y535176D01*
X705759Y536176D01*
X705259Y537343D01*
X705009Y538676D01*
Y540009D01*
X705259Y541343D01*
X705759Y542509D01*
X706509Y543509D01*
X707384Y544176D01*
X708384Y544343D01*
X709384Y544176D01*
X710259Y543509D01*
X711009Y542509D01*
X711509Y541343D01*
X711759Y540009D01*
Y538676D01*
X711509Y537343D01*
X711009Y536176D01*
X710259Y535176D01*
X709384Y534509D01*
X708384Y534343D01*
G01X715509D02*
Y544343D01*
X721259Y534343D01*
Y544343D01*
G01X634634Y-183157D02*
Y-143157D01*
G01X646009Y-158157D02*
Y-148157D01*
X650759D01*
G01X649009Y-152991D02*
X646009D01*
G01X655759Y-156824D02*
X656759Y-157657D01*
X657884Y-158157D01*
X658884D01*
X659884Y-157657D01*
X660634Y-156824D01*
X661009Y-155657D01*
X660759Y-154491D01*
X660134Y-153491D01*
X659009Y-152824D01*
X657509Y-152491D01*
X656634Y-151824D01*
X656259Y-150657D01*
X656509Y-149491D01*
X657134Y-148658D01*
X658009Y-148157D01*
X658884D01*
X659759Y-148491D01*
X660509Y-149324D01*
G01X671134Y-148991D02*
X670384Y-148491D01*
X669509Y-148157D01*
X668509D01*
X667384Y-148658D01*
X666509Y-149491D01*
X665884Y-150491D01*
X665384Y-152157D01*
X665259Y-153657D01*
X665509Y-155157D01*
X665884Y-156157D01*
X666634Y-157158D01*
X667509Y-157824D01*
X668384Y-158157D01*
X669259D01*
X670134Y-157824D01*
X670884Y-157324D01*
X671509Y-156658D01*
G01X675134Y-158157D02*
Y-148157D01*
X678384Y-156491D01*
X681634Y-148157D01*
Y-158157D01*
G01X695509D02*
Y-148157D01*
X701259Y-158157D01*
Y-148157D01*
G01X708384Y-158157D02*
X707384Y-157991D01*
X706509Y-157324D01*
X705759Y-156324D01*
X705259Y-155157D01*
X705009Y-153824D01*
Y-152491D01*
X705259Y-151157D01*
X705759Y-149991D01*
X706509Y-148991D01*
X707384Y-148324D01*
X708384Y-148157D01*
X709384Y-148324D01*
X710259Y-148991D01*
X711009Y-149991D01*
X711509Y-151157D01*
X711759Y-152491D01*
Y-153824D01*
X711509Y-155157D01*
X711009Y-156324D01*
X710259Y-157324D01*
X709384Y-157991D01*
X708384Y-158157D01*
G01X660884Y-63157D02*
X655884D01*
Y-53157D01*
X660884D01*
G01X658884Y-57991D02*
X655884D01*
G01X665134Y-63157D02*
Y-53157D01*
X668384Y-61491D01*
X671634Y-53157D01*
Y-63157D01*
G01X675259D02*
X678384Y-53157D01*
X681509Y-63157D01*
G01X680384Y-59657D02*
X676384D01*
G01X695634Y-63157D02*
Y-53157D01*
X698134D01*
X699134Y-53658D01*
X699884Y-54324D01*
X700509Y-55324D01*
X701009Y-56491D01*
X701134Y-58157D01*
X701009Y-59824D01*
X700509Y-60991D01*
X699884Y-61991D01*
X699134Y-62657D01*
X698134Y-63157D01*
X695634D01*
G01X710884D02*
X705884D01*
Y-53157D01*
X710884D01*
G01X708884Y-57991D02*
X705884D01*
G01X715759Y-61824D02*
X716759Y-62657D01*
X717884Y-63157D01*
X718884D01*
X719884Y-62657D01*
X720634Y-61824D01*
X721009Y-60657D01*
X720759Y-59491D01*
X720134Y-58491D01*
X719009Y-57824D01*
X717509Y-57491D01*
X716634Y-56824D01*
X716259Y-55657D01*
X716509Y-54491D01*
X717134Y-53658D01*
X718009Y-53157D01*
X718884D01*
X719759Y-53491D01*
X720509Y-54324D01*
G01X726884Y-53157D02*
X729883D01*
G01X728384D02*
Y-63157D01*
G01X726884D02*
X729883D01*
G01X739134Y-58157D02*
X741634D01*
Y-61157D01*
X740884Y-62158D01*
X740009Y-62824D01*
X738759Y-63157D01*
X737509Y-62824D01*
X736634Y-62158D01*
X735884Y-61157D01*
X735384Y-59991D01*
X735134Y-58657D01*
Y-57491D01*
X735384Y-56491D01*
X735884Y-55324D01*
X736634Y-54324D01*
X737384Y-53658D01*
X738384Y-53157D01*
X739259D01*
X740259Y-53491D01*
X741009Y-54157D01*
G01X745509Y-63157D02*
Y-53157D01*
X751259Y-63157D01*
Y-53157D01*
G01X765259Y-63157D02*
X768384Y-53157D01*
X771509Y-63157D01*
G01X770384Y-59657D02*
X766384D01*
G01X775634Y-53157D02*
Y-60324D01*
X776134Y-61824D01*
X777134Y-62824D01*
X778384Y-63157D01*
X779634Y-62824D01*
X780634Y-61824D01*
X781134Y-60324D01*
Y-53157D01*
G01X788384D02*
Y-63157D01*
G01X785509Y-53157D02*
X791259D01*
G01X798384Y-63157D02*
X797384Y-62991D01*
X796509Y-62324D01*
X795759Y-61324D01*
X795259Y-60157D01*
X795009Y-58824D01*
Y-57491D01*
X795259Y-56157D01*
X795759Y-54991D01*
X796509Y-53991D01*
X797384Y-53324D01*
X798384Y-53157D01*
X799384Y-53324D01*
X800259Y-53991D01*
X801009Y-54991D01*
X801509Y-56157D01*
X801759Y-57491D01*
Y-58824D01*
X801509Y-60157D01*
X801009Y-61324D01*
X800259Y-62324D01*
X799384Y-62991D01*
X798384Y-63157D01*
G01X805134D02*
Y-53157D01*
X808384Y-61491D01*
X811634Y-53157D01*
Y-63157D01*
G01X815259D02*
X818384Y-53157D01*
X821509Y-63157D01*
G01X820384Y-59657D02*
X816384D01*
G01X828384Y-53157D02*
Y-63157D01*
G01X825509Y-53157D02*
X831259D01*
G01X836884D02*
X839883D01*
G01X838384D02*
Y-63157D01*
G01X836884D02*
X839883D01*
G01X848384D02*
X847384Y-62991D01*
X846509Y-62324D01*
X845759Y-61324D01*
X845259Y-60157D01*
X845009Y-58824D01*
Y-57491D01*
X845259Y-56157D01*
X845759Y-54991D01*
X846509Y-53991D01*
X847384Y-53324D01*
X848384Y-53157D01*
X849384Y-53324D01*
X850259Y-53991D01*
X851009Y-54991D01*
X851509Y-56157D01*
X851759Y-57491D01*
Y-58824D01*
X851509Y-60157D01*
X851009Y-61324D01*
X850259Y-62324D01*
X849384Y-62991D01*
X848384Y-63157D01*
G01X855509D02*
Y-53157D01*
X861259Y-63157D01*
Y-53157D01*
G01X674634Y-183157D02*
Y-213157D01*
G01X720884Y564343D02*
Y574343D01*
X724009D01*
X725009Y573842D01*
X725634Y573176D01*
X725884Y571843D01*
X725634Y570509D01*
X724884Y569676D01*
X724009Y569176D01*
X720884D01*
G01X724009D02*
X725884Y564343D01*
G01X735884D02*
X730884D01*
Y574343D01*
X735884D01*
G01X733884Y569509D02*
X730884D01*
G01X740259Y574343D02*
X743384Y564343D01*
X746509Y574343D01*
G01X751884D02*
X754883D01*
G01X753384D02*
Y564343D01*
G01X751884D02*
X754883D01*
G01X760759Y565676D02*
X761759Y564843D01*
X762884Y564343D01*
X763884D01*
X764884Y564843D01*
X765634Y565676D01*
X766009Y566843D01*
X765759Y568009D01*
X765134Y569009D01*
X764009Y569676D01*
X762509Y570009D01*
X761634Y570676D01*
X761259Y571843D01*
X761509Y573009D01*
X762134Y573842D01*
X763009Y574343D01*
X763884D01*
X764759Y574009D01*
X765509Y573176D01*
G01X771884Y574343D02*
X774883D01*
G01X773384D02*
Y564343D01*
G01X771884D02*
X774883D01*
G01X783384D02*
X782384Y564509D01*
X781509Y565176D01*
X780759Y566176D01*
X780259Y567343D01*
X780009Y568676D01*
Y570009D01*
X780259Y571343D01*
X780759Y572509D01*
X781509Y573509D01*
X782384Y574176D01*
X783384Y574343D01*
X784384Y574176D01*
X785259Y573509D01*
X786009Y572509D01*
X786509Y571343D01*
X786759Y570009D01*
Y568676D01*
X786509Y567343D01*
X786009Y566176D01*
X785259Y565176D01*
X784384Y564509D01*
X783384Y564343D01*
G01X790509D02*
Y574343D01*
X796259Y564343D01*
Y574343D01*
G01X800759Y565676D02*
X801759Y564843D01*
X802884Y564343D01*
X803884D01*
X804884Y564843D01*
X805634Y565676D01*
X806009Y566843D01*
X805759Y568009D01*
X805134Y569009D01*
X804009Y569676D01*
X802509Y570009D01*
X801634Y570676D01*
X801259Y571843D01*
X801509Y573009D01*
X802134Y573842D01*
X803009Y574343D01*
X803884D01*
X804759Y574009D01*
X805509Y573176D01*
G01X754634Y-183157D02*
Y-143157D01*
G01X765634Y-158157D02*
Y-148157D01*
X768134D01*
X769134Y-148658D01*
X769884Y-149324D01*
X770509Y-150324D01*
X771009Y-151491D01*
X771134Y-153157D01*
X771009Y-154824D01*
X770509Y-155991D01*
X769884Y-156991D01*
X769134Y-157657D01*
X768134Y-158157D01*
X765634D01*
G01X774634Y-148157D02*
X776384Y-158157D01*
X778384Y-148157D01*
X780384Y-158157D01*
X782134Y-148157D01*
G01X789134Y-153157D02*
X791634D01*
Y-156157D01*
X790884Y-157158D01*
X790009Y-157824D01*
X788759Y-158157D01*
X787509Y-157824D01*
X786634Y-157158D01*
X785884Y-156157D01*
X785384Y-154991D01*
X785134Y-153657D01*
Y-152491D01*
X785384Y-151491D01*
X785884Y-150324D01*
X786634Y-149324D01*
X787384Y-148658D01*
X788384Y-148157D01*
X789259D01*
X790259Y-148491D01*
X791009Y-149157D01*
G01X805509Y-158157D02*
Y-148157D01*
X811259Y-158157D01*
Y-148157D01*
G01X818384Y-158157D02*
X817384Y-157991D01*
X816509Y-157324D01*
X815759Y-156324D01*
X815259Y-155157D01*
X815009Y-153824D01*
Y-152491D01*
X815259Y-151157D01*
X815759Y-149991D01*
X816509Y-148991D01*
X817384Y-148324D01*
X818384Y-148157D01*
X819384Y-148324D01*
X820259Y-148991D01*
X821009Y-149991D01*
X821509Y-151157D01*
X821759Y-152491D01*
Y-153824D01*
X821509Y-155157D01*
X821009Y-156324D01*
X820259Y-157324D01*
X819384Y-157991D01*
X818384Y-158157D01*
G01X834634Y-213157D02*
Y-183157D01*
X1004634D01*
G01X814634Y494343D02*
Y464343D01*
G01Y484343D02*
Y524343D01*
G01D02*
Y554343D01*
G01X845759Y-196824D02*
X846759Y-197657D01*
X847884Y-198157D01*
X848884D01*
X849884Y-197657D01*
X850634Y-196824D01*
X851009Y-195657D01*
X850759Y-194491D01*
X850134Y-193491D01*
X849009Y-192824D01*
X847509Y-192491D01*
X846634Y-191824D01*
X846259Y-190657D01*
X846509Y-189491D01*
X847134Y-188658D01*
X848009Y-188157D01*
X848884D01*
X849759Y-188491D01*
X850509Y-189324D01*
G01X855759Y-198157D02*
Y-188157D01*
G01X861009D02*
Y-198157D01*
G01Y-193157D02*
X855759D01*
G01X870884Y-198157D02*
X865884D01*
Y-188157D01*
X870884D01*
G01X868884Y-192991D02*
X865884D01*
G01X880884Y-198157D02*
X875884D01*
Y-188157D01*
X880884D01*
G01X878884Y-192991D02*
X875884D01*
G01X888384Y-188157D02*
Y-198157D01*
G01X885509Y-188157D02*
X891259D01*
G01X840634Y534343D02*
Y544343D01*
X843134D01*
X844134Y543842D01*
X844884Y543176D01*
X845509Y542176D01*
X846009Y541009D01*
X846134Y539343D01*
X846009Y537676D01*
X845509Y536509D01*
X844884Y535509D01*
X844134Y534843D01*
X843134Y534343D01*
X840634D01*
G01X850259D02*
X853384Y544343D01*
X856509Y534343D01*
G01X855384Y537843D02*
X851384D01*
G01X863384Y544343D02*
Y534343D01*
G01X860509Y544343D02*
X866259D01*
G01X875884Y534343D02*
X870884D01*
Y544343D01*
X875884D01*
G01X873884Y539509D02*
X870884D01*
G01X904634Y494343D02*
Y464343D01*
G01Y494343D02*
Y524343D01*
G01X915259Y534343D02*
X918384Y544343D01*
X921509Y534343D01*
G01X920384Y537843D02*
X916384D01*
G01X925884Y534343D02*
Y544343D01*
X928884D01*
X929884Y543842D01*
X930634Y542676D01*
X930884Y541343D01*
X930634Y540009D01*
X930009Y539009D01*
X928884Y538509D01*
X925884D01*
G01X935884Y534343D02*
Y544343D01*
X938884D01*
X939884Y543842D01*
X940634Y542676D01*
X940884Y541343D01*
X940634Y540009D01*
X940009Y539009D01*
X938884Y538509D01*
X935884D01*
G01X945884Y534343D02*
Y544343D01*
X949009D01*
X950009Y543842D01*
X950634Y543176D01*
X950884Y541843D01*
X950634Y540509D01*
X949884Y539676D01*
X949009Y539176D01*
X945884D01*
G01X949009D02*
X950884Y534343D01*
G01X958384D02*
X957384Y534509D01*
X956509Y535176D01*
X955759Y536176D01*
X955259Y537343D01*
X955009Y538676D01*
Y540009D01*
X955259Y541343D01*
X955759Y542509D01*
X956509Y543509D01*
X957384Y544176D01*
X958384Y544343D01*
X959384Y544176D01*
X960259Y543509D01*
X961009Y542509D01*
X961509Y541343D01*
X961759Y540009D01*
Y538676D01*
X961509Y537343D01*
X961009Y536176D01*
X960259Y535176D01*
X959384Y534509D01*
X958384Y534343D01*
G01X965259Y544343D02*
X968384Y534343D01*
X971509Y544343D01*
G01X980884Y534343D02*
X975884D01*
Y544343D01*
X980884D01*
G01X978884Y539509D02*
X975884D01*
G01X985634Y534343D02*
Y544343D01*
X988134D01*
X989134Y543842D01*
X989884Y543176D01*
X990509Y542176D01*
X991009Y541009D01*
X991134Y539343D01*
X991009Y537676D01*
X990509Y536509D01*
X989884Y535509D01*
X989134Y534843D01*
X988134Y534343D01*
X985634D01*
G01X904634Y524343D02*
Y554343D01*
G01X1004634Y584343D02*
Y464343D01*
G54D17*
X39961Y144291D03*
X54528Y135236D03*
X39961D03*
X54528Y144291D03*
G54D27*
G01X12224Y83559D02*
X14154D01*
G01Y81795D02*
X12224D01*
G01Y71748D02*
X14154D01*
G01Y69984D02*
X12224D01*
G01X19272Y93606D02*
X17343D01*
G01Y95370D02*
X19272D01*
G01X6992Y140768D02*
Y142697D01*
G01X8756D02*
Y140768D01*
G01X17425D02*
Y142697D01*
G01X19189D02*
Y140768D01*
G01X33823Y97461D02*
Y99390D01*
G01X35587D02*
Y97461D01*
G01X60299Y18720D02*
Y20650D01*
G01X62063D02*
Y18720D01*
G01X111118Y83642D02*
Y81713D01*
G01X109354D02*
Y83642D01*
G01X111831Y67811D02*
X113760D01*
G01Y66047D02*
X111831D01*
G01X113760Y93606D02*
X111831D01*
G01Y95370D02*
X113760D01*
G54D18*
X72008Y22244D03*
Y17106D03*
G54D19*
X84803Y76378D03*
X82835D03*
X80866D03*
X78898D03*
X76929D03*
X74961D03*
X72992D03*
X71024D03*
X69055D03*
X67087D03*
X65118D03*
X63150D03*
X61181D03*
X59213D03*
X57244D03*
Y120472D03*
X59213D03*
X61181D03*
X63150D03*
X65118D03*
X67087D03*
X69055D03*
X71024D03*
X72992D03*
X74961D03*
X76929D03*
X78898D03*
X80866D03*
X82835D03*
X84803D03*
X86772Y76378D03*
Y120472D03*
M02*
