G04 ================== begin FILE IDENTIFICATION RECORD ==================*
G04 Layout Name:  PCB EDITOR TUTORIAL_COMPLETE.brd*
G04 Film Name:    FAB*
G04 File Format:  Gerber RS274X*
G04 File Origin:  Cadence Allegro 17.2-S037*
G04 Origin Date:  Sun Apr 15 09:58:16 2018*
G04 *
G04 Layer:  MANUFACTURING/XSECTION_CHART*
G04 Layer:  MANUFACTURING/NCLEGEND-1-3*
G04 Layer:  DRAWING FORMAT/OUTLINE*
G04 Layer:  DRAWING FORMAT/TITLE_BLOCK*
G04 Layer:  DRAWING FORMAT/TITLE_DATA*
G04 Layer:  DRAWING FORMAT/REVISION_BLOCK*
G04 Layer:  DRAWING FORMAT/REVISION_DATA*
G04 Layer:  BOARD GEOMETRY/DIMENSION*
G04 Layer:  BOARD GEOMETRY/DESIGN_OUTLINE*
G04 *
G04 Offset:    (0.0000 0.0000)*
G04 Mirror:    No*
G04 Mode:      Positive*
G04 Rotation:  0*
G04 FullContactRelief:  No*
G04 UndefLineWidth:     0.1270*
G04 ================== end FILE IDENTIFICATION RECORD ====================*
%FSLAX25Y25*MOIN*%
%IR0*IPPOS*OFA0.00000B0.00000*MIA0B0*SFA1.00000B1.00000*%
%AMMACRO13*
1,1,.005,.026908,-.064961*
20,1,.005,.026908,-.064961,-.026908,-.064961,0.0*
1,1,.005,-.026908,-.064961*
20,1,.005,-.026908,-.064961,-.064961,-.026908,0.0*
1,1,.005,-.064961,-.026908*
20,1,.005,-.064961,-.026908,-.064961,.026908,0.0*
1,1,.005,-.064961,.026908*
20,1,.005,-.064961,.026908,-.026908,.064961,0.0*
1,1,.005,-.026908,.064961*
20,1,.005,-.026908,.064961,.026908,.064961,0.0*
1,1,.005,.026908,.064961*
20,1,.005,.026908,.064961,.064961,.026908,0.0*
1,1,.005,.064961,.026908*
20,1,.005,.064961,.026908,.064961,-.026908,0.0*
1,1,.005,.064961,-.026908*
20,1,.005,.064961,-.026908,.026908,-.064961,0.0*
1,1,.005,.026908,-.064961*
%
%ADD13MACRO13*%
%AMMACRO14*
1,1,.005,.01378,.01378*
20,1,.005,.01378,.01378,.01378,-.01378,0.0*
1,1,.005,.01378,-.01378*
20,1,.005,.01378,-.01378,-.01378,-.01378,0.0*
1,1,.005,-.01378,-.01378*
20,1,.005,-.01378,-.01378,-.01378,.01378,0.0*
1,1,.005,-.01378,.01378*
20,1,.005,-.01378,.01378,.01378,.01378,0.0*
1,1,.005,.01378,.01378*
%
%ADD14MACRO14*%
%AMMACRO11*
1,1,.005,.0065,0.0*
20,1,.005,.0065,0.0,-.0065,0.0,0.0*
1,1,.005,-.0065,0.0*
1,1,.005,0.0,.0065*
20,1,.005,0.0,.0065,0.0,-.0065,0.0*
1,1,.005,0.0,-.0065*
%
%ADD11MACRO11*%
%AMMACRO12*
1,1,.005,.02,0.0*
20,1,.005,.02,0.0,.01,.017321,0.0*
1,1,.005,.01,.017321*
20,1,.005,.01,.017321,-.01,.017321,0.0*
1,1,.005,-.01,.017321*
20,1,.005,-.01,.017321,-.02,0.0,0.0*
1,1,.005,-.02,0.0*
20,1,.005,-.02,0.0,-.01,-.017321,0.0*
1,1,.005,-.01,-.017321*
20,1,.005,-.01,-.017321,.01,-.017321,0.0*
1,1,.005,.01,-.017321*
20,1,.005,.01,-.017321,.02,0.0,0.0*
1,1,.005,.02,0.0*
%
%ADD12MACRO12*%
%AMMACRO10*
1,1,.005,0.0,.075*
20,1,.005,0.0,.075,-.064952,.0375,0.0*
1,1,.005,-.064952,.0375*
20,1,.005,-.064952,.0375,-.064952,-.0375,0.0*
1,1,.005,-.064952,-.0375*
20,1,.005,-.064952,-.0375,0.0,-.075,0.0*
1,1,.005,0.0,-.075*
20,1,.005,0.0,-.075,.064952,-.0375,0.0*
1,1,.005,.064952,-.0375*
20,1,.005,.064952,-.0375,.064952,.0375,0.0*
1,1,.005,.064952,.0375*
20,1,.005,.064952,.0375,0.0,.075,0.0*
1,1,.005,0.0,.075*
%
%ADD10MACRO10*%
%ADD15C,.005*%
G75*
%LPD*%
G75*
G36*
G01X668436Y437580D02*
Y425341D01*
X670936D01*
Y249900D01*
X668436D01*
Y237661D01*
X683436D01*
Y249900D01*
X680936D01*
Y425341D01*
X683436D01*
Y437580D01*
X668436D01*
G37*
G36*
G01X648436Y237661D02*
Y249901D01*
X708436D01*
Y237661D01*
X648436D01*
G37*
G36*
G01Y331501D02*
Y343741D01*
X708436D01*
Y331501D01*
X648436D01*
G37*
G36*
G01Y425341D02*
Y437580D01*
X708436D01*
Y425341D01*
X648436D01*
G37*
G54D10*
X15748Y15748D03*
Y181102D03*
X377953Y15748D03*
Y181102D03*
X513454Y29823D03*
G54D11*
X15748Y42182D03*
X18826Y82677D03*
Y70866D03*
X15748Y62904D03*
X7552Y82677D03*
Y70866D03*
X12670Y94488D03*
X3424Y110335D03*
Y118012D03*
X18307Y147369D03*
X7874D03*
X18307Y136095D03*
X7874D03*
X29724Y110335D03*
X34705Y104062D03*
X39961Y148157D03*
X72008Y14530D03*
X61181Y14048D03*
X72992Y71528D03*
X74961Y81890D03*
X59967Y135236D03*
X71024Y125322D03*
X76929D03*
X82835D03*
X71024Y162276D03*
X110236Y77040D03*
X98904Y89567D03*
X110236Y88314D03*
X107158Y66929D03*
X87205Y87598D03*
X107158Y94488D03*
X101035Y99409D03*
X87205Y101378D03*
X513454Y104823D03*
G54D12*
X56491Y58069D03*
X46491Y59069D03*
X86491D03*
X76491Y58069D03*
X66491Y59069D03*
X96491Y58069D03*
X513454Y54823D03*
G54D13*
X147638Y41339D03*
Y155512D03*
X356299Y41339D03*
Y155512D03*
X513454Y4823D03*
G54D14*
X143701Y62992D03*
Y70866D03*
Y78740D03*
Y86614D03*
Y94488D03*
Y102362D03*
Y110236D03*
Y118110D03*
Y125984D03*
Y133858D03*
X151575Y62992D03*
Y70866D03*
Y78740D03*
Y86614D03*
Y94488D03*
Y102362D03*
Y110236D03*
Y118110D03*
Y125984D03*
Y133858D03*
X513454Y79823D03*
G54D15*
G01X-70366Y-240657D02*
Y609343D01*
X1037134D01*
Y-240657D01*
X-70366D01*
G01X-40866Y-214157D02*
Y585843D01*
X1004134D01*
Y-214157D01*
X-40866D01*
G01X0Y0D02*
Y196850D01*
X393701D01*
Y0D01*
X0D01*
G01Y206693D02*
Y253937D01*
G01X154678Y244094D02*
X0D01*
G01X15748Y246555D02*
X0Y244094D01*
X15748Y241634D01*
Y246555D01*
G01X168702Y237844D02*
Y250344D01*
X166843Y247844D01*
G01Y237844D02*
X170562D01*
G01X181102Y250344D02*
X179862Y249928D01*
X178932Y248886D01*
X178312Y247636D01*
X177847Y245969D01*
X177693Y244094D01*
X177847Y242219D01*
X178312Y240553D01*
X178932Y239302D01*
X179862Y238261D01*
X181102Y237844D01*
X182342Y238261D01*
X183272Y239302D01*
X183893Y240553D01*
X184357Y242219D01*
X184512Y244094D01*
X184357Y245969D01*
X183893Y247636D01*
X183272Y248886D01*
X182342Y249928D01*
X181102Y250344D01*
G01X193502D02*
X192262Y249928D01*
X191332Y248886D01*
X190712Y247636D01*
X190247Y245969D01*
X190093Y244094D01*
X190247Y242219D01*
X190712Y240553D01*
X191332Y239302D01*
X192262Y238261D01*
X193502Y237844D01*
X194742Y238261D01*
X195672Y239302D01*
X196293Y240553D01*
X196757Y242219D01*
X196912Y244094D01*
X196757Y245969D01*
X196293Y247636D01*
X195672Y248886D01*
X194742Y249928D01*
X193502Y250344D01*
G01X224634Y-213157D02*
Y-33157D01*
X1004634D01*
G01X232830Y-155657D02*
Y-150657D01*
X235237D01*
G01X234350Y-153074D02*
X232830D01*
G01X237867Y-155657D02*
Y-150657D01*
X239450D01*
X239957Y-150907D01*
X240274Y-151241D01*
X240400Y-151907D01*
X240274Y-152574D01*
X239894Y-152991D01*
X239450Y-153241D01*
X237867D01*
G01X239450D02*
X240400Y-155657D01*
G01X242650D02*
X244234Y-150657D01*
X245817Y-155657D01*
G01X245247Y-153907D02*
X243220D01*
G01X250727Y-151074D02*
X250347Y-150824D01*
X249904Y-150657D01*
X249397D01*
X248827Y-150907D01*
X248384Y-151324D01*
X248067Y-151824D01*
X247814Y-152657D01*
X247750Y-153407D01*
X247877Y-154157D01*
X248067Y-154657D01*
X248447Y-155157D01*
X248891Y-155491D01*
X249334Y-155657D01*
X249777D01*
X250220Y-155491D01*
X250600Y-155241D01*
X250917Y-154907D01*
G01X254434Y-150657D02*
Y-155657D01*
G01X252977Y-150657D02*
X255891D01*
G01X258774D02*
X260294D01*
G01X259534D02*
Y-155657D01*
G01X258774D02*
X260294D01*
G01X264634D02*
X264127Y-155574D01*
X263684Y-155241D01*
X263304Y-154741D01*
X263050Y-154157D01*
X262924Y-153491D01*
Y-152824D01*
X263050Y-152157D01*
X263304Y-151574D01*
X263684Y-151074D01*
X264127Y-150741D01*
X264634Y-150657D01*
X265141Y-150741D01*
X265584Y-151074D01*
X265964Y-151574D01*
X266217Y-152157D01*
X266344Y-152824D01*
Y-153491D01*
X266217Y-154157D01*
X265964Y-154741D01*
X265584Y-155241D01*
X265141Y-155574D01*
X264634Y-155657D01*
G01X268277D02*
Y-150657D01*
X271191Y-155657D01*
Y-150657D01*
G01X273504Y-154991D02*
X274011Y-155407D01*
X274581Y-155657D01*
X275087D01*
X275594Y-155407D01*
X275974Y-154991D01*
X276164Y-154407D01*
X276037Y-153824D01*
X275720Y-153324D01*
X275150Y-152991D01*
X274391Y-152824D01*
X273947Y-152491D01*
X273757Y-151907D01*
X273884Y-151324D01*
X274200Y-150907D01*
X274644Y-150657D01*
X275087D01*
X275531Y-150824D01*
X275911Y-151241D01*
G01X284337Y-153991D02*
X285857D01*
G01X285034Y-152907D02*
Y-155074D01*
G01X232450Y-140657D02*
X234034Y-135657D01*
X235617Y-140657D01*
G01X235047Y-138907D02*
X233020D01*
G01X237677Y-140657D02*
Y-135657D01*
X240591Y-140657D01*
Y-135657D01*
G01X244614Y-138157D02*
X245881D01*
Y-139657D01*
X245500Y-140157D01*
X245057Y-140491D01*
X244424Y-140657D01*
X243791Y-140491D01*
X243347Y-140157D01*
X242967Y-139657D01*
X242714Y-139074D01*
X242587Y-138407D01*
Y-137824D01*
X242714Y-137324D01*
X242967Y-136741D01*
X243347Y-136241D01*
X243727Y-135907D01*
X244234Y-135657D01*
X244677D01*
X245184Y-135824D01*
X245564Y-136157D01*
G01X248067Y-135657D02*
Y-140657D01*
X250600D01*
G01X255700D02*
X253167D01*
Y-135657D01*
X255700D01*
G01X254687Y-138074D02*
X253167D01*
G01X258204Y-139991D02*
X258711Y-140407D01*
X259281Y-140657D01*
X259787D01*
X260294Y-140407D01*
X260674Y-139991D01*
X260864Y-139407D01*
X260737Y-138824D01*
X260420Y-138324D01*
X259850Y-137991D01*
X259091Y-137824D01*
X258647Y-137491D01*
X258457Y-136907D01*
X258584Y-136324D01*
X258900Y-135907D01*
X259344Y-135657D01*
X259787D01*
X260231Y-135824D01*
X260611Y-136241D01*
G01X269037Y-138991D02*
X270557D01*
G01X269734Y-137907D02*
Y-140074D01*
G01X232641Y-124657D02*
X233020Y-125241D01*
X233527Y-125574D01*
X234097Y-125657D01*
X234604Y-125574D01*
X235111Y-125157D01*
X235427Y-124657D01*
X235491Y-124157D01*
X235364Y-123574D01*
X234920Y-123157D01*
X234477Y-122991D01*
X233907D01*
G01X234477D02*
X234857Y-122741D01*
X235174Y-122324D01*
X235300Y-121824D01*
X235174Y-121324D01*
X234857Y-120907D01*
X234287Y-120657D01*
X233717Y-120741D01*
X233147Y-121074D01*
G01X242967Y-125657D02*
Y-120657D01*
X244487D01*
X244994Y-120907D01*
X245374Y-121491D01*
X245500Y-122157D01*
X245374Y-122824D01*
X245057Y-123324D01*
X244487Y-123574D01*
X242967D01*
G01X248067Y-120657D02*
Y-125657D01*
X250600D01*
G01X258141D02*
Y-120657D01*
X259407D01*
X259914Y-120907D01*
X260294Y-121241D01*
X260611Y-121741D01*
X260864Y-122324D01*
X260927Y-123157D01*
X260864Y-123991D01*
X260611Y-124574D01*
X260294Y-125074D01*
X259914Y-125407D01*
X259407Y-125657D01*
X258141D01*
G01X265900D02*
X263367D01*
Y-120657D01*
X265900D01*
G01X264887Y-123074D02*
X263367D01*
G01X271127Y-121074D02*
X270747Y-120824D01*
X270304Y-120657D01*
X269797D01*
X269227Y-120907D01*
X268784Y-121324D01*
X268467Y-121824D01*
X268214Y-122657D01*
X268150Y-123407D01*
X268277Y-124157D01*
X268467Y-124657D01*
X268847Y-125157D01*
X269291Y-125491D01*
X269734Y-125657D01*
X270177D01*
X270620Y-125491D01*
X271000Y-125241D01*
X271317Y-124907D01*
G01X274074Y-120657D02*
X275594D01*
G01X274834D02*
Y-125657D01*
G01X274074D02*
X275594D01*
G01X278287D02*
Y-120657D01*
X279934Y-124824D01*
X281581Y-120657D01*
Y-125657D01*
G01X283450D02*
X285034Y-120657D01*
X286617Y-125657D01*
G01X286047Y-123907D02*
X284020D01*
G01X288867Y-120657D02*
Y-125657D01*
X291400D01*
G01X293904Y-124991D02*
X294411Y-125407D01*
X294981Y-125657D01*
X295487D01*
X295994Y-125407D01*
X296374Y-124991D01*
X296564Y-124407D01*
X296437Y-123824D01*
X296120Y-123324D01*
X295550Y-122991D01*
X294791Y-122824D01*
X294347Y-122491D01*
X294157Y-121907D01*
X294284Y-121324D01*
X294600Y-120907D01*
X295044Y-120657D01*
X295487D01*
X295931Y-120824D01*
X296311Y-121241D01*
G01X304737Y-123991D02*
X306257D01*
G01X305434Y-122907D02*
Y-125074D01*
G01X232830Y-106491D02*
X233211Y-105991D01*
X233654Y-105741D01*
X234161Y-105657D01*
X234794Y-105824D01*
X235237Y-106241D01*
X235364Y-106741D01*
X235300Y-107241D01*
X235047Y-107657D01*
X233781Y-108491D01*
X233211Y-109074D01*
X232830Y-109907D01*
X232704Y-110657D01*
X235364D01*
G01X242967D02*
Y-105657D01*
X244487D01*
X244994Y-105907D01*
X245374Y-106491D01*
X245500Y-107157D01*
X245374Y-107824D01*
X245057Y-108324D01*
X244487Y-108574D01*
X242967D01*
G01X248067Y-105657D02*
Y-110657D01*
X250600D01*
G01X258141D02*
Y-105657D01*
X259407D01*
X259914Y-105907D01*
X260294Y-106241D01*
X260611Y-106741D01*
X260864Y-107324D01*
X260927Y-108157D01*
X260864Y-108991D01*
X260611Y-109574D01*
X260294Y-110074D01*
X259914Y-110407D01*
X259407Y-110657D01*
X258141D01*
G01X265900D02*
X263367D01*
Y-105657D01*
X265900D01*
G01X264887Y-108074D02*
X263367D01*
G01X271127Y-106074D02*
X270747Y-105824D01*
X270304Y-105657D01*
X269797D01*
X269227Y-105907D01*
X268784Y-106324D01*
X268467Y-106824D01*
X268214Y-107657D01*
X268150Y-108407D01*
X268277Y-109157D01*
X268467Y-109657D01*
X268847Y-110157D01*
X269291Y-110491D01*
X269734Y-110657D01*
X270177D01*
X270620Y-110491D01*
X271000Y-110241D01*
X271317Y-109907D01*
G01X274074Y-105657D02*
X275594D01*
G01X274834D02*
Y-110657D01*
G01X274074D02*
X275594D01*
G01X278287D02*
Y-105657D01*
X279934Y-109824D01*
X281581Y-105657D01*
Y-110657D01*
G01X283450D02*
X285034Y-105657D01*
X286617Y-110657D01*
G01X286047Y-108907D02*
X284020D01*
G01X288867Y-105657D02*
Y-110657D01*
X291400D01*
G01X293904Y-109991D02*
X294411Y-110407D01*
X294981Y-110657D01*
X295487D01*
X295994Y-110407D01*
X296374Y-109991D01*
X296564Y-109407D01*
X296437Y-108824D01*
X296120Y-108324D01*
X295550Y-107991D01*
X294791Y-107824D01*
X294347Y-107491D01*
X294157Y-106907D01*
X294284Y-106324D01*
X294600Y-105907D01*
X295044Y-105657D01*
X295487D01*
X295931Y-105824D01*
X296311Y-106241D01*
G01X304737Y-108991D02*
X306257D01*
G01X305434Y-107907D02*
Y-110074D01*
G01X234034Y-90657D02*
Y-95657D01*
G01X232577Y-90657D02*
X235491D01*
G01X239134Y-95657D02*
X238627Y-95574D01*
X238184Y-95241D01*
X237804Y-94741D01*
X237550Y-94157D01*
X237424Y-93491D01*
Y-92824D01*
X237550Y-92157D01*
X237804Y-91574D01*
X238184Y-91074D01*
X238627Y-90741D01*
X239134Y-90657D01*
X239641Y-90741D01*
X240084Y-91074D01*
X240464Y-91574D01*
X240717Y-92157D01*
X240844Y-92824D01*
Y-93491D01*
X240717Y-94157D01*
X240464Y-94741D01*
X240084Y-95241D01*
X239641Y-95574D01*
X239134Y-95657D01*
G01X242967Y-90657D02*
Y-95657D01*
X245500D01*
G01X250600D02*
X248067D01*
Y-90657D01*
X250600D01*
G01X249587Y-93074D02*
X248067D01*
G01X253167Y-95657D02*
Y-90657D01*
X254750D01*
X255257Y-90907D01*
X255574Y-91241D01*
X255700Y-91907D01*
X255574Y-92574D01*
X255194Y-92991D01*
X254750Y-93241D01*
X253167D01*
G01X254750D02*
X255700Y-95657D01*
G01X257950D02*
X259534Y-90657D01*
X261117Y-95657D01*
G01X260547Y-93907D02*
X258520D01*
G01X263177Y-95657D02*
Y-90657D01*
X266091Y-95657D01*
Y-90657D01*
G01X271127Y-91074D02*
X270747Y-90824D01*
X270304Y-90657D01*
X269797D01*
X269227Y-90907D01*
X268784Y-91324D01*
X268467Y-91824D01*
X268214Y-92657D01*
X268150Y-93407D01*
X268277Y-94157D01*
X268467Y-94657D01*
X268847Y-95157D01*
X269291Y-95491D01*
X269734Y-95657D01*
X270177D01*
X270620Y-95491D01*
X271000Y-95241D01*
X271317Y-94907D01*
G01X276100Y-95657D02*
X273567D01*
Y-90657D01*
X276100D01*
G01X275087Y-93074D02*
X273567D01*
G01X278604Y-94991D02*
X279111Y-95407D01*
X279681Y-95657D01*
X280187D01*
X280694Y-95407D01*
X281074Y-94991D01*
X281264Y-94407D01*
X281137Y-93824D01*
X280820Y-93324D01*
X280250Y-92991D01*
X279491Y-92824D01*
X279047Y-92491D01*
X278857Y-91907D01*
X278984Y-91324D01*
X279300Y-90907D01*
X279744Y-90657D01*
X280187D01*
X280631Y-90824D01*
X281011Y-91241D01*
G01X290134Y-95657D02*
X289627Y-95574D01*
X289184Y-95241D01*
X288804Y-94741D01*
X288550Y-94157D01*
X288424Y-93491D01*
Y-92824D01*
X288550Y-92157D01*
X288804Y-91574D01*
X289184Y-91074D01*
X289627Y-90741D01*
X290134Y-90657D01*
X290641Y-90741D01*
X291084Y-91074D01*
X291464Y-91574D01*
X291717Y-92157D01*
X291844Y-92824D01*
Y-93491D01*
X291717Y-94157D01*
X291464Y-94741D01*
X291084Y-95241D01*
X290641Y-95574D01*
X290134Y-95657D01*
G01X293777D02*
Y-90657D01*
X296691Y-95657D01*
Y-90657D01*
G01X300334Y-95824D02*
X300207Y-95741D01*
Y-95574D01*
X300334Y-95491D01*
X300461Y-95574D01*
Y-95741D01*
X300334Y-95824D01*
G01Y-93574D02*
X300207Y-93491D01*
Y-93324D01*
X300334Y-93241D01*
X300461Y-93324D01*
Y-93491D01*
X300334Y-93574D01*
G01X232641Y-78157D02*
Y-73157D01*
X233907D01*
X234414Y-73407D01*
X234794Y-73741D01*
X235111Y-74241D01*
X235364Y-74824D01*
X235427Y-75657D01*
X235364Y-76491D01*
X235111Y-77074D01*
X234794Y-77574D01*
X234414Y-77907D01*
X233907Y-78157D01*
X232641D01*
G01X238374Y-73157D02*
X239894D01*
G01X239134D02*
Y-78157D01*
G01X238374D02*
X239894D01*
G01X242587D02*
Y-73157D01*
X244234Y-77324D01*
X245881Y-73157D01*
Y-78157D01*
G01X250600D02*
X248067D01*
Y-73157D01*
X250600D01*
G01X249587Y-75574D02*
X248067D01*
G01X252977Y-78157D02*
Y-73157D01*
X255891Y-78157D01*
Y-73157D01*
G01X258204Y-77491D02*
X258711Y-77907D01*
X259281Y-78157D01*
X259787D01*
X260294Y-77907D01*
X260674Y-77491D01*
X260864Y-76907D01*
X260737Y-76324D01*
X260420Y-75824D01*
X259850Y-75491D01*
X259091Y-75324D01*
X258647Y-74991D01*
X258457Y-74407D01*
X258584Y-73824D01*
X258900Y-73407D01*
X259344Y-73157D01*
X259787D01*
X260231Y-73324D01*
X260611Y-73741D01*
G01X263874Y-73157D02*
X265394D01*
G01X264634D02*
Y-78157D01*
G01X263874D02*
X265394D01*
G01X269734D02*
X269227Y-78074D01*
X268784Y-77741D01*
X268404Y-77241D01*
X268150Y-76657D01*
X268024Y-75991D01*
Y-75324D01*
X268150Y-74657D01*
X268404Y-74074D01*
X268784Y-73574D01*
X269227Y-73241D01*
X269734Y-73157D01*
X270241Y-73241D01*
X270684Y-73574D01*
X271064Y-74074D01*
X271317Y-74657D01*
X271444Y-75324D01*
Y-75991D01*
X271317Y-76657D01*
X271064Y-77241D01*
X270684Y-77741D01*
X270241Y-78074D01*
X269734Y-78157D01*
G01X273377D02*
Y-73157D01*
X276291Y-78157D01*
Y-73157D01*
G01X278604Y-77491D02*
X279111Y-77907D01*
X279681Y-78157D01*
X280187D01*
X280694Y-77907D01*
X281074Y-77491D01*
X281264Y-76907D01*
X281137Y-76324D01*
X280820Y-75824D01*
X280250Y-75491D01*
X279491Y-75324D01*
X279047Y-74991D01*
X278857Y-74407D01*
X278984Y-73824D01*
X279300Y-73407D01*
X279744Y-73157D01*
X280187D01*
X280631Y-73324D01*
X281011Y-73741D01*
G01X288550Y-78157D02*
X290134Y-73157D01*
X291717Y-78157D01*
G01X291147Y-76407D02*
X289120D01*
G01X293967Y-78157D02*
Y-73157D01*
X295550D01*
X296057Y-73407D01*
X296374Y-73741D01*
X296500Y-74407D01*
X296374Y-75074D01*
X295994Y-75491D01*
X295550Y-75741D01*
X293967D01*
G01X295550D02*
X296500Y-78157D01*
G01X301600D02*
X299067D01*
Y-73157D01*
X301600D01*
G01X300587Y-75574D02*
X299067D01*
G01X309774Y-73157D02*
X311294D01*
G01X310534D02*
Y-78157D01*
G01X309774D02*
X311294D01*
G01X314177D02*
Y-73157D01*
X317091Y-78157D01*
Y-73157D01*
G01X325074D02*
X326594D01*
G01X325834D02*
Y-78157D01*
G01X325074D02*
X326594D01*
G01X329477D02*
Y-73157D01*
X332391Y-78157D01*
Y-73157D01*
G01X337427Y-73574D02*
X337047Y-73324D01*
X336604Y-73157D01*
X336097D01*
X335527Y-73407D01*
X335084Y-73824D01*
X334767Y-74324D01*
X334514Y-75157D01*
X334450Y-75907D01*
X334577Y-76657D01*
X334767Y-77157D01*
X335147Y-77657D01*
X335591Y-77991D01*
X336034Y-78157D01*
X336477D01*
X336920Y-77991D01*
X337300Y-77741D01*
X337617Y-77407D01*
G01X339804Y-78157D02*
Y-73157D01*
G01X342464D02*
Y-78157D01*
G01Y-75657D02*
X339804D01*
G01X347500Y-78157D02*
X344967D01*
Y-73157D01*
X347500D01*
G01X346487Y-75574D02*
X344967D01*
G01X350004Y-77491D02*
X350511Y-77907D01*
X351081Y-78157D01*
X351587D01*
X352094Y-77907D01*
X352474Y-77491D01*
X352664Y-76907D01*
X352537Y-76324D01*
X352220Y-75824D01*
X351650Y-75491D01*
X350891Y-75324D01*
X350447Y-74991D01*
X350257Y-74407D01*
X350384Y-73824D01*
X350700Y-73407D01*
X351144Y-73157D01*
X351587D01*
X352031Y-73324D01*
X352411Y-73741D01*
G01X224634Y-63157D02*
X584634D01*
G01X232641Y-45657D02*
Y-49241D01*
X232894Y-49991D01*
X233400Y-50491D01*
X234034Y-50657D01*
X234667Y-50491D01*
X235174Y-49991D01*
X235427Y-49241D01*
Y-45657D01*
G01X237677Y-50657D02*
Y-45657D01*
X240591Y-50657D01*
Y-45657D01*
G01X242967D02*
Y-50657D01*
X245500D01*
G01X250600D02*
X248067D01*
Y-45657D01*
X250600D01*
G01X249587Y-48074D02*
X248067D01*
G01X253104Y-49991D02*
X253611Y-50407D01*
X254181Y-50657D01*
X254687D01*
X255194Y-50407D01*
X255574Y-49991D01*
X255764Y-49407D01*
X255637Y-48824D01*
X255320Y-48324D01*
X254750Y-47991D01*
X253991Y-47824D01*
X253547Y-47491D01*
X253357Y-46907D01*
X253484Y-46324D01*
X253800Y-45907D01*
X254244Y-45657D01*
X254687D01*
X255131Y-45824D01*
X255511Y-46241D01*
G01X258204Y-49991D02*
X258711Y-50407D01*
X259281Y-50657D01*
X259787D01*
X260294Y-50407D01*
X260674Y-49991D01*
X260864Y-49407D01*
X260737Y-48824D01*
X260420Y-48324D01*
X259850Y-47991D01*
X259091Y-47824D01*
X258647Y-47491D01*
X258457Y-46907D01*
X258584Y-46324D01*
X258900Y-45907D01*
X259344Y-45657D01*
X259787D01*
X260231Y-45824D01*
X260611Y-46241D01*
G01X269734Y-50657D02*
X269227Y-50574D01*
X268784Y-50241D01*
X268404Y-49741D01*
X268150Y-49157D01*
X268024Y-48491D01*
Y-47824D01*
X268150Y-47157D01*
X268404Y-46574D01*
X268784Y-46074D01*
X269227Y-45741D01*
X269734Y-45657D01*
X270241Y-45741D01*
X270684Y-46074D01*
X271064Y-46574D01*
X271317Y-47157D01*
X271444Y-47824D01*
Y-48491D01*
X271317Y-49157D01*
X271064Y-49741D01*
X270684Y-50241D01*
X270241Y-50574D01*
X269734Y-50657D01*
G01X274834Y-45657D02*
Y-50657D01*
G01X273377Y-45657D02*
X276291D01*
G01X278604Y-50657D02*
Y-45657D01*
G01X281264D02*
Y-50657D01*
G01Y-48157D02*
X278604D01*
G01X286300Y-50657D02*
X283767D01*
Y-45657D01*
X286300D01*
G01X285287Y-48074D02*
X283767D01*
G01X288867Y-50657D02*
Y-45657D01*
X290450D01*
X290957Y-45907D01*
X291274Y-46241D01*
X291400Y-46907D01*
X291274Y-47574D01*
X290894Y-47991D01*
X290450Y-48241D01*
X288867D01*
G01X290450D02*
X291400Y-50657D01*
G01X293334Y-45657D02*
X294220Y-50657D01*
X295234Y-45657D01*
X296247Y-50657D01*
X297134Y-45657D01*
G01X299574D02*
X301094D01*
G01X300334D02*
Y-50657D01*
G01X299574D02*
X301094D01*
G01X304104Y-49991D02*
X304611Y-50407D01*
X305181Y-50657D01*
X305687D01*
X306194Y-50407D01*
X306574Y-49991D01*
X306764Y-49407D01*
X306637Y-48824D01*
X306320Y-48324D01*
X305750Y-47991D01*
X304991Y-47824D01*
X304547Y-47491D01*
X304357Y-46907D01*
X304484Y-46324D01*
X304800Y-45907D01*
X305244Y-45657D01*
X305687D01*
X306131Y-45824D01*
X306511Y-46241D01*
G01X311800Y-50657D02*
X309267D01*
Y-45657D01*
X311800D01*
G01X310787Y-48074D02*
X309267D01*
G01X319404Y-49991D02*
X319911Y-50407D01*
X320481Y-50657D01*
X320987D01*
X321494Y-50407D01*
X321874Y-49991D01*
X322064Y-49407D01*
X321937Y-48824D01*
X321620Y-48324D01*
X321050Y-47991D01*
X320291Y-47824D01*
X319847Y-47491D01*
X319657Y-46907D01*
X319784Y-46324D01*
X320100Y-45907D01*
X320544Y-45657D01*
X320987D01*
X321431Y-45824D01*
X321811Y-46241D01*
G01X324567Y-50657D02*
Y-45657D01*
X326087D01*
X326594Y-45907D01*
X326974Y-46491D01*
X327100Y-47157D01*
X326974Y-47824D01*
X326657Y-48324D01*
X326087Y-48574D01*
X324567D01*
G01X332200Y-50657D02*
X329667D01*
Y-45657D01*
X332200D01*
G01X331187Y-48074D02*
X329667D01*
G01X337427Y-46074D02*
X337047Y-45824D01*
X336604Y-45657D01*
X336097D01*
X335527Y-45907D01*
X335084Y-46324D01*
X334767Y-46824D01*
X334514Y-47657D01*
X334450Y-48407D01*
X334577Y-49157D01*
X334767Y-49657D01*
X335147Y-50157D01*
X335591Y-50491D01*
X336034Y-50657D01*
X336477D01*
X336920Y-50491D01*
X337300Y-50241D01*
X337617Y-49907D01*
G01X340374Y-45657D02*
X341894D01*
G01X341134D02*
Y-50657D01*
G01X340374D02*
X341894D01*
G01X345030D02*
Y-45657D01*
X347437D01*
G01X346550Y-48074D02*
X345030D01*
G01X350574Y-45657D02*
X352094D01*
G01X351334D02*
Y-50657D01*
G01X350574D02*
X352094D01*
G01X357700D02*
X355167D01*
Y-45657D01*
X357700D01*
G01X356687Y-48074D02*
X355167D01*
G01X360141Y-50657D02*
Y-45657D01*
X361407D01*
X361914Y-45907D01*
X362294Y-46241D01*
X362611Y-46741D01*
X362864Y-47324D01*
X362927Y-48157D01*
X362864Y-48991D01*
X362611Y-49574D01*
X362294Y-50074D01*
X361914Y-50407D01*
X361407Y-50657D01*
X360141D01*
G01X207527Y244094D02*
X393701D01*
G01X374634Y-33157D02*
Y-213157D01*
G01Y-178157D02*
X584634D01*
G01X374634Y-153157D02*
X584634D01*
G01X374634Y-123157D02*
X584634D01*
G01X374634Y-93157D02*
X584634D01*
G01X377953Y241634D02*
X393701Y244094D01*
X377953Y246555D01*
Y241634D01*
G01X403543Y0D02*
X442913D01*
G01X393701Y206693D02*
Y253937D01*
G01X403543Y196850D02*
X442913D01*
G01X417839Y-49818D02*
X418465Y-50343D01*
X419170Y-50657D01*
X419797D01*
X420424Y-50343D01*
X420894Y-49818D01*
X421129Y-49082D01*
X420972Y-48348D01*
X420580Y-47718D01*
X419876Y-47297D01*
X418935Y-47087D01*
X418387Y-46668D01*
X418152Y-45933D01*
X418309Y-45198D01*
X418700Y-44672D01*
X419249Y-44357D01*
X419797D01*
X420346Y-44567D01*
X420816Y-45093D01*
G01X424844Y-44357D02*
X426724D01*
G01X425784D02*
Y-50657D01*
G01X424844D02*
X426724D01*
G01X432554Y-47507D02*
X434120D01*
Y-49398D01*
X433650Y-50028D01*
X433102Y-50448D01*
X432319Y-50657D01*
X431535Y-50448D01*
X430987Y-50028D01*
X430517Y-49398D01*
X430204Y-48663D01*
X430047Y-47822D01*
Y-47087D01*
X430204Y-46457D01*
X430517Y-45722D01*
X430987Y-45093D01*
X431457Y-44672D01*
X432084Y-44357D01*
X432632D01*
X433259Y-44567D01*
X433729Y-44987D01*
G01X436582Y-50657D02*
Y-44357D01*
X440185Y-50657D01*
Y-44357D01*
G01X442726Y-50657D02*
X444684Y-44357D01*
X446642Y-50657D01*
G01X445937Y-48453D02*
X443430D01*
G01X450984Y-44357D02*
Y-50657D01*
G01X449182Y-44357D02*
X452785D01*
G01X455561D02*
Y-48872D01*
X455874Y-49818D01*
X456500Y-50448D01*
X457284Y-50657D01*
X458067Y-50448D01*
X458694Y-49818D01*
X459007Y-48872D01*
Y-44357D01*
G01X462017Y-50657D02*
Y-44357D01*
X463976D01*
X464602Y-44672D01*
X464994Y-45093D01*
X465150Y-45933D01*
X464994Y-46772D01*
X464524Y-47297D01*
X463976Y-47613D01*
X462017D01*
G01X463976D02*
X465150Y-50657D01*
G01X471450D02*
X468317D01*
Y-44357D01*
X471450D01*
G01X470197Y-47402D02*
X468317D01*
G01X474539Y-49818D02*
X475165Y-50343D01*
X475870Y-50657D01*
X476497D01*
X477124Y-50343D01*
X477594Y-49818D01*
X477829Y-49082D01*
X477672Y-48348D01*
X477280Y-47718D01*
X476576Y-47297D01*
X475635Y-47087D01*
X475087Y-46668D01*
X474852Y-45933D01*
X475009Y-45198D01*
X475400Y-44672D01*
X475949Y-44357D01*
X476497D01*
X477046Y-44567D01*
X477516Y-45093D01*
G01X433071Y82800D02*
Y0D01*
G01X430610Y15748D02*
X433071Y0D01*
X435531Y15748D01*
X430610D01*
G01X423461Y94050D02*
X424391Y93008D01*
X425476Y92383D01*
X426871Y92175D01*
X428266Y92592D01*
X429351Y93425D01*
X430126Y94883D01*
X430281Y96550D01*
X429971Y98217D01*
X429196Y99259D01*
X428111Y100092D01*
X427026Y100300D01*
X425941Y100092D01*
X424546Y99259D01*
X425011Y104675D01*
X429196D01*
G01X439271D02*
X438031Y104259D01*
X437101Y103217D01*
X436481Y101967D01*
X436016Y100300D01*
X435861Y98425D01*
X436016Y96550D01*
X436481Y94883D01*
X437101Y93633D01*
X438031Y92592D01*
X439271Y92175D01*
X440511Y92592D01*
X441441Y93633D01*
X442061Y94883D01*
X442526Y96550D01*
X442681Y98425D01*
X442526Y100300D01*
X442061Y101967D01*
X441441Y103217D01*
X440511Y104259D01*
X439271Y104675D01*
G01X433071Y114050D02*
Y196850D01*
G01X435531Y181102D02*
X433071Y196850D01*
X430610Y181102D01*
X435531D01*
G01X468504Y-7677D02*
Y192913D01*
X964504D01*
Y-7677D01*
X468504D01*
G01Y17323D02*
X964504D01*
G01X468504Y42323D02*
X964504D01*
G01X468504Y67323D02*
X964504D01*
G01X468504Y117323D02*
X964504D01*
G01X468504Y92323D02*
X964504D01*
G01X468504Y142323D02*
X964504D01*
G01X468504Y167323D02*
X964504D01*
G01X504634Y-150657D02*
Y-153157D01*
G01Y-150657D02*
Y-33157D01*
G01X479509Y123573D02*
Y136073D01*
X485399D01*
G01X483229Y130031D02*
X479509D01*
G01X492994Y136073D02*
X496714D01*
G01X494854D02*
Y123573D01*
G01X492994D02*
X496714D01*
G01X508184Y129823D02*
X511284D01*
Y126073D01*
X510354Y124822D01*
X509269Y123989D01*
X507719Y123573D01*
X506169Y123989D01*
X505084Y124822D01*
X504154Y126073D01*
X503534Y127531D01*
X503224Y129198D01*
Y130656D01*
X503534Y131906D01*
X504154Y133365D01*
X505084Y134615D01*
X506014Y135448D01*
X507254Y136073D01*
X508339D01*
X509579Y135656D01*
X510509Y134823D01*
G01X516244Y136073D02*
Y127115D01*
X516864Y125239D01*
X518104Y123989D01*
X519654Y123573D01*
X521204Y123989D01*
X522444Y125239D01*
X523064Y127115D01*
Y136073D01*
G01X528954Y123573D02*
Y136073D01*
X532829D01*
X534069Y135448D01*
X534844Y134615D01*
X535154Y132948D01*
X534844Y131281D01*
X533914Y130240D01*
X532829Y129614D01*
X528954D01*
G01X532829D02*
X535154Y123573D01*
G01X547554D02*
X541354D01*
Y136073D01*
X547554D01*
G01X545074Y130031D02*
X541354D01*
G01X504634Y494343D02*
Y464343D01*
G01Y584343D02*
Y494343D01*
G01Y524343D02*
X1004634D01*
G01X504634Y554343D02*
X1004634D01*
G01X530261Y-50657D02*
Y-44357D01*
X531827D01*
X532454Y-44672D01*
X532924Y-45093D01*
X533316Y-45722D01*
X533629Y-46457D01*
X533707Y-47507D01*
X533629Y-48557D01*
X533316Y-49293D01*
X532924Y-49922D01*
X532454Y-50343D01*
X531827Y-50657D01*
X530261D01*
G01X536326D02*
X538284Y-44357D01*
X540242Y-50657D01*
G01X539537Y-48453D02*
X537030D01*
G01X544584Y-44357D02*
Y-50657D01*
G01X542782Y-44357D02*
X546385D01*
G01X552450Y-50657D02*
X549317D01*
Y-44357D01*
X552450D01*
G01X551197Y-47402D02*
X549317D01*
G01X510884Y534343D02*
Y544343D01*
X514009D01*
X515009Y543842D01*
X515634Y543176D01*
X515884Y541843D01*
X515634Y540509D01*
X514884Y539676D01*
X514009Y539176D01*
X510884D01*
G01X514009D02*
X515884Y534343D01*
G01X525884D02*
X520884D01*
Y544343D01*
X525884D01*
G01X523884Y539509D02*
X520884D01*
G01X530259Y544343D02*
X533384Y534343D01*
X536509Y544343D01*
G01X558404Y142323D02*
Y-7677D01*
G01X545229Y148573D02*
X549104Y161073D01*
X552979Y148573D01*
G01X551584Y152948D02*
X546624D01*
G01X558404Y161073D02*
Y148573D01*
X564604D01*
G01X570804Y161073D02*
Y148573D01*
X577004D01*
G01X595294Y161073D02*
Y152115D01*
X595914Y150239D01*
X597154Y148989D01*
X598704Y148573D01*
X600254Y148989D01*
X601494Y150239D01*
X602114Y152115D01*
Y161073D01*
G01X607539Y148573D02*
Y161073D01*
X614669Y148573D01*
Y161073D01*
G01X621644D02*
X625364D01*
G01X623504D02*
Y148573D01*
G01X621644D02*
X625364D01*
G01X635904Y161073D02*
Y148573D01*
G01X632339Y161073D02*
X639469D01*
G01X645049Y150239D02*
X646289Y149198D01*
X647684Y148573D01*
X648924D01*
X650164Y149198D01*
X651094Y150239D01*
X651559Y151698D01*
X651249Y153156D01*
X650474Y154406D01*
X649079Y155240D01*
X647219Y155656D01*
X646134Y156489D01*
X645669Y157948D01*
X645979Y159406D01*
X646754Y160448D01*
X647839Y161073D01*
X648924D01*
X650009Y160656D01*
X650939Y159615D01*
G01X669229Y148573D02*
X673104Y161073D01*
X676979Y148573D01*
G01X675584Y152948D02*
X670624D01*
G01X682404Y148573D02*
Y161073D01*
X686279D01*
X687519Y160448D01*
X688294Y159615D01*
X688604Y157948D01*
X688294Y156281D01*
X687364Y155240D01*
X686279Y154614D01*
X682404D01*
G01X686279D02*
X688604Y148573D01*
G01X701004D02*
X694804D01*
Y161073D01*
X701004D01*
G01X698524Y155031D02*
X694804D01*
G01X720844Y161073D02*
X724564D01*
G01X722704D02*
Y148573D01*
G01X720844D02*
X724564D01*
G01X731539D02*
Y161073D01*
X738669Y148573D01*
Y161073D01*
G01X755874Y148573D02*
Y161073D01*
X759904Y150656D01*
X763934Y161073D01*
Y148573D01*
G01X770444Y161073D02*
X774164D01*
G01X772304D02*
Y148573D01*
G01X770444D02*
X774164D01*
G01X781604Y161073D02*
Y148573D01*
X787804D01*
G01X794004Y161073D02*
Y148573D01*
X800204D01*
G01X807644Y161073D02*
X811364D01*
G01X809504D02*
Y148573D01*
G01X807644D02*
X811364D01*
G01X817874D02*
Y161073D01*
X821904Y150656D01*
X825934Y161073D01*
Y148573D01*
G01X837404D02*
X831204D01*
Y161073D01*
X837404D01*
G01X834924Y155031D02*
X831204D01*
G01X846704Y161073D02*
Y148573D01*
G01X843139Y161073D02*
X850269D01*
G01X862204Y148573D02*
X856004D01*
Y161073D01*
X862204D01*
G01X859724Y155031D02*
X856004D01*
G01X868404Y148573D02*
Y161073D01*
X872279D01*
X873519Y160448D01*
X874294Y159615D01*
X874604Y157948D01*
X874294Y156281D01*
X873364Y155240D01*
X872279Y154614D01*
X868404D01*
G01X872279D02*
X874604Y148573D01*
G01X880649Y150239D02*
X881889Y149198D01*
X883284Y148573D01*
X884524D01*
X885764Y149198D01*
X886694Y150239D01*
X887159Y151698D01*
X886849Y153156D01*
X886074Y154406D01*
X884679Y155240D01*
X882819Y155656D01*
X881734Y156489D01*
X881269Y157948D01*
X881579Y159406D01*
X882354Y160448D01*
X883439Y161073D01*
X884524D01*
X885609Y160656D01*
X886539Y159615D01*
G01X558094Y174163D02*
Y186663D01*
X561194D01*
X562434Y186038D01*
X563364Y185205D01*
X564139Y183955D01*
X564759Y182496D01*
X564914Y180413D01*
X564759Y178330D01*
X564139Y176872D01*
X563364Y175621D01*
X562434Y174788D01*
X561194Y174163D01*
X558094D01*
G01X570804D02*
Y186663D01*
X574679D01*
X575919Y186038D01*
X576694Y185205D01*
X577004Y183538D01*
X576694Y181872D01*
X575764Y180830D01*
X574679Y180205D01*
X570804D01*
G01X574679D02*
X577004Y174163D01*
G01X584444Y186663D02*
X588164D01*
G01X586304D02*
Y174163D01*
G01X584444D02*
X588164D01*
G01X595604Y186663D02*
Y174163D01*
X601804D01*
G01X608004Y186663D02*
Y174163D01*
X614204D01*
G01X639314Y185622D02*
X638384Y186247D01*
X637299Y186663D01*
X636059D01*
X634664Y186038D01*
X633579Y184997D01*
X632804Y183746D01*
X632184Y181663D01*
X632029Y179788D01*
X632339Y177913D01*
X632804Y176663D01*
X633734Y175413D01*
X634819Y174580D01*
X635904Y174163D01*
X636989D01*
X638074Y174580D01*
X639004Y175205D01*
X639779Y176038D01*
G01X645049Y174163D02*
Y186663D01*
G01X651559D02*
Y174163D01*
G01Y180413D02*
X645049D01*
G01X656829Y174163D02*
X660704Y186663D01*
X664579Y174163D01*
G01X663184Y178538D02*
X658224D01*
G01X670004Y174163D02*
Y186663D01*
X673879D01*
X675119Y186038D01*
X675894Y185205D01*
X676204Y183538D01*
X675894Y181872D01*
X674964Y180830D01*
X673879Y180205D01*
X670004D01*
G01X673879D02*
X676204Y174163D01*
G01X685504Y186663D02*
Y174163D01*
G01X681939Y186663D02*
X689069D01*
G01X697904Y173747D02*
X697594Y173955D01*
Y174372D01*
X697904Y174580D01*
X698214Y174372D01*
Y173955D01*
X697904Y173747D01*
G01Y179371D02*
X697594Y179580D01*
Y179996D01*
X697904Y180205D01*
X698214Y179996D01*
Y179580D01*
X697904Y179371D01*
G01X722704Y186663D02*
Y174163D01*
G01X719139Y186663D02*
X726269D01*
G01X735104Y174163D02*
X733864Y174372D01*
X732779Y175205D01*
X731849Y176455D01*
X731229Y177913D01*
X730919Y179580D01*
Y181247D01*
X731229Y182913D01*
X731849Y184372D01*
X732779Y185622D01*
X733864Y186455D01*
X735104Y186663D01*
X736344Y186455D01*
X737429Y185622D01*
X738359Y184372D01*
X738979Y182913D01*
X739289Y181247D01*
Y179580D01*
X738979Y177913D01*
X738359Y176455D01*
X737429Y175205D01*
X736344Y174372D01*
X735104Y174163D01*
G01X744404D02*
Y186663D01*
X748124D01*
X749364Y186038D01*
X750294Y184580D01*
X750604Y182913D01*
X750294Y181247D01*
X749519Y179996D01*
X748124Y179371D01*
X744404D01*
G01X772304Y186663D02*
Y174163D01*
G01X770134Y182496D02*
X774474D01*
G01X784704Y174163D02*
X783774Y174372D01*
X782844Y175205D01*
X782224Y176663D01*
X781914Y178330D01*
X782224Y179996D01*
X782844Y181455D01*
X783774Y182288D01*
X784704Y182496D01*
X785634Y182288D01*
X786564Y181455D01*
X787184Y179996D01*
X787339Y178330D01*
X787184Y176663D01*
X786564Y175205D01*
X785634Y174372D01*
X784704Y174163D01*
G01X810744Y180830D02*
X811364Y181455D01*
X811829Y182496D01*
X812139Y183955D01*
X811829Y185205D01*
X811209Y186038D01*
X810124Y186663D01*
X805939D01*
Y174163D01*
X811054D01*
X812139Y174996D01*
X812759Y176247D01*
X813069Y177705D01*
X812759Y179163D01*
X811829Y180413D01*
X810744Y180830D01*
X805939D01*
G01X821904Y174163D02*
X820664Y174372D01*
X819579Y175205D01*
X818649Y176455D01*
X818029Y177913D01*
X817719Y179580D01*
Y181247D01*
X818029Y182913D01*
X818649Y184372D01*
X819579Y185622D01*
X820664Y186455D01*
X821904Y186663D01*
X823144Y186455D01*
X824229Y185622D01*
X825159Y184372D01*
X825779Y182913D01*
X826089Y181247D01*
Y179580D01*
X825779Y177913D01*
X825159Y176455D01*
X824229Y175205D01*
X823144Y174372D01*
X821904Y174163D01*
G01X834304Y186663D02*
Y174163D01*
G01X830739Y186663D02*
X837869D01*
G01X846704D02*
Y174163D01*
G01X843139Y186663D02*
X850269D01*
G01X859104Y174163D02*
X857864Y174372D01*
X856779Y175205D01*
X855849Y176455D01*
X855229Y177913D01*
X854919Y179580D01*
Y181247D01*
X855229Y182913D01*
X855849Y184372D01*
X856779Y185622D01*
X857864Y186455D01*
X859104Y186663D01*
X860344Y186455D01*
X861429Y185622D01*
X862359Y184372D01*
X862979Y182913D01*
X863289Y181247D01*
Y179580D01*
X862979Y177913D01*
X862359Y176455D01*
X861429Y175205D01*
X860344Y174372D01*
X859104Y174163D01*
G01X867474D02*
Y186663D01*
X871504Y176247D01*
X875534Y186663D01*
Y174163D01*
G01X544634Y494343D02*
Y464343D01*
G01Y494343D02*
Y554343D01*
G01X584634Y-33157D02*
Y-213157D01*
G01X590759Y-196824D02*
X591759Y-197657D01*
X592884Y-198157D01*
X593884D01*
X594884Y-197657D01*
X595634Y-196824D01*
X596009Y-195657D01*
X595759Y-194491D01*
X595134Y-193491D01*
X594009Y-192824D01*
X592509Y-192491D01*
X591634Y-191824D01*
X591259Y-190657D01*
X591509Y-189491D01*
X592134Y-188658D01*
X593009Y-188157D01*
X593884D01*
X594759Y-188491D01*
X595509Y-189324D01*
G01X606134Y-188991D02*
X605384Y-188491D01*
X604509Y-188157D01*
X603509D01*
X602384Y-188658D01*
X601509Y-189491D01*
X600884Y-190491D01*
X600384Y-192157D01*
X600259Y-193657D01*
X600509Y-195157D01*
X600884Y-196157D01*
X601634Y-197158D01*
X602509Y-197824D01*
X603384Y-198157D01*
X604259D01*
X605134Y-197824D01*
X605884Y-197324D01*
X606509Y-196658D01*
G01X610259Y-198157D02*
X613384Y-188157D01*
X616509Y-198157D01*
G01X615384Y-194657D02*
X611384D01*
G01X620884Y-188157D02*
Y-198157D01*
X625884D01*
G01X635884D02*
X630884D01*
Y-188157D01*
X635884D01*
G01X633884Y-192991D02*
X630884D01*
G01X834634Y-183157D02*
X584634D01*
G01X590759Y-156824D02*
X591759Y-157657D01*
X592884Y-158157D01*
X593884D01*
X594884Y-157657D01*
X595634Y-156824D01*
X596009Y-155657D01*
X595759Y-154491D01*
X595134Y-153491D01*
X594009Y-152824D01*
X592509Y-152491D01*
X591634Y-151824D01*
X591259Y-150657D01*
X591509Y-149491D01*
X592134Y-148658D01*
X593009Y-148157D01*
X593884D01*
X594759Y-148491D01*
X595509Y-149324D01*
G01X601884Y-148157D02*
X604883D01*
G01X603384D02*
Y-158157D01*
G01X601884D02*
X604883D01*
G01X611009Y-148157D02*
X615759D01*
X611009Y-158157D01*
X615759D01*
G01X625884D02*
X620884D01*
Y-148157D01*
X625884D01*
G01X623884Y-152991D02*
X620884D01*
G01X1004634Y-143157D02*
X584634D01*
G01X1004634Y-83157D02*
X584634D01*
G01X581809Y123573D02*
Y136073D01*
X587699D01*
G01X585529Y130031D02*
X581809D01*
G01X595294Y136073D02*
X599014D01*
G01X597154D02*
Y123573D01*
G01X595294D02*
X599014D01*
G01X605989D02*
Y136073D01*
X613119Y123573D01*
Y136073D01*
G01X620094D02*
X623814D01*
G01X621954D02*
Y123573D01*
G01X620094D02*
X623814D01*
G01X631099Y125239D02*
X632339Y124198D01*
X633734Y123573D01*
X634974D01*
X636214Y124198D01*
X637144Y125239D01*
X637609Y126698D01*
X637299Y128156D01*
X636524Y129406D01*
X635129Y130240D01*
X633269Y130656D01*
X632184Y131489D01*
X631719Y132948D01*
X632029Y134406D01*
X632804Y135448D01*
X633889Y136073D01*
X634974D01*
X636059Y135656D01*
X636989Y134615D01*
G01X643499Y123573D02*
Y136073D01*
G01X650009D02*
Y123573D01*
G01Y129823D02*
X643499D01*
G01X662254Y123573D02*
X656054D01*
Y136073D01*
X662254D01*
G01X659774Y130031D02*
X656054D01*
G01X668144Y123573D02*
Y136073D01*
X671244D01*
X672484Y135448D01*
X673414Y134615D01*
X674189Y133365D01*
X674809Y131906D01*
X674964Y129823D01*
X674809Y127739D01*
X674189Y126281D01*
X673414Y125031D01*
X672484Y124198D01*
X671244Y123573D01*
X668144D01*
G01X679304Y119406D02*
X688604D01*
G01X693099Y125239D02*
X694339Y124198D01*
X695734Y123573D01*
X696974D01*
X698214Y124198D01*
X699144Y125239D01*
X699609Y126698D01*
X699299Y128156D01*
X698524Y129406D01*
X697129Y130240D01*
X695269Y130656D01*
X694184Y131489D01*
X693719Y132948D01*
X694029Y134406D01*
X694804Y135448D01*
X695889Y136073D01*
X696974D01*
X698059Y135656D01*
X698989Y134615D01*
G01X706894Y136073D02*
X710614D01*
G01X708754D02*
Y123573D01*
G01X706894D02*
X710614D01*
G01X718209Y136073D02*
X724099D01*
X718209Y123573D01*
X724099D01*
G01X736654D02*
X730454D01*
Y136073D01*
X736654D01*
G01X734174Y130031D02*
X730454D01*
G01X628154Y111073D02*
X626914Y110656D01*
X625984Y109615D01*
X625364Y108365D01*
X624899Y106698D01*
X624744Y104823D01*
X624899Y102948D01*
X625364Y101281D01*
X625984Y100031D01*
X626914Y98989D01*
X628154Y98573D01*
X629394Y98989D01*
X630324Y100031D01*
X630944Y101281D01*
X631409Y102948D01*
X631564Y104823D01*
X631409Y106698D01*
X630944Y108365D01*
X630324Y109615D01*
X629394Y110656D01*
X628154Y111073D01*
G01X640554Y98156D02*
X640244Y98365D01*
Y98781D01*
X640554Y98989D01*
X640864Y98781D01*
Y98365D01*
X640554Y98156D01*
G01X649544Y101073D02*
X650474Y99614D01*
X651714Y98781D01*
X653109Y98573D01*
X654349Y98781D01*
X655589Y99822D01*
X656364Y101073D01*
X656519Y102323D01*
X656209Y103781D01*
X655124Y104823D01*
X654039Y105240D01*
X652644D01*
G01X654039D02*
X654969Y105865D01*
X655744Y106906D01*
X656054Y108156D01*
X655744Y109406D01*
X654969Y110448D01*
X653574Y111073D01*
X652179Y110865D01*
X650784Y110031D01*
G01X661944Y101073D02*
X662874Y99614D01*
X664114Y98781D01*
X665509Y98573D01*
X666749Y98781D01*
X667989Y99822D01*
X668764Y101073D01*
X668919Y102323D01*
X668609Y103781D01*
X667524Y104823D01*
X666439Y105240D01*
X665044D01*
G01X666439D02*
X667369Y105865D01*
X668144Y106906D01*
X668454Y108156D01*
X668144Y109406D01*
X667369Y110448D01*
X665974Y111073D01*
X664579Y110865D01*
X663184Y110031D01*
G01X677754Y111073D02*
X676514Y110656D01*
X675584Y109615D01*
X674964Y108365D01*
X674499Y106698D01*
X674344Y104823D01*
X674499Y102948D01*
X674964Y101281D01*
X675584Y100031D01*
X676514Y98989D01*
X677754Y98573D01*
X678994Y98989D01*
X679924Y100031D01*
X680544Y101281D01*
X681009Y102948D01*
X681164Y104823D01*
X681009Y106698D01*
X680544Y108365D01*
X679924Y109615D01*
X678994Y110656D01*
X677754Y111073D01*
G01X687209Y108989D02*
X688139Y110239D01*
X689224Y110865D01*
X690464Y111073D01*
X692014Y110656D01*
X693099Y109615D01*
X693409Y108365D01*
X693254Y107114D01*
X692634Y106073D01*
X689534Y103989D01*
X688139Y102531D01*
X687209Y100447D01*
X686899Y98573D01*
X693409D01*
G01X614686Y215328D02*
Y210328D01*
G01X613230Y215328D02*
X616143D01*
G01X619786Y210328D02*
X619280Y210411D01*
X618836Y210744D01*
X618456Y211244D01*
X618203Y211828D01*
X618076Y212494D01*
Y213161D01*
X618203Y213828D01*
X618456Y214411D01*
X618836Y214911D01*
X619280Y215244D01*
X619786Y215328D01*
X620293Y215244D01*
X620736Y214911D01*
X621116Y214411D01*
X621370Y213828D01*
X621496Y213161D01*
Y212494D01*
X621370Y211828D01*
X621116Y211244D01*
X620736Y210744D01*
X620293Y210411D01*
X619786Y210328D01*
G01X624886Y215328D02*
Y210328D01*
G01X623430Y215328D02*
X626343D01*
G01X628403Y210328D02*
X629986Y215328D01*
X631570Y210328D01*
G01X631000Y212078D02*
X628973D01*
G01X633820Y215328D02*
Y210328D01*
X636353D01*
G01X645286Y215328D02*
Y210328D01*
G01X643830Y215328D02*
X646743D01*
G01X649056Y210328D02*
Y215328D01*
G01X651716D02*
Y210328D01*
G01Y212828D02*
X649056D01*
G01X654726Y215328D02*
X656246D01*
G01X655486D02*
Y210328D01*
G01X654726D02*
X656246D01*
G01X661980Y214911D02*
X661600Y215161D01*
X661156Y215328D01*
X660650D01*
X660080Y215078D01*
X659636Y214661D01*
X659320Y214161D01*
X659066Y213328D01*
X659003Y212578D01*
X659130Y211828D01*
X659320Y211328D01*
X659700Y210828D01*
X660143Y210494D01*
X660586Y210328D01*
X661030D01*
X661473Y210494D01*
X661853Y210744D01*
X662170Y211078D01*
G01X664293Y210328D02*
Y215328D01*
G01X666700D02*
X664293Y212244D01*
G01X667080Y210328D02*
X665370Y213661D01*
G01X669330Y210328D02*
Y215328D01*
X672243Y210328D01*
Y215328D01*
G01X677153Y210328D02*
X674620D01*
Y215328D01*
X677153D01*
G01X676139Y212911D02*
X674620D01*
G01X679656Y210994D02*
X680163Y210578D01*
X680733Y210328D01*
X681239D01*
X681746Y210578D01*
X682126Y210994D01*
X682316Y211578D01*
X682190Y212161D01*
X681873Y212661D01*
X681303Y212994D01*
X680543Y213161D01*
X680100Y213494D01*
X679909Y214078D01*
X680036Y214661D01*
X680353Y215078D01*
X680796Y215328D01*
X681239D01*
X681683Y215161D01*
X682063Y214744D01*
G01X684756Y210994D02*
X685263Y210578D01*
X685833Y210328D01*
X686339D01*
X686846Y210578D01*
X687226Y210994D01*
X687416Y211578D01*
X687290Y212161D01*
X686973Y212661D01*
X686403Y212994D01*
X685643Y213161D01*
X685200Y213494D01*
X685009Y214078D01*
X685136Y214661D01*
X685453Y215078D01*
X685896Y215328D01*
X686339D01*
X686783Y215161D01*
X687163Y214744D01*
G01X696286Y215328D02*
X695780Y215161D01*
X695400Y214744D01*
X695146Y214245D01*
X694956Y213578D01*
X694893Y212828D01*
X694956Y212078D01*
X695146Y211411D01*
X695400Y210911D01*
X695780Y210494D01*
X696286Y210328D01*
X696793Y210494D01*
X697173Y210911D01*
X697426Y211411D01*
X697616Y212078D01*
X697680Y212828D01*
X697616Y213578D01*
X697426Y214245D01*
X697173Y214744D01*
X696793Y215161D01*
X696286Y215328D01*
G01X701386Y210161D02*
X701259Y210244D01*
Y210411D01*
X701386Y210494D01*
X701513Y210411D01*
Y210244D01*
X701386Y210161D01*
G01X707246Y210328D02*
Y215328D01*
X704903Y211744D01*
X708070D01*
G01X710509Y210911D02*
X710953Y210494D01*
X711459Y210328D01*
X711966Y210494D01*
X712409Y210994D01*
X712726Y211744D01*
X712853Y212494D01*
Y213411D01*
X712726Y214161D01*
X712409Y214828D01*
X712030Y215161D01*
X711586Y215328D01*
X711080Y215161D01*
X710700Y214828D01*
X710446Y214328D01*
X710320Y213661D01*
X710446Y213078D01*
X710763Y212494D01*
X711143Y212161D01*
X711586Y212078D01*
X712093Y212244D01*
X712473Y212661D01*
X712853Y213411D01*
G01X716559Y210328D02*
X716686Y211411D01*
X716876Y212328D01*
X717130Y213161D01*
X717446Y214078D01*
X717953Y215328D01*
X715420D01*
G01X721786Y210328D02*
X722230Y210411D01*
X722736Y210661D01*
X723053Y211078D01*
X723180Y211661D01*
X723053Y212244D01*
X722673Y212744D01*
X722103Y212994D01*
X721470D01*
X721089Y213161D01*
X720773Y213578D01*
X720646Y214161D01*
X720836Y214744D01*
X721280Y215161D01*
X721786Y215328D01*
X722293Y215161D01*
X722736Y214744D01*
X722926Y214161D01*
X722800Y213578D01*
X722483Y213161D01*
X722103Y212994D01*
X721470D01*
X720900Y212744D01*
X720520Y212244D01*
X720393Y211661D01*
X720520Y211078D01*
X720836Y210661D01*
X721343Y210411D01*
X721786Y210328D01*
G01X727646D02*
Y215328D01*
X725303Y211744D01*
X728470D01*
G01X735439Y210328D02*
Y215328D01*
X737086Y211161D01*
X738733Y215328D01*
Y210328D01*
G01X740539D02*
Y215328D01*
X742186Y211161D01*
X743833Y215328D01*
Y210328D01*
G01X613293Y219328D02*
Y224328D01*
X614559D01*
X615066Y224078D01*
X615446Y223744D01*
X615763Y223245D01*
X616016Y222661D01*
X616080Y221828D01*
X616016Y220994D01*
X615763Y220411D01*
X615446Y219911D01*
X615066Y219578D01*
X614559Y219328D01*
X613293D01*
G01X621053D02*
X618520D01*
Y224328D01*
X621053D01*
G01X620039Y221911D02*
X618520D01*
G01X623556Y219994D02*
X624063Y219578D01*
X624633Y219328D01*
X625139D01*
X625646Y219578D01*
X626026Y219994D01*
X626216Y220578D01*
X626090Y221161D01*
X625773Y221661D01*
X625203Y221994D01*
X624443Y222161D01*
X624000Y222494D01*
X623809Y223078D01*
X623936Y223661D01*
X624253Y224078D01*
X624696Y224328D01*
X625139D01*
X625583Y224161D01*
X625963Y223744D01*
G01X629226Y224328D02*
X630746D01*
G01X629986D02*
Y219328D01*
G01X629226D02*
X630746D01*
G01X635466Y221828D02*
X636733D01*
Y220328D01*
X636353Y219828D01*
X635909Y219494D01*
X635276Y219328D01*
X634643Y219494D01*
X634200Y219828D01*
X633820Y220328D01*
X633566Y220911D01*
X633439Y221578D01*
Y222161D01*
X633566Y222661D01*
X633820Y223245D01*
X634200Y223744D01*
X634580Y224078D01*
X635086Y224328D01*
X635530D01*
X636036Y224161D01*
X636416Y223828D01*
G01X638730Y219328D02*
Y224328D01*
X641643Y219328D01*
Y224328D01*
G01X651780Y223911D02*
X651400Y224161D01*
X650956Y224328D01*
X650450D01*
X649880Y224078D01*
X649436Y223661D01*
X649120Y223161D01*
X648866Y222328D01*
X648803Y221578D01*
X648930Y220828D01*
X649120Y220328D01*
X649500Y219828D01*
X649943Y219494D01*
X650386Y219328D01*
X650830D01*
X651273Y219494D01*
X651653Y219744D01*
X651970Y220078D01*
G01X654220Y219328D02*
Y224328D01*
X655803D01*
X656309Y224078D01*
X656626Y223744D01*
X656753Y223078D01*
X656626Y222411D01*
X656246Y221994D01*
X655803Y221744D01*
X654220D01*
G01X655803D02*
X656753Y219328D01*
G01X660586D02*
X660080Y219411D01*
X659636Y219744D01*
X659256Y220244D01*
X659003Y220828D01*
X658876Y221494D01*
Y222161D01*
X659003Y222828D01*
X659256Y223411D01*
X659636Y223911D01*
X660080Y224244D01*
X660586Y224328D01*
X661093Y224244D01*
X661536Y223911D01*
X661916Y223411D01*
X662170Y222828D01*
X662296Y222161D01*
Y221494D01*
X662170Y220828D01*
X661916Y220244D01*
X661536Y219744D01*
X661093Y219411D01*
X660586Y219328D01*
G01X664356Y219994D02*
X664863Y219578D01*
X665433Y219328D01*
X665939D01*
X666446Y219578D01*
X666826Y219994D01*
X667016Y220578D01*
X666890Y221161D01*
X666573Y221661D01*
X666003Y221994D01*
X665243Y222161D01*
X664800Y222494D01*
X664609Y223078D01*
X664736Y223661D01*
X665053Y224078D01*
X665496Y224328D01*
X665939D01*
X666383Y224161D01*
X666763Y223744D01*
G01X669456Y219994D02*
X669963Y219578D01*
X670533Y219328D01*
X671039D01*
X671546Y219578D01*
X671926Y219994D01*
X672116Y220578D01*
X671990Y221161D01*
X671673Y221661D01*
X671103Y221994D01*
X670343Y222161D01*
X669900Y222494D01*
X669709Y223078D01*
X669836Y223661D01*
X670153Y224078D01*
X670596Y224328D01*
X671039D01*
X671483Y224161D01*
X671863Y223744D01*
G01X679656Y219994D02*
X680163Y219578D01*
X680733Y219328D01*
X681239D01*
X681746Y219578D01*
X682126Y219994D01*
X682316Y220578D01*
X682190Y221161D01*
X681873Y221661D01*
X681303Y221994D01*
X680543Y222161D01*
X680100Y222494D01*
X679909Y223078D01*
X680036Y223661D01*
X680353Y224078D01*
X680796Y224328D01*
X681239D01*
X681683Y224161D01*
X682063Y223744D01*
G01X687353Y219328D02*
X684820D01*
Y224328D01*
X687353D01*
G01X686339Y221911D02*
X684820D01*
G01X692580Y223911D02*
X692200Y224161D01*
X691756Y224328D01*
X691250D01*
X690680Y224078D01*
X690236Y223661D01*
X689920Y223161D01*
X689666Y222328D01*
X689603Y221578D01*
X689730Y220828D01*
X689920Y220328D01*
X690300Y219828D01*
X690743Y219494D01*
X691186Y219328D01*
X691630D01*
X692073Y219494D01*
X692453Y219744D01*
X692770Y220078D01*
G01X696286Y224328D02*
Y219328D01*
G01X694830Y224328D02*
X697743D01*
G01X700626D02*
X702146D01*
G01X701386D02*
Y219328D01*
G01X700626D02*
X702146D01*
G01X706486D02*
X705980Y219411D01*
X705536Y219744D01*
X705156Y220244D01*
X704903Y220828D01*
X704776Y221494D01*
Y222161D01*
X704903Y222828D01*
X705156Y223411D01*
X705536Y223911D01*
X705980Y224244D01*
X706486Y224328D01*
X706993Y224244D01*
X707436Y223911D01*
X707816Y223411D01*
X708070Y222828D01*
X708196Y222161D01*
Y221494D01*
X708070Y220828D01*
X707816Y220244D01*
X707436Y219744D01*
X706993Y219411D01*
X706486Y219328D01*
G01X710130D02*
Y224328D01*
X713043Y219328D01*
Y224328D01*
G01X723180Y223911D02*
X722800Y224161D01*
X722356Y224328D01*
X721850D01*
X721280Y224078D01*
X720836Y223661D01*
X720520Y223161D01*
X720266Y222328D01*
X720203Y221578D01*
X720330Y220828D01*
X720520Y220328D01*
X720900Y219828D01*
X721343Y219494D01*
X721786Y219328D01*
X722230D01*
X722673Y219494D01*
X723053Y219744D01*
X723370Y220078D01*
G01X725556Y219328D02*
Y224328D01*
G01X728216D02*
Y219328D01*
G01Y221828D02*
X725556D01*
G01X730403Y219328D02*
X731986Y224328D01*
X733570Y219328D01*
G01X733000Y221078D02*
X730973D01*
G01X735820Y219328D02*
Y224328D01*
X737403D01*
X737909Y224078D01*
X738226Y223744D01*
X738353Y223078D01*
X738226Y222411D01*
X737846Y221994D01*
X737403Y221744D01*
X735820D01*
G01X737403D02*
X738353Y219328D01*
G01X742186Y224328D02*
Y219328D01*
G01X740730Y224328D02*
X743643D01*
G01X610236Y217661D02*
X614036D01*
G01X615336D02*
X619136D01*
G01X620436D02*
X624236D01*
G01X625536D02*
X629336D01*
G01X630636D02*
X634436D01*
G01X635736D02*
X639536D01*
G01X640836D02*
X644636D01*
G01X645936D02*
X649736D01*
G01X651036D02*
X654836D01*
G01X656136D02*
X659936D01*
G01X661236D02*
X665036D01*
G01X666336D02*
X670136D01*
G01X671436D02*
X675236D01*
G01X676536D02*
X680336D01*
G01X681636D02*
X685436D01*
G01X686736D02*
X690536D01*
G01X691836D02*
X695636D01*
G01X696936D02*
X700736D01*
G01X702036D02*
X705836D01*
G01X707136D02*
X710936D01*
G01X712236D02*
X716036D01*
G01X717336D02*
X721136D01*
G01X722436D02*
X726236D01*
G01X727536D02*
X731336D01*
G01X732636D02*
X736436D01*
G01X737736D02*
X741536D01*
G01X742836D02*
X746636D01*
G01X615634Y534343D02*
Y544343D01*
X618134D01*
X619134Y543842D01*
X619884Y543176D01*
X620509Y542176D01*
X621009Y541009D01*
X621134Y539343D01*
X621009Y537676D01*
X620509Y536509D01*
X619884Y535509D01*
X619134Y534843D01*
X618134Y534343D01*
X615634D01*
G01X630884D02*
X625884D01*
Y544343D01*
X630884D01*
G01X628884Y539509D02*
X625884D01*
G01X635759Y535676D02*
X636759Y534843D01*
X637884Y534343D01*
X638884D01*
X639884Y534843D01*
X640634Y535676D01*
X641009Y536843D01*
X640759Y538009D01*
X640134Y539009D01*
X639009Y539676D01*
X637509Y540009D01*
X636634Y540676D01*
X636259Y541843D01*
X636509Y543009D01*
X637134Y543842D01*
X638009Y544343D01*
X638884D01*
X639759Y544009D01*
X640509Y543176D01*
G01X651134Y543509D02*
X650384Y544009D01*
X649509Y544343D01*
X648509D01*
X647384Y543842D01*
X646509Y543009D01*
X645884Y542009D01*
X645384Y540343D01*
X645259Y538843D01*
X645509Y537343D01*
X645884Y536343D01*
X646634Y535342D01*
X647509Y534676D01*
X648384Y534343D01*
X649259D01*
X650134Y534676D01*
X650884Y535176D01*
X651509Y535842D01*
G01X655884Y534343D02*
Y544343D01*
X659009D01*
X660009Y543842D01*
X660634Y543176D01*
X660884Y541843D01*
X660634Y540509D01*
X659884Y539676D01*
X659009Y539176D01*
X655884D01*
G01X659009D02*
X660884Y534343D01*
G01X666884Y544343D02*
X669883D01*
G01X668384D02*
Y534343D01*
G01X666884D02*
X669883D01*
G01X675884D02*
Y544343D01*
X678884D01*
X679884Y543842D01*
X680634Y542676D01*
X680884Y541343D01*
X680634Y540009D01*
X680009Y539009D01*
X678884Y538509D01*
X675884D01*
G01X688384Y544343D02*
Y534343D01*
G01X685509Y544343D02*
X691259D01*
G01X696884D02*
X699883D01*
G01X698384D02*
Y534343D01*
G01X696884D02*
X699883D01*
G01X708384D02*
X707384Y534509D01*
X706509Y535176D01*
X705759Y536176D01*
X705259Y537343D01*
X705009Y538676D01*
Y540009D01*
X705259Y541343D01*
X705759Y542509D01*
X706509Y543509D01*
X707384Y544176D01*
X708384Y544343D01*
X709384Y544176D01*
X710259Y543509D01*
X711009Y542509D01*
X711509Y541343D01*
X711759Y540009D01*
Y538676D01*
X711509Y537343D01*
X711009Y536176D01*
X710259Y535176D01*
X709384Y534509D01*
X708384Y534343D01*
G01X715509D02*
Y544343D01*
X721259Y534343D01*
Y544343D01*
G01X634634Y-183157D02*
Y-143157D01*
G01X646009Y-158157D02*
Y-148157D01*
X650759D01*
G01X649009Y-152991D02*
X646009D01*
G01X655759Y-156824D02*
X656759Y-157657D01*
X657884Y-158157D01*
X658884D01*
X659884Y-157657D01*
X660634Y-156824D01*
X661009Y-155657D01*
X660759Y-154491D01*
X660134Y-153491D01*
X659009Y-152824D01*
X657509Y-152491D01*
X656634Y-151824D01*
X656259Y-150657D01*
X656509Y-149491D01*
X657134Y-148658D01*
X658009Y-148157D01*
X658884D01*
X659759Y-148491D01*
X660509Y-149324D01*
G01X671134Y-148991D02*
X670384Y-148491D01*
X669509Y-148157D01*
X668509D01*
X667384Y-148658D01*
X666509Y-149491D01*
X665884Y-150491D01*
X665384Y-152157D01*
X665259Y-153657D01*
X665509Y-155157D01*
X665884Y-156157D01*
X666634Y-157158D01*
X667509Y-157824D01*
X668384Y-158157D01*
X669259D01*
X670134Y-157824D01*
X670884Y-157324D01*
X671509Y-156658D01*
G01X675134Y-158157D02*
Y-148157D01*
X678384Y-156491D01*
X681634Y-148157D01*
Y-158157D01*
G01X695509D02*
Y-148157D01*
X701259Y-158157D01*
Y-148157D01*
G01X708384Y-158157D02*
X707384Y-157991D01*
X706509Y-157324D01*
X705759Y-156324D01*
X705259Y-155157D01*
X705009Y-153824D01*
Y-152491D01*
X705259Y-151157D01*
X705759Y-149991D01*
X706509Y-148991D01*
X707384Y-148324D01*
X708384Y-148157D01*
X709384Y-148324D01*
X710259Y-148991D01*
X711009Y-149991D01*
X711509Y-151157D01*
X711759Y-152491D01*
Y-153824D01*
X711509Y-155157D01*
X711009Y-156324D01*
X710259Y-157324D01*
X709384Y-157991D01*
X708384Y-158157D01*
G01X660884Y-63157D02*
X655884D01*
Y-53157D01*
X660884D01*
G01X658884Y-57991D02*
X655884D01*
G01X665134Y-63157D02*
Y-53157D01*
X668384Y-61491D01*
X671634Y-53157D01*
Y-63157D01*
G01X675259D02*
X678384Y-53157D01*
X681509Y-63157D01*
G01X680384Y-59657D02*
X676384D01*
G01X695634Y-63157D02*
Y-53157D01*
X698134D01*
X699134Y-53658D01*
X699884Y-54324D01*
X700509Y-55324D01*
X701009Y-56491D01*
X701134Y-58157D01*
X701009Y-59824D01*
X700509Y-60991D01*
X699884Y-61991D01*
X699134Y-62657D01*
X698134Y-63157D01*
X695634D01*
G01X710884D02*
X705884D01*
Y-53157D01*
X710884D01*
G01X708884Y-57991D02*
X705884D01*
G01X715759Y-61824D02*
X716759Y-62657D01*
X717884Y-63157D01*
X718884D01*
X719884Y-62657D01*
X720634Y-61824D01*
X721009Y-60657D01*
X720759Y-59491D01*
X720134Y-58491D01*
X719009Y-57824D01*
X717509Y-57491D01*
X716634Y-56824D01*
X716259Y-55657D01*
X716509Y-54491D01*
X717134Y-53658D01*
X718009Y-53157D01*
X718884D01*
X719759Y-53491D01*
X720509Y-54324D01*
G01X726884Y-53157D02*
X729883D01*
G01X728384D02*
Y-63157D01*
G01X726884D02*
X729883D01*
G01X739134Y-58157D02*
X741634D01*
Y-61157D01*
X740884Y-62158D01*
X740009Y-62824D01*
X738759Y-63157D01*
X737509Y-62824D01*
X736634Y-62158D01*
X735884Y-61157D01*
X735384Y-59991D01*
X735134Y-58657D01*
Y-57491D01*
X735384Y-56491D01*
X735884Y-55324D01*
X736634Y-54324D01*
X737384Y-53658D01*
X738384Y-53157D01*
X739259D01*
X740259Y-53491D01*
X741009Y-54157D01*
G01X745509Y-63157D02*
Y-53157D01*
X751259Y-63157D01*
Y-53157D01*
G01X765259Y-63157D02*
X768384Y-53157D01*
X771509Y-63157D01*
G01X770384Y-59657D02*
X766384D01*
G01X775634Y-53157D02*
Y-60324D01*
X776134Y-61824D01*
X777134Y-62824D01*
X778384Y-63157D01*
X779634Y-62824D01*
X780634Y-61824D01*
X781134Y-60324D01*
Y-53157D01*
G01X788384D02*
Y-63157D01*
G01X785509Y-53157D02*
X791259D01*
G01X798384Y-63157D02*
X797384Y-62991D01*
X796509Y-62324D01*
X795759Y-61324D01*
X795259Y-60157D01*
X795009Y-58824D01*
Y-57491D01*
X795259Y-56157D01*
X795759Y-54991D01*
X796509Y-53991D01*
X797384Y-53324D01*
X798384Y-53157D01*
X799384Y-53324D01*
X800259Y-53991D01*
X801009Y-54991D01*
X801509Y-56157D01*
X801759Y-57491D01*
Y-58824D01*
X801509Y-60157D01*
X801009Y-61324D01*
X800259Y-62324D01*
X799384Y-62991D01*
X798384Y-63157D01*
G01X805134D02*
Y-53157D01*
X808384Y-61491D01*
X811634Y-53157D01*
Y-63157D01*
G01X815259D02*
X818384Y-53157D01*
X821509Y-63157D01*
G01X820384Y-59657D02*
X816384D01*
G01X828384Y-53157D02*
Y-63157D01*
G01X825509Y-53157D02*
X831259D01*
G01X836884D02*
X839883D01*
G01X838384D02*
Y-63157D01*
G01X836884D02*
X839883D01*
G01X848384D02*
X847384Y-62991D01*
X846509Y-62324D01*
X845759Y-61324D01*
X845259Y-60157D01*
X845009Y-58824D01*
Y-57491D01*
X845259Y-56157D01*
X845759Y-54991D01*
X846509Y-53991D01*
X847384Y-53324D01*
X848384Y-53157D01*
X849384Y-53324D01*
X850259Y-53991D01*
X851009Y-54991D01*
X851509Y-56157D01*
X851759Y-57491D01*
Y-58824D01*
X851509Y-60157D01*
X851009Y-61324D01*
X850259Y-62324D01*
X849384Y-62991D01*
X848384Y-63157D01*
G01X855509D02*
Y-53157D01*
X861259Y-63157D01*
Y-53157D01*
G01X643344Y1073D02*
X644274Y-386D01*
X645514Y-1219D01*
X646909Y-1427D01*
X648149Y-1219D01*
X649389Y-178D01*
X650164Y1073D01*
X650319Y2323D01*
X650009Y3781D01*
X648924Y4823D01*
X647839Y5240D01*
X646444D01*
G01X647839D02*
X648769Y5865D01*
X649544Y6906D01*
X649854Y8156D01*
X649544Y9406D01*
X648769Y10448D01*
X647374Y11073D01*
X645979Y10865D01*
X644584Y10031D01*
G01X659154Y-1844D02*
X658844Y-1635D01*
Y-1219D01*
X659154Y-1011D01*
X659464Y-1219D01*
Y-1635D01*
X659154Y-1844D01*
G01X668144Y1073D02*
X669074Y-386D01*
X670314Y-1219D01*
X671709Y-1427D01*
X672949Y-1219D01*
X674189Y-178D01*
X674964Y1073D01*
X675119Y2323D01*
X674809Y3781D01*
X673724Y4823D01*
X672639Y5240D01*
X671244D01*
G01X672639D02*
X673569Y5865D01*
X674344Y6906D01*
X674654Y8156D01*
X674344Y9406D01*
X673569Y10448D01*
X672174Y11073D01*
X670779Y10865D01*
X669384Y10031D01*
G01X637144Y26073D02*
X638074Y24614D01*
X639314Y23781D01*
X640709Y23573D01*
X641949Y23781D01*
X643189Y24822D01*
X643964Y26073D01*
X644119Y27323D01*
X643809Y28781D01*
X642724Y29823D01*
X641639Y30240D01*
X640244D01*
G01X641639D02*
X642569Y30865D01*
X643344Y31906D01*
X643654Y33156D01*
X643344Y34406D01*
X642569Y35448D01*
X641174Y36073D01*
X639779Y35865D01*
X638384Y35031D01*
G01X652954Y23156D02*
X652644Y23365D01*
Y23781D01*
X652954Y23989D01*
X653264Y23781D01*
Y23365D01*
X652954Y23156D01*
G01X665354Y23573D02*
X666439Y23781D01*
X667679Y24406D01*
X668454Y25447D01*
X668764Y26906D01*
X668454Y28364D01*
X667524Y29614D01*
X666129Y30240D01*
X664579D01*
X663649Y30656D01*
X662874Y31698D01*
X662564Y33156D01*
X663029Y34615D01*
X664114Y35656D01*
X665354Y36073D01*
X666594Y35656D01*
X667679Y34615D01*
X668144Y33156D01*
X667834Y31698D01*
X667059Y30656D01*
X666129Y30240D01*
X664579D01*
X663184Y29614D01*
X662254Y28364D01*
X661944Y26906D01*
X662254Y25447D01*
X663029Y24406D01*
X664269Y23781D01*
X665354Y23573D01*
G01X677754D02*
Y36073D01*
X675894Y33573D01*
G01Y23573D02*
X679614D01*
G01X634354Y48573D02*
Y61073D01*
X632494Y58573D01*
G01Y48573D02*
X636214D01*
G01X646754Y48156D02*
X646444Y48365D01*
Y48781D01*
X646754Y48989D01*
X647064Y48781D01*
Y48365D01*
X646754Y48156D01*
G01X659154Y61073D02*
X657914Y60656D01*
X656984Y59615D01*
X656364Y58365D01*
X655899Y56698D01*
X655744Y54823D01*
X655899Y52948D01*
X656364Y51281D01*
X656984Y50031D01*
X657914Y48989D01*
X659154Y48573D01*
X660394Y48989D01*
X661324Y50031D01*
X661944Y51281D01*
X662409Y52948D01*
X662564Y54823D01*
X662409Y56698D01*
X661944Y58365D01*
X661324Y59615D01*
X660394Y60656D01*
X659154Y61073D01*
G01X671554Y48573D02*
Y61073D01*
X669694Y58573D01*
G01Y48573D02*
X673414D01*
G01X681009Y53781D02*
X682094Y55240D01*
X683024Y56073D01*
X684264Y56489D01*
X685349Y56073D01*
X686124Y55240D01*
X686744Y53989D01*
X686899Y52531D01*
X686744Y51281D01*
X686124Y50031D01*
X685194Y48989D01*
X684109Y48573D01*
X682869Y48989D01*
X681784Y50239D01*
X681164Y52115D01*
X681009Y54198D01*
X681319Y56906D01*
X681784Y58365D01*
X682559Y59823D01*
X683644Y60865D01*
X684729Y61073D01*
X685814Y60656D01*
X686589Y59615D01*
G01X646754Y86073D02*
X645514Y85656D01*
X644584Y84615D01*
X643964Y83365D01*
X643499Y81698D01*
X643344Y79823D01*
X643499Y77948D01*
X643964Y76281D01*
X644584Y75031D01*
X645514Y73989D01*
X646754Y73573D01*
X647994Y73989D01*
X648924Y75031D01*
X649544Y76281D01*
X650009Y77948D01*
X650164Y79823D01*
X650009Y81698D01*
X649544Y83365D01*
X648924Y84615D01*
X647994Y85656D01*
X646754Y86073D01*
G01X659154Y73156D02*
X658844Y73365D01*
Y73781D01*
X659154Y73989D01*
X659464Y73781D01*
Y73365D01*
X659154Y73156D01*
G01X671244Y73573D02*
X671554Y76281D01*
X672019Y78572D01*
X672639Y80656D01*
X673414Y82948D01*
X674654Y86073D01*
X668454D01*
G01X648436Y249901D02*
Y331501D01*
X708436D01*
Y249901D01*
X648436D01*
G01Y343741D02*
Y425341D01*
X708436D01*
Y343741D01*
X648436D01*
G01X674634Y-183157D02*
Y-213157D01*
G01X675936Y444480D02*
X670936D01*
X671936Y443720D01*
G01X675936D02*
Y445240D01*
G01X674270Y448757D02*
Y450404D01*
G01X674936Y453287D02*
X675520Y453667D01*
X675853Y454174D01*
X675936Y454744D01*
X675853Y455250D01*
X675436Y455757D01*
X674936Y456074D01*
X674436Y456137D01*
X673853Y456010D01*
X673436Y455567D01*
X673270Y455124D01*
Y454554D01*
G01Y455124D02*
X673020Y455504D01*
X672603Y455820D01*
X672103Y455947D01*
X671603Y455820D01*
X671186Y455504D01*
X670936Y454933D01*
X671020Y454364D01*
X671353Y453794D01*
G01X724243Y230828D02*
X727030Y234494D01*
G01X725636Y235161D02*
Y230161D01*
G01X727030Y230828D02*
X724243Y234494D01*
G01X723736Y232661D02*
X727536D01*
G01X739606Y231661D02*
X740113Y231244D01*
X740683Y230994D01*
X741189D01*
X741696Y231244D01*
X742076Y231661D01*
X742266Y232244D01*
X742140Y232828D01*
X741823Y233328D01*
X741253Y233661D01*
X740493Y233828D01*
X740050Y234161D01*
X739859Y234744D01*
X739986Y235328D01*
X740303Y235744D01*
X740746Y235994D01*
X741189D01*
X741633Y235828D01*
X742013Y235411D01*
G01X744643Y235994D02*
Y232411D01*
X744896Y231661D01*
X745403Y231161D01*
X746036Y230994D01*
X746670Y231161D01*
X747176Y231661D01*
X747430Y232411D01*
Y235994D01*
G01X749870Y230994D02*
Y235994D01*
X751453D01*
X751959Y235744D01*
X752276Y235411D01*
X752403Y234744D01*
X752276Y234078D01*
X751896Y233661D01*
X751453Y233411D01*
X749870D01*
G01X751453D02*
X752403Y230994D01*
G01X755033D02*
Y235994D01*
X757440D01*
G01X756553Y233578D02*
X755033D01*
G01X759753Y230994D02*
X761336Y235994D01*
X762920Y230994D01*
G01X762350Y232744D02*
X760323D01*
G01X767830Y235578D02*
X767450Y235828D01*
X767006Y235994D01*
X766500D01*
X765930Y235744D01*
X765486Y235328D01*
X765170Y234828D01*
X764916Y233994D01*
X764853Y233244D01*
X764980Y232494D01*
X765170Y231994D01*
X765550Y231494D01*
X765993Y231161D01*
X766436Y230994D01*
X766880D01*
X767323Y231161D01*
X767703Y231411D01*
X768020Y231744D01*
G01X772803Y230994D02*
X770270D01*
Y235994D01*
X772803D01*
G01X771789Y233578D02*
X770270D01*
G01X714170Y248234D02*
Y243234D01*
X716703D01*
G01X719143Y244234D02*
X719523Y243651D01*
X720030Y243318D01*
X720600Y243234D01*
X721106Y243318D01*
X721613Y243734D01*
X721930Y244234D01*
X721993Y244734D01*
X721866Y245317D01*
X721423Y245734D01*
X720980Y245901D01*
X720409D01*
G01X720980D02*
X721359Y246151D01*
X721676Y246567D01*
X721803Y247068D01*
X721676Y247568D01*
X721359Y247984D01*
X720789Y248234D01*
X720220Y248151D01*
X719650Y247818D01*
G01X731243Y245901D02*
X731496Y246151D01*
X731686Y246567D01*
X731813Y247151D01*
X731686Y247651D01*
X731433Y247984D01*
X730989Y248234D01*
X729280D01*
Y243234D01*
X731370D01*
X731813Y243567D01*
X732066Y244068D01*
X732193Y244651D01*
X732066Y245234D01*
X731686Y245734D01*
X731243Y245901D01*
X729280D01*
G01X735836Y243234D02*
X735330Y243318D01*
X734886Y243651D01*
X734506Y244151D01*
X734253Y244734D01*
X734126Y245401D01*
Y246068D01*
X734253Y246734D01*
X734506Y247318D01*
X734886Y247818D01*
X735330Y248151D01*
X735836Y248234D01*
X736343Y248151D01*
X736786Y247818D01*
X737166Y247318D01*
X737420Y246734D01*
X737546Y246068D01*
Y245401D01*
X737420Y244734D01*
X737166Y244151D01*
X736786Y243651D01*
X736343Y243318D01*
X735836Y243234D01*
G01X740936Y248234D02*
Y243234D01*
G01X739480Y248234D02*
X742393D01*
G01X746036D02*
Y243234D01*
G01X744580Y248234D02*
X747493D01*
G01X751136Y243234D02*
X750630Y243318D01*
X750186Y243651D01*
X749806Y244151D01*
X749553Y244734D01*
X749426Y245401D01*
Y246068D01*
X749553Y246734D01*
X749806Y247318D01*
X750186Y247818D01*
X750630Y248151D01*
X751136Y248234D01*
X751643Y248151D01*
X752086Y247818D01*
X752466Y247318D01*
X752720Y246734D01*
X752846Y246068D01*
Y245401D01*
X752720Y244734D01*
X752466Y244151D01*
X752086Y243651D01*
X751643Y243318D01*
X751136Y243234D01*
G01X754589D02*
Y248234D01*
X756236Y244068D01*
X757883Y248234D01*
Y243234D01*
G01X767830Y247818D02*
X767450Y248068D01*
X767006Y248234D01*
X766500D01*
X765930Y247984D01*
X765486Y247568D01*
X765170Y247068D01*
X764916Y246234D01*
X764853Y245484D01*
X764980Y244734D01*
X765170Y244234D01*
X765550Y243734D01*
X765993Y243401D01*
X766436Y243234D01*
X766880D01*
X767323Y243401D01*
X767703Y243651D01*
X768020Y243984D01*
G01X771536Y243234D02*
X771030Y243318D01*
X770586Y243651D01*
X770206Y244151D01*
X769953Y244734D01*
X769826Y245401D01*
Y246068D01*
X769953Y246734D01*
X770206Y247318D01*
X770586Y247818D01*
X771030Y248151D01*
X771536Y248234D01*
X772043Y248151D01*
X772486Y247818D01*
X772866Y247318D01*
X773120Y246734D01*
X773246Y246068D01*
Y245401D01*
X773120Y244734D01*
X772866Y244151D01*
X772486Y243651D01*
X772043Y243318D01*
X771536Y243234D01*
G01X775180D02*
Y248234D01*
X778093Y243234D01*
Y248234D01*
G01X780343Y243234D02*
Y248234D01*
X781609D01*
X782116Y247984D01*
X782496Y247651D01*
X782813Y247151D01*
X783066Y246567D01*
X783130Y245734D01*
X783066Y244901D01*
X782813Y244317D01*
X782496Y243817D01*
X782116Y243484D01*
X781609Y243234D01*
X780343D01*
G01X785443Y248234D02*
Y244651D01*
X785696Y243901D01*
X786203Y243401D01*
X786836Y243234D01*
X787470Y243401D01*
X787976Y243901D01*
X788230Y244651D01*
Y248234D01*
G01X793330Y247818D02*
X792950Y248068D01*
X792506Y248234D01*
X792000D01*
X791430Y247984D01*
X790986Y247568D01*
X790670Y247068D01*
X790416Y246234D01*
X790353Y245484D01*
X790480Y244734D01*
X790670Y244234D01*
X791050Y243734D01*
X791493Y243401D01*
X791936Y243234D01*
X792380D01*
X792823Y243401D01*
X793203Y243651D01*
X793520Y243984D01*
G01X797036Y248234D02*
Y243234D01*
G01X795580Y248234D02*
X798493D01*
G01X802136Y243234D02*
X801630Y243318D01*
X801186Y243651D01*
X800806Y244151D01*
X800553Y244734D01*
X800426Y245401D01*
Y246068D01*
X800553Y246734D01*
X800806Y247318D01*
X801186Y247818D01*
X801630Y248151D01*
X802136Y248234D01*
X802643Y248151D01*
X803086Y247818D01*
X803466Y247318D01*
X803720Y246734D01*
X803846Y246068D01*
Y245401D01*
X803720Y244734D01*
X803466Y244151D01*
X803086Y243651D01*
X802643Y243318D01*
X802136Y243234D01*
G01X805970D02*
Y248234D01*
X807553D01*
X808059Y247984D01*
X808376Y247651D01*
X808503Y246984D01*
X808376Y246318D01*
X807996Y245901D01*
X807553Y245651D01*
X805970D01*
G01X807553D02*
X808503Y243234D01*
G01X724243Y290534D02*
X727030Y294201D01*
G01X725636Y294867D02*
Y289867D01*
G01X727030Y290534D02*
X724243Y294201D01*
G01X723736Y292367D02*
X727536D01*
G01X739543Y290701D02*
Y295701D01*
X740809D01*
X741316Y295451D01*
X741696Y295117D01*
X742013Y294618D01*
X742266Y294034D01*
X742330Y293201D01*
X742266Y292367D01*
X742013Y291784D01*
X741696Y291284D01*
X741316Y290951D01*
X740809Y290701D01*
X739543D01*
G01X745276Y295701D02*
X746796D01*
G01X746036D02*
Y290701D01*
G01X745276D02*
X746796D01*
G01X752403D02*
X749870D01*
Y295701D01*
X752403D01*
G01X751389Y293284D02*
X749870D01*
G01X754970Y295701D02*
Y290701D01*
X757503D01*
G01X762603D02*
X760070D01*
Y295701D01*
X762603D01*
G01X761589Y293284D02*
X760070D01*
G01X767830Y295284D02*
X767450Y295534D01*
X767006Y295701D01*
X766500D01*
X765930Y295451D01*
X765486Y295034D01*
X765170Y294534D01*
X764916Y293701D01*
X764853Y292951D01*
X764980Y292201D01*
X765170Y291701D01*
X765550Y291201D01*
X765993Y290867D01*
X766436Y290701D01*
X766880D01*
X767323Y290867D01*
X767703Y291117D01*
X768020Y291451D01*
G01X771536Y295701D02*
Y290701D01*
G01X770080Y295701D02*
X772993D01*
G01X775370Y290701D02*
Y295701D01*
X776953D01*
X777459Y295451D01*
X777776Y295117D01*
X777903Y294451D01*
X777776Y293784D01*
X777396Y293367D01*
X776953Y293117D01*
X775370D01*
G01X776953D02*
X777903Y290701D01*
G01X780976Y295701D02*
X782496D01*
G01X781736D02*
Y290701D01*
G01X780976D02*
X782496D01*
G01X788230Y295284D02*
X787850Y295534D01*
X787406Y295701D01*
X786900D01*
X786330Y295451D01*
X785886Y295034D01*
X785570Y294534D01*
X785316Y293701D01*
X785253Y292951D01*
X785380Y292201D01*
X785570Y291701D01*
X785950Y291201D01*
X786393Y290867D01*
X786836Y290701D01*
X787280D01*
X787723Y290867D01*
X788103Y291117D01*
X788420Y291451D01*
G01X714170Y342074D02*
Y337074D01*
X716703D01*
G01X719333Y341241D02*
X719713Y341741D01*
X720156Y341991D01*
X720663Y342074D01*
X721296Y341907D01*
X721740Y341491D01*
X721866Y340991D01*
X721803Y340491D01*
X721550Y340074D01*
X720283Y339241D01*
X719713Y338657D01*
X719333Y337824D01*
X719206Y337074D01*
X721866D01*
G01X729470D02*
Y342074D01*
X730989D01*
X731496Y341824D01*
X731876Y341241D01*
X732003Y340574D01*
X731876Y339907D01*
X731559Y339407D01*
X730989Y339157D01*
X729470D01*
G01X735836Y337074D02*
X735330Y337157D01*
X734886Y337491D01*
X734506Y337991D01*
X734253Y338574D01*
X734126Y339241D01*
Y339907D01*
X734253Y340574D01*
X734506Y341157D01*
X734886Y341657D01*
X735330Y341991D01*
X735836Y342074D01*
X736343Y341991D01*
X736786Y341657D01*
X737166Y341157D01*
X737420Y340574D01*
X737546Y339907D01*
Y339241D01*
X737420Y338574D01*
X737166Y337991D01*
X736786Y337491D01*
X736343Y337157D01*
X735836Y337074D01*
G01X739036Y342074D02*
X739923Y337074D01*
X740936Y342074D01*
X741950Y337074D01*
X742836Y342074D01*
G01X747303Y337074D02*
X744770D01*
Y342074D01*
X747303D01*
G01X746289Y339657D02*
X744770D01*
G01X749870Y337074D02*
Y342074D01*
X751453D01*
X751959Y341824D01*
X752276Y341491D01*
X752403Y340824D01*
X752276Y340157D01*
X751896Y339741D01*
X751453Y339491D01*
X749870D01*
G01X751453D02*
X752403Y337074D01*
G01X760070D02*
Y342074D01*
X761589D01*
X762096Y341824D01*
X762476Y341241D01*
X762603Y340574D01*
X762476Y339907D01*
X762159Y339407D01*
X761589Y339157D01*
X760070D01*
G01X765170Y342074D02*
Y337074D01*
X767703D01*
G01X769953D02*
X771536Y342074D01*
X773120Y337074D01*
G01X772550Y338824D02*
X770523D01*
G01X775180Y337074D02*
Y342074D01*
X778093Y337074D01*
Y342074D01*
G01X783003Y337074D02*
X780470D01*
Y342074D01*
X783003D01*
G01X781989Y339657D02*
X780470D01*
G01X790670Y337074D02*
Y342074D01*
X792189D01*
X792696Y341824D01*
X793076Y341241D01*
X793203Y340574D01*
X793076Y339907D01*
X792759Y339407D01*
X792189Y339157D01*
X790670D01*
G01X795770Y342074D02*
Y337074D01*
X798303D01*
G01X800553D02*
X802136Y342074D01*
X803720Y337074D01*
G01X803150Y338824D02*
X801123D01*
G01X805780Y337074D02*
Y342074D01*
X808693Y337074D01*
Y342074D01*
G01X813603Y337074D02*
X811070D01*
Y342074D01*
X813603D01*
G01X812589Y339657D02*
X811070D01*
G01X724243Y384374D02*
X727030Y388041D01*
G01X725636Y388707D02*
Y383707D01*
G01X727030Y384374D02*
X724243Y388041D01*
G01X723736Y386207D02*
X727536D01*
G01X739543Y384541D02*
Y389541D01*
X740809D01*
X741316Y389291D01*
X741696Y388957D01*
X742013Y388457D01*
X742266Y387874D01*
X742330Y387041D01*
X742266Y386207D01*
X742013Y385624D01*
X741696Y385124D01*
X741316Y384791D01*
X740809Y384541D01*
X739543D01*
G01X745276Y389541D02*
X746796D01*
G01X746036D02*
Y384541D01*
G01X745276D02*
X746796D01*
G01X752403D02*
X749870D01*
Y389541D01*
X752403D01*
G01X751389Y387124D02*
X749870D01*
G01X754970Y389541D02*
Y384541D01*
X757503D01*
G01X762603D02*
X760070D01*
Y389541D01*
X762603D01*
G01X761589Y387124D02*
X760070D01*
G01X767830Y389124D02*
X767450Y389374D01*
X767006Y389541D01*
X766500D01*
X765930Y389291D01*
X765486Y388874D01*
X765170Y388374D01*
X764916Y387541D01*
X764853Y386791D01*
X764980Y386041D01*
X765170Y385541D01*
X765550Y385041D01*
X765993Y384707D01*
X766436Y384541D01*
X766880D01*
X767323Y384707D01*
X767703Y384957D01*
X768020Y385291D01*
G01X771536Y389541D02*
Y384541D01*
G01X770080Y389541D02*
X772993D01*
G01X775370Y384541D02*
Y389541D01*
X776953D01*
X777459Y389291D01*
X777776Y388957D01*
X777903Y388291D01*
X777776Y387624D01*
X777396Y387207D01*
X776953Y386957D01*
X775370D01*
G01X776953D02*
X777903Y384541D01*
G01X780976Y389541D02*
X782496D01*
G01X781736D02*
Y384541D01*
G01X780976D02*
X782496D01*
G01X788230Y389124D02*
X787850Y389374D01*
X787406Y389541D01*
X786900D01*
X786330Y389291D01*
X785886Y388874D01*
X785570Y388374D01*
X785316Y387541D01*
X785253Y386791D01*
X785380Y386041D01*
X785570Y385541D01*
X785950Y385041D01*
X786393Y384707D01*
X786836Y384541D01*
X787280D01*
X787723Y384707D01*
X788103Y384957D01*
X788420Y385291D01*
G01X724243Y439080D02*
X727030Y442747D01*
G01X725636Y443413D02*
Y438413D01*
G01X727030Y439080D02*
X724243Y442747D01*
G01X723736Y440913D02*
X727536D01*
G01X739606Y439913D02*
X740113Y439497D01*
X740683Y439247D01*
X741189D01*
X741696Y439497D01*
X742076Y439913D01*
X742266Y440497D01*
X742140Y441080D01*
X741823Y441580D01*
X741253Y441913D01*
X740493Y442080D01*
X740050Y442413D01*
X739859Y442997D01*
X739986Y443580D01*
X740303Y443997D01*
X740746Y444247D01*
X741189D01*
X741633Y444080D01*
X742013Y443663D01*
G01X744643Y444247D02*
Y440663D01*
X744896Y439913D01*
X745403Y439413D01*
X746036Y439247D01*
X746670Y439413D01*
X747176Y439913D01*
X747430Y440663D01*
Y444247D01*
G01X749870Y439247D02*
Y444247D01*
X751453D01*
X751959Y443997D01*
X752276Y443663D01*
X752403Y442997D01*
X752276Y442330D01*
X751896Y441913D01*
X751453Y441663D01*
X749870D01*
G01X751453D02*
X752403Y439247D01*
G01X755033D02*
Y444247D01*
X757440D01*
G01X756553Y441830D02*
X755033D01*
G01X759753Y439247D02*
X761336Y444247D01*
X762920Y439247D01*
G01X762350Y440997D02*
X760323D01*
G01X767830Y443830D02*
X767450Y444080D01*
X767006Y444247D01*
X766500D01*
X765930Y443997D01*
X765486Y443580D01*
X765170Y443080D01*
X764916Y442247D01*
X764853Y441497D01*
X764980Y440747D01*
X765170Y440247D01*
X765550Y439747D01*
X765993Y439413D01*
X766436Y439247D01*
X766880D01*
X767323Y439413D01*
X767703Y439663D01*
X768020Y439997D01*
G01X772803Y439247D02*
X770270D01*
Y444247D01*
X772803D01*
G01X771789Y441830D02*
X770270D01*
G01X714170Y435914D02*
Y430914D01*
X716703D01*
G01X720536D02*
Y435914D01*
X719776Y434914D01*
G01Y430914D02*
X721296D01*
G01X730736Y435914D02*
Y430914D01*
G01X729280Y435914D02*
X732193D01*
G01X735836Y430914D02*
X735330Y430997D01*
X734886Y431330D01*
X734506Y431830D01*
X734253Y432414D01*
X734126Y433080D01*
Y433747D01*
X734253Y434414D01*
X734506Y434997D01*
X734886Y435497D01*
X735330Y435830D01*
X735836Y435914D01*
X736343Y435830D01*
X736786Y435497D01*
X737166Y434997D01*
X737420Y434414D01*
X737546Y433747D01*
Y433080D01*
X737420Y432414D01*
X737166Y431830D01*
X736786Y431330D01*
X736343Y430997D01*
X735836Y430914D01*
G01X739670D02*
Y435914D01*
X741189D01*
X741696Y435664D01*
X742076Y435080D01*
X742203Y434414D01*
X742076Y433747D01*
X741759Y433247D01*
X741189Y432997D01*
X739670D01*
G01X752530Y435497D02*
X752150Y435747D01*
X751706Y435914D01*
X751200D01*
X750630Y435664D01*
X750186Y435247D01*
X749870Y434747D01*
X749616Y433914D01*
X749553Y433164D01*
X749680Y432414D01*
X749870Y431914D01*
X750250Y431414D01*
X750693Y431080D01*
X751136Y430914D01*
X751580D01*
X752023Y431080D01*
X752403Y431330D01*
X752720Y431664D01*
G01X756236Y430914D02*
X755730Y430997D01*
X755286Y431330D01*
X754906Y431830D01*
X754653Y432414D01*
X754526Y433080D01*
Y433747D01*
X754653Y434414D01*
X754906Y434997D01*
X755286Y435497D01*
X755730Y435830D01*
X756236Y435914D01*
X756743Y435830D01*
X757186Y435497D01*
X757566Y434997D01*
X757820Y434414D01*
X757946Y433747D01*
Y433080D01*
X757820Y432414D01*
X757566Y431830D01*
X757186Y431330D01*
X756743Y430997D01*
X756236Y430914D01*
G01X759880D02*
Y435914D01*
X762793Y430914D01*
Y435914D01*
G01X765043Y430914D02*
Y435914D01*
X766309D01*
X766816Y435664D01*
X767196Y435330D01*
X767513Y434831D01*
X767766Y434247D01*
X767830Y433414D01*
X767766Y432580D01*
X767513Y431997D01*
X767196Y431497D01*
X766816Y431164D01*
X766309Y430914D01*
X765043D01*
G01X770143Y435914D02*
Y432330D01*
X770396Y431580D01*
X770903Y431080D01*
X771536Y430914D01*
X772170Y431080D01*
X772676Y431580D01*
X772930Y432330D01*
Y435914D01*
G01X778030Y435497D02*
X777650Y435747D01*
X777206Y435914D01*
X776700D01*
X776130Y435664D01*
X775686Y435247D01*
X775370Y434747D01*
X775116Y433914D01*
X775053Y433164D01*
X775180Y432414D01*
X775370Y431914D01*
X775750Y431414D01*
X776193Y431080D01*
X776636Y430914D01*
X777080D01*
X777523Y431080D01*
X777903Y431330D01*
X778220Y431664D01*
G01X781736Y435914D02*
Y430914D01*
G01X780280Y435914D02*
X783193D01*
G01X786836Y430914D02*
X786330Y430997D01*
X785886Y431330D01*
X785506Y431830D01*
X785253Y432414D01*
X785126Y433080D01*
Y433747D01*
X785253Y434414D01*
X785506Y434997D01*
X785886Y435497D01*
X786330Y435830D01*
X786836Y435914D01*
X787343Y435830D01*
X787786Y435497D01*
X788166Y434997D01*
X788420Y434414D01*
X788546Y433747D01*
Y433080D01*
X788420Y432414D01*
X788166Y431830D01*
X787786Y431330D01*
X787343Y430997D01*
X786836Y430914D01*
G01X790670D02*
Y435914D01*
X792253D01*
X792759Y435664D01*
X793076Y435330D01*
X793203Y434664D01*
X793076Y433997D01*
X792696Y433580D01*
X792253Y433330D01*
X790670D01*
G01X792253D02*
X793203Y430914D01*
G01X720884Y564343D02*
Y574343D01*
X724009D01*
X725009Y573842D01*
X725634Y573176D01*
X725884Y571843D01*
X725634Y570509D01*
X724884Y569676D01*
X724009Y569176D01*
X720884D01*
G01X724009D02*
X725884Y564343D01*
G01X735884D02*
X730884D01*
Y574343D01*
X735884D01*
G01X733884Y569509D02*
X730884D01*
G01X740259Y574343D02*
X743384Y564343D01*
X746509Y574343D01*
G01X751884D02*
X754883D01*
G01X753384D02*
Y564343D01*
G01X751884D02*
X754883D01*
G01X760759Y565676D02*
X761759Y564843D01*
X762884Y564343D01*
X763884D01*
X764884Y564843D01*
X765634Y565676D01*
X766009Y566843D01*
X765759Y568009D01*
X765134Y569009D01*
X764009Y569676D01*
X762509Y570009D01*
X761634Y570676D01*
X761259Y571843D01*
X761509Y573009D01*
X762134Y573842D01*
X763009Y574343D01*
X763884D01*
X764759Y574009D01*
X765509Y573176D01*
G01X771884Y574343D02*
X774883D01*
G01X773384D02*
Y564343D01*
G01X771884D02*
X774883D01*
G01X783384D02*
X782384Y564509D01*
X781509Y565176D01*
X780759Y566176D01*
X780259Y567343D01*
X780009Y568676D01*
Y570009D01*
X780259Y571343D01*
X780759Y572509D01*
X781509Y573509D01*
X782384Y574176D01*
X783384Y574343D01*
X784384Y574176D01*
X785259Y573509D01*
X786009Y572509D01*
X786509Y571343D01*
X786759Y570009D01*
Y568676D01*
X786509Y567343D01*
X786009Y566176D01*
X785259Y565176D01*
X784384Y564509D01*
X783384Y564343D01*
G01X790509D02*
Y574343D01*
X796259Y564343D01*
Y574343D01*
G01X800759Y565676D02*
X801759Y564843D01*
X802884Y564343D01*
X803884D01*
X804884Y564843D01*
X805634Y565676D01*
X806009Y566843D01*
X805759Y568009D01*
X805134Y569009D01*
X804009Y569676D01*
X802509Y570009D01*
X801634Y570676D01*
X801259Y571843D01*
X801509Y573009D01*
X802134Y573842D01*
X803009Y574343D01*
X803884D01*
X804759Y574009D01*
X805509Y573176D01*
G01X754634Y-183157D02*
Y-143157D01*
G01X765634Y-158157D02*
Y-148157D01*
X768134D01*
X769134Y-148658D01*
X769884Y-149324D01*
X770509Y-150324D01*
X771009Y-151491D01*
X771134Y-153157D01*
X771009Y-154824D01*
X770509Y-155991D01*
X769884Y-156991D01*
X769134Y-157657D01*
X768134Y-158157D01*
X765634D01*
G01X774634Y-148157D02*
X776384Y-158157D01*
X778384Y-148157D01*
X780384Y-158157D01*
X782134Y-148157D01*
G01X789134Y-153157D02*
X791634D01*
Y-156157D01*
X790884Y-157158D01*
X790009Y-157824D01*
X788759Y-158157D01*
X787509Y-157824D01*
X786634Y-157158D01*
X785884Y-156157D01*
X785384Y-154991D01*
X785134Y-153657D01*
Y-152491D01*
X785384Y-151491D01*
X785884Y-150324D01*
X786634Y-149324D01*
X787384Y-148658D01*
X788384Y-148157D01*
X789259D01*
X790259Y-148491D01*
X791009Y-149157D01*
G01X805509Y-158157D02*
Y-148157D01*
X811259Y-158157D01*
Y-148157D01*
G01X818384Y-158157D02*
X817384Y-157991D01*
X816509Y-157324D01*
X815759Y-156324D01*
X815259Y-155157D01*
X815009Y-153824D01*
Y-152491D01*
X815259Y-151157D01*
X815759Y-149991D01*
X816509Y-148991D01*
X817384Y-148324D01*
X818384Y-148157D01*
X819384Y-148324D01*
X820259Y-148991D01*
X821009Y-149991D01*
X821509Y-151157D01*
X821759Y-152491D01*
Y-153824D01*
X821509Y-155157D01*
X821009Y-156324D01*
X820259Y-157324D01*
X819384Y-157991D01*
X818384Y-158157D01*
G01X764089Y-1427D02*
Y11073D01*
X771219Y-1427D01*
Y11073D01*
G01X780054Y-1427D02*
X778814Y-1219D01*
X777729Y-386D01*
X776799Y865D01*
X776179Y2323D01*
X775869Y3989D01*
Y5656D01*
X776179Y7323D01*
X776799Y8781D01*
X777729Y10031D01*
X778814Y10865D01*
X780054Y11073D01*
X781294Y10865D01*
X782379Y10031D01*
X783309Y8781D01*
X783929Y7323D01*
X784239Y5656D01*
Y3989D01*
X783929Y2323D01*
X783309Y865D01*
X782379Y-386D01*
X781294Y-1219D01*
X780054Y-1427D01*
G01X788889D02*
Y11073D01*
X796019Y-1427D01*
Y11073D01*
G01X802839Y2739D02*
X806869D01*
G01X814154Y-1427D02*
Y11073D01*
X817874D01*
X819114Y10448D01*
X820044Y8989D01*
X820354Y7323D01*
X820044Y5656D01*
X819269Y4406D01*
X817874Y3781D01*
X814154D01*
G01X826554Y11073D02*
Y-1427D01*
X832754D01*
G01X838179D02*
X842054Y11073D01*
X845929Y-1427D01*
G01X844534Y2948D02*
X839574D01*
G01X854454Y11073D02*
Y-1427D01*
G01X850889Y11073D02*
X858019D01*
G01X869954Y-1427D02*
X863754D01*
Y11073D01*
X869954D01*
G01X867474Y5031D02*
X863754D01*
G01X875844Y-1427D02*
Y11073D01*
X878944D01*
X880184Y10448D01*
X881114Y9615D01*
X881889Y8365D01*
X882509Y6906D01*
X882664Y4823D01*
X882509Y2739D01*
X881889Y1281D01*
X881114Y31D01*
X880184Y-802D01*
X878944Y-1427D01*
X875844D01*
G01X759904Y142323D02*
Y-7677D01*
G01X789354Y23573D02*
Y36073D01*
X793074D01*
X794314Y35448D01*
X795244Y33989D01*
X795554Y32323D01*
X795244Y30656D01*
X794469Y29406D01*
X793074Y28781D01*
X789354D01*
G01X801754Y36073D02*
Y23573D01*
X807954D01*
G01X813379D02*
X817254Y36073D01*
X821129Y23573D01*
G01X819734Y27948D02*
X814774D01*
G01X829654Y36073D02*
Y23573D01*
G01X826089Y36073D02*
X833219D01*
G01X845154Y23573D02*
X838954D01*
Y36073D01*
X845154D01*
G01X842674Y30031D02*
X838954D01*
G01X851044Y23573D02*
Y36073D01*
X854144D01*
X855384Y35448D01*
X856314Y34615D01*
X857089Y33365D01*
X857709Y31906D01*
X857864Y29823D01*
X857709Y27739D01*
X857089Y26281D01*
X856314Y25031D01*
X855384Y24198D01*
X854144Y23573D01*
X851044D01*
G01X789354Y48573D02*
Y61073D01*
X793074D01*
X794314Y60448D01*
X795244Y58989D01*
X795554Y57323D01*
X795244Y55656D01*
X794469Y54406D01*
X793074Y53781D01*
X789354D01*
G01X801754Y61073D02*
Y48573D01*
X807954D01*
G01X813379D02*
X817254Y61073D01*
X821129Y48573D01*
G01X819734Y52948D02*
X814774D01*
G01X829654Y61073D02*
Y48573D01*
G01X826089Y61073D02*
X833219D01*
G01X845154Y48573D02*
X838954D01*
Y61073D01*
X845154D01*
G01X842674Y55031D02*
X838954D01*
G01X851044Y48573D02*
Y61073D01*
X854144D01*
X855384Y60448D01*
X856314Y59615D01*
X857089Y58365D01*
X857709Y56906D01*
X857864Y54823D01*
X857709Y52739D01*
X857089Y51281D01*
X856314Y50031D01*
X855384Y49198D01*
X854144Y48573D01*
X851044D01*
G01X789354Y73573D02*
Y86073D01*
X793074D01*
X794314Y85448D01*
X795244Y83989D01*
X795554Y82323D01*
X795244Y80656D01*
X794469Y79406D01*
X793074Y78781D01*
X789354D01*
G01X801754Y86073D02*
Y73573D01*
X807954D01*
G01X813379D02*
X817254Y86073D01*
X821129Y73573D01*
G01X819734Y77948D02*
X814774D01*
G01X829654Y86073D02*
Y73573D01*
G01X826089Y86073D02*
X833219D01*
G01X845154Y73573D02*
X838954D01*
Y86073D01*
X845154D01*
G01X842674Y80031D02*
X838954D01*
G01X851044Y73573D02*
Y86073D01*
X854144D01*
X855384Y85448D01*
X856314Y84615D01*
X857089Y83365D01*
X857709Y81906D01*
X857864Y79823D01*
X857709Y77739D01*
X857089Y76281D01*
X856314Y75031D01*
X855384Y74198D01*
X854144Y73573D01*
X851044D01*
G01X789354Y98573D02*
Y111073D01*
X793074D01*
X794314Y110448D01*
X795244Y108989D01*
X795554Y107323D01*
X795244Y105656D01*
X794469Y104406D01*
X793074Y103781D01*
X789354D01*
G01X801754Y111073D02*
Y98573D01*
X807954D01*
G01X813379D02*
X817254Y111073D01*
X821129Y98573D01*
G01X819734Y102948D02*
X814774D01*
G01X829654Y111073D02*
Y98573D01*
G01X826089Y111073D02*
X833219D01*
G01X845154Y98573D02*
X838954D01*
Y111073D01*
X845154D01*
G01X842674Y105031D02*
X838954D01*
G01X851044Y98573D02*
Y111073D01*
X854144D01*
X855384Y110448D01*
X856314Y109615D01*
X857089Y108365D01*
X857709Y106906D01*
X857864Y104823D01*
X857709Y102739D01*
X857089Y101281D01*
X856314Y100031D01*
X855384Y99198D01*
X854144Y98573D01*
X851044D01*
G01X789354Y123573D02*
Y136073D01*
X793074D01*
X794314Y135448D01*
X795244Y133989D01*
X795554Y132323D01*
X795244Y130656D01*
X794469Y129406D01*
X793074Y128781D01*
X789354D01*
G01X801754Y136073D02*
Y123573D01*
X807954D01*
G01X813379D02*
X817254Y136073D01*
X821129Y123573D01*
G01X819734Y127948D02*
X814774D01*
G01X829654Y136073D02*
Y123573D01*
G01X826089Y136073D02*
X833219D01*
G01X845154Y123573D02*
X838954D01*
Y136073D01*
X845154D01*
G01X842674Y130031D02*
X838954D01*
G01X851044Y123573D02*
Y136073D01*
X854144D01*
X855384Y135448D01*
X856314Y134615D01*
X857089Y133365D01*
X857709Y131906D01*
X857864Y129823D01*
X857709Y127739D01*
X857089Y126281D01*
X856314Y125031D01*
X855384Y124198D01*
X854144Y123573D01*
X851044D01*
G01X834634Y-213157D02*
Y-183157D01*
X1004634D01*
G01X814634Y494343D02*
Y464343D01*
G01Y484343D02*
Y524343D01*
G01D02*
Y554343D01*
G01X845759Y-196824D02*
X846759Y-197657D01*
X847884Y-198157D01*
X848884D01*
X849884Y-197657D01*
X850634Y-196824D01*
X851009Y-195657D01*
X850759Y-194491D01*
X850134Y-193491D01*
X849009Y-192824D01*
X847509Y-192491D01*
X846634Y-191824D01*
X846259Y-190657D01*
X846509Y-189491D01*
X847134Y-188658D01*
X848009Y-188157D01*
X848884D01*
X849759Y-188491D01*
X850509Y-189324D01*
G01X855759Y-198157D02*
Y-188157D01*
G01X861009D02*
Y-198157D01*
G01Y-193157D02*
X855759D01*
G01X870884Y-198157D02*
X865884D01*
Y-188157D01*
X870884D01*
G01X868884Y-192991D02*
X865884D01*
G01X880884Y-198157D02*
X875884D01*
Y-188157D01*
X880884D01*
G01X878884Y-192991D02*
X875884D01*
G01X888384Y-188157D02*
Y-198157D01*
G01X885509Y-188157D02*
X891259D01*
G01X840634Y534343D02*
Y544343D01*
X843134D01*
X844134Y543842D01*
X844884Y543176D01*
X845509Y542176D01*
X846009Y541009D01*
X846134Y539343D01*
X846009Y537676D01*
X845509Y536509D01*
X844884Y535509D01*
X844134Y534843D01*
X843134Y534343D01*
X840634D01*
G01X850259D02*
X853384Y544343D01*
X856509Y534343D01*
G01X855384Y537843D02*
X851384D01*
G01X863384Y544343D02*
Y534343D01*
G01X860509Y544343D02*
X866259D01*
G01X875884Y534343D02*
X870884D01*
Y544343D01*
X875884D01*
G01X873884Y539509D02*
X870884D01*
G01X887004Y142323D02*
Y-7677D01*
G01X927614Y-1427D02*
Y11073D01*
X921879Y2115D01*
X929629D01*
G01X927614Y23573D02*
Y36073D01*
X921879Y27115D01*
X929629D01*
G01X922809Y53781D02*
X923894Y55240D01*
X924824Y56073D01*
X926064Y56489D01*
X927149Y56073D01*
X927924Y55240D01*
X928544Y53989D01*
X928699Y52531D01*
X928544Y51281D01*
X927924Y50031D01*
X926994Y48989D01*
X925909Y48573D01*
X924669Y48989D01*
X923584Y50239D01*
X922964Y52115D01*
X922809Y54198D01*
X923119Y56906D01*
X923584Y58365D01*
X924359Y59823D01*
X925444Y60865D01*
X926529Y61073D01*
X927614Y60656D01*
X928389Y59615D01*
G01X916609Y83989D02*
X917539Y85239D01*
X918624Y85865D01*
X919864Y86073D01*
X921414Y85656D01*
X922499Y84615D01*
X922809Y83365D01*
X922654Y82114D01*
X922034Y81073D01*
X918934Y78989D01*
X917539Y77531D01*
X916609Y75447D01*
X916299Y73573D01*
X922809D01*
G01X931954Y86073D02*
X930714Y85656D01*
X929784Y84615D01*
X929164Y83365D01*
X928699Y81698D01*
X928544Y79823D01*
X928699Y77948D01*
X929164Y76281D01*
X929784Y75031D01*
X930714Y73989D01*
X931954Y73573D01*
X933194Y73989D01*
X934124Y75031D01*
X934744Y76281D01*
X935209Y77948D01*
X935364Y79823D01*
X935209Y81698D01*
X934744Y83365D01*
X934124Y84615D01*
X933194Y85656D01*
X931954Y86073D01*
G01X916144Y101073D02*
X917074Y99614D01*
X918314Y98781D01*
X919709Y98573D01*
X920949Y98781D01*
X922189Y99822D01*
X922964Y101073D01*
X923119Y102323D01*
X922809Y103781D01*
X921724Y104823D01*
X920639Y105240D01*
X919244D01*
G01X920639D02*
X921569Y105865D01*
X922344Y106906D01*
X922654Y108156D01*
X922344Y109406D01*
X921569Y110448D01*
X920174Y111073D01*
X918779Y110865D01*
X917384Y110031D01*
G01X928544Y101073D02*
X929474Y99614D01*
X930714Y98781D01*
X932109Y98573D01*
X933349Y98781D01*
X934589Y99822D01*
X935364Y101073D01*
X935519Y102323D01*
X935209Y103781D01*
X934124Y104823D01*
X933039Y105240D01*
X931644D01*
G01X933039D02*
X933969Y105865D01*
X934744Y106906D01*
X935054Y108156D01*
X934744Y109406D01*
X933969Y110448D01*
X932574Y111073D01*
X931179Y110865D01*
X929784Y110031D01*
G01X913354Y123573D02*
X912114Y123781D01*
X911029Y124614D01*
X910099Y125865D01*
X909479Y127323D01*
X909169Y128989D01*
Y130656D01*
X909479Y132323D01*
X910099Y133781D01*
X911029Y135031D01*
X912114Y135865D01*
X913354Y136073D01*
X914594Y135865D01*
X915679Y135031D01*
X916609Y133781D01*
X917229Y132323D01*
X917539Y130656D01*
Y128989D01*
X917229Y127323D01*
X916609Y125865D01*
X915679Y124614D01*
X914594Y123781D01*
X913354Y123573D01*
G01X914594Y126906D02*
X916454Y123573D01*
G01X925754Y136073D02*
Y123573D01*
G01X922189Y136073D02*
X929319D01*
G01X938154Y123573D02*
Y129198D01*
X935054Y136073D01*
G01X941254D02*
X938154Y129198D01*
G01X904634Y494343D02*
Y464343D01*
G01Y494343D02*
Y524343D01*
G01X915259Y534343D02*
X918384Y544343D01*
X921509Y534343D01*
G01X920384Y537843D02*
X916384D01*
G01X925884Y534343D02*
Y544343D01*
X928884D01*
X929884Y543842D01*
X930634Y542676D01*
X930884Y541343D01*
X930634Y540009D01*
X930009Y539009D01*
X928884Y538509D01*
X925884D01*
G01X935884Y534343D02*
Y544343D01*
X938884D01*
X939884Y543842D01*
X940634Y542676D01*
X940884Y541343D01*
X940634Y540009D01*
X940009Y539009D01*
X938884Y538509D01*
X935884D01*
G01X945884Y534343D02*
Y544343D01*
X949009D01*
X950009Y543842D01*
X950634Y543176D01*
X950884Y541843D01*
X950634Y540509D01*
X949884Y539676D01*
X949009Y539176D01*
X945884D01*
G01X949009D02*
X950884Y534343D01*
G01X958384D02*
X957384Y534509D01*
X956509Y535176D01*
X955759Y536176D01*
X955259Y537343D01*
X955009Y538676D01*
Y540009D01*
X955259Y541343D01*
X955759Y542509D01*
X956509Y543509D01*
X957384Y544176D01*
X958384Y544343D01*
X959384Y544176D01*
X960259Y543509D01*
X961009Y542509D01*
X961509Y541343D01*
X961759Y540009D01*
Y538676D01*
X961509Y537343D01*
X961009Y536176D01*
X960259Y535176D01*
X959384Y534509D01*
X958384Y534343D01*
G01X965259Y544343D02*
X968384Y534343D01*
X971509Y544343D01*
G01X980884Y534343D02*
X975884D01*
Y544343D01*
X980884D01*
G01X978884Y539509D02*
X975884D01*
G01X985634Y534343D02*
Y544343D01*
X988134D01*
X989134Y543842D01*
X989884Y543176D01*
X990509Y542176D01*
X991009Y541009D01*
X991134Y539343D01*
X991009Y537676D01*
X990509Y536509D01*
X989884Y535509D01*
X989134Y534843D01*
X988134Y534343D01*
X985634D01*
G01X904634Y524343D02*
Y554343D01*
G01X1004634Y584343D02*
Y464343D01*
M02*
