G04 ================== begin FILE IDENTIFICATION RECORD ==================*
G04 Layout Name:  PCB EDITOR TUTORIAL_COMPLETE.brd*
G04 Film Name:    SILKSCREENTOP*
G04 File Format:  Gerber RS274X*
G04 File Origin:  Cadence Allegro 17.2-S037*
G04 Origin Date:  Sun Apr 15 09:58:16 2018*
G04 *
G04 Layer:  REF DES/SILKSCREEN_TOP*
G04 Layer:  PACKAGE GEOMETRY/SILKSCREEN_TOP*
G04 Layer:  BOARD GEOMETRY/SILKSCREEN_TOP*
G04 Layer:  BOARD GEOMETRY/DESIGN_OUTLINE*
G04 *
G04 Offset:    (0.0000 0.0000)*
G04 Mirror:    No*
G04 Mode:      Positive*
G04 Rotation:  0*
G04 FullContactRelief:  No*
G04 UndefLineWidth:     0.1270*
G04 ================== end FILE IDENTIFICATION RECORD ====================*
%FSLAX25Y25*MOIN*%
%IR0*IPPOS*OFA0.00000B0.00000*MIA0B0*SFA1.00000B1.00000*%
%ADD10C,.008*%
%ADD11C,.01*%
%ADD12C,.006*%
%ADD13C,.016*%
%ADD14C,.001969*%
%ADD15C,.005*%
G75*
%LPD*%
G75*
G54D10*
G01X10630Y46244D02*
Y58843D01*
G01X20866Y46244D02*
Y58843D01*
G01X58991Y53569D02*
X53991D01*
G01D02*
X51491Y56069D01*
G01D02*
X48991Y53569D01*
G01D02*
X43991D01*
G01D02*
X41491Y56069D01*
G01D02*
Y61069D01*
G01X51491D02*
Y56069D01*
G01X90551Y79882D02*
X53425D01*
G01D02*
Y116969D01*
G01X41491Y61069D02*
X43991Y63569D01*
G01D02*
X48991D01*
G01D02*
X51491Y61069D01*
G01D02*
X53991Y63569D01*
G01D02*
X58991D01*
G01X53425Y116969D02*
X90551D01*
G01X49606Y133465D02*
X44882D01*
G01X37402Y138583D02*
Y140945D01*
G01X44882Y146063D02*
X49606D01*
G01X88991Y53569D02*
X83991D01*
G01D02*
X81491Y56069D01*
G01D02*
X78991Y53569D01*
G01D02*
X73991D01*
G01D02*
X71491Y56069D01*
G01D02*
X68991Y53569D01*
G01D02*
X63991D01*
G01D02*
X61491Y56069D01*
G01D02*
X58991Y53569D01*
G01X61491Y61069D02*
Y56069D01*
G01X71491Y61069D02*
Y56069D01*
G01X81491Y61069D02*
Y56069D01*
G01X58991Y63569D02*
X61491Y61069D01*
G01D02*
X63991Y63569D01*
G01D02*
X68991D01*
G01D02*
X71491Y61069D01*
G01D02*
X73991Y63569D01*
G01D02*
X78991D01*
G01D02*
X81491Y61069D01*
G01D02*
X83991Y63569D01*
G01D02*
X88991D01*
G01X57087Y138583D02*
Y140945D01*
G01X94528Y160945D02*
X84803D01*
G01X57756D02*
X67480D01*
G01X57756Y172244D02*
Y160945D01*
G01X84803D02*
Y161457D01*
G01D02*
X67480D01*
G01D02*
Y160945D01*
G01X94528Y182874D02*
X57756D01*
G01X101491Y61069D02*
Y56069D01*
G01D02*
X98991Y53569D01*
G01D02*
X93991D01*
G01D02*
X91491Y56069D01*
G01D02*
X88991Y53569D01*
G01X91491Y61069D02*
Y56069D01*
G01X90551Y116969D02*
Y79882D01*
G01X88991Y63569D02*
X91491Y61069D01*
G01D02*
X93991Y63569D01*
G01D02*
X98991D01*
G01D02*
X101491Y61069D01*
G01X94528Y172244D02*
Y160945D01*
G54D11*
G01X59213Y83661D02*
G02I-1969J0D01*
G54D12*
G01X9974Y108175D02*
Y107573D01*
G01X23174D02*
Y108175D01*
G01X9974Y107573D02*
X23174D01*
G01X9974Y120773D02*
Y120172D01*
G01X23174Y120773D02*
X9974D01*
G01X23174Y120172D02*
Y120773D01*
G01X69638Y20157D02*
Y19193D01*
G01X74378D02*
Y20157D01*
G01X69508Y11230D02*
X74508D01*
G01X72008Y8230D02*
X72508Y11230D01*
G01X72008Y8230D02*
X73008Y11230D01*
G01X72008Y8230D02*
X73508Y11230D01*
G01X72008Y8230D02*
X74008Y11230D01*
G01X72008Y8230D02*
X74508Y11230D01*
G01X72008Y8230D02*
X71508Y11230D01*
G01X72008Y8230D02*
X71008Y11230D01*
G01X72008Y8230D02*
X70508Y11230D01*
G01X72008Y8230D02*
X70008Y11230D01*
G01X72008Y8230D02*
X69508Y11230D01*
G01Y8230D02*
X74508D01*
G01X72008Y12230D02*
Y7230D01*
G54D13*
G01X13189Y82797D02*
Y82557D01*
G01Y70986D02*
Y70746D01*
G01X18307Y94368D02*
Y94608D01*
G01X7754Y141732D02*
X7994D01*
G01X18187D02*
X18427D01*
G01X34585Y98425D02*
X34825D01*
G01X110356Y82677D02*
X110116D01*
G01X112795Y94368D02*
Y94608D01*
G54D14*
G01X3680Y139188D02*
X3602Y139078D01*
X3549Y138949D01*
Y138802D01*
X3628Y138637D01*
X3759Y138508D01*
X3917Y138416D01*
X4179Y138343D01*
X4415Y138324D01*
X4652Y138361D01*
X4809Y138416D01*
X4967Y138526D01*
X5072Y138655D01*
X5124Y138783D01*
Y138912D01*
X5072Y139041D01*
X4993Y139151D01*
X4888Y139243D01*
G01X4468Y139694D02*
X4284Y139823D01*
X4179Y139933D01*
X4127Y140080D01*
X4179Y140209D01*
X4284Y140300D01*
X4442Y140374D01*
X4625Y140393D01*
X4783Y140374D01*
X4940Y140300D01*
X5072Y140190D01*
X5124Y140062D01*
X5072Y139915D01*
X4914Y139786D01*
X4678Y139713D01*
X4415Y139694D01*
X4074Y139731D01*
X3891Y139786D01*
X3707Y139878D01*
X3576Y140007D01*
X3549Y140135D01*
X3602Y140264D01*
X3733Y140356D01*
G01X58431Y16369D02*
X56856D01*
Y16828D01*
X56935Y16975D01*
X57040Y17067D01*
X57250Y17104D01*
X57460Y17067D01*
X57591Y16957D01*
X57670Y16828D01*
Y16369D01*
G01Y16828D02*
X58431Y17104D01*
G01Y17996D02*
X56856D01*
X57171Y17776D01*
G01X58431D02*
Y18217D01*
G54D15*
G01X0Y0D02*
Y196850D01*
X393701D01*
Y0D01*
X0D01*
G01X10938Y51387D02*
X10783Y51157D01*
X10680Y50889D01*
Y50582D01*
X10835Y50237D01*
X11093Y49969D01*
X11403Y49777D01*
X11920Y49624D01*
X12385Y49585D01*
X12850Y49662D01*
X13159Y49777D01*
X13470Y50007D01*
X13676Y50275D01*
X13780Y50544D01*
Y50812D01*
X13676Y51080D01*
X13521Y51310D01*
X13315Y51502D01*
G01X11196Y52915D02*
X10886Y53145D01*
X10731Y53414D01*
X10680Y53720D01*
X10783Y54104D01*
X11041Y54372D01*
X11351Y54449D01*
X11661Y54410D01*
X11920Y54257D01*
X12436Y53491D01*
X12798Y53145D01*
X13315Y52915D01*
X13780Y52839D01*
Y54449D01*
G01X19814Y88896D02*
X20044Y88741D01*
X20312Y88638D01*
X20619D01*
X20964Y88793D01*
X21232Y89052D01*
X21424Y89361D01*
X21577Y89878D01*
X21615Y90343D01*
X21539Y90808D01*
X21424Y91118D01*
X21194Y91428D01*
X20926Y91635D01*
X20657Y91738D01*
X20389D01*
X20120Y91635D01*
X19891Y91480D01*
X19699Y91273D01*
G01X17557Y91738D02*
Y88638D01*
X18017Y89258D01*
G01Y91738D02*
X17097D01*
G01X11682Y88269D02*
X11452Y88424D01*
X11184Y88527D01*
X10877D01*
X10532Y88372D01*
X10264Y88114D01*
X10072Y87804D01*
X9919Y87287D01*
X9881Y86822D01*
X9957Y86357D01*
X10072Y86047D01*
X10302Y85737D01*
X10570Y85530D01*
X10839Y85427D01*
X11107D01*
X11376Y85530D01*
X11606Y85685D01*
X11797Y85892D01*
G01X14399Y85427D02*
Y88527D01*
X12981Y86306D01*
X14897D01*
G01X11682Y76458D02*
X11452Y76613D01*
X11184Y76716D01*
X10877D01*
X10532Y76561D01*
X10264Y76303D01*
X10072Y75993D01*
X9919Y75476D01*
X9881Y75011D01*
X9957Y74546D01*
X10072Y74236D01*
X10302Y73926D01*
X10570Y73719D01*
X10839Y73616D01*
X11107D01*
X11376Y73719D01*
X11606Y73874D01*
X11797Y74081D01*
G01X13096D02*
X13326Y73823D01*
X13594Y73668D01*
X13939Y73616D01*
X14284Y73719D01*
X14552Y73926D01*
X14744Y74288D01*
X14782Y74701D01*
X14706Y75115D01*
X14514Y75373D01*
X14246Y75580D01*
X13977Y75631D01*
X13709Y75580D01*
X13364Y75373D01*
X13479Y76716D01*
X14514D01*
G01X11805Y119173D02*
Y115590D01*
X12058Y114840D01*
X12565Y114340D01*
X13198Y114173D01*
X13831Y114340D01*
X14338Y114840D01*
X14591Y115590D01*
Y119173D01*
G01X18298Y114173D02*
Y119173D01*
X17538Y118173D01*
G01Y114173D02*
X19058D01*
G01X12715Y140226D02*
X12560Y139996D01*
X12457Y139727D01*
Y139420D01*
X12612Y139076D01*
X12870Y138807D01*
X13180Y138616D01*
X13697Y138462D01*
X14162Y138424D01*
X14627Y138501D01*
X14937Y138616D01*
X15247Y138846D01*
X15454Y139114D01*
X15557Y139382D01*
Y139651D01*
X15454Y139919D01*
X15299Y140149D01*
X15092Y140341D01*
G01X15557Y142482D02*
X15506Y142751D01*
X15350Y143057D01*
X15092Y143249D01*
X14730Y143326D01*
X14369Y143249D01*
X14059Y143019D01*
X13904Y142674D01*
Y142291D01*
X13800Y142061D01*
X13542Y141869D01*
X13180Y141792D01*
X12819Y141907D01*
X12560Y142176D01*
X12457Y142482D01*
X12560Y142789D01*
X12819Y143057D01*
X13180Y143172D01*
X13542Y143096D01*
X13800Y142904D01*
X13904Y142674D01*
Y142291D01*
X14059Y141946D01*
X14369Y141716D01*
X14730Y141639D01*
X15092Y141716D01*
X15350Y141907D01*
X15506Y142214D01*
X15557Y142482D01*
G01X5481Y126545D02*
X8267Y130212D01*
G01X6874Y130878D02*
Y125878D01*
G01X8267Y126545D02*
X5481Y130212D01*
G01X4974Y128378D02*
X8774D01*
G01X41875Y66689D02*
X42067Y66379D01*
X42296Y66172D01*
X42565Y66069D01*
X42871Y66172D01*
X43101Y66379D01*
X43331Y66689D01*
X43408Y67102D01*
Y69169D01*
G01X44975Y66069D02*
Y69169D01*
X45894D01*
X46201Y69014D01*
X46431Y68652D01*
X46508Y68239D01*
X46431Y67826D01*
X46240Y67515D01*
X45894Y67361D01*
X44975D01*
G01X48113Y68652D02*
X48343Y68962D01*
X48611Y69117D01*
X48918Y69169D01*
X49301Y69066D01*
X49570Y68807D01*
X49646Y68497D01*
X49608Y68187D01*
X49455Y67929D01*
X48688Y67412D01*
X48343Y67050D01*
X48113Y66534D01*
X48036Y66069D01*
X49646D01*
G01X29113Y96919D02*
X28958Y96689D01*
X28855Y96420D01*
Y96113D01*
X29010Y95769D01*
X29268Y95500D01*
X29578Y95309D01*
X30095Y95155D01*
X30560Y95117D01*
X31025Y95194D01*
X31335Y95309D01*
X31645Y95539D01*
X31852Y95807D01*
X31955Y96075D01*
Y96344D01*
X31852Y96612D01*
X31696Y96842D01*
X31490Y97033D01*
G01X31593Y98524D02*
X31852Y98792D01*
X31955Y99098D01*
X31852Y99405D01*
X31541Y99674D01*
X31076Y99865D01*
X30611Y99942D01*
X30043D01*
X29578Y99865D01*
X29165Y99674D01*
X28958Y99444D01*
X28855Y99175D01*
X28958Y98869D01*
X29165Y98639D01*
X29475Y98485D01*
X29888Y98409D01*
X30250Y98485D01*
X30611Y98677D01*
X30818Y98907D01*
X30870Y99175D01*
X30767Y99482D01*
X30508Y99712D01*
X30043Y99942D01*
G01X56094Y132264D02*
Y130869D01*
X56861Y129164D01*
G01X55328D02*
X56094Y130869D01*
G01X52994Y132264D02*
Y129164D01*
X53454Y129784D01*
G01Y132264D02*
X52534D01*
G01X74508Y13182D02*
X69508D01*
Y14448D01*
X69758Y14955D01*
X70091Y15335D01*
X70591Y15652D01*
X71175Y15905D01*
X72008Y15969D01*
X72841Y15905D01*
X73425Y15652D01*
X73925Y15335D01*
X74258Y14955D01*
X74508Y14448D01*
Y13182D01*
G01Y20942D02*
Y18409D01*
X69508D01*
Y20942D01*
G01X71924Y19928D02*
Y18409D01*
G01X69508Y23192D02*
X74508Y24775D01*
X69508Y26359D01*
G01X74508Y15859D02*
X69508D01*
Y17378D01*
X69758Y17885D01*
X70341Y18265D01*
X71008Y18392D01*
X71674Y18265D01*
X72174Y17948D01*
X72425Y17378D01*
Y15859D01*
G01X74508Y20769D02*
X69508D01*
X74508Y23682D01*
X69508D01*
G01X82677Y7838D02*
X79577D01*
X82161Y8835D01*
X79577Y9832D01*
X82677D01*
G01Y10977D02*
X79577Y11935D01*
X82677Y12893D01*
G01X81592Y12548D02*
Y11322D01*
G01X79577Y14575D02*
Y15495D01*
G01Y15035D02*
X82677D01*
G01Y14575D02*
Y15495D01*
G01Y17254D02*
X79577D01*
X82677Y19017D01*
X79577D01*
G01X83711Y20085D02*
Y22385D01*
G01X82677Y23569D02*
X79577D01*
Y24488D01*
X79732Y24795D01*
X80094Y25025D01*
X80507Y25102D01*
X80920Y25025D01*
X81231Y24833D01*
X81385Y24488D01*
Y23569D01*
G01X79577Y26285D02*
X82677Y26822D01*
X79577Y27435D01*
X82677Y28048D01*
X79577Y28585D01*
G01X82677Y29769D02*
X79577D01*
Y30727D01*
X79732Y31033D01*
X79939Y31225D01*
X80352Y31302D01*
X80765Y31225D01*
X81024Y30995D01*
X81179Y30727D01*
Y29769D01*
G01Y30727D02*
X82677Y31302D01*
G01X62581Y18885D02*
X59781D01*
Y20485D01*
X62581D01*
Y18885D01*
G01X57698Y96525D02*
X58618D01*
G01X58158D02*
Y93425D01*
G01X57698D02*
X58618D01*
G01X62101Y96267D02*
X61871Y96422D01*
X61603Y96525D01*
X61296D01*
X60951Y96370D01*
X60683Y96112D01*
X60491Y95802D01*
X60338Y95285D01*
X60300Y94820D01*
X60376Y94355D01*
X60491Y94045D01*
X60721Y93735D01*
X60989Y93528D01*
X61258Y93425D01*
X61526D01*
X61794Y93528D01*
X62024Y93683D01*
X62216Y93890D01*
G01X64358Y93425D02*
Y96525D01*
X63898Y95905D01*
G01Y93425D02*
X64818D01*
G01X82096Y158543D02*
X80486Y155443D01*
G01X82096D02*
X80486Y158543D01*
G01X78191D02*
Y155443D01*
X78651Y156063D01*
G01Y158543D02*
X77731D01*
G01X114302Y88896D02*
X114532Y88741D01*
X114800Y88638D01*
X115107D01*
X115452Y88793D01*
X115720Y89052D01*
X115912Y89361D01*
X116065Y89878D01*
X116104Y90343D01*
X116027Y90808D01*
X115912Y91118D01*
X115682Y91428D01*
X115414Y91635D01*
X115145Y91738D01*
X114877D01*
X114609Y91635D01*
X114379Y91480D01*
X114187Y91273D01*
G01X112889Y91118D02*
X112659Y91480D01*
X112352Y91687D01*
X112007Y91738D01*
X111700Y91687D01*
X111394Y91428D01*
X111202Y91118D01*
X111164Y90808D01*
X111240Y90446D01*
X111509Y90188D01*
X111777Y90085D01*
X112122D01*
G01X111777D02*
X111547Y89930D01*
X111355Y89672D01*
X111279Y89361D01*
X111355Y89052D01*
X111547Y88793D01*
X111892Y88638D01*
X112237Y88690D01*
X112582Y88896D01*
G01X115828Y84184D02*
X115983Y84414D01*
X116086Y84682D01*
Y84989D01*
X115931Y85334D01*
X115673Y85602D01*
X115363Y85794D01*
X114846Y85947D01*
X114381Y85985D01*
X113916Y85909D01*
X113606Y85794D01*
X113296Y85564D01*
X113089Y85296D01*
X112986Y85027D01*
Y84759D01*
X113089Y84491D01*
X113244Y84261D01*
X113451Y84069D01*
G01X112986Y82004D02*
X113658Y81927D01*
X114226Y81812D01*
X114743Y81659D01*
X115311Y81467D01*
X116086Y81161D01*
Y82694D01*
G01X109679Y69679D02*
Y72779D01*
X110637D01*
X110944Y72624D01*
X111135Y72417D01*
X111212Y72004D01*
X111135Y71591D01*
X110905Y71333D01*
X110637Y71178D01*
X109679D01*
G01X110637D02*
X111212Y69679D01*
G01X112817Y72263D02*
X113047Y72572D01*
X113315Y72728D01*
X113622Y72779D01*
X114005Y72676D01*
X114274Y72417D01*
X114350Y72107D01*
X114312Y71797D01*
X114159Y71539D01*
X113392Y71022D01*
X113047Y70661D01*
X112817Y70144D01*
X112740Y69679D01*
X114350D01*
G01X111995Y65529D02*
Y68329D01*
X113595D01*
Y65529D01*
X111995D01*
G01X136604Y141329D02*
X136796Y141019D01*
X137026Y140812D01*
X137294Y140709D01*
X137600Y140812D01*
X137830Y141019D01*
X138061Y141329D01*
X138137Y141742D01*
Y143809D01*
G01X139704Y140709D02*
Y143809D01*
X140624D01*
X140930Y143654D01*
X141161Y143292D01*
X141237Y142879D01*
X141161Y142465D01*
X140969Y142155D01*
X140624Y142000D01*
X139704D01*
G01X142919Y141070D02*
X143187Y140812D01*
X143494Y140709D01*
X143800Y140812D01*
X144069Y141122D01*
X144261Y141587D01*
X144337Y142052D01*
Y142620D01*
X144261Y143085D01*
X144069Y143499D01*
X143839Y143706D01*
X143570Y143809D01*
X143264Y143706D01*
X143034Y143499D01*
X142880Y143189D01*
X142804Y142775D01*
X142880Y142414D01*
X143072Y142052D01*
X143302Y141845D01*
X143570Y141794D01*
X143877Y141897D01*
X144107Y142155D01*
X144337Y142620D01*
M02*
