G04 ================== begin FILE IDENTIFICATION RECORD ==================*
G04 Layout Name:  PCB EDITOR TUTORIAL_COMPLETE.brd*
G04 Film Name:    PASTEMASKTOP*
G04 File Format:  Gerber RS274X*
G04 File Origin:  Cadence Allegro 17.2-S037*
G04 Origin Date:  Sun Apr 15 09:58:16 2018*
G04 *
G04 Layer:  VIA CLASS/PASTEMASK_TOP*
G04 Layer:  REF DES/SILKSCREEN_TOP*
G04 Layer:  PIN/PASTEMASK_TOP*
G04 Layer:  PACKAGE GEOMETRY/PASTEMASK_TOP*
G04 Layer:  DRC ERROR CLASS/PASTEMASK_TOP*
G04 Layer:  BOARD GEOMETRY/DESIGN_OUTLINE*
G04 *
G04 Offset:    (0.0000 0.0000)*
G04 Mirror:    No*
G04 Mode:      Positive*
G04 Rotation:  0*
G04 FullContactRelief:  No*
G04 UndefLineWidth:     0.1270*
G04 ================== end FILE IDENTIFICATION RECORD ====================*
%FSLAX25Y25*MOIN*%
%IR0*IPPOS*OFA0.00000B0.00000*MIA0B0*SFA1.00000B1.00000*%
%ADD17R,.074799X.074799*%
%ADD19R,.01378X.055118*%
%ADD12R,.055X.017*%
%ADD10R,.07874X.04724*%
%ADD15R,.037402X.01752*%
%ADD16R,.082681X.062988*%
%ADD14R,.074799X.043311*%
%ADD18R,.07087X.074799*%
%ADD13R,.035429X.027559*%
%ADD11R,.027559X.035429*%
%ADD20C,.001969*%
%ADD21C,.005*%
G75*
%LPD*%
G75*
G36*
G01X52138Y89035D02*
X48118D01*
Y90105D01*
X52138D01*
Y89035D01*
G37*
G36*
G01X51198Y87065D02*
X47178D01*
Y88135D01*
X51198D01*
Y87065D01*
G37*
G36*
G01X52138Y85105D02*
X48118D01*
Y86175D01*
X52138D01*
Y85105D01*
G37*
G36*
G01X51198Y83135D02*
X47178D01*
Y84205D01*
X51198D01*
Y83135D01*
G37*
G36*
G01X52138Y112655D02*
X48118D01*
Y113725D01*
X52138D01*
Y112655D01*
G37*
G36*
G01X51198Y110685D02*
X47178D01*
Y111755D01*
X51198D01*
Y110685D01*
G37*
G36*
G01X52138Y108715D02*
X48118D01*
Y109785D01*
X52138D01*
Y108715D01*
G37*
G36*
G01X51198Y106745D02*
X47178D01*
Y107815D01*
X51198D01*
Y106745D01*
G37*
G36*
G01X52138Y104785D02*
X48118D01*
Y105855D01*
X52138D01*
Y104785D01*
G37*
G36*
G01X51198Y102815D02*
X47178D01*
Y103885D01*
X51198D01*
Y102815D01*
G37*
G36*
G01X52138Y100865D02*
X48118D01*
Y101935D01*
X52138D01*
Y100865D01*
G37*
G36*
G01X51198Y98895D02*
X47178D01*
Y99965D01*
X51198D01*
Y98895D01*
G37*
G36*
G01X52138Y96905D02*
X48118D01*
Y97975D01*
X52138D01*
Y96905D01*
G37*
G36*
G01X51198Y94935D02*
X47178D01*
Y96005D01*
X51198D01*
Y94935D01*
G37*
G36*
G01X52138Y92975D02*
X48118D01*
Y94045D01*
X52138D01*
Y92975D01*
G37*
G36*
G01X51198Y91005D02*
X47178D01*
Y92075D01*
X51198D01*
Y91005D01*
G37*
G36*
G01X57778Y74675D02*
X56708D01*
Y78695D01*
X57778D01*
Y74675D01*
G37*
G36*
G01X59748Y73735D02*
X58678D01*
Y77755D01*
X59748D01*
Y73735D01*
G37*
G36*
G01X61718Y74675D02*
X60648D01*
Y78695D01*
X61718D01*
Y74675D01*
G37*
G36*
G01X63688Y73735D02*
X62618D01*
Y77755D01*
X63688D01*
Y73735D01*
G37*
G36*
G01X65648Y74675D02*
X64578D01*
Y78695D01*
X65648D01*
Y74675D01*
G37*
G36*
G01X67618Y73735D02*
X66548D01*
Y77755D01*
X67618D01*
Y73735D01*
G37*
G36*
G01X69568Y74675D02*
X68498D01*
Y78695D01*
X69568D01*
Y74675D01*
G37*
G36*
G01X71538Y73735D02*
X70468D01*
Y77755D01*
X71538D01*
Y73735D01*
G37*
G36*
G01X73528Y74675D02*
X72458D01*
Y78695D01*
X73528D01*
Y74675D01*
G37*
G36*
G01X75498Y73735D02*
X74428D01*
Y77755D01*
X75498D01*
Y73735D01*
G37*
G36*
G01X77458Y74675D02*
X76388D01*
Y78695D01*
X77458D01*
Y74675D01*
G37*
G36*
G01X79428Y73735D02*
X78358D01*
Y77755D01*
X79428D01*
Y73735D01*
G37*
G36*
G01X81398Y74675D02*
X80328D01*
Y78695D01*
X81398D01*
Y74675D01*
G37*
G36*
G01X83368Y73735D02*
X82298D01*
Y77755D01*
X83368D01*
Y73735D01*
G37*
G36*
G01X85328Y74675D02*
X84258D01*
Y78695D01*
X85328D01*
Y74675D01*
G37*
G36*
G01X57788Y119265D02*
X56718D01*
Y123285D01*
X57788D01*
Y119265D01*
G37*
G36*
G01X59758Y118326D02*
X58688D01*
Y122345D01*
X59758D01*
Y118326D01*
G37*
G36*
G01X61728Y119265D02*
X60658D01*
Y123285D01*
X61728D01*
Y119265D01*
G37*
G36*
G01X63698Y118326D02*
X62628D01*
Y122345D01*
X63698D01*
Y118326D01*
G37*
G36*
G01X65658Y119265D02*
X64588D01*
Y123285D01*
X65658D01*
Y119265D01*
G37*
G36*
G01X67628Y118326D02*
X66558D01*
Y122345D01*
X67628D01*
Y118326D01*
G37*
G36*
G01X69578Y119265D02*
X68508D01*
Y123285D01*
X69578D01*
Y119265D01*
G37*
G36*
G01X71548Y118326D02*
X70478D01*
Y122345D01*
X71548D01*
Y118326D01*
G37*
G36*
G01X73538Y119265D02*
X72468D01*
Y123285D01*
X73538D01*
Y119265D01*
G37*
G36*
G01X75508Y118326D02*
X74438D01*
Y122345D01*
X75508D01*
Y118326D01*
G37*
G36*
G01X77468Y119265D02*
X76398D01*
Y123285D01*
X77468D01*
Y119265D01*
G37*
G36*
G01X79438Y118326D02*
X78368D01*
Y122345D01*
X79438D01*
Y118326D01*
G37*
G36*
G01X81408Y119265D02*
X80338D01*
Y123285D01*
X81408D01*
Y119265D01*
G37*
G36*
G01X83378Y118326D02*
X82308D01*
Y122345D01*
X83378D01*
Y118326D01*
G37*
G36*
G01X85338Y119265D02*
X84268D01*
Y123285D01*
X85338D01*
Y119265D01*
G37*
G36*
G01X96848Y89025D02*
X92828D01*
Y90095D01*
X96848D01*
Y89025D01*
G37*
G36*
G01X95908Y87055D02*
X91888D01*
Y88125D01*
X95908D01*
Y87055D01*
G37*
G36*
G01X96848Y85095D02*
X92828D01*
Y86165D01*
X96848D01*
Y85095D01*
G37*
G36*
G01X95908Y83125D02*
X91888D01*
Y84195D01*
X95908D01*
Y83125D01*
G37*
G36*
G01X87298Y73735D02*
X86228D01*
Y77755D01*
X87298D01*
Y73735D01*
G37*
G36*
G01X96848Y112645D02*
X92828D01*
Y113715D01*
X96848D01*
Y112645D01*
G37*
G36*
G01X95908Y110675D02*
X91888D01*
Y111745D01*
X95908D01*
Y110675D01*
G37*
G36*
G01X96848Y108705D02*
X92828D01*
Y109775D01*
X96848D01*
Y108705D01*
G37*
G36*
G01X95908Y106735D02*
X91888D01*
Y107805D01*
X95908D01*
Y106735D01*
G37*
G36*
G01X96848Y104775D02*
X92828D01*
Y105845D01*
X96848D01*
Y104775D01*
G37*
G36*
G01X95908Y102805D02*
X91888D01*
Y103875D01*
X95908D01*
Y102805D01*
G37*
G36*
G01X96848Y100855D02*
X92828D01*
Y101925D01*
X96848D01*
Y100855D01*
G37*
G36*
G01X95908Y98885D02*
X91888D01*
Y99955D01*
X95908D01*
Y98885D01*
G37*
G36*
G01X96848Y96895D02*
X92828D01*
Y97965D01*
X96848D01*
Y96895D01*
G37*
G36*
G01X95908Y94925D02*
X91888D01*
Y95995D01*
X95908D01*
Y94925D01*
G37*
G36*
G01X96848Y92965D02*
X92828D01*
Y94035D01*
X96848D01*
Y92965D01*
G37*
G36*
G01X95908Y90995D02*
X91888D01*
Y92065D01*
X95908D01*
Y90995D01*
G37*
G36*
G01X87308Y118326D02*
X86238D01*
Y122345D01*
X87308D01*
Y118326D01*
G37*
G54D10*
X15748Y58843D03*
Y46244D03*
G54D20*
G01X3680Y139188D02*
X3602Y139078D01*
X3549Y138949D01*
Y138802D01*
X3628Y138637D01*
X3759Y138508D01*
X3917Y138416D01*
X4179Y138343D01*
X4415Y138324D01*
X4652Y138361D01*
X4809Y138416D01*
X4967Y138526D01*
X5072Y138655D01*
X5124Y138783D01*
Y138912D01*
X5072Y139041D01*
X4993Y139151D01*
X4888Y139243D01*
G01X4468Y139694D02*
X4284Y139823D01*
X4179Y139933D01*
X4127Y140080D01*
X4179Y140209D01*
X4284Y140300D01*
X4442Y140374D01*
X4625Y140393D01*
X4783Y140374D01*
X4940Y140300D01*
X5072Y140190D01*
X5124Y140062D01*
X5072Y139915D01*
X4914Y139786D01*
X4678Y139713D01*
X4415Y139694D01*
X4074Y139731D01*
X3891Y139786D01*
X3707Y139878D01*
X3576Y140007D01*
X3549Y140135D01*
X3602Y140264D01*
X3733Y140356D01*
G01X58431Y16369D02*
X56856D01*
Y16828D01*
X56935Y16975D01*
X57040Y17067D01*
X57250Y17104D01*
X57460Y17067D01*
X57591Y16957D01*
X57670Y16828D01*
Y16369D01*
G01Y16828D02*
X58431Y17104D01*
G01Y17996D02*
X56856D01*
X57171Y17776D01*
G01X58431D02*
Y18217D01*
G54D11*
X15748Y82677D03*
X10630D03*
X15748Y70866D03*
X10630D03*
X15748Y94488D03*
X20866D03*
X115354Y66929D03*
X110236D03*
Y94488D03*
X115354D03*
G54D21*
G01X0Y0D02*
Y196850D01*
X393701D01*
Y0D01*
X0D01*
G01X10938Y51387D02*
X10783Y51157D01*
X10680Y50889D01*
Y50582D01*
X10835Y50237D01*
X11093Y49969D01*
X11403Y49777D01*
X11920Y49624D01*
X12385Y49585D01*
X12850Y49662D01*
X13159Y49777D01*
X13470Y50007D01*
X13676Y50275D01*
X13780Y50544D01*
Y50812D01*
X13676Y51080D01*
X13521Y51310D01*
X13315Y51502D01*
G01X11196Y52915D02*
X10886Y53145D01*
X10731Y53414D01*
X10680Y53720D01*
X10783Y54104D01*
X11041Y54372D01*
X11351Y54449D01*
X11661Y54410D01*
X11920Y54257D01*
X12436Y53491D01*
X12798Y53145D01*
X13315Y52915D01*
X13780Y52839D01*
Y54449D01*
G01X19814Y88896D02*
X20044Y88741D01*
X20312Y88638D01*
X20619D01*
X20964Y88793D01*
X21232Y89052D01*
X21424Y89361D01*
X21577Y89878D01*
X21615Y90343D01*
X21539Y90808D01*
X21424Y91118D01*
X21194Y91428D01*
X20926Y91635D01*
X20657Y91738D01*
X20389D01*
X20120Y91635D01*
X19891Y91480D01*
X19699Y91273D01*
G01X17557Y91738D02*
Y88638D01*
X18017Y89258D01*
G01Y91738D02*
X17097D01*
G01X11682Y88269D02*
X11452Y88424D01*
X11184Y88527D01*
X10877D01*
X10532Y88372D01*
X10264Y88114D01*
X10072Y87804D01*
X9919Y87287D01*
X9881Y86822D01*
X9957Y86357D01*
X10072Y86047D01*
X10302Y85737D01*
X10570Y85530D01*
X10839Y85427D01*
X11107D01*
X11376Y85530D01*
X11606Y85685D01*
X11797Y85892D01*
G01X14399Y85427D02*
Y88527D01*
X12981Y86306D01*
X14897D01*
G01X11682Y76458D02*
X11452Y76613D01*
X11184Y76716D01*
X10877D01*
X10532Y76561D01*
X10264Y76303D01*
X10072Y75993D01*
X9919Y75476D01*
X9881Y75011D01*
X9957Y74546D01*
X10072Y74236D01*
X10302Y73926D01*
X10570Y73719D01*
X10839Y73616D01*
X11107D01*
X11376Y73719D01*
X11606Y73874D01*
X11797Y74081D01*
G01X13096D02*
X13326Y73823D01*
X13594Y73668D01*
X13939Y73616D01*
X14284Y73719D01*
X14552Y73926D01*
X14744Y74288D01*
X14782Y74701D01*
X14706Y75115D01*
X14514Y75373D01*
X14246Y75580D01*
X13977Y75631D01*
X13709Y75580D01*
X13364Y75373D01*
X13479Y76716D01*
X14514D01*
G01X11805Y119173D02*
Y115590D01*
X12058Y114840D01*
X12565Y114340D01*
X13198Y114173D01*
X13831Y114340D01*
X14338Y114840D01*
X14591Y115590D01*
Y119173D01*
G01X18298Y114173D02*
Y119173D01*
X17538Y118173D01*
G01Y114173D02*
X19058D01*
G01X12715Y140226D02*
X12560Y139996D01*
X12457Y139727D01*
Y139420D01*
X12612Y139076D01*
X12870Y138807D01*
X13180Y138616D01*
X13697Y138462D01*
X14162Y138424D01*
X14627Y138501D01*
X14937Y138616D01*
X15247Y138846D01*
X15454Y139114D01*
X15557Y139382D01*
Y139651D01*
X15454Y139919D01*
X15299Y140149D01*
X15092Y140341D01*
G01X15557Y142482D02*
X15506Y142751D01*
X15350Y143057D01*
X15092Y143249D01*
X14730Y143326D01*
X14369Y143249D01*
X14059Y143019D01*
X13904Y142674D01*
Y142291D01*
X13800Y142061D01*
X13542Y141869D01*
X13180Y141792D01*
X12819Y141907D01*
X12560Y142176D01*
X12457Y142482D01*
X12560Y142789D01*
X12819Y143057D01*
X13180Y143172D01*
X13542Y143096D01*
X13800Y142904D01*
X13904Y142674D01*
Y142291D01*
X14059Y141946D01*
X14369Y141716D01*
X14730Y141639D01*
X15092Y141716D01*
X15350Y141907D01*
X15506Y142214D01*
X15557Y142482D01*
G01X41875Y66689D02*
X42067Y66379D01*
X42296Y66172D01*
X42565Y66069D01*
X42871Y66172D01*
X43101Y66379D01*
X43331Y66689D01*
X43408Y67102D01*
Y69169D01*
G01X44975Y66069D02*
Y69169D01*
X45894D01*
X46201Y69014D01*
X46431Y68652D01*
X46508Y68239D01*
X46431Y67826D01*
X46240Y67515D01*
X45894Y67361D01*
X44975D01*
G01X48113Y68652D02*
X48343Y68962D01*
X48611Y69117D01*
X48918Y69169D01*
X49301Y69066D01*
X49570Y68807D01*
X49646Y68497D01*
X49608Y68187D01*
X49455Y67929D01*
X48688Y67412D01*
X48343Y67050D01*
X48113Y66534D01*
X48036Y66069D01*
X49646D01*
G01X29113Y96919D02*
X28958Y96689D01*
X28855Y96420D01*
Y96113D01*
X29010Y95769D01*
X29268Y95500D01*
X29578Y95309D01*
X30095Y95155D01*
X30560Y95117D01*
X31025Y95194D01*
X31335Y95309D01*
X31645Y95539D01*
X31852Y95807D01*
X31955Y96075D01*
Y96344D01*
X31852Y96612D01*
X31696Y96842D01*
X31490Y97033D01*
G01X31593Y98524D02*
X31852Y98792D01*
X31955Y99098D01*
X31852Y99405D01*
X31541Y99674D01*
X31076Y99865D01*
X30611Y99942D01*
X30043D01*
X29578Y99865D01*
X29165Y99674D01*
X28958Y99444D01*
X28855Y99175D01*
X28958Y98869D01*
X29165Y98639D01*
X29475Y98485D01*
X29888Y98409D01*
X30250Y98485D01*
X30611Y98677D01*
X30818Y98907D01*
X30870Y99175D01*
X30767Y99482D01*
X30508Y99712D01*
X30043Y99942D01*
G01X56094Y132264D02*
Y130869D01*
X56861Y129164D01*
G01X55328D02*
X56094Y130869D01*
G01X52994Y132264D02*
Y129164D01*
X53454Y129784D01*
G01Y132264D02*
X52534D01*
G01X82677Y7838D02*
X79577D01*
X82161Y8835D01*
X79577Y9832D01*
X82677D01*
G01Y10977D02*
X79577Y11935D01*
X82677Y12893D01*
G01X81592Y12548D02*
Y11322D01*
G01X79577Y14575D02*
Y15495D01*
G01Y15035D02*
X82677D01*
G01Y14575D02*
Y15495D01*
G01Y17254D02*
X79577D01*
X82677Y19017D01*
X79577D01*
G01X83711Y20085D02*
Y22385D01*
G01X82677Y23569D02*
X79577D01*
Y24488D01*
X79732Y24795D01*
X80094Y25025D01*
X80507Y25102D01*
X80920Y25025D01*
X81231Y24833D01*
X81385Y24488D01*
Y23569D01*
G01X79577Y26285D02*
X82677Y26822D01*
X79577Y27435D01*
X82677Y28048D01*
X79577Y28585D01*
G01X82677Y29769D02*
X79577D01*
Y30727D01*
X79732Y31033D01*
X79939Y31225D01*
X80352Y31302D01*
X80765Y31225D01*
X81024Y30995D01*
X81179Y30727D01*
Y29769D01*
G01Y30727D02*
X82677Y31302D01*
G01X57698Y96525D02*
X58618D01*
G01X58158D02*
Y93425D01*
G01X57698D02*
X58618D01*
G01X62101Y96267D02*
X61871Y96422D01*
X61603Y96525D01*
X61296D01*
X60951Y96370D01*
X60683Y96112D01*
X60491Y95802D01*
X60338Y95285D01*
X60300Y94820D01*
X60376Y94355D01*
X60491Y94045D01*
X60721Y93735D01*
X60989Y93528D01*
X61258Y93425D01*
X61526D01*
X61794Y93528D01*
X62024Y93683D01*
X62216Y93890D01*
G01X64358Y93425D02*
Y96525D01*
X63898Y95905D01*
G01Y93425D02*
X64818D01*
G01X82096Y158543D02*
X80486Y155443D01*
G01X82096D02*
X80486Y158543D01*
G01X78191D02*
Y155443D01*
X78651Y156063D01*
G01Y158543D02*
X77731D01*
G01X114302Y88896D02*
X114532Y88741D01*
X114800Y88638D01*
X115107D01*
X115452Y88793D01*
X115720Y89052D01*
X115912Y89361D01*
X116065Y89878D01*
X116104Y90343D01*
X116027Y90808D01*
X115912Y91118D01*
X115682Y91428D01*
X115414Y91635D01*
X115145Y91738D01*
X114877D01*
X114609Y91635D01*
X114379Y91480D01*
X114187Y91273D01*
G01X112889Y91118D02*
X112659Y91480D01*
X112352Y91687D01*
X112007Y91738D01*
X111700Y91687D01*
X111394Y91428D01*
X111202Y91118D01*
X111164Y90808D01*
X111240Y90446D01*
X111509Y90188D01*
X111777Y90085D01*
X112122D01*
G01X111777D02*
X111547Y89930D01*
X111355Y89672D01*
X111279Y89361D01*
X111355Y89052D01*
X111547Y88793D01*
X111892Y88638D01*
X112237Y88690D01*
X112582Y88896D01*
G01X115828Y84184D02*
X115983Y84414D01*
X116086Y84682D01*
Y84989D01*
X115931Y85334D01*
X115673Y85602D01*
X115363Y85794D01*
X114846Y85947D01*
X114381Y85985D01*
X113916Y85909D01*
X113606Y85794D01*
X113296Y85564D01*
X113089Y85296D01*
X112986Y85027D01*
Y84759D01*
X113089Y84491D01*
X113244Y84261D01*
X113451Y84069D01*
G01X112986Y82004D02*
X113658Y81927D01*
X114226Y81812D01*
X114743Y81659D01*
X115311Y81467D01*
X116086Y81161D01*
Y82694D01*
G01X109679Y69679D02*
Y72779D01*
X110637D01*
X110944Y72624D01*
X111135Y72417D01*
X111212Y72004D01*
X111135Y71591D01*
X110905Y71333D01*
X110637Y71178D01*
X109679D01*
G01X110637D02*
X111212Y69679D01*
G01X112817Y72263D02*
X113047Y72572D01*
X113315Y72728D01*
X113622Y72779D01*
X114005Y72676D01*
X114274Y72417D01*
X114350Y72107D01*
X114312Y71797D01*
X114159Y71539D01*
X113392Y71022D01*
X113047Y70661D01*
X112817Y70144D01*
X112740Y69679D01*
X114350D01*
G01X136604Y141329D02*
X136796Y141019D01*
X137026Y140812D01*
X137294Y140709D01*
X137600Y140812D01*
X137830Y141019D01*
X138061Y141329D01*
X138137Y141742D01*
Y143809D01*
G01X139704Y140709D02*
Y143809D01*
X140624D01*
X140930Y143654D01*
X141161Y143292D01*
X141237Y142879D01*
X141161Y142465D01*
X140969Y142155D01*
X140624Y142000D01*
X139704D01*
G01X142919Y141070D02*
X143187Y140812D01*
X143494Y140709D01*
X143800Y140812D01*
X144069Y141122D01*
X144261Y141587D01*
X144337Y142052D01*
Y142620D01*
X144261Y143085D01*
X144069Y143499D01*
X143839Y143706D01*
X143570Y143809D01*
X143264Y143706D01*
X143034Y143499D01*
X142880Y143189D01*
X142804Y142775D01*
X142880Y142414D01*
X143072Y142052D01*
X143302Y141845D01*
X143570Y141794D01*
X143877Y141897D01*
X144107Y142155D01*
X144337Y142620D01*
G54D12*
X25274Y118012D03*
Y115453D03*
Y112894D03*
Y110335D03*
X7874D03*
Y112894D03*
Y115453D03*
Y118012D03*
G54D13*
Y144291D03*
Y139173D03*
X18307Y144291D03*
Y139173D03*
X34705Y100984D03*
Y95866D03*
X61181Y22244D03*
Y17126D03*
X110236Y80118D03*
Y85236D03*
G54D14*
X39961Y144291D03*
X54528Y135236D03*
X39961D03*
X54528Y144291D03*
G54D15*
X72008Y22244D03*
Y17106D03*
G54D16*
X63937Y167126D03*
X88346D03*
G54D17*
X71417Y177165D03*
X80866D03*
G54D18*
X61181D03*
X91102D03*
G54D19*
X73583Y166732D03*
X76142D03*
X78701D03*
X71024D03*
X81260D03*
M02*
