G04 ================== begin FILE IDENTIFICATION RECORD ==================*
G04 Layout Name:  PCB EDITOR TUTORIAL_COMPLETE.brd*
G04 Film Name:    POWER_PLANE*
G04 File Format:  Gerber RS274X*
G04 File Origin:  Cadence Allegro 17.2-S037*
G04 Origin Date:  Sun Apr 15 09:58:16 2018*
G04 *
G04 Layer:  ETCH/POWER PLANE*
G04 Layer:  PIN/POWER PLANE*
G04 Layer:  VIA CLASS/POWER PLANE*
G04 *
G04 Offset:    (0.0000 0.0000)*
G04 Mirror:    No*
G04 Mode:      Positive*
G04 Rotation:  0*
G04 FullContactRelief:  No*
G04 UndefLineWidth:     0.0000*
G04 ================== end FILE IDENTIFICATION RECORD ====================*
%FSLAX25Y25*MOIN*%
%IR0*IPPOS*OFA0.00000B0.00000*MIA0B0*SFA1.00000B1.00000*%
%ADD11C,.024*%
%ADD10C,.15*%
%ADD13C,.056*%
%ADD12C,.074*%
%ADD14C,.015*%
%ADD16C,.034016*%
%ADD19C,.084016*%
%ADD15C,.236236*%
%ADD17C,.145937*%
%ADD18C,.066016*%
G75*
%LPD*%
G75*
G36*
G01X1183Y195668D02*
X392518D01*
Y1183D01*
X1183D01*
Y195668D01*
G37*
%LPC*%
G75*
G54D16*
X18826Y70866D03*
Y82677D03*
X15748Y62904D03*
X12670Y94488D03*
X3424Y110335D03*
X18307Y147369D03*
X7874D03*
X34705Y104062D03*
X29724Y110335D03*
X39961Y148157D03*
X72008Y14530D03*
X72992Y71528D03*
X71024Y125322D03*
X59967Y135236D03*
X71024Y162276D03*
X110236Y77040D03*
X98904Y89567D03*
X107158Y94488D03*
X101035Y99409D03*
G54D19*
X46491Y59069D03*
X56491Y58069D03*
X66491Y59069D03*
X76491Y58069D03*
X86491Y59069D03*
X96491Y58069D03*
G54D15*
X15748Y15748D03*
Y181102D03*
X377953Y15748D03*
Y181102D03*
G54D17*
X147638Y41339D03*
Y155512D03*
X356299Y41339D03*
Y155512D03*
G54D18*
X143701Y62992D03*
Y70866D03*
Y78740D03*
Y86614D03*
Y94488D03*
Y102362D03*
Y110236D03*
Y118110D03*
Y125984D03*
Y133858D03*
X151575Y62992D03*
Y70866D03*
Y78740D03*
Y86614D03*
Y94488D03*
Y102362D03*
Y110236D03*
Y118110D03*
Y125984D03*
Y133858D03*
%LPD*%
G75*
G54D10*
X15748Y15748D03*
Y181102D03*
X377953Y15748D03*
Y181102D03*
G54D11*
X15748Y42182D03*
X18826Y82677D03*
Y70866D03*
X15748Y62904D03*
X7552Y82677D03*
Y70866D03*
X12670Y94488D03*
X3424Y110335D03*
Y118012D03*
X18307Y147369D03*
X7874D03*
X18307Y136095D03*
X7874D03*
X29724Y110335D03*
X34705Y104062D03*
X39961Y148157D03*
X72008Y14530D03*
X61181Y14048D03*
X72992Y71528D03*
X74961Y81890D03*
X59967Y135236D03*
X71024Y125322D03*
X76929D03*
X82835D03*
X71024Y162276D03*
X110236Y77040D03*
X98904Y89567D03*
X110236Y88314D03*
X107158Y66929D03*
X87205Y87598D03*
X107158Y94488D03*
X101035Y99409D03*
X87205Y101378D03*
G54D12*
X56491Y58069D03*
X46491Y59069D03*
X86491D03*
X76491Y58069D03*
X66491Y59069D03*
X96491Y58069D03*
G54D13*
X143701Y62992D03*
Y70866D03*
Y78740D03*
Y86614D03*
Y94488D03*
Y102362D03*
Y110236D03*
Y118110D03*
Y125984D03*
Y133858D03*
X151575Y62992D03*
Y70866D03*
Y78740D03*
Y86614D03*
Y94488D03*
Y102362D03*
Y110236D03*
Y118110D03*
Y125984D03*
Y133858D03*
G54D14*
G01X52091Y58069D02*
X56491D01*
G01Y53668D02*
Y58069D01*
G01D02*
Y62470D01*
G01Y58069D02*
X60892D01*
M02*
