G04 ================== begin FILE IDENTIFICATION RECORD ==================*
G04 Layout Name:  PCB EDITOR TUTORIAL.brd*
G04 Film Name:    BOTTOM*
G04 File Format:  Gerber RS274X*
G04 File Origin:  Cadence Allegro 17.2-S037*
G04 Origin Date:  Thu Apr 12 20:21:19 2018*
G04 *
G04 Layer:  ETCH/BOTTOM*
G04 Layer:  PIN/BOTTOM*
G04 Layer:  VIA CLASS/BOTTOM*
G04 *
G04 Offset:    (0.0000 0.0000)*
G04 Mirror:    No*
G04 Mode:      Positive*
G04 Rotation:  0*
G04 FullContactRelief:  No*
G04 UndefLineWidth:     0.0000*
G04 ================== end FILE IDENTIFICATION RECORD ====================*
%FSLAX25Y25*MOMM*%
%IR0*IPPOS*OFA0.00000B0.00000*MIA0B0*SFA1.00000B1.00000*%
%ADD11C,.6096*%
%ADD13C,1.4224*%
%ADD10C,4.064*%
%ADD12C,1.8796*%
%ADD14C,.381*%
%ADD16C,.864*%
%ADD17C,2.134*%
%ADD15C,6.0004*%
%ADD18C,3.7068*%
%ADD19C,1.6768*%
G75*
%LPD*%
G75*
G36*
G01X56000Y48000D02*
Y2948370D01*
G02X70120Y2957720I10159J-5D01*
G03Y3037280I16850J39780D01*
G02X56000Y3046630I-3961J9355D01*
G01Y4937500D01*
X9962000D01*
Y48000D01*
X56000D01*
G37*
%LPC*%
G75*
G54D16*
X400000Y1071420D03*
X191820Y1800000D03*
Y2100000D03*
X465000Y3456820D03*
X200000D03*
X1554000Y356820D03*
X1904000Y2080000D03*
X1954000Y3183170D03*
X2104000D03*
X2800000Y2243180D03*
X2721820Y1700000D03*
X2215000Y2225000D03*
Y2575000D03*
G54D17*
X1300000Y1200000D03*
X2062000Y1174600D03*
X1808000Y1200000D03*
X1554000Y1174600D03*
X2570000D03*
X2316000Y1200000D03*
G54D15*
X400000Y400000D03*
Y4600000D03*
X9600000Y400000D03*
Y4600000D03*
G54D18*
X3750000Y1050000D03*
Y3950000D03*
X9050000Y1050000D03*
Y3950000D03*
G54D19*
X3650000Y1600000D03*
Y1800000D03*
Y2000000D03*
Y2200000D03*
Y2400000D03*
Y2600000D03*
Y2800000D03*
Y3000000D03*
Y3200000D03*
Y3400000D03*
X3850000Y1600000D03*
Y1800000D03*
Y2000000D03*
Y2200000D03*
Y2400000D03*
Y2600000D03*
Y2800000D03*
Y3000000D03*
Y3200000D03*
Y3400000D03*
%LPD*%
G75*
G54D10*
X400000Y400000D03*
Y4600000D03*
X9600000Y400000D03*
Y4600000D03*
G54D11*
X400000Y1071420D03*
X478180Y2100000D03*
Y1800000D03*
X400000Y1597770D03*
X191820Y2100000D03*
Y1800000D03*
X321820Y2400000D03*
X86970Y2802500D03*
Y2997500D03*
X465000Y3743180D03*
X200000D03*
X465000Y3456820D03*
X200000D03*
X754990Y2802500D03*
X881500Y2643180D03*
X1015000Y3763180D03*
X1829000Y369070D03*
X1554000Y356820D03*
X1854000Y1816820D03*
X1904000Y2080000D03*
X1523170Y3435000D03*
X1804000Y3183170D03*
X1954000D03*
X2104000D03*
X1804000Y4121820D03*
X2800000Y1956820D03*
X2512170Y2275000D03*
X2800000Y2243180D03*
X2721820Y1700000D03*
X2215000Y2225000D03*
X2721820Y2400000D03*
X2566280Y2525000D03*
X2215000Y2575000D03*
G54D12*
X1300000Y1200000D03*
X2062000Y1174600D03*
X1808000Y1200000D03*
X1554000Y1174600D03*
X2570000D03*
X2316000Y1200000D03*
G54D13*
X3650000Y1600000D03*
Y1800000D03*
Y2000000D03*
Y2200000D03*
Y2400000D03*
Y2600000D03*
Y2800000D03*
Y3000000D03*
Y3200000D03*
Y3400000D03*
X3850000Y1600000D03*
Y1800000D03*
Y2000000D03*
Y2200000D03*
Y2400000D03*
Y2600000D03*
Y2800000D03*
Y3000000D03*
Y3200000D03*
Y3400000D03*
G54D14*
G01X1808000Y1088220D02*
Y1200000D01*
G01D02*
Y1311780D01*
G01X1696220Y1200000D02*
X1808000D01*
G01D02*
X1919780D01*
G01X3650000Y3311080D02*
Y3400000D01*
G01D02*
Y3488920D01*
G01X3561080Y3400000D02*
X3650000D01*
G01D02*
X3738920D01*
M02*
