G04 ================== begin FILE IDENTIFICATION RECORD ==================*
G04 Layout Name:  PCB EDITOR TUTORIAL.brd*
G04 Film Name:    FAB*
G04 File Format:  Gerber RS274X*
G04 File Origin:  Cadence Allegro 17.2-S037*
G04 Origin Date:  Thu Apr 12 20:21:19 2018*
G04 *
G04 Layer:  MANUFACTURING/XSECTION_CHART*
G04 Layer:  MANUFACTURING/NCLEGEND-1-3*
G04 Layer:  DRAWING FORMAT/OUTLINE*
G04 Layer:  DRAWING FORMAT/TITLE_BLOCK*
G04 Layer:  DRAWING FORMAT/TITLE_DATA*
G04 Layer:  DRAWING FORMAT/REVISION_BLOCK*
G04 Layer:  DRAWING FORMAT/REVISION_DATA*
G04 Layer:  BOARD GEOMETRY/DIMENSION*
G04 Layer:  BOARD GEOMETRY/DESIGN_OUTLINE*
G04 *
G04 Offset:    (0.0000 0.0000)*
G04 Mirror:    No*
G04 Mode:      Positive*
G04 Rotation:  0*
G04 FullContactRelief:  No*
G04 UndefLineWidth:     0.1270*
G04 ================== end FILE IDENTIFICATION RECORD ====================*
%FSLAX25Y25*MOMM*%
%IR0*IPPOS*OFA0.00000B0.00000*MIA0B0*SFA1.00000B1.00000*%
%AMMACRO13*
1,1,.127,.683452,-1.65*
20,1,.127,.683452,-1.65,-.683452,-1.65,0.0*
1,1,.127,-.683452,-1.65*
20,1,.127,-.683452,-1.65,-1.65,-.683452,0.0*
1,1,.127,-1.65,-.683452*
20,1,.127,-1.65,-.683452,-1.65,.683452,0.0*
1,1,.127,-1.65,.683452*
20,1,.127,-1.65,.683452,-.683452,1.65,0.0*
1,1,.127,-.683452,1.65*
20,1,.127,-.683452,1.65,.683452,1.65,0.0*
1,1,.127,.683452,1.65*
20,1,.127,.683452,1.65,1.65,.683452,0.0*
1,1,.127,1.65,.683452*
20,1,.127,1.65,.683452,1.65,-.683452,0.0*
1,1,.127,1.65,-.683452*
20,1,.127,1.65,-.683452,.683452,-1.65,0.0*
1,1,.127,.683452,-1.65*
%
%ADD13MACRO13*%
%AMMACRO14*
1,1,.127,.35,.35*
20,1,.127,.35,.35,.35,-.35,0.0*
1,1,.127,.35,-.35*
20,1,.127,.35,-.35,-.35,-.35,0.0*
1,1,.127,-.35,-.35*
20,1,.127,-.35,-.35,-.35,.35,0.0*
1,1,.127,-.35,.35*
20,1,.127,-.35,.35,.35,.35,0.0*
1,1,.127,.35,.35*
%
%ADD14MACRO14*%
%AMMACRO11*
1,1,.127,.1651,0.0*
20,1,.127,.1651,0.0,-.1651,0.0,0.0*
1,1,.127,-.1651,0.0*
1,1,.127,0.0,.1651*
20,1,.127,0.0,.1651,0.0,-.1651,0.0*
1,1,.127,0.0,-.1651*
%
%ADD11MACRO11*%
%AMMACRO12*
1,1,.127,.508,0.0*
20,1,.127,.508,0.0,.254,.439941,0.0*
1,1,.127,.254,.439941*
20,1,.127,.254,.439941,-.254,.439941,0.0*
1,1,.127,-.254,.439941*
20,1,.127,-.254,.439941,-.508,0.0,0.0*
1,1,.127,-.508,0.0*
20,1,.127,-.508,0.0,-.254,-.439941,0.0*
1,1,.127,-.254,-.439941*
20,1,.127,-.254,-.439941,.254,-.439941,0.0*
1,1,.127,.254,-.439941*
20,1,.127,.254,-.439941,.508,0.0,0.0*
1,1,.127,.508,0.0*
%
%ADD12MACRO12*%
%AMMACRO10*
1,1,.127,0.0,1.905*
20,1,.127,0.0,1.905,-1.649778,.9525,0.0*
1,1,.127,-1.649778,.9525*
20,1,.127,-1.649778,.9525,-1.649778,-.9525,0.0*
1,1,.127,-1.649778,-.9525*
20,1,.127,-1.649778,-.9525,0.0,-1.905,0.0*
1,1,.127,0.0,-1.905*
20,1,.127,0.0,-1.905,1.649778,-.9525,0.0*
1,1,.127,1.649778,-.9525*
20,1,.127,1.649778,-.9525,1.649778,.9525,0.0*
1,1,.127,1.649778,.9525*
20,1,.127,1.649778,.9525,0.0,1.905,0.0*
1,1,.127,0.0,1.905*
%
%ADD10MACRO10*%
%ADD15C,.127*%
G75*
%LPD*%
G75*
G36*
G01X16978280Y11114540D02*
Y10803650D01*
X17041780D01*
Y6347470D01*
X16978280D01*
Y6036580D01*
X17359280D01*
Y6347470D01*
X17295780D01*
Y10803650D01*
X17359280D01*
Y11114540D01*
X16978280D01*
G37*
G36*
G01X16470280Y6036590D02*
Y6347480D01*
X17994280D01*
Y6036590D01*
X16470280D01*
G37*
G36*
G01Y8420120D02*
Y8731010D01*
X17994280D01*
Y8420120D01*
X16470280D01*
G37*
G36*
G01Y10803650D02*
Y11114540D01*
X17994280D01*
Y10803650D01*
X16470280D01*
G37*
G54D10*
X400000Y400000D03*
Y4600000D03*
X9600000Y400000D03*
Y4600000D03*
X13041730Y757500D03*
G54D11*
X400000Y1071420D03*
X478180Y2100000D03*
Y1800000D03*
X400000Y1597770D03*
X191820Y2100000D03*
Y1800000D03*
X321820Y2400000D03*
X86970Y2802500D03*
Y2997500D03*
X465000Y3743180D03*
X200000D03*
X465000Y3456820D03*
X200000D03*
X754990Y2802500D03*
X881500Y2643180D03*
X1015000Y3763180D03*
X1829000Y369070D03*
X1554000Y356820D03*
X1854000Y1816820D03*
X1904000Y2080000D03*
X1523170Y3435000D03*
X1804000Y3183170D03*
X1954000D03*
X2104000D03*
X1804000Y4121820D03*
X2800000Y1956820D03*
X2512170Y2275000D03*
X2800000Y2243180D03*
X2721820Y1700000D03*
X2215000Y2225000D03*
X2721820Y2400000D03*
X2566280Y2525000D03*
X2215000Y2575000D03*
X13041730Y2662500D03*
G54D12*
X1300000Y1200000D03*
X2062000Y1174600D03*
X1808000Y1200000D03*
X1554000Y1174600D03*
X2570000D03*
X2316000Y1200000D03*
X13041730Y1392500D03*
G54D13*
X3750000Y1050000D03*
Y3950000D03*
X9050000Y1050000D03*
Y3950000D03*
X13041730Y122500D03*
G54D14*
X3650000Y1600000D03*
Y1800000D03*
Y2000000D03*
Y2200000D03*
Y2400000D03*
Y2600000D03*
Y2800000D03*
Y3000000D03*
Y3200000D03*
Y3400000D03*
X3850000Y1600000D03*
Y1800000D03*
Y2000000D03*
Y2200000D03*
Y2400000D03*
Y2600000D03*
Y2800000D03*
Y3000000D03*
Y3200000D03*
Y3400000D03*
X13041730Y2027500D03*
G54D15*
G01X-1787300Y-6112700D02*
Y15477300D01*
X26343200D01*
Y-6112700D01*
X-1787300D01*
G01X-1038000Y-5439600D02*
Y14880400D01*
X25505000D01*
Y-5439600D01*
X-1038000D01*
G01X0Y0D02*
Y5000000D01*
X10000000D01*
Y0D01*
X0D01*
G01Y5250000D02*
Y6450000D01*
G01X3928810Y6200000D02*
X0D01*
G01X400000Y6262500D02*
X0Y6200000D01*
X400000Y6137500D01*
Y6262500D01*
G01X4285040Y6041250D02*
Y6358750D01*
X4237800Y6295250D01*
G01Y6041250D02*
X4332280D01*
G01X4600000Y6358750D02*
X4568500Y6348170D01*
X4544880Y6321710D01*
X4529130Y6289960D01*
X4517320Y6247620D01*
X4513390Y6200000D01*
X4517320Y6152370D01*
X4529130Y6110040D01*
X4544880Y6078280D01*
X4568500Y6051830D01*
X4600000Y6041250D01*
X4631490Y6051830D01*
X4655120Y6078280D01*
X4670870Y6110040D01*
X4682680Y6152370D01*
X4686610Y6200000D01*
X4682680Y6247620D01*
X4670870Y6289960D01*
X4655120Y6321710D01*
X4631490Y6348170D01*
X4600000Y6358750D01*
G01X4914960D02*
X4883460Y6348170D01*
X4859840Y6321710D01*
X4844090Y6289960D01*
X4832280Y6247620D01*
X4828350Y6200000D01*
X4832280Y6152370D01*
X4844090Y6110040D01*
X4859840Y6078280D01*
X4883460Y6051830D01*
X4914960Y6041250D01*
X4946450Y6051830D01*
X4970080Y6078280D01*
X4985830Y6110040D01*
X4997640Y6152370D01*
X5001570Y6200000D01*
X4997640Y6247620D01*
X4985830Y6289960D01*
X4970080Y6321710D01*
X4946450Y6348170D01*
X4914960Y6358750D01*
G01X5705700Y-5414200D02*
Y-842200D01*
X25517700D01*
G01X5913890Y-3953700D02*
Y-3826700D01*
X5975030D01*
G01X5952500Y-3888080D02*
X5913890D01*
G01X6041830Y-3953700D02*
Y-3826700D01*
X6082040D01*
X6094910Y-3833050D01*
X6102960Y-3841520D01*
X6106170Y-3858450D01*
X6102960Y-3875380D01*
X6093300Y-3885970D01*
X6082040Y-3892320D01*
X6041830D01*
G01X6082040D02*
X6106170Y-3953700D01*
G01X6163320D02*
X6203540Y-3826700D01*
X6243760Y-3953700D01*
G01X6229280Y-3909250D02*
X6177800D01*
G01X6368470Y-3837280D02*
X6358820Y-3830930D01*
X6347560Y-3826700D01*
X6334690D01*
X6320210Y-3833050D01*
X6308950Y-3843630D01*
X6300910Y-3856330D01*
X6294470Y-3877500D01*
X6292860Y-3896550D01*
X6296080Y-3915600D01*
X6300910Y-3928300D01*
X6310560Y-3941000D01*
X6321820Y-3949470D01*
X6333080Y-3953700D01*
X6344340D01*
X6355600Y-3949470D01*
X6365250Y-3943120D01*
X6373300Y-3934650D01*
G01X6462620Y-3826700D02*
Y-3953700D01*
G01X6425620Y-3826700D02*
X6499620D01*
G01X6572860D02*
X6611460D01*
G01X6592160D02*
Y-3953700D01*
G01X6572860D02*
X6611460D01*
G01X6721700D02*
X6708830Y-3951580D01*
X6697570Y-3943120D01*
X6687920Y-3930420D01*
X6681480Y-3915600D01*
X6678260Y-3898670D01*
Y-3881730D01*
X6681480Y-3864800D01*
X6687920Y-3849980D01*
X6697570Y-3837280D01*
X6708830Y-3828820D01*
X6721700Y-3826700D01*
X6734570Y-3828820D01*
X6745830Y-3837280D01*
X6755480Y-3849980D01*
X6761920Y-3864800D01*
X6765140Y-3881730D01*
Y-3898670D01*
X6761920Y-3915600D01*
X6755480Y-3930420D01*
X6745830Y-3943120D01*
X6734570Y-3951580D01*
X6721700Y-3953700D01*
G01X6814240D02*
Y-3826700D01*
X6888240Y-3953700D01*
Y-3826700D01*
G01X6947000Y-3936770D02*
X6959870Y-3947350D01*
X6974350Y-3953700D01*
X6987210D01*
X7000080Y-3947350D01*
X7009740Y-3936770D01*
X7014560Y-3921950D01*
X7011350Y-3907140D01*
X7003300Y-3894430D01*
X6988820Y-3885970D01*
X6969520Y-3881730D01*
X6958260Y-3873270D01*
X6953430Y-3858450D01*
X6956650Y-3843630D01*
X6964690Y-3833050D01*
X6975950Y-3826700D01*
X6987210D01*
X6998480Y-3830930D01*
X7008130Y-3841520D01*
G01X7222160Y-3911370D02*
X7260770D01*
G01X7239860Y-3883850D02*
Y-3938890D01*
G01X5904240Y-3572700D02*
X5944460Y-3445700D01*
X5984680Y-3572700D01*
G01X5970200Y-3528250D02*
X5918720D01*
G01X6037000Y-3572700D02*
Y-3445700D01*
X6111000Y-3572700D01*
Y-3445700D01*
G01X6213190Y-3509200D02*
X6245370D01*
Y-3547300D01*
X6235710Y-3560000D01*
X6224450Y-3568470D01*
X6208370Y-3572700D01*
X6192280Y-3568470D01*
X6181020Y-3560000D01*
X6171370Y-3547300D01*
X6164930Y-3532480D01*
X6161710Y-3515550D01*
Y-3500730D01*
X6164930Y-3488040D01*
X6171370Y-3473210D01*
X6181020Y-3460520D01*
X6190670Y-3452050D01*
X6203540Y-3445700D01*
X6214800D01*
X6227670Y-3449930D01*
X6237320Y-3458400D01*
G01X6300910Y-3445700D02*
Y-3572700D01*
X6365250D01*
G01X6494790D02*
X6430450D01*
Y-3445700D01*
X6494790D01*
G01X6469050Y-3507080D02*
X6430450D01*
G01X6558380Y-3555770D02*
X6571250Y-3566350D01*
X6585730Y-3572700D01*
X6598590D01*
X6611460Y-3566350D01*
X6621120Y-3555770D01*
X6625940Y-3540950D01*
X6622730Y-3526140D01*
X6614680Y-3513430D01*
X6600200Y-3504970D01*
X6580900Y-3500730D01*
X6569640Y-3492270D01*
X6564810Y-3477450D01*
X6568030Y-3462630D01*
X6576070Y-3452050D01*
X6587330Y-3445700D01*
X6598590D01*
X6609860Y-3449930D01*
X6619510Y-3460520D01*
G01X6833540Y-3530370D02*
X6872150D01*
G01X6851240Y-3502850D02*
Y-3557890D01*
G01X5909070Y-3166300D02*
X5918720Y-3181120D01*
X5931590Y-3189580D01*
X5946070Y-3191700D01*
X5958940Y-3189580D01*
X5971810Y-3179000D01*
X5979850Y-3166300D01*
X5981460Y-3153600D01*
X5978240Y-3138790D01*
X5966980Y-3128200D01*
X5955720Y-3123970D01*
X5941240D01*
G01X5955720D02*
X5965370Y-3117620D01*
X5973420Y-3107040D01*
X5976630Y-3094330D01*
X5973420Y-3081630D01*
X5965370Y-3071050D01*
X5950890Y-3064700D01*
X5936420Y-3066820D01*
X5921940Y-3075280D01*
G01X6171370Y-3191700D02*
Y-3064700D01*
X6209970D01*
X6222840Y-3071050D01*
X6232500Y-3085870D01*
X6235710Y-3102800D01*
X6232500Y-3119730D01*
X6224450Y-3132430D01*
X6209970Y-3138790D01*
X6171370D01*
G01X6300910Y-3064700D02*
Y-3191700D01*
X6365250D01*
G01X6556770D02*
Y-3064700D01*
X6588940D01*
X6601810Y-3071050D01*
X6611460Y-3079520D01*
X6619510Y-3092210D01*
X6625940Y-3107040D01*
X6627550Y-3128200D01*
X6625940Y-3149370D01*
X6619510Y-3164190D01*
X6611460Y-3176890D01*
X6601810Y-3185350D01*
X6588940Y-3191700D01*
X6556770D01*
G01X6753870D02*
X6689530D01*
Y-3064700D01*
X6753870D01*
G01X6728130Y-3126080D02*
X6689530D01*
G01X6886630Y-3075280D02*
X6876980Y-3068930D01*
X6865720Y-3064700D01*
X6852850D01*
X6838370Y-3071050D01*
X6827110Y-3081630D01*
X6819070Y-3094330D01*
X6812630Y-3115500D01*
X6811020Y-3134550D01*
X6814240Y-3153600D01*
X6819070Y-3166300D01*
X6828720Y-3179000D01*
X6839980Y-3187470D01*
X6851240Y-3191700D01*
X6862500D01*
X6873760Y-3187470D01*
X6883410Y-3181120D01*
X6891460Y-3172650D01*
G01X6961480Y-3064700D02*
X7000080D01*
G01X6980780D02*
Y-3191700D01*
G01X6961480D02*
X7000080D01*
G01X7068490D02*
Y-3064700D01*
X7110320Y-3170530D01*
X7152150Y-3064700D01*
Y-3191700D01*
G01X7199640D02*
X7239860Y-3064700D01*
X7280080Y-3191700D01*
G01X7265600Y-3147250D02*
X7214120D01*
G01X7337230Y-3064700D02*
Y-3191700D01*
X7401570D01*
G01X7465160Y-3174770D02*
X7478030Y-3185350D01*
X7492510Y-3191700D01*
X7505370D01*
X7518240Y-3185350D01*
X7527900Y-3174770D01*
X7532720Y-3159950D01*
X7529510Y-3145140D01*
X7521460Y-3132430D01*
X7506980Y-3123970D01*
X7487680Y-3119730D01*
X7476420Y-3111270D01*
X7471590Y-3096450D01*
X7474810Y-3081630D01*
X7482850Y-3071050D01*
X7494110Y-3064700D01*
X7505370D01*
X7516640Y-3068930D01*
X7526290Y-3079520D01*
G01X7740320Y-3149370D02*
X7778930D01*
G01X7758020Y-3121850D02*
Y-3176890D01*
G01X5913890Y-2704870D02*
X5923550Y-2692170D01*
X5934810Y-2685820D01*
X5947680Y-2683700D01*
X5963760Y-2687930D01*
X5975030Y-2698520D01*
X5978240Y-2711210D01*
X5976630Y-2723920D01*
X5970200Y-2734500D01*
X5938030Y-2755670D01*
X5923550Y-2770480D01*
X5913890Y-2791650D01*
X5910680Y-2810700D01*
X5978240D01*
G01X6171370D02*
Y-2683700D01*
X6209970D01*
X6222840Y-2690050D01*
X6232500Y-2704870D01*
X6235710Y-2721800D01*
X6232500Y-2738730D01*
X6224450Y-2751430D01*
X6209970Y-2757790D01*
X6171370D01*
G01X6300910Y-2683700D02*
Y-2810700D01*
X6365250D01*
G01X6556770D02*
Y-2683700D01*
X6588940D01*
X6601810Y-2690050D01*
X6611460Y-2698520D01*
X6619510Y-2711210D01*
X6625940Y-2726040D01*
X6627550Y-2747200D01*
X6625940Y-2768370D01*
X6619510Y-2783190D01*
X6611460Y-2795890D01*
X6601810Y-2804350D01*
X6588940Y-2810700D01*
X6556770D01*
G01X6753870D02*
X6689530D01*
Y-2683700D01*
X6753870D01*
G01X6728130Y-2745080D02*
X6689530D01*
G01X6886630Y-2694280D02*
X6876980Y-2687930D01*
X6865720Y-2683700D01*
X6852850D01*
X6838370Y-2690050D01*
X6827110Y-2700630D01*
X6819070Y-2713330D01*
X6812630Y-2734500D01*
X6811020Y-2753550D01*
X6814240Y-2772600D01*
X6819070Y-2785300D01*
X6828720Y-2798000D01*
X6839980Y-2806470D01*
X6851240Y-2810700D01*
X6862500D01*
X6873760Y-2806470D01*
X6883410Y-2800120D01*
X6891460Y-2791650D01*
G01X6961480Y-2683700D02*
X7000080D01*
G01X6980780D02*
Y-2810700D01*
G01X6961480D02*
X7000080D01*
G01X7068490D02*
Y-2683700D01*
X7110320Y-2789530D01*
X7152150Y-2683700D01*
Y-2810700D01*
G01X7199640D02*
X7239860Y-2683700D01*
X7280080Y-2810700D01*
G01X7265600Y-2766250D02*
X7214120D01*
G01X7337230Y-2683700D02*
Y-2810700D01*
X7401570D01*
G01X7465160Y-2793770D02*
X7478030Y-2804350D01*
X7492510Y-2810700D01*
X7505370D01*
X7518240Y-2804350D01*
X7527900Y-2793770D01*
X7532720Y-2778950D01*
X7529510Y-2764140D01*
X7521460Y-2751430D01*
X7506980Y-2742970D01*
X7487680Y-2738730D01*
X7476420Y-2730270D01*
X7471590Y-2715450D01*
X7474810Y-2700630D01*
X7482850Y-2690050D01*
X7494110Y-2683700D01*
X7505370D01*
X7516640Y-2687930D01*
X7526290Y-2698520D01*
G01X7740320Y-2768370D02*
X7778930D01*
G01X7758020Y-2740850D02*
Y-2795890D01*
G01X5944460Y-2302700D02*
Y-2429700D01*
G01X5907460Y-2302700D02*
X5981460D01*
G01X6074000Y-2429700D02*
X6061130Y-2427580D01*
X6049870Y-2419120D01*
X6040220Y-2406420D01*
X6033780Y-2391600D01*
X6030560Y-2374670D01*
Y-2357730D01*
X6033780Y-2340800D01*
X6040220Y-2325980D01*
X6049870Y-2313280D01*
X6061130Y-2304820D01*
X6074000Y-2302700D01*
X6086870Y-2304820D01*
X6098130Y-2313280D01*
X6107780Y-2325980D01*
X6114220Y-2340800D01*
X6117440Y-2357730D01*
Y-2374670D01*
X6114220Y-2391600D01*
X6107780Y-2406420D01*
X6098130Y-2419120D01*
X6086870Y-2427580D01*
X6074000Y-2429700D01*
G01X6171370Y-2302700D02*
Y-2429700D01*
X6235710D01*
G01X6365250D02*
X6300910D01*
Y-2302700D01*
X6365250D01*
G01X6339510Y-2364080D02*
X6300910D01*
G01X6430450Y-2429700D02*
Y-2302700D01*
X6470660D01*
X6483530Y-2309050D01*
X6491580Y-2317520D01*
X6494790Y-2334450D01*
X6491580Y-2351380D01*
X6481920Y-2361970D01*
X6470660Y-2368320D01*
X6430450D01*
G01X6470660D02*
X6494790Y-2429700D01*
G01X6551940D02*
X6592160Y-2302700D01*
X6632380Y-2429700D01*
G01X6617900Y-2385250D02*
X6566420D01*
G01X6684700Y-2429700D02*
Y-2302700D01*
X6758700Y-2429700D01*
Y-2302700D01*
G01X6886630Y-2313280D02*
X6876980Y-2306930D01*
X6865720Y-2302700D01*
X6852850D01*
X6838370Y-2309050D01*
X6827110Y-2319630D01*
X6819070Y-2332330D01*
X6812630Y-2353500D01*
X6811020Y-2372550D01*
X6814240Y-2391600D01*
X6819070Y-2404300D01*
X6828720Y-2417000D01*
X6839980Y-2425470D01*
X6851240Y-2429700D01*
X6862500D01*
X6873760Y-2425470D01*
X6883410Y-2419120D01*
X6891460Y-2410650D01*
G01X7012950Y-2429700D02*
X6948610D01*
Y-2302700D01*
X7012950D01*
G01X6987210Y-2364080D02*
X6948610D01*
G01X7076540Y-2412770D02*
X7089410Y-2423350D01*
X7103890Y-2429700D01*
X7116750D01*
X7129620Y-2423350D01*
X7139280Y-2412770D01*
X7144100Y-2397950D01*
X7140890Y-2383140D01*
X7132840Y-2370430D01*
X7118360Y-2361970D01*
X7099060Y-2357730D01*
X7087800Y-2349270D01*
X7082970Y-2334450D01*
X7086190Y-2319630D01*
X7094230Y-2309050D01*
X7105490Y-2302700D01*
X7116750D01*
X7128020Y-2306930D01*
X7137670Y-2317520D01*
G01X7369400Y-2429700D02*
X7356530Y-2427580D01*
X7345270Y-2419120D01*
X7335620Y-2406420D01*
X7329180Y-2391600D01*
X7325960Y-2374670D01*
Y-2357730D01*
X7329180Y-2340800D01*
X7335620Y-2325980D01*
X7345270Y-2313280D01*
X7356530Y-2304820D01*
X7369400Y-2302700D01*
X7382270Y-2304820D01*
X7393530Y-2313280D01*
X7403180Y-2325980D01*
X7409620Y-2340800D01*
X7412840Y-2357730D01*
Y-2374670D01*
X7409620Y-2391600D01*
X7403180Y-2406420D01*
X7393530Y-2419120D01*
X7382270Y-2427580D01*
X7369400Y-2429700D01*
G01X7461940D02*
Y-2302700D01*
X7535940Y-2429700D01*
Y-2302700D01*
G01X7628480Y-2433930D02*
X7625260Y-2431820D01*
Y-2427580D01*
X7628480Y-2425470D01*
X7631700Y-2427580D01*
Y-2431820D01*
X7628480Y-2433930D01*
G01Y-2376790D02*
X7625260Y-2374670D01*
Y-2370430D01*
X7628480Y-2368320D01*
X7631700Y-2370430D01*
Y-2374670D01*
X7628480Y-2376790D01*
G01X5909070Y-1985200D02*
Y-1858200D01*
X5941240D01*
X5954110Y-1864550D01*
X5963760Y-1873020D01*
X5971810Y-1885710D01*
X5978240Y-1900540D01*
X5979850Y-1921700D01*
X5978240Y-1942870D01*
X5971810Y-1957690D01*
X5963760Y-1970390D01*
X5954110Y-1978850D01*
X5941240Y-1985200D01*
X5909070D01*
G01X6054700Y-1858200D02*
X6093300D01*
G01X6074000D02*
Y-1985200D01*
G01X6054700D02*
X6093300D01*
G01X6161710D02*
Y-1858200D01*
X6203540Y-1964030D01*
X6245370Y-1858200D01*
Y-1985200D01*
G01X6365250D02*
X6300910D01*
Y-1858200D01*
X6365250D01*
G01X6339510Y-1919580D02*
X6300910D01*
G01X6425620Y-1985200D02*
Y-1858200D01*
X6499620Y-1985200D01*
Y-1858200D01*
G01X6558380Y-1968270D02*
X6571250Y-1978850D01*
X6585730Y-1985200D01*
X6598590D01*
X6611460Y-1978850D01*
X6621120Y-1968270D01*
X6625940Y-1953450D01*
X6622730Y-1938640D01*
X6614680Y-1925930D01*
X6600200Y-1917470D01*
X6580900Y-1913230D01*
X6569640Y-1904770D01*
X6564810Y-1889950D01*
X6568030Y-1875130D01*
X6576070Y-1864550D01*
X6587330Y-1858200D01*
X6598590D01*
X6609860Y-1862430D01*
X6619510Y-1873020D01*
G01X6702400Y-1858200D02*
X6741000D01*
G01X6721700D02*
Y-1985200D01*
G01X6702400D02*
X6741000D01*
G01X6851240D02*
X6838370Y-1983080D01*
X6827110Y-1974620D01*
X6817460Y-1961920D01*
X6811020Y-1947100D01*
X6807800Y-1930170D01*
Y-1913230D01*
X6811020Y-1896300D01*
X6817460Y-1881480D01*
X6827110Y-1868780D01*
X6838370Y-1860320D01*
X6851240Y-1858200D01*
X6864110Y-1860320D01*
X6875370Y-1868780D01*
X6885020Y-1881480D01*
X6891460Y-1896300D01*
X6894680Y-1913230D01*
Y-1930170D01*
X6891460Y-1947100D01*
X6885020Y-1961920D01*
X6875370Y-1974620D01*
X6864110Y-1983080D01*
X6851240Y-1985200D01*
G01X6943780D02*
Y-1858200D01*
X7017780Y-1985200D01*
Y-1858200D01*
G01X7076540Y-1968270D02*
X7089410Y-1978850D01*
X7103890Y-1985200D01*
X7116750D01*
X7129620Y-1978850D01*
X7139280Y-1968270D01*
X7144100Y-1953450D01*
X7140890Y-1938640D01*
X7132840Y-1925930D01*
X7118360Y-1917470D01*
X7099060Y-1913230D01*
X7087800Y-1904770D01*
X7082970Y-1889950D01*
X7086190Y-1875130D01*
X7094230Y-1864550D01*
X7105490Y-1858200D01*
X7116750D01*
X7128020Y-1862430D01*
X7137670Y-1873020D01*
G01X7329180Y-1985200D02*
X7369400Y-1858200D01*
X7409620Y-1985200D01*
G01X7395140Y-1940750D02*
X7343660D01*
G01X7466770Y-1985200D02*
Y-1858200D01*
X7506980D01*
X7519850Y-1864550D01*
X7527900Y-1873020D01*
X7531110Y-1889950D01*
X7527900Y-1906880D01*
X7518240Y-1917470D01*
X7506980Y-1923820D01*
X7466770D01*
G01X7506980D02*
X7531110Y-1985200D01*
G01X7660650D02*
X7596310D01*
Y-1858200D01*
X7660650D01*
G01X7634910Y-1919580D02*
X7596310D01*
G01X7868260Y-1858200D02*
X7906860D01*
G01X7887560D02*
Y-1985200D01*
G01X7868260D02*
X7906860D01*
G01X7980100D02*
Y-1858200D01*
X8054100Y-1985200D01*
Y-1858200D01*
G01X8256880D02*
X8295480D01*
G01X8276180D02*
Y-1985200D01*
G01X8256880D02*
X8295480D01*
G01X8368720D02*
Y-1858200D01*
X8442720Y-1985200D01*
Y-1858200D01*
G01X8570650Y-1868780D02*
X8561000Y-1862430D01*
X8549740Y-1858200D01*
X8536870D01*
X8522390Y-1864550D01*
X8511130Y-1875130D01*
X8503090Y-1887830D01*
X8496650Y-1909000D01*
X8495040Y-1928050D01*
X8498260Y-1947100D01*
X8503090Y-1959800D01*
X8512740Y-1972500D01*
X8524000Y-1980970D01*
X8535260Y-1985200D01*
X8546520D01*
X8557780Y-1980970D01*
X8567430Y-1974620D01*
X8575480Y-1966150D01*
G01X8631020Y-1985200D02*
Y-1858200D01*
G01X8698580D02*
Y-1985200D01*
G01Y-1921700D02*
X8631020D01*
G01X8826510Y-1985200D02*
X8762170D01*
Y-1858200D01*
X8826510D01*
G01X8800770Y-1919580D02*
X8762170D01*
G01X8890100Y-1968270D02*
X8902970Y-1978850D01*
X8917450Y-1985200D01*
X8930310D01*
X8943180Y-1978850D01*
X8952840Y-1968270D01*
X8957660Y-1953450D01*
X8954450Y-1938640D01*
X8946400Y-1925930D01*
X8931920Y-1917470D01*
X8912620Y-1913230D01*
X8901360Y-1904770D01*
X8896530Y-1889950D01*
X8899750Y-1875130D01*
X8907790Y-1864550D01*
X8919050Y-1858200D01*
X8930310D01*
X8941580Y-1862430D01*
X8951230Y-1873020D01*
G01X5705700Y-1604200D02*
X14849700D01*
G01X5909070Y-1159700D02*
Y-1250720D01*
X5915500Y-1269770D01*
X5928370Y-1282470D01*
X5944460Y-1286700D01*
X5960550Y-1282470D01*
X5973420Y-1269770D01*
X5979850Y-1250720D01*
Y-1159700D01*
G01X6037000Y-1286700D02*
Y-1159700D01*
X6111000Y-1286700D01*
Y-1159700D01*
G01X6171370D02*
Y-1286700D01*
X6235710D01*
G01X6365250D02*
X6300910D01*
Y-1159700D01*
X6365250D01*
G01X6339510Y-1221080D02*
X6300910D01*
G01X6428840Y-1269770D02*
X6441710Y-1280350D01*
X6456190Y-1286700D01*
X6469050D01*
X6481920Y-1280350D01*
X6491580Y-1269770D01*
X6496400Y-1254950D01*
X6493190Y-1240140D01*
X6485140Y-1227430D01*
X6470660Y-1218970D01*
X6451360Y-1214730D01*
X6440100Y-1206270D01*
X6435270Y-1191450D01*
X6438490Y-1176630D01*
X6446530Y-1166050D01*
X6457790Y-1159700D01*
X6469050D01*
X6480320Y-1163930D01*
X6489970Y-1174520D01*
G01X6558380Y-1269770D02*
X6571250Y-1280350D01*
X6585730Y-1286700D01*
X6598590D01*
X6611460Y-1280350D01*
X6621120Y-1269770D01*
X6625940Y-1254950D01*
X6622730Y-1240140D01*
X6614680Y-1227430D01*
X6600200Y-1218970D01*
X6580900Y-1214730D01*
X6569640Y-1206270D01*
X6564810Y-1191450D01*
X6568030Y-1176630D01*
X6576070Y-1166050D01*
X6587330Y-1159700D01*
X6598590D01*
X6609860Y-1163930D01*
X6619510Y-1174520D01*
G01X6851240Y-1286700D02*
X6838370Y-1284580D01*
X6827110Y-1276120D01*
X6817460Y-1263420D01*
X6811020Y-1248600D01*
X6807800Y-1231670D01*
Y-1214730D01*
X6811020Y-1197800D01*
X6817460Y-1182980D01*
X6827110Y-1170280D01*
X6838370Y-1161820D01*
X6851240Y-1159700D01*
X6864110Y-1161820D01*
X6875370Y-1170280D01*
X6885020Y-1182980D01*
X6891460Y-1197800D01*
X6894680Y-1214730D01*
Y-1231670D01*
X6891460Y-1248600D01*
X6885020Y-1263420D01*
X6875370Y-1276120D01*
X6864110Y-1284580D01*
X6851240Y-1286700D01*
G01X6980780Y-1159700D02*
Y-1286700D01*
G01X6943780Y-1159700D02*
X7017780D01*
G01X7076540Y-1286700D02*
Y-1159700D01*
G01X7144100D02*
Y-1286700D01*
G01Y-1223200D02*
X7076540D01*
G01X7272030Y-1286700D02*
X7207690D01*
Y-1159700D01*
X7272030D01*
G01X7246290Y-1221080D02*
X7207690D01*
G01X7337230Y-1286700D02*
Y-1159700D01*
X7377440D01*
X7390310Y-1166050D01*
X7398360Y-1174520D01*
X7401570Y-1191450D01*
X7398360Y-1208380D01*
X7388700Y-1218970D01*
X7377440Y-1225320D01*
X7337230D01*
G01X7377440D02*
X7401570Y-1286700D01*
G01X7450680Y-1159700D02*
X7473200Y-1286700D01*
X7498940Y-1159700D01*
X7524680Y-1286700D01*
X7547200Y-1159700D01*
G01X7609180D02*
X7647780D01*
G01X7628480D02*
Y-1286700D01*
G01X7609180D02*
X7647780D01*
G01X7724240Y-1269770D02*
X7737110Y-1280350D01*
X7751590Y-1286700D01*
X7764450D01*
X7777320Y-1280350D01*
X7786980Y-1269770D01*
X7791800Y-1254950D01*
X7788590Y-1240140D01*
X7780540Y-1227430D01*
X7766060Y-1218970D01*
X7746760Y-1214730D01*
X7735500Y-1206270D01*
X7730670Y-1191450D01*
X7733890Y-1176630D01*
X7741930Y-1166050D01*
X7753190Y-1159700D01*
X7764450D01*
X7775720Y-1163930D01*
X7785370Y-1174520D01*
G01X7919730Y-1286700D02*
X7855390D01*
Y-1159700D01*
X7919730D01*
G01X7893990Y-1221080D02*
X7855390D01*
G01X8112860Y-1269770D02*
X8125730Y-1280350D01*
X8140210Y-1286700D01*
X8153070D01*
X8165940Y-1280350D01*
X8175600Y-1269770D01*
X8180420Y-1254950D01*
X8177210Y-1240140D01*
X8169160Y-1227430D01*
X8154680Y-1218970D01*
X8135380Y-1214730D01*
X8124120Y-1206270D01*
X8119290Y-1191450D01*
X8122510Y-1176630D01*
X8130550Y-1166050D01*
X8141810Y-1159700D01*
X8153070D01*
X8164340Y-1163930D01*
X8173990Y-1174520D01*
G01X8244010Y-1286700D02*
Y-1159700D01*
X8282610D01*
X8295480Y-1166050D01*
X8305140Y-1180870D01*
X8308350Y-1197800D01*
X8305140Y-1214730D01*
X8297090Y-1227430D01*
X8282610Y-1233790D01*
X8244010D01*
G01X8437890Y-1286700D02*
X8373550D01*
Y-1159700D01*
X8437890D01*
G01X8412150Y-1221080D02*
X8373550D01*
G01X8570650Y-1170280D02*
X8561000Y-1163930D01*
X8549740Y-1159700D01*
X8536870D01*
X8522390Y-1166050D01*
X8511130Y-1176630D01*
X8503090Y-1189330D01*
X8496650Y-1210500D01*
X8495040Y-1229550D01*
X8498260Y-1248600D01*
X8503090Y-1261300D01*
X8512740Y-1274000D01*
X8524000Y-1282470D01*
X8535260Y-1286700D01*
X8546520D01*
X8557780Y-1282470D01*
X8567430Y-1276120D01*
X8575480Y-1267650D01*
G01X8645500Y-1159700D02*
X8684100D01*
G01X8664800D02*
Y-1286700D01*
G01X8645500D02*
X8684100D01*
G01X8763770D02*
Y-1159700D01*
X8824910D01*
G01X8802380Y-1221080D02*
X8763770D01*
G01X8904580Y-1159700D02*
X8943180D01*
G01X8923880D02*
Y-1286700D01*
G01X8904580D02*
X8943180D01*
G01X9085590D02*
X9021250D01*
Y-1159700D01*
X9085590D01*
G01X9059850Y-1221080D02*
X9021250D01*
G01X9147570Y-1286700D02*
Y-1159700D01*
X9179740D01*
X9192610Y-1166050D01*
X9202260Y-1174520D01*
X9210310Y-1187210D01*
X9216740Y-1202040D01*
X9218350Y-1223200D01*
X9216740Y-1244370D01*
X9210310Y-1259190D01*
X9202260Y-1271890D01*
X9192610Y-1280350D01*
X9179740Y-1286700D01*
X9147570D01*
G01X5271190Y6200000D02*
X10000000D01*
G01X9515700Y-842200D02*
Y-5414200D01*
G01Y-4525200D02*
X14849700D01*
G01X9515700Y-3890200D02*
X14849700D01*
G01X9515700Y-3128200D02*
X14849700D01*
G01X9515700Y-2366200D02*
X14849700D01*
G01X9600000Y6137500D02*
X10000000Y6200000D01*
X9600000Y6262500D01*
Y6137500D01*
G01X10250000Y0D02*
X11250000D01*
G01X10000000Y5250000D02*
Y6450000D01*
G01X10250000Y5000000D02*
X11250000D01*
G01X10613110Y-1265370D02*
X10629020Y-1278700D01*
X10646930Y-1286700D01*
X10662850D01*
X10678770Y-1278700D01*
X10690710Y-1265370D01*
X10696670Y-1246690D01*
X10692690Y-1228030D01*
X10682740Y-1212030D01*
X10664840Y-1201350D01*
X10640960Y-1196020D01*
X10627040Y-1185360D01*
X10621060Y-1166690D01*
X10625050Y-1148020D01*
X10634990Y-1134680D01*
X10648920Y-1126680D01*
X10662850D01*
X10676780Y-1132010D01*
X10688720Y-1145350D01*
G01X10791030Y-1126680D02*
X10838780D01*
G01X10814910D02*
Y-1286700D01*
G01X10791030D02*
X10838780D01*
G01X10986870Y-1206690D02*
X11026660D01*
Y-1254700D01*
X11014720Y-1270700D01*
X11000800Y-1281370D01*
X10980900Y-1286700D01*
X10961000Y-1281370D01*
X10947080Y-1270700D01*
X10935140Y-1254700D01*
X10927180Y-1236030D01*
X10923200Y-1214690D01*
Y-1196020D01*
X10927180Y-1180020D01*
X10935140Y-1161350D01*
X10947080Y-1145350D01*
X10959010Y-1134680D01*
X10974930Y-1126680D01*
X10988860D01*
X11004770Y-1132010D01*
X11016710Y-1142680D01*
G01X11089190Y-1286700D02*
Y-1126680D01*
X11180710Y-1286700D01*
Y-1126680D01*
G01X11245230Y-1286700D02*
X11294970Y-1126680D01*
X11344710Y-1286700D01*
G01X11326800Y-1230700D02*
X11263130D01*
G01X11454990Y-1126680D02*
Y-1286700D01*
G01X11409230Y-1126680D02*
X11500750D01*
G01X11571240D02*
Y-1241360D01*
X11579190Y-1265370D01*
X11595110Y-1281370D01*
X11615010Y-1286700D01*
X11634910Y-1281370D01*
X11650830Y-1265370D01*
X11658780Y-1241360D01*
Y-1126680D01*
G01X11735240Y-1286700D02*
Y-1126680D01*
X11784980D01*
X11800900Y-1134680D01*
X11810850Y-1145350D01*
X11814820Y-1166690D01*
X11810850Y-1188020D01*
X11798910Y-1201350D01*
X11784980Y-1209360D01*
X11735240D01*
G01X11784980D02*
X11814820Y-1286700D01*
G01X11974840D02*
X11895260D01*
Y-1126680D01*
X11974840D01*
G01X11943010Y-1204020D02*
X11895260D01*
G01X12053290Y-1265370D02*
X12069200Y-1278700D01*
X12087110Y-1286700D01*
X12103030D01*
X12118950Y-1278700D01*
X12130890Y-1265370D01*
X12136850Y-1246690D01*
X12132870Y-1228030D01*
X12122920Y-1212030D01*
X12105020Y-1201350D01*
X12081140Y-1196020D01*
X12067220Y-1185360D01*
X12061240Y-1166690D01*
X12065230Y-1148020D01*
X12075170Y-1134680D01*
X12089100Y-1126680D01*
X12103030D01*
X12116960Y-1132010D01*
X12128900Y-1145350D01*
G01X11000000Y2103130D02*
Y0D01*
G01X10937500Y400000D02*
X11000000Y0D01*
X11062500Y400000D01*
X10937500D01*
G01X10755910Y2388860D02*
X10779520Y2362410D01*
X10807080Y2346540D01*
X10842520Y2341250D01*
X10877960Y2351830D01*
X10905510Y2372990D01*
X10925200Y2410040D01*
X10929130Y2452370D01*
X10921260Y2494700D01*
X10901570Y2521170D01*
X10874010Y2542330D01*
X10846460Y2547620D01*
X10818900Y2542330D01*
X10783470Y2521170D01*
X10795280Y2658750D01*
X10901570D01*
G01X11157480D02*
X11125980Y2648170D01*
X11102360Y2621710D01*
X11086610Y2589960D01*
X11074800Y2547620D01*
X11070870Y2500000D01*
X11074800Y2452370D01*
X11086610Y2410040D01*
X11102360Y2378280D01*
X11125980Y2351830D01*
X11157480Y2341250D01*
X11188970Y2351830D01*
X11212600Y2378280D01*
X11228350Y2410040D01*
X11240160Y2452370D01*
X11244090Y2500000D01*
X11240160Y2547620D01*
X11228350Y2589960D01*
X11212600Y2621710D01*
X11188970Y2648170D01*
X11157480Y2658750D01*
G01X11000000Y2896870D02*
Y5000000D01*
G01X11062500Y4600000D02*
X11000000Y5000000D01*
X10937500Y4600000D01*
X11062500D01*
G01X11900000Y-195000D02*
Y4900000D01*
X24498400D01*
Y-195000D01*
X11900000D01*
G01Y440000D02*
X24498400D01*
G01X11900000Y1075000D02*
X24498400D01*
G01X11900000Y1710000D02*
X24498400D01*
G01X11900000Y2980000D02*
X24498400D01*
G01X11900000Y2345000D02*
X24498400D01*
G01X11900000Y3615000D02*
X24498400D01*
G01X11900000Y4250000D02*
X24498400D01*
G01X12817700Y-3826700D02*
Y-3890200D01*
G01Y-3826700D02*
Y-842200D01*
G01X12179520Y3138750D02*
Y3456250D01*
X12329140D01*
G01X12274010Y3302800D02*
X12179520D01*
G01X12522050Y3456250D02*
X12616530D01*
G01X12569290D02*
Y3138750D01*
G01X12522050D02*
X12616530D01*
G01X12907870Y3297500D02*
X12986620D01*
Y3202250D01*
X12962990Y3170490D01*
X12935430Y3149330D01*
X12896060Y3138750D01*
X12856690Y3149330D01*
X12829130Y3170490D01*
X12805510Y3202250D01*
X12789760Y3239290D01*
X12781880Y3281620D01*
Y3318670D01*
X12789760Y3350410D01*
X12805510Y3387460D01*
X12829130Y3419210D01*
X12852750Y3440370D01*
X12884250Y3456250D01*
X12911810D01*
X12943300Y3445670D01*
X12966930Y3424500D01*
G01X13112600Y3456250D02*
Y3228710D01*
X13128340Y3181070D01*
X13159840Y3149330D01*
X13199210Y3138750D01*
X13238580Y3149330D01*
X13270080Y3181070D01*
X13285820Y3228710D01*
Y3456250D01*
G01X13435430Y3138750D02*
Y3456250D01*
X13533850D01*
X13565350Y3440370D01*
X13585040Y3419210D01*
X13592910Y3376870D01*
X13585040Y3334540D01*
X13561410Y3308090D01*
X13533850Y3292200D01*
X13435430D01*
G01X13533850D02*
X13592910Y3138750D01*
G01X13907870D02*
X13750390D01*
Y3456250D01*
X13907870D01*
G01X13844880Y3302800D02*
X13750390D01*
G01X12817700Y12556300D02*
Y11794300D01*
G01Y14842300D02*
Y12556300D01*
G01Y13318300D02*
X25517700D01*
G01X12817700Y14080300D02*
X25517700D01*
G01X13468620Y-1286700D02*
Y-1126680D01*
X13508410D01*
X13524330Y-1134680D01*
X13536270Y-1145350D01*
X13546220Y-1161350D01*
X13554170Y-1180020D01*
X13556160Y-1206690D01*
X13554170Y-1233360D01*
X13546220Y-1252030D01*
X13536270Y-1268030D01*
X13524330Y-1278700D01*
X13508410Y-1286700D01*
X13468620D01*
G01X13622670D02*
X13672410Y-1126680D01*
X13722150Y-1286700D01*
G01X13704240Y-1230700D02*
X13640570D01*
G01X13832430Y-1126680D02*
Y-1286700D01*
G01X13786670Y-1126680D02*
X13878190D01*
G01X14032240Y-1286700D02*
X13952660D01*
Y-1126680D01*
X14032240D01*
G01X14000410Y-1204020D02*
X13952660D01*
G01X12976450Y13572300D02*
Y13826300D01*
X13055820D01*
X13081220Y13813590D01*
X13097100Y13796670D01*
X13103450Y13762800D01*
X13097100Y13728930D01*
X13078050Y13707770D01*
X13055820Y13695060D01*
X12976450D01*
G01X13055820D02*
X13103450Y13572300D01*
G01X13357450D02*
X13230450D01*
Y13826300D01*
X13357450D01*
G01X13306650Y13703540D02*
X13230450D01*
G01X13468570Y13826300D02*
X13547950Y13572300D01*
X13627330Y13826300D01*
G01X14183460Y3615000D02*
Y-195000D01*
G01X13848810Y3773750D02*
X13947240Y4091250D01*
X14045670Y3773750D01*
G01X14010230Y3884870D02*
X13884240D01*
G01X14183460Y4091250D02*
Y3773750D01*
X14340940D01*
G01X14498420Y4091250D02*
Y3773750D01*
X14655900D01*
G01X15120470Y4091250D02*
Y3863710D01*
X15136210Y3816070D01*
X15167710Y3784330D01*
X15207080Y3773750D01*
X15246450Y3784330D01*
X15277950Y3816070D01*
X15293690Y3863710D01*
Y4091250D01*
G01X15431490Y3773750D02*
Y4091250D01*
X15612590Y3773750D01*
Y4091250D01*
G01X15789760D02*
X15884240D01*
G01X15837000D02*
Y3773750D01*
G01X15789760D02*
X15884240D01*
G01X16151960Y4091250D02*
Y3773750D01*
G01X16061410Y4091250D02*
X16242510D01*
G01X16384240Y3816070D02*
X16415740Y3789620D01*
X16451170Y3773750D01*
X16482670D01*
X16514160Y3789620D01*
X16537790Y3816070D01*
X16549600Y3853130D01*
X16541730Y3890160D01*
X16522040Y3921910D01*
X16486600Y3943090D01*
X16439360Y3953670D01*
X16411800Y3974830D01*
X16399990Y4011870D01*
X16407870Y4048920D01*
X16427550Y4075370D01*
X16455110Y4091250D01*
X16482670D01*
X16510230Y4080670D01*
X16533850Y4054210D01*
G01X16998410Y3773750D02*
X17096840Y4091250D01*
X17195270Y3773750D01*
G01X17159830Y3884870D02*
X17033840D01*
G01X17333060Y3773750D02*
Y4091250D01*
X17431480D01*
X17462980Y4075370D01*
X17482670Y4054210D01*
X17490540Y4011870D01*
X17482670Y3969540D01*
X17459040Y3943090D01*
X17431480Y3927200D01*
X17333060D01*
G01X17431480D02*
X17490540Y3773750D01*
G01X17805500D02*
X17648020D01*
Y4091250D01*
X17805500D01*
G01X17742510Y3937800D02*
X17648020D01*
G01X18309440Y4091250D02*
X18403920D01*
G01X18356680D02*
Y3773750D01*
G01X18309440D02*
X18403920D01*
G01X18581090D02*
Y4091250D01*
X18762190Y3773750D01*
Y4091250D01*
G01X19199190Y3773750D02*
Y4091250D01*
X19301560Y3826670D01*
X19403930Y4091250D01*
Y3773750D01*
G01X19569280Y4091250D02*
X19663760D01*
G01X19616520D02*
Y3773750D01*
G01X19569280D02*
X19663760D01*
G01X19852740Y4091250D02*
Y3773750D01*
X20010220D01*
G01X20167700Y4091250D02*
Y3773750D01*
X20325180D01*
G01X20514160Y4091250D02*
X20608640D01*
G01X20561400D02*
Y3773750D01*
G01X20514160D02*
X20608640D01*
G01X20773990D02*
Y4091250D01*
X20876360Y3826670D01*
X20978730Y4091250D01*
Y3773750D01*
G01X21270060D02*
X21112580D01*
Y4091250D01*
X21270060D01*
G01X21207070Y3937800D02*
X21112580D01*
G01X21506280Y4091250D02*
Y3773750D01*
G01X21415730Y4091250D02*
X21596830D01*
G01X21899980Y3773750D02*
X21742500D01*
Y4091250D01*
X21899980D01*
G01X21836990Y3937800D02*
X21742500D01*
G01X22057460Y3773750D02*
Y4091250D01*
X22155880D01*
X22187380Y4075370D01*
X22207070Y4054210D01*
X22214940Y4011870D01*
X22207070Y3969540D01*
X22183440Y3943090D01*
X22155880Y3927200D01*
X22057460D01*
G01X22155880D02*
X22214940Y3773750D01*
G01X22368480Y3816070D02*
X22399980Y3789620D01*
X22435410Y3773750D01*
X22466910D01*
X22498400Y3789620D01*
X22522030Y3816070D01*
X22533840Y3853130D01*
X22525970Y3890160D01*
X22506280Y3921910D01*
X22470840Y3943090D01*
X22423600Y3953670D01*
X22396040Y3974830D01*
X22384230Y4011870D01*
X22392110Y4048920D01*
X22411790Y4075370D01*
X22439350Y4091250D01*
X22466910D01*
X22494470Y4080670D01*
X22518090Y4054210D01*
G01X14175590Y4423750D02*
Y4741250D01*
X14254320D01*
X14285820Y4725370D01*
X14309440Y4704210D01*
X14329130Y4672460D01*
X14344880Y4635410D01*
X14348810Y4582500D01*
X14344880Y4529580D01*
X14329130Y4492540D01*
X14309440Y4460780D01*
X14285820Y4439620D01*
X14254320Y4423750D01*
X14175590D01*
G01X14498420D02*
Y4741250D01*
X14596840D01*
X14628340Y4725370D01*
X14648030Y4704210D01*
X14655900Y4661870D01*
X14648030Y4619540D01*
X14624400Y4593090D01*
X14596840Y4577200D01*
X14498420D01*
G01X14596840D02*
X14655900Y4423750D01*
G01X14844880Y4741250D02*
X14939360D01*
G01X14892120D02*
Y4423750D01*
G01X14844880D02*
X14939360D01*
G01X15128340Y4741250D02*
Y4423750D01*
X15285820D01*
G01X15443300Y4741250D02*
Y4423750D01*
X15600780D01*
G01X16238570Y4714790D02*
X16214950Y4730670D01*
X16187400Y4741250D01*
X16155900D01*
X16120460Y4725370D01*
X16092910Y4698920D01*
X16073220Y4667160D01*
X16057470Y4614250D01*
X16053530Y4566620D01*
X16061410Y4519000D01*
X16073220Y4487250D01*
X16096840Y4455490D01*
X16124400Y4434330D01*
X16151960Y4423750D01*
X16179520D01*
X16207080Y4434330D01*
X16230700Y4450200D01*
X16250390Y4471360D01*
G01X16384240Y4423750D02*
Y4741250D01*
G01X16549600D02*
Y4423750D01*
G01Y4582500D02*
X16384240D01*
G01X16683450Y4423750D02*
X16781880Y4741250D01*
X16880310Y4423750D01*
G01X16844870Y4534870D02*
X16718880D01*
G01X17018100Y4423750D02*
Y4741250D01*
X17116520D01*
X17148020Y4725370D01*
X17167710Y4704210D01*
X17175580Y4661870D01*
X17167710Y4619540D01*
X17144080Y4593090D01*
X17116520Y4577200D01*
X17018100D01*
G01X17116520D02*
X17175580Y4423750D01*
G01X17411800Y4741250D02*
Y4423750D01*
G01X17321250Y4741250D02*
X17502350D01*
G01X17726760Y4413170D02*
X17718880Y4418460D01*
Y4429040D01*
X17726760Y4434330D01*
X17734640Y4429040D01*
Y4418460D01*
X17726760Y4413170D01*
G01Y4556030D02*
X17718880Y4561330D01*
Y4571910D01*
X17726760Y4577200D01*
X17734640Y4571910D01*
Y4561330D01*
X17726760Y4556030D01*
G01X18356680Y4741250D02*
Y4423750D01*
G01X18266130Y4741250D02*
X18447230D01*
G01X18671640Y4423750D02*
X18640140Y4429040D01*
X18612590Y4450200D01*
X18588960Y4481960D01*
X18573210Y4519000D01*
X18565340Y4561330D01*
Y4603670D01*
X18573210Y4646000D01*
X18588960Y4683040D01*
X18612590Y4714790D01*
X18640140Y4735960D01*
X18671640Y4741250D01*
X18703130Y4735960D01*
X18730690Y4714790D01*
X18754320Y4683040D01*
X18770070Y4646000D01*
X18777940Y4603670D01*
Y4561330D01*
X18770070Y4519000D01*
X18754320Y4481960D01*
X18730690Y4450200D01*
X18703130Y4429040D01*
X18671640Y4423750D01*
G01X18907860D02*
Y4741250D01*
X19002350D01*
X19033840Y4725370D01*
X19057470Y4688330D01*
X19065340Y4646000D01*
X19057470Y4603670D01*
X19037780Y4571910D01*
X19002350Y4556030D01*
X18907860D01*
G01X19616520Y4741250D02*
Y4423750D01*
G01X19561400Y4635410D02*
X19671640D01*
G01X19931480Y4423750D02*
X19907860Y4429040D01*
X19884240Y4450200D01*
X19868480Y4487250D01*
X19860610Y4529580D01*
X19868480Y4571910D01*
X19884240Y4608960D01*
X19907860Y4630120D01*
X19931480Y4635410D01*
X19955100Y4630120D01*
X19978720Y4608960D01*
X19994470Y4571910D01*
X19998410Y4529580D01*
X19994470Y4487250D01*
X19978720Y4450200D01*
X19955100Y4429040D01*
X19931480Y4423750D01*
G01X20592890Y4593090D02*
X20608640Y4608960D01*
X20620450Y4635410D01*
X20628330Y4672460D01*
X20620450Y4704210D01*
X20604710Y4725370D01*
X20577150Y4741250D01*
X20470850D01*
Y4423750D01*
X20600770D01*
X20628330Y4444910D01*
X20644080Y4476670D01*
X20651950Y4513710D01*
X20644080Y4550740D01*
X20620450Y4582500D01*
X20592890Y4593090D01*
X20470850D01*
G01X20876360Y4423750D02*
X20844860Y4429040D01*
X20817310Y4450200D01*
X20793680Y4481960D01*
X20777930Y4519000D01*
X20770060Y4561330D01*
Y4603670D01*
X20777930Y4646000D01*
X20793680Y4683040D01*
X20817310Y4714790D01*
X20844860Y4735960D01*
X20876360Y4741250D01*
X20907850Y4735960D01*
X20935410Y4714790D01*
X20959040Y4683040D01*
X20974790Y4646000D01*
X20982660Y4603670D01*
Y4561330D01*
X20974790Y4519000D01*
X20959040Y4481960D01*
X20935410Y4450200D01*
X20907850Y4429040D01*
X20876360Y4423750D01*
G01X21191320Y4741250D02*
Y4423750D01*
G01X21100770Y4741250D02*
X21281870D01*
G01X21506280D02*
Y4423750D01*
G01X21415730Y4741250D02*
X21596830D01*
G01X21821240Y4423750D02*
X21789740Y4429040D01*
X21762190Y4450200D01*
X21738560Y4481960D01*
X21722810Y4519000D01*
X21714940Y4561330D01*
Y4603670D01*
X21722810Y4646000D01*
X21738560Y4683040D01*
X21762190Y4714790D01*
X21789740Y4735960D01*
X21821240Y4741250D01*
X21852730Y4735960D01*
X21880290Y4714790D01*
X21903920Y4683040D01*
X21919670Y4646000D01*
X21927540Y4603670D01*
Y4561330D01*
X21919670Y4519000D01*
X21903920Y4481960D01*
X21880290Y4450200D01*
X21852730Y4429040D01*
X21821240Y4423750D01*
G01X22033830D02*
Y4741250D01*
X22136200Y4476670D01*
X22238570Y4741250D01*
Y4423750D01*
G01X13833700Y12556300D02*
Y11794300D01*
G01Y12556300D02*
Y14080300D01*
G01X14849700Y-842200D02*
Y-5414200D01*
G01X15005270Y-4999340D02*
X15030680Y-5020500D01*
X15059250Y-5033200D01*
X15084650D01*
X15110050Y-5020500D01*
X15129100Y-4999340D01*
X15138630Y-4969700D01*
X15132280Y-4940070D01*
X15116400Y-4914670D01*
X15087820Y-4897730D01*
X15049730Y-4889270D01*
X15027500Y-4872340D01*
X15017970Y-4842700D01*
X15024330Y-4813070D01*
X15040200Y-4791910D01*
X15062420Y-4779200D01*
X15084650D01*
X15106880Y-4787660D01*
X15125930Y-4808830D01*
G01X15395800Y-4800370D02*
X15376750Y-4787660D01*
X15354530Y-4779200D01*
X15329130D01*
X15300550Y-4791910D01*
X15278330Y-4813070D01*
X15262450Y-4838470D01*
X15249750Y-4880800D01*
X15246570Y-4918900D01*
X15252930Y-4957000D01*
X15262450Y-4982400D01*
X15281500Y-5007810D01*
X15303730Y-5024740D01*
X15325950Y-5033200D01*
X15348170D01*
X15370400Y-5024740D01*
X15389450Y-5012040D01*
X15405330Y-4995110D01*
G01X15500570Y-5033200D02*
X15579950Y-4779200D01*
X15659330Y-5033200D01*
G01X15630750Y-4944300D02*
X15529150D01*
G01X15770450Y-4779200D02*
Y-5033200D01*
X15897450D01*
G01X16151450D02*
X16024450D01*
Y-4779200D01*
X16151450D01*
G01X16100650Y-4901960D02*
X16024450D01*
G01X21199700Y-4652200D02*
X14849700D01*
G01X15005270Y-3983340D02*
X15030680Y-4004500D01*
X15059250Y-4017200D01*
X15084650D01*
X15110050Y-4004500D01*
X15129100Y-3983340D01*
X15138630Y-3953700D01*
X15132280Y-3924070D01*
X15116400Y-3898670D01*
X15087820Y-3881730D01*
X15049730Y-3873270D01*
X15027500Y-3856340D01*
X15017970Y-3826700D01*
X15024330Y-3797070D01*
X15040200Y-3775910D01*
X15062420Y-3763200D01*
X15084650D01*
X15106880Y-3771660D01*
X15125930Y-3792830D01*
G01X15287850Y-3763200D02*
X15364040D01*
G01X15325950D02*
Y-4017200D01*
G01X15287850D02*
X15364040D01*
G01X15519620Y-3763200D02*
X15640280D01*
X15519620Y-4017200D01*
X15640280D01*
G01X15897450D02*
X15770450D01*
Y-3763200D01*
X15897450D01*
G01X15846650Y-3885960D02*
X15770450D01*
G01X25517700Y-3636200D02*
X14849700D01*
G01X25517700Y-2112200D02*
X14849700D01*
G01X14777940Y3138750D02*
Y3456250D01*
X14927560D01*
G01X14872430Y3302800D02*
X14777940D01*
G01X15120470Y3456250D02*
X15214950D01*
G01X15167710D02*
Y3138750D01*
G01X15120470D02*
X15214950D01*
G01X15392120D02*
Y3456250D01*
X15573220Y3138750D01*
Y3456250D01*
G01X15750390D02*
X15844870D01*
G01X15797630D02*
Y3138750D01*
G01X15750390D02*
X15844870D01*
G01X16029910Y3181070D02*
X16061410Y3154620D01*
X16096840Y3138750D01*
X16128340D01*
X16159830Y3154620D01*
X16183460Y3181070D01*
X16195270Y3218130D01*
X16187400Y3255160D01*
X16167710Y3286910D01*
X16132270Y3308090D01*
X16085030Y3318670D01*
X16057470Y3339830D01*
X16045660Y3376870D01*
X16053540Y3413920D01*
X16073220Y3440370D01*
X16100780Y3456250D01*
X16128340D01*
X16155900Y3445670D01*
X16179520Y3419210D01*
G01X16344870Y3138750D02*
Y3456250D01*
G01X16510230D02*
Y3138750D01*
G01Y3297500D02*
X16344870D01*
G01X16821250Y3138750D02*
X16663770D01*
Y3456250D01*
X16821250D01*
G01X16758260Y3302800D02*
X16663770D01*
G01X16970860Y3138750D02*
Y3456250D01*
X17049590D01*
X17081090Y3440370D01*
X17104710Y3419210D01*
X17124400Y3387460D01*
X17140150Y3350410D01*
X17144080Y3297500D01*
X17140150Y3244580D01*
X17124400Y3207540D01*
X17104710Y3175780D01*
X17081090Y3154620D01*
X17049590Y3138750D01*
X16970860D01*
G01X17254320Y3032920D02*
X17490540D01*
G01X17604710Y3181070D02*
X17636210Y3154620D01*
X17671640Y3138750D01*
X17703140D01*
X17734630Y3154620D01*
X17758260Y3181070D01*
X17770070Y3218130D01*
X17762200Y3255160D01*
X17742510Y3286910D01*
X17707070Y3308090D01*
X17659830Y3318670D01*
X17632270Y3339830D01*
X17620460Y3376870D01*
X17628340Y3413920D01*
X17648020Y3440370D01*
X17675580Y3456250D01*
X17703140D01*
X17730700Y3445670D01*
X17754320Y3419210D01*
G01X17955110Y3456250D02*
X18049590D01*
G01X18002350D02*
Y3138750D01*
G01X17955110D02*
X18049590D01*
G01X18242500Y3456250D02*
X18392120D01*
X18242500Y3138750D01*
X18392120D01*
G01X18711010D02*
X18553530D01*
Y3456250D01*
X18711010D01*
G01X18648020Y3302800D02*
X18553530D01*
G01X15955110Y2821250D02*
X15923610Y2810670D01*
X15899990Y2784210D01*
X15884240Y2752460D01*
X15872430Y2710120D01*
X15868500Y2662500D01*
X15872430Y2614870D01*
X15884240Y2572540D01*
X15899990Y2540780D01*
X15923610Y2514330D01*
X15955110Y2503750D01*
X15986600Y2514330D01*
X16010230Y2540780D01*
X16025980Y2572540D01*
X16037790Y2614870D01*
X16041720Y2662500D01*
X16037790Y2710120D01*
X16025980Y2752460D01*
X16010230Y2784210D01*
X15986600Y2810670D01*
X15955110Y2821250D01*
G01X16270070Y2493170D02*
X16262190Y2498460D01*
Y2509040D01*
X16270070Y2514330D01*
X16277950Y2509040D01*
Y2498460D01*
X16270070Y2493170D01*
G01X16498420Y2567250D02*
X16522030Y2530200D01*
X16553530Y2509040D01*
X16588970Y2503750D01*
X16620470Y2509040D01*
X16651960Y2535490D01*
X16671640Y2567250D01*
X16675580Y2599000D01*
X16667710Y2636030D01*
X16640150Y2662500D01*
X16612590Y2673090D01*
X16577150D01*
G01X16612590D02*
X16636210Y2688960D01*
X16655900Y2715410D01*
X16663770Y2747160D01*
X16655900Y2778920D01*
X16636210Y2805370D01*
X16600780Y2821250D01*
X16565350Y2815960D01*
X16529910Y2794790D01*
G01X16813380Y2567250D02*
X16836990Y2530200D01*
X16868490Y2509040D01*
X16903930Y2503750D01*
X16935430Y2509040D01*
X16966920Y2535490D01*
X16986600Y2567250D01*
X16990540Y2599000D01*
X16982670Y2636030D01*
X16955110Y2662500D01*
X16927550Y2673090D01*
X16892110D01*
G01X16927550D02*
X16951170Y2688960D01*
X16970860Y2715410D01*
X16978730Y2747160D01*
X16970860Y2778920D01*
X16951170Y2805370D01*
X16915740Y2821250D01*
X16880310Y2815960D01*
X16844870Y2794790D01*
G01X17214950Y2821250D02*
X17183450Y2810670D01*
X17159830Y2784210D01*
X17144080Y2752460D01*
X17132270Y2710120D01*
X17128340Y2662500D01*
X17132270Y2614870D01*
X17144080Y2572540D01*
X17159830Y2540780D01*
X17183450Y2514330D01*
X17214950Y2503750D01*
X17246440Y2514330D01*
X17270070Y2540780D01*
X17285820Y2572540D01*
X17297630Y2614870D01*
X17301560Y2662500D01*
X17297630Y2710120D01*
X17285820Y2752460D01*
X17270070Y2784210D01*
X17246440Y2810670D01*
X17214950Y2821250D01*
G01X17455100Y2768330D02*
X17478730Y2800080D01*
X17506290Y2815960D01*
X17537790Y2821250D01*
X17577150Y2810670D01*
X17604720Y2784210D01*
X17612590Y2752460D01*
X17608650Y2720700D01*
X17592900Y2694250D01*
X17514160Y2641330D01*
X17478730Y2604290D01*
X17455100Y2551360D01*
X17447230Y2503750D01*
X17612590D01*
G01X15613030Y5469330D02*
Y5342330D01*
G01X15576030Y5469330D02*
X15650030D01*
G01X15742570Y5342330D02*
X15729700Y5344450D01*
X15718440Y5352910D01*
X15708790Y5365610D01*
X15702350Y5380430D01*
X15699130Y5397360D01*
Y5414300D01*
X15702350Y5431230D01*
X15708790Y5446050D01*
X15718440Y5458750D01*
X15729700Y5467210D01*
X15742570Y5469330D01*
X15755440Y5467210D01*
X15766700Y5458750D01*
X15776350Y5446050D01*
X15782790Y5431230D01*
X15786010Y5414300D01*
Y5397360D01*
X15782790Y5380430D01*
X15776350Y5365610D01*
X15766700Y5352910D01*
X15755440Y5344450D01*
X15742570Y5342330D01*
G01X15872110Y5469330D02*
Y5342330D01*
G01X15835110Y5469330D02*
X15909110D01*
G01X15961430Y5342330D02*
X16001650Y5469330D01*
X16041870Y5342330D01*
G01X16027390Y5386780D02*
X15975910D01*
G01X16099020Y5469330D02*
Y5342330D01*
X16163360D01*
G01X16390270Y5469330D02*
Y5342330D01*
G01X16353270Y5469330D02*
X16427270D01*
G01X16486030Y5342330D02*
Y5469330D01*
G01X16553590D02*
Y5342330D01*
G01Y5405830D02*
X16486030D01*
G01X16630050Y5469330D02*
X16668650D01*
G01X16649350D02*
Y5342330D01*
G01X16630050D02*
X16668650D01*
G01X16814280Y5458750D02*
X16804630Y5465100D01*
X16793370Y5469330D01*
X16780500D01*
X16766020Y5462980D01*
X16754760Y5452400D01*
X16746720Y5439700D01*
X16740280Y5418530D01*
X16738670Y5399480D01*
X16741890Y5380430D01*
X16746720Y5367730D01*
X16756370Y5355030D01*
X16767630Y5346560D01*
X16778890Y5342330D01*
X16790150D01*
X16801410Y5346560D01*
X16811060Y5352910D01*
X16819110Y5361380D01*
G01X16873040Y5342330D02*
Y5469330D01*
G01X16934170D02*
X16873040Y5391010D01*
G01X16943820Y5342330D02*
X16900390Y5426990D01*
G01X17000970Y5342330D02*
Y5469330D01*
X17074970Y5342330D01*
Y5469330D01*
G01X17199680Y5342330D02*
X17135340D01*
Y5469330D01*
X17199680D01*
G01X17173940Y5407950D02*
X17135340D01*
G01X17263270Y5359260D02*
X17276140Y5348680D01*
X17290620Y5342330D01*
X17303480D01*
X17316350Y5348680D01*
X17326010Y5359260D01*
X17330830Y5374080D01*
X17327620Y5388890D01*
X17319570Y5401600D01*
X17305090Y5410060D01*
X17285790Y5414300D01*
X17274530Y5422760D01*
X17269700Y5437580D01*
X17272920Y5452400D01*
X17280960Y5462980D01*
X17292220Y5469330D01*
X17303480D01*
X17314750Y5465100D01*
X17324400Y5454510D01*
G01X17392810Y5359260D02*
X17405680Y5348680D01*
X17420160Y5342330D01*
X17433020D01*
X17445890Y5348680D01*
X17455550Y5359260D01*
X17460370Y5374080D01*
X17457160Y5388890D01*
X17449110Y5401600D01*
X17434630Y5410060D01*
X17415330Y5414300D01*
X17404070Y5422760D01*
X17399240Y5437580D01*
X17402460Y5452400D01*
X17410500Y5462980D01*
X17421760Y5469330D01*
X17433020D01*
X17444290Y5465100D01*
X17453940Y5454510D01*
G01X17685670Y5469330D02*
X17672800Y5465100D01*
X17663150Y5454510D01*
X17656710Y5441820D01*
X17651890Y5424880D01*
X17650280Y5405830D01*
X17651890Y5386780D01*
X17656710Y5369840D01*
X17663150Y5357140D01*
X17672800Y5346560D01*
X17685670Y5342330D01*
X17698540Y5346560D01*
X17708190Y5357140D01*
X17714630Y5369840D01*
X17719450Y5386780D01*
X17721060Y5405830D01*
X17719450Y5424880D01*
X17714630Y5441820D01*
X17708190Y5454510D01*
X17698540Y5465100D01*
X17685670Y5469330D01*
G01X17815210Y5338100D02*
X17811990Y5340210D01*
Y5344450D01*
X17815210Y5346560D01*
X17818430Y5344450D01*
Y5340210D01*
X17815210Y5338100D01*
G01X17964050Y5342330D02*
Y5469330D01*
X17904530Y5378310D01*
X17984970D01*
G01X18046940Y5357140D02*
X18058200Y5346560D01*
X18071070Y5342330D01*
X18083940Y5346560D01*
X18095200Y5359260D01*
X18103250Y5378310D01*
X18106460Y5397360D01*
Y5420650D01*
X18103250Y5439700D01*
X18095200Y5456630D01*
X18085550Y5465100D01*
X18074290Y5469330D01*
X18061420Y5465100D01*
X18051770Y5456630D01*
X18045330Y5443930D01*
X18042120Y5426990D01*
X18045330Y5412180D01*
X18053380Y5397360D01*
X18063030Y5388890D01*
X18074290Y5386780D01*
X18087160Y5391010D01*
X18096810Y5401600D01*
X18106460Y5420650D01*
G01X18200610Y5342330D02*
X18203830Y5369840D01*
X18208660Y5393130D01*
X18215090Y5414300D01*
X18223130Y5437580D01*
X18236000Y5469330D01*
X18171660D01*
G01X18333370Y5342330D02*
X18344630Y5344450D01*
X18357500Y5350790D01*
X18365540Y5361380D01*
X18368760Y5376200D01*
X18365540Y5391010D01*
X18355890Y5403710D01*
X18341410Y5410060D01*
X18325330D01*
X18315670Y5414300D01*
X18307630Y5424880D01*
X18304410Y5439700D01*
X18309240Y5454510D01*
X18320500Y5465100D01*
X18333370Y5469330D01*
X18346240Y5465100D01*
X18357500Y5454510D01*
X18362330Y5439700D01*
X18359110Y5424880D01*
X18351070Y5414300D01*
X18341410Y5410060D01*
X18325330D01*
X18310850Y5403710D01*
X18301200Y5391010D01*
X18297980Y5376200D01*
X18301200Y5361380D01*
X18309240Y5350790D01*
X18322110Y5344450D01*
X18333370Y5342330D01*
G01X18482210D02*
Y5469330D01*
X18422690Y5378310D01*
X18503130D01*
G01X18680160Y5342330D02*
Y5469330D01*
X18721990Y5363500D01*
X18763820Y5469330D01*
Y5342330D01*
G01X18809700D02*
Y5469330D01*
X18851530Y5363500D01*
X18893360Y5469330D01*
Y5342330D01*
G01X15577640Y5570930D02*
Y5697930D01*
X15609810D01*
X15622680Y5691580D01*
X15632330Y5683110D01*
X15640380Y5670420D01*
X15646810Y5655590D01*
X15648420Y5634430D01*
X15646810Y5613260D01*
X15640380Y5598440D01*
X15632330Y5585740D01*
X15622680Y5577280D01*
X15609810Y5570930D01*
X15577640D01*
G01X15774740D02*
X15710400D01*
Y5697930D01*
X15774740D01*
G01X15749000Y5636550D02*
X15710400D01*
G01X15838330Y5587860D02*
X15851200Y5577280D01*
X15865680Y5570930D01*
X15878540D01*
X15891410Y5577280D01*
X15901070Y5587860D01*
X15905890Y5602680D01*
X15902680Y5617490D01*
X15894630Y5630200D01*
X15880150Y5638660D01*
X15860850Y5642900D01*
X15849590Y5651360D01*
X15844760Y5666180D01*
X15847980Y5681000D01*
X15856020Y5691580D01*
X15867280Y5697930D01*
X15878540D01*
X15889810Y5693700D01*
X15899460Y5683110D01*
G01X15982350Y5697930D02*
X16020950D01*
G01X16001650D02*
Y5570930D01*
G01X15982350D02*
X16020950D01*
G01X16140840Y5634430D02*
X16173020D01*
Y5596330D01*
X16163360Y5583630D01*
X16152100Y5575160D01*
X16136020Y5570930D01*
X16119930Y5575160D01*
X16108670Y5583630D01*
X16099020Y5596330D01*
X16092580Y5611150D01*
X16089360Y5628080D01*
Y5642900D01*
X16092580Y5655590D01*
X16099020Y5670420D01*
X16108670Y5683110D01*
X16118320Y5691580D01*
X16131190Y5697930D01*
X16142450D01*
X16155320Y5693700D01*
X16164970Y5685230D01*
G01X16223730Y5570930D02*
Y5697930D01*
X16297730Y5570930D01*
Y5697930D01*
G01X16555200Y5687350D02*
X16545550Y5693700D01*
X16534290Y5697930D01*
X16521420D01*
X16506940Y5691580D01*
X16495680Y5681000D01*
X16487640Y5668300D01*
X16481200Y5647130D01*
X16479590Y5628080D01*
X16482810Y5609030D01*
X16487640Y5596330D01*
X16497290Y5583630D01*
X16508550Y5575160D01*
X16519810Y5570930D01*
X16531070D01*
X16542330Y5575160D01*
X16551980Y5581510D01*
X16560030Y5589980D01*
G01X16617180Y5570930D02*
Y5697930D01*
X16657390D01*
X16670260Y5691580D01*
X16678310Y5683110D01*
X16681520Y5666180D01*
X16678310Y5649250D01*
X16668650Y5638660D01*
X16657390Y5632310D01*
X16617180D01*
G01X16657390D02*
X16681520Y5570930D01*
G01X16778890D02*
X16766020Y5573050D01*
X16754760Y5581510D01*
X16745110Y5594210D01*
X16738670Y5609030D01*
X16735450Y5625960D01*
Y5642900D01*
X16738670Y5659830D01*
X16745110Y5674650D01*
X16754760Y5687350D01*
X16766020Y5695810D01*
X16778890Y5697930D01*
X16791760Y5695810D01*
X16803020Y5687350D01*
X16812670Y5674650D01*
X16819110Y5659830D01*
X16822330Y5642900D01*
Y5625960D01*
X16819110Y5609030D01*
X16812670Y5594210D01*
X16803020Y5581510D01*
X16791760Y5573050D01*
X16778890Y5570930D01*
G01X16874650Y5587860D02*
X16887520Y5577280D01*
X16902000Y5570930D01*
X16914860D01*
X16927730Y5577280D01*
X16937390Y5587860D01*
X16942210Y5602680D01*
X16939000Y5617490D01*
X16930950Y5630200D01*
X16916470Y5638660D01*
X16897170Y5642900D01*
X16885910Y5651360D01*
X16881080Y5666180D01*
X16884300Y5681000D01*
X16892340Y5691580D01*
X16903600Y5697930D01*
X16914860D01*
X16926130Y5693700D01*
X16935780Y5683110D01*
G01X17004190Y5587860D02*
X17017060Y5577280D01*
X17031540Y5570930D01*
X17044400D01*
X17057270Y5577280D01*
X17066930Y5587860D01*
X17071750Y5602680D01*
X17068540Y5617490D01*
X17060490Y5630200D01*
X17046010Y5638660D01*
X17026710Y5642900D01*
X17015450Y5651360D01*
X17010620Y5666180D01*
X17013840Y5681000D01*
X17021880Y5691580D01*
X17033140Y5697930D01*
X17044400D01*
X17055670Y5693700D01*
X17065320Y5683110D01*
G01X17263270Y5587860D02*
X17276140Y5577280D01*
X17290620Y5570930D01*
X17303480D01*
X17316350Y5577280D01*
X17326010Y5587860D01*
X17330830Y5602680D01*
X17327620Y5617490D01*
X17319570Y5630200D01*
X17305090Y5638660D01*
X17285790Y5642900D01*
X17274530Y5651360D01*
X17269700Y5666180D01*
X17272920Y5681000D01*
X17280960Y5691580D01*
X17292220Y5697930D01*
X17303480D01*
X17314750Y5693700D01*
X17324400Y5683110D01*
G01X17458760Y5570930D02*
X17394420D01*
Y5697930D01*
X17458760D01*
G01X17433020Y5636550D02*
X17394420D01*
G01X17591520Y5687350D02*
X17581870Y5693700D01*
X17570610Y5697930D01*
X17557740D01*
X17543260Y5691580D01*
X17532000Y5681000D01*
X17523960Y5668300D01*
X17517520Y5647130D01*
X17515910Y5628080D01*
X17519130Y5609030D01*
X17523960Y5596330D01*
X17533610Y5583630D01*
X17544870Y5575160D01*
X17556130Y5570930D01*
X17567390D01*
X17578650Y5575160D01*
X17588300Y5581510D01*
X17596350Y5589980D01*
G01X17685670Y5697930D02*
Y5570930D01*
G01X17648670Y5697930D02*
X17722670D01*
G01X17795910D02*
X17834510D01*
G01X17815210D02*
Y5570930D01*
G01X17795910D02*
X17834510D01*
G01X17944750D02*
X17931880Y5573050D01*
X17920620Y5581510D01*
X17910970Y5594210D01*
X17904530Y5609030D01*
X17901310Y5625960D01*
Y5642900D01*
X17904530Y5659830D01*
X17910970Y5674650D01*
X17920620Y5687350D01*
X17931880Y5695810D01*
X17944750Y5697930D01*
X17957620Y5695810D01*
X17968880Y5687350D01*
X17978530Y5674650D01*
X17984970Y5659830D01*
X17988190Y5642900D01*
Y5625960D01*
X17984970Y5609030D01*
X17978530Y5594210D01*
X17968880Y5581510D01*
X17957620Y5573050D01*
X17944750Y5570930D01*
G01X18037290D02*
Y5697930D01*
X18111290Y5570930D01*
Y5697930D01*
G01X18368760Y5687350D02*
X18359110Y5693700D01*
X18347850Y5697930D01*
X18334980D01*
X18320500Y5691580D01*
X18309240Y5681000D01*
X18301200Y5668300D01*
X18294760Y5647130D01*
X18293150Y5628080D01*
X18296370Y5609030D01*
X18301200Y5596330D01*
X18310850Y5583630D01*
X18322110Y5575160D01*
X18333370Y5570930D01*
X18344630D01*
X18355890Y5575160D01*
X18365540Y5581510D01*
X18373590Y5589980D01*
G01X18429130Y5570930D02*
Y5697930D01*
G01X18496690D02*
Y5570930D01*
G01Y5634430D02*
X18429130D01*
G01X18552230Y5570930D02*
X18592450Y5697930D01*
X18632670Y5570930D01*
G01X18618190Y5615380D02*
X18566710D01*
G01X18689820Y5570930D02*
Y5697930D01*
X18730030D01*
X18742900Y5691580D01*
X18750950Y5683110D01*
X18754160Y5666180D01*
X18750950Y5649250D01*
X18741290Y5638660D01*
X18730030Y5632310D01*
X18689820D01*
G01X18730030D02*
X18754160Y5570930D01*
G01X18851530Y5697930D02*
Y5570930D01*
G01X18814530Y5697930D02*
X18888530D01*
G01X15500000Y5528600D02*
X15596520D01*
G01X15629540D02*
X15726060D01*
G01X15759080D02*
X15855600D01*
G01X15888620D02*
X15985140D01*
G01X16018160D02*
X16114680D01*
G01X16147700D02*
X16244220D01*
G01X16277240D02*
X16373760D01*
G01X16406780D02*
X16503300D01*
G01X16536320D02*
X16632840D01*
G01X16665860D02*
X16762380D01*
G01X16795400D02*
X16891920D01*
G01X16924940D02*
X17021460D01*
G01X17054480D02*
X17151000D01*
G01X17184020D02*
X17280540D01*
G01X17313560D02*
X17410080D01*
G01X17443100D02*
X17539620D01*
G01X17572640D02*
X17669160D01*
G01X17702180D02*
X17798700D01*
G01X17831720D02*
X17928240D01*
G01X17961260D02*
X18057780D01*
G01X18090800D02*
X18187320D01*
G01X18220340D02*
X18316860D01*
G01X18349880D02*
X18446400D01*
G01X18479420D02*
X18575940D01*
G01X18608960D02*
X18705480D01*
G01X18738500D02*
X18835020D01*
G01X18868040D02*
X18964560D01*
G01X15637100Y13572300D02*
Y13826300D01*
X15700600D01*
X15726000Y13813590D01*
X15745050Y13796670D01*
X15760930Y13771270D01*
X15773630Y13741630D01*
X15776800Y13699300D01*
X15773630Y13656960D01*
X15760930Y13627330D01*
X15745050Y13601930D01*
X15726000Y13585000D01*
X15700600Y13572300D01*
X15637100D01*
G01X16024450D02*
X15897450D01*
Y13826300D01*
X16024450D01*
G01X15973650Y13703540D02*
X15897450D01*
G01X16148270Y13606160D02*
X16173680Y13585000D01*
X16202250Y13572300D01*
X16227650D01*
X16253050Y13585000D01*
X16272100Y13606160D01*
X16281630Y13635800D01*
X16275280Y13665430D01*
X16259400Y13690830D01*
X16230820Y13707770D01*
X16192730Y13716230D01*
X16170500Y13733160D01*
X16160970Y13762800D01*
X16167330Y13792430D01*
X16183200Y13813590D01*
X16205420Y13826300D01*
X16227650D01*
X16249880Y13817840D01*
X16268930Y13796670D01*
G01X16538800Y13805130D02*
X16519750Y13817840D01*
X16497530Y13826300D01*
X16472130D01*
X16443550Y13813590D01*
X16421330Y13792430D01*
X16405450Y13767030D01*
X16392750Y13724700D01*
X16389570Y13686600D01*
X16395930Y13648500D01*
X16405450Y13623100D01*
X16424500Y13597690D01*
X16446730Y13580760D01*
X16468950Y13572300D01*
X16491170D01*
X16513400Y13580760D01*
X16532450Y13593460D01*
X16548330Y13610390D01*
G01X16659450Y13572300D02*
Y13826300D01*
X16738820D01*
X16764220Y13813590D01*
X16780100Y13796670D01*
X16786450Y13762800D01*
X16780100Y13728930D01*
X16761050Y13707770D01*
X16738820Y13695060D01*
X16659450D01*
G01X16738820D02*
X16786450Y13572300D01*
G01X16938850Y13826300D02*
X17015040D01*
G01X16976950D02*
Y13572300D01*
G01X16938850D02*
X17015040D01*
G01X17167450D02*
Y13826300D01*
X17243650D01*
X17269050Y13813590D01*
X17288100Y13783970D01*
X17294450Y13750100D01*
X17288100Y13716230D01*
X17272220Y13690830D01*
X17243650Y13678130D01*
X17167450D01*
G01X17484950Y13826300D02*
Y13572300D01*
G01X17411930Y13826300D02*
X17557970D01*
G01X17700850D02*
X17777040D01*
G01X17738950D02*
Y13572300D01*
G01X17700850D02*
X17777040D01*
G01X17992950D02*
X17967550Y13576530D01*
X17945330Y13593460D01*
X17926270Y13618860D01*
X17913570Y13648500D01*
X17907220Y13682370D01*
Y13716230D01*
X17913570Y13750100D01*
X17926270Y13779740D01*
X17945330Y13805130D01*
X17967550Y13822070D01*
X17992950Y13826300D01*
X18018350Y13822070D01*
X18040570Y13805130D01*
X18059630Y13779740D01*
X18072330Y13750100D01*
X18078680Y13716230D01*
Y13682370D01*
X18072330Y13648500D01*
X18059630Y13618860D01*
X18040570Y13593460D01*
X18018350Y13576530D01*
X17992950Y13572300D01*
G01X18173930D02*
Y13826300D01*
X18319970Y13572300D01*
Y13826300D01*
G01X16119700Y-4652200D02*
Y-3636200D01*
G01X16408620Y-4017200D02*
Y-3763200D01*
X16529280D01*
G01X16484820Y-3885960D02*
X16408620D01*
G01X16656270Y-3983340D02*
X16681680Y-4004500D01*
X16710250Y-4017200D01*
X16735650D01*
X16761050Y-4004500D01*
X16780100Y-3983340D01*
X16789630Y-3953700D01*
X16783280Y-3924070D01*
X16767400Y-3898670D01*
X16738820Y-3881730D01*
X16700730Y-3873270D01*
X16678500Y-3856340D01*
X16668970Y-3826700D01*
X16675330Y-3797070D01*
X16691200Y-3775910D01*
X16713420Y-3763200D01*
X16735650D01*
X16757880Y-3771660D01*
X16776930Y-3792830D01*
G01X17046800Y-3784370D02*
X17027750Y-3771660D01*
X17005530Y-3763200D01*
X16980130D01*
X16951550Y-3775910D01*
X16929330Y-3797070D01*
X16913450Y-3822470D01*
X16900750Y-3864800D01*
X16897570Y-3902900D01*
X16903930Y-3941000D01*
X16913450Y-3966400D01*
X16932500Y-3991810D01*
X16954730Y-4008740D01*
X16976950Y-4017200D01*
X16999170D01*
X17021400Y-4008740D01*
X17040450Y-3996040D01*
X17056330Y-3979110D01*
G01X17148400Y-4017200D02*
Y-3763200D01*
X17230950Y-3974870D01*
X17313500Y-3763200D01*
Y-4017200D01*
G01X17665930D02*
Y-3763200D01*
X17811970Y-4017200D01*
Y-3763200D01*
G01X17992950Y-4017200D02*
X17967550Y-4012970D01*
X17945330Y-3996040D01*
X17926270Y-3970640D01*
X17913570Y-3941000D01*
X17907220Y-3907130D01*
Y-3873270D01*
X17913570Y-3839400D01*
X17926270Y-3809760D01*
X17945330Y-3784370D01*
X17967550Y-3767430D01*
X17992950Y-3763200D01*
X18018350Y-3767430D01*
X18040570Y-3784370D01*
X18059630Y-3809760D01*
X18072330Y-3839400D01*
X18078680Y-3873270D01*
Y-3907130D01*
X18072330Y-3941000D01*
X18059630Y-3970640D01*
X18040570Y-3996040D01*
X18018350Y-4012970D01*
X17992950Y-4017200D01*
G01X16786450Y-1604200D02*
X16659450D01*
Y-1350200D01*
X16786450D01*
G01X16735650Y-1472960D02*
X16659450D01*
G01X16894400Y-1604200D02*
Y-1350200D01*
X16976950Y-1561870D01*
X17059500Y-1350200D01*
Y-1604200D01*
G01X17151570D02*
X17230950Y-1350200D01*
X17310330Y-1604200D01*
G01X17281750Y-1515300D02*
X17180150D01*
G01X17669100Y-1604200D02*
Y-1350200D01*
X17732600D01*
X17758000Y-1362910D01*
X17777050Y-1379830D01*
X17792930Y-1405230D01*
X17805630Y-1434870D01*
X17808800Y-1477200D01*
X17805630Y-1519540D01*
X17792930Y-1549170D01*
X17777050Y-1574570D01*
X17758000Y-1591500D01*
X17732600Y-1604200D01*
X17669100D01*
G01X18056450D02*
X17929450D01*
Y-1350200D01*
X18056450D01*
G01X18005650Y-1472960D02*
X17929450D01*
G01X18180270Y-1570340D02*
X18205680Y-1591500D01*
X18234250Y-1604200D01*
X18259650D01*
X18285050Y-1591500D01*
X18304100Y-1570340D01*
X18313630Y-1540700D01*
X18307280Y-1511070D01*
X18291400Y-1485670D01*
X18262820Y-1468730D01*
X18224730Y-1460270D01*
X18202500Y-1443340D01*
X18192970Y-1413700D01*
X18199330Y-1384070D01*
X18215200Y-1362910D01*
X18237420Y-1350200D01*
X18259650D01*
X18281880Y-1358660D01*
X18300930Y-1379830D01*
G01X18462850Y-1350200D02*
X18539040D01*
G01X18500950D02*
Y-1604200D01*
G01X18462850D02*
X18539040D01*
G01X18774000Y-1477200D02*
X18837500D01*
Y-1553400D01*
X18818450Y-1578810D01*
X18796220Y-1595740D01*
X18764480Y-1604200D01*
X18732730Y-1595740D01*
X18710500Y-1578810D01*
X18691450Y-1553400D01*
X18678750Y-1523770D01*
X18672400Y-1489900D01*
Y-1460270D01*
X18678750Y-1434870D01*
X18691450Y-1405230D01*
X18710500Y-1379830D01*
X18729550Y-1362910D01*
X18754950Y-1350200D01*
X18777170D01*
X18802570Y-1358660D01*
X18821630Y-1375600D01*
G01X18935930Y-1604200D02*
Y-1350200D01*
X19081970Y-1604200D01*
Y-1350200D01*
G01X19437570Y-1604200D02*
X19516950Y-1350200D01*
X19596330Y-1604200D01*
G01X19567750Y-1515300D02*
X19466150D01*
G01X19701100Y-1350200D02*
Y-1532230D01*
X19713800Y-1570340D01*
X19739200Y-1595740D01*
X19770950Y-1604200D01*
X19802700Y-1595740D01*
X19828100Y-1570340D01*
X19840800Y-1532230D01*
Y-1350200D01*
G01X20024950D02*
Y-1604200D01*
G01X19951930Y-1350200D02*
X20097970D01*
G01X20278950Y-1604200D02*
X20253550Y-1599970D01*
X20231330Y-1583040D01*
X20212270Y-1557640D01*
X20199570Y-1528000D01*
X20193220Y-1494130D01*
Y-1460270D01*
X20199570Y-1426400D01*
X20212270Y-1396760D01*
X20231330Y-1371370D01*
X20253550Y-1354430D01*
X20278950Y-1350200D01*
X20304350Y-1354430D01*
X20326570Y-1371370D01*
X20345630Y-1396760D01*
X20358330Y-1426400D01*
X20364680Y-1460270D01*
Y-1494130D01*
X20358330Y-1528000D01*
X20345630Y-1557640D01*
X20326570Y-1583040D01*
X20304350Y-1599970D01*
X20278950Y-1604200D01*
G01X20450400D02*
Y-1350200D01*
X20532950Y-1561870D01*
X20615500Y-1350200D01*
Y-1604200D01*
G01X20707570D02*
X20786950Y-1350200D01*
X20866330Y-1604200D01*
G01X20837750Y-1515300D02*
X20736150D01*
G01X21040950Y-1350200D02*
Y-1604200D01*
G01X20967930Y-1350200D02*
X21113970D01*
G01X21256850D02*
X21333040D01*
G01X21294950D02*
Y-1604200D01*
G01X21256850D02*
X21333040D01*
G01X21548950D02*
X21523550Y-1599970D01*
X21501330Y-1583040D01*
X21482270Y-1557640D01*
X21469570Y-1528000D01*
X21463220Y-1494130D01*
Y-1460270D01*
X21469570Y-1426400D01*
X21482270Y-1396760D01*
X21501330Y-1371370D01*
X21523550Y-1354430D01*
X21548950Y-1350200D01*
X21574350Y-1354430D01*
X21596570Y-1371370D01*
X21615630Y-1396760D01*
X21628330Y-1426400D01*
X21634680Y-1460270D01*
Y-1494130D01*
X21628330Y-1528000D01*
X21615630Y-1557640D01*
X21596570Y-1583040D01*
X21574350Y-1599970D01*
X21548950Y-1604200D01*
G01X21729930D02*
Y-1350200D01*
X21875970Y-1604200D01*
Y-1350200D01*
G01X16340940Y27250D02*
X16364550Y-9800D01*
X16396050Y-30960D01*
X16431490Y-36250D01*
X16462990Y-30960D01*
X16494480Y-4510D01*
X16514160Y27250D01*
X16518100Y59000D01*
X16510230Y96030D01*
X16482670Y122500D01*
X16455110Y133090D01*
X16419670D01*
G01X16455110D02*
X16478730Y148960D01*
X16498420Y175410D01*
X16506290Y207160D01*
X16498420Y238920D01*
X16478730Y265370D01*
X16443300Y281250D01*
X16407870Y275960D01*
X16372430Y254790D01*
G01X16742510Y-46830D02*
X16734630Y-41540D01*
Y-30960D01*
X16742510Y-25670D01*
X16750390Y-30960D01*
Y-41540D01*
X16742510Y-46830D01*
G01X16970860Y27250D02*
X16994470Y-9800D01*
X17025970Y-30960D01*
X17061410Y-36250D01*
X17092910Y-30960D01*
X17124400Y-4510D01*
X17144080Y27250D01*
X17148020Y59000D01*
X17140150Y96030D01*
X17112590Y122500D01*
X17085030Y133090D01*
X17049590D01*
G01X17085030D02*
X17108650Y148960D01*
X17128340Y175410D01*
X17136210Y207160D01*
X17128340Y238920D01*
X17108650Y265370D01*
X17073220Y281250D01*
X17037790Y275960D01*
X17002350Y254790D01*
G01X16183460Y662250D02*
X16207070Y625200D01*
X16238570Y604040D01*
X16274010Y598750D01*
X16305510Y604040D01*
X16337000Y630490D01*
X16356680Y662250D01*
X16360620Y694000D01*
X16352750Y731030D01*
X16325190Y757500D01*
X16297630Y768090D01*
X16262190D01*
G01X16297630D02*
X16321250Y783960D01*
X16340940Y810410D01*
X16348810Y842160D01*
X16340940Y873920D01*
X16321250Y900370D01*
X16285820Y916250D01*
X16250390Y910960D01*
X16214950Y889790D01*
G01X16585030Y588170D02*
X16577150Y593460D01*
Y604040D01*
X16585030Y609330D01*
X16592910Y604040D01*
Y593460D01*
X16585030Y588170D01*
G01X16899990Y598750D02*
X16927550Y604040D01*
X16959040Y619910D01*
X16978730Y646360D01*
X16986600Y683420D01*
X16978730Y720450D01*
X16955110Y752200D01*
X16919670Y768090D01*
X16880310D01*
X16856680Y778670D01*
X16836990Y805120D01*
X16829120Y842160D01*
X16840940Y879210D01*
X16868490Y905670D01*
X16899990Y916250D01*
X16931480Y905670D01*
X16959040Y879210D01*
X16970860Y842160D01*
X16962980Y805120D01*
X16943300Y778670D01*
X16919670Y768090D01*
X16880310D01*
X16844870Y752200D01*
X16821250Y720450D01*
X16813380Y683420D01*
X16821250Y646360D01*
X16840940Y619910D01*
X16872430Y604040D01*
X16899990Y598750D01*
G01X17214950D02*
Y916250D01*
X17167710Y852750D01*
G01Y598750D02*
X17262190D01*
G01X16112590Y1233750D02*
Y1551250D01*
X16065350Y1487750D01*
G01Y1233750D02*
X16159830D01*
G01X16427550Y1223170D02*
X16419670Y1228460D01*
Y1239040D01*
X16427550Y1244330D01*
X16435430Y1239040D01*
Y1228460D01*
X16427550Y1223170D01*
G01X16742510Y1551250D02*
X16711010Y1540670D01*
X16687390Y1514210D01*
X16671640Y1482460D01*
X16659830Y1440120D01*
X16655900Y1392500D01*
X16659830Y1344870D01*
X16671640Y1302540D01*
X16687390Y1270780D01*
X16711010Y1244330D01*
X16742510Y1233750D01*
X16774000Y1244330D01*
X16797630Y1270780D01*
X16813380Y1302540D01*
X16825190Y1344870D01*
X16829120Y1392500D01*
X16825190Y1440120D01*
X16813380Y1482460D01*
X16797630Y1514210D01*
X16774000Y1540670D01*
X16742510Y1551250D01*
G01X17057470Y1233750D02*
Y1551250D01*
X17010230Y1487750D01*
G01Y1233750D02*
X17104710D01*
G01X17297620Y1366030D02*
X17325190Y1403090D01*
X17348810Y1424250D01*
X17380310Y1434830D01*
X17407870Y1424250D01*
X17427550Y1403090D01*
X17443300Y1371330D01*
X17447240Y1334290D01*
X17443300Y1302540D01*
X17427550Y1270780D01*
X17403920Y1244330D01*
X17376370Y1233750D01*
X17344870Y1244330D01*
X17317310Y1276070D01*
X17301560Y1323710D01*
X17297620Y1376620D01*
X17305500Y1445410D01*
X17317310Y1482460D01*
X17336990Y1519500D01*
X17364550Y1545960D01*
X17392110Y1551250D01*
X17419670Y1540670D01*
X17439360Y1514210D01*
G01X16427550Y2186250D02*
X16396050Y2175670D01*
X16372430Y2149210D01*
X16356680Y2117460D01*
X16344870Y2075120D01*
X16340940Y2027500D01*
X16344870Y1979870D01*
X16356680Y1937540D01*
X16372430Y1905780D01*
X16396050Y1879330D01*
X16427550Y1868750D01*
X16459040Y1879330D01*
X16482670Y1905780D01*
X16498420Y1937540D01*
X16510230Y1979870D01*
X16514160Y2027500D01*
X16510230Y2075120D01*
X16498420Y2117460D01*
X16482670Y2149210D01*
X16459040Y2175670D01*
X16427550Y2186250D01*
G01X16742510Y1858170D02*
X16734630Y1863460D01*
Y1874040D01*
X16742510Y1879330D01*
X16750390Y1874040D01*
Y1863460D01*
X16742510Y1858170D01*
G01X17049590Y1868750D02*
X17057470Y1937540D01*
X17069280Y1995740D01*
X17085030Y2048670D01*
X17104710Y2106870D01*
X17136210Y2186250D01*
X16978730D01*
G01X16470280Y6347480D02*
Y8420120D01*
X17994280D01*
Y6347480D01*
X16470280D01*
G01Y8731010D02*
Y10803650D01*
X17994280D01*
Y8731010D01*
X16470280D01*
G01X17135700Y-4652200D02*
Y-5414200D01*
G01X17168780Y11289800D02*
X17041780D01*
X17067180Y11270500D01*
G01X17168780D02*
Y11309100D01*
G01X17126450Y11398430D02*
Y11440250D01*
G01X17143380Y11513490D02*
X17158200Y11523140D01*
X17166660Y11536010D01*
X17168780Y11550490D01*
X17166660Y11563360D01*
X17156080Y11576230D01*
X17143380Y11584270D01*
X17130680Y11585880D01*
X17115870Y11582660D01*
X17105280Y11571400D01*
X17101050Y11560140D01*
Y11545660D01*
G01Y11560140D02*
X17094700Y11569790D01*
X17084120Y11577840D01*
X17071410Y11581050D01*
X17058710Y11577840D01*
X17048130Y11569790D01*
X17041780Y11555310D01*
X17043900Y11540840D01*
X17052360Y11526360D01*
G01X18395770Y5863030D02*
X18466550Y5956160D01*
G01X18431160Y5973090D02*
Y5846090D01*
G01X18466550Y5863030D02*
X18395770Y5956160D01*
G01X18382900Y5909590D02*
X18479420D01*
G01X18786000Y5884190D02*
X18798870Y5873610D01*
X18813350Y5867260D01*
X18826210D01*
X18839080Y5873610D01*
X18848740Y5884190D01*
X18853560Y5899010D01*
X18850350Y5913820D01*
X18842300Y5926530D01*
X18827820Y5934990D01*
X18808520Y5939230D01*
X18797260Y5947690D01*
X18792430Y5962510D01*
X18795650Y5977330D01*
X18803690Y5987910D01*
X18814950Y5994260D01*
X18826210D01*
X18837480Y5990030D01*
X18847130Y5979440D01*
G01X18913930Y5994260D02*
Y5903240D01*
X18920360Y5884190D01*
X18933230Y5871490D01*
X18949320Y5867260D01*
X18965410Y5871490D01*
X18978280Y5884190D01*
X18984710Y5903240D01*
Y5994260D01*
G01X19046690Y5867260D02*
Y5994260D01*
X19086900D01*
X19099770Y5987910D01*
X19107820Y5979440D01*
X19111030Y5962510D01*
X19107820Y5945580D01*
X19098160Y5934990D01*
X19086900Y5928640D01*
X19046690D01*
G01X19086900D02*
X19111030Y5867260D01*
G01X19177830D02*
Y5994260D01*
X19238970D01*
G01X19216440Y5932880D02*
X19177830D01*
G01X19297720Y5867260D02*
X19337940Y5994260D01*
X19378160Y5867260D01*
G01X19363680Y5911710D02*
X19312200D01*
G01X19502870Y5983680D02*
X19493220Y5990030D01*
X19481960Y5994260D01*
X19469090D01*
X19454610Y5987910D01*
X19443350Y5977330D01*
X19435310Y5964630D01*
X19428870Y5943460D01*
X19427260Y5924410D01*
X19430480Y5905360D01*
X19435310Y5892660D01*
X19444960Y5879960D01*
X19456220Y5871490D01*
X19467480Y5867260D01*
X19478740D01*
X19490000Y5871490D01*
X19499650Y5877840D01*
X19507700Y5886310D01*
G01X19629190Y5867260D02*
X19564850D01*
Y5994260D01*
X19629190D01*
G01X19603450Y5932880D02*
X19564850D01*
G01X18139910Y6305150D02*
Y6178150D01*
X18204250D01*
G01X18266230Y6203550D02*
X18275880Y6188730D01*
X18288750Y6180270D01*
X18303230Y6178150D01*
X18316100Y6180270D01*
X18328970Y6190850D01*
X18337010Y6203550D01*
X18338620Y6216250D01*
X18335400Y6231060D01*
X18324140Y6241650D01*
X18312880Y6245880D01*
X18298400D01*
G01X18312880D02*
X18322530Y6252230D01*
X18330580Y6262810D01*
X18333790Y6275520D01*
X18330580Y6288220D01*
X18322530Y6298800D01*
X18308050Y6305150D01*
X18293580Y6303030D01*
X18279100Y6294570D01*
G01X18573570Y6245880D02*
X18580000Y6252230D01*
X18584830Y6262810D01*
X18588050Y6277640D01*
X18584830Y6290330D01*
X18578400Y6298800D01*
X18567130Y6305150D01*
X18523700D01*
Y6178150D01*
X18576790D01*
X18588050Y6186610D01*
X18594480Y6199320D01*
X18597700Y6214130D01*
X18594480Y6228950D01*
X18584830Y6241650D01*
X18573570Y6245880D01*
X18523700D01*
G01X18690240Y6178150D02*
X18677370Y6180270D01*
X18666110Y6188730D01*
X18656460Y6201430D01*
X18650020Y6216250D01*
X18646800Y6233180D01*
Y6250120D01*
X18650020Y6267050D01*
X18656460Y6281870D01*
X18666110Y6294570D01*
X18677370Y6303030D01*
X18690240Y6305150D01*
X18703110Y6303030D01*
X18714370Y6294570D01*
X18724020Y6281870D01*
X18730460Y6267050D01*
X18733680Y6250120D01*
Y6233180D01*
X18730460Y6216250D01*
X18724020Y6201430D01*
X18714370Y6188730D01*
X18703110Y6180270D01*
X18690240Y6178150D01*
G01X18819780Y6305150D02*
Y6178150D01*
G01X18782780Y6305150D02*
X18856780D01*
G01X18949320D02*
Y6178150D01*
G01X18912320Y6305150D02*
X18986320D01*
G01X19078860Y6178150D02*
X19065990Y6180270D01*
X19054730Y6188730D01*
X19045080Y6201430D01*
X19038640Y6216250D01*
X19035420Y6233180D01*
Y6250120D01*
X19038640Y6267050D01*
X19045080Y6281870D01*
X19054730Y6294570D01*
X19065990Y6303030D01*
X19078860Y6305150D01*
X19091730Y6303030D01*
X19102990Y6294570D01*
X19112640Y6281870D01*
X19119080Y6267050D01*
X19122300Y6250120D01*
Y6233180D01*
X19119080Y6216250D01*
X19112640Y6201430D01*
X19102990Y6188730D01*
X19091730Y6180270D01*
X19078860Y6178150D01*
G01X19166570D02*
Y6305150D01*
X19208400Y6199320D01*
X19250230Y6305150D01*
Y6178150D01*
G01X19502870Y6294570D02*
X19493220Y6300920D01*
X19481960Y6305150D01*
X19469090D01*
X19454610Y6298800D01*
X19443350Y6288220D01*
X19435310Y6275520D01*
X19428870Y6254350D01*
X19427260Y6235300D01*
X19430480Y6216250D01*
X19435310Y6203550D01*
X19444960Y6190850D01*
X19456220Y6182380D01*
X19467480Y6178150D01*
X19478740D01*
X19490000Y6182380D01*
X19499650Y6188730D01*
X19507700Y6197200D01*
G01X19597020Y6178150D02*
X19584150Y6180270D01*
X19572890Y6188730D01*
X19563240Y6201430D01*
X19556800Y6216250D01*
X19553580Y6233180D01*
Y6250120D01*
X19556800Y6267050D01*
X19563240Y6281870D01*
X19572890Y6294570D01*
X19584150Y6303030D01*
X19597020Y6305150D01*
X19609890Y6303030D01*
X19621150Y6294570D01*
X19630800Y6281870D01*
X19637240Y6267050D01*
X19640460Y6250120D01*
Y6233180D01*
X19637240Y6216250D01*
X19630800Y6201430D01*
X19621150Y6188730D01*
X19609890Y6180270D01*
X19597020Y6178150D01*
G01X19689560D02*
Y6305150D01*
X19763560Y6178150D01*
Y6305150D01*
G01X19820710Y6178150D02*
Y6305150D01*
X19852880D01*
X19865750Y6298800D01*
X19875400Y6290330D01*
X19883450Y6277640D01*
X19889880Y6262810D01*
X19891490Y6241650D01*
X19889880Y6220480D01*
X19883450Y6205660D01*
X19875400Y6192960D01*
X19865750Y6184500D01*
X19852880Y6178150D01*
X19820710D01*
G01X19950250Y6305150D02*
Y6214130D01*
X19956680Y6195080D01*
X19969550Y6182380D01*
X19985640Y6178150D01*
X20001730Y6182380D01*
X20014600Y6195080D01*
X20021030Y6214130D01*
Y6305150D01*
G01X20150570Y6294570D02*
X20140920Y6300920D01*
X20129660Y6305150D01*
X20116790D01*
X20102310Y6298800D01*
X20091050Y6288220D01*
X20083010Y6275520D01*
X20076570Y6254350D01*
X20074960Y6235300D01*
X20078180Y6216250D01*
X20083010Y6203550D01*
X20092660Y6190850D01*
X20103920Y6182380D01*
X20115180Y6178150D01*
X20126440D01*
X20137700Y6182380D01*
X20147350Y6188730D01*
X20155400Y6197200D01*
G01X20244720Y6305150D02*
Y6178150D01*
G01X20207720Y6305150D02*
X20281720D01*
G01X20374260Y6178150D02*
X20361390Y6180270D01*
X20350130Y6188730D01*
X20340480Y6201430D01*
X20334040Y6216250D01*
X20330820Y6233180D01*
Y6250120D01*
X20334040Y6267050D01*
X20340480Y6281870D01*
X20350130Y6294570D01*
X20361390Y6303030D01*
X20374260Y6305150D01*
X20387130Y6303030D01*
X20398390Y6294570D01*
X20408040Y6281870D01*
X20414480Y6267050D01*
X20417700Y6250120D01*
Y6233180D01*
X20414480Y6216250D01*
X20408040Y6201430D01*
X20398390Y6188730D01*
X20387130Y6180270D01*
X20374260Y6178150D01*
G01X20471630D02*
Y6305150D01*
X20511840D01*
X20524710Y6298800D01*
X20532760Y6290330D01*
X20535970Y6273400D01*
X20532760Y6256470D01*
X20523100Y6245880D01*
X20511840Y6239530D01*
X20471630D01*
G01X20511840D02*
X20535970Y6178150D01*
G01X18395770Y7379570D02*
X18466550Y7472700D01*
G01X18431160Y7489630D02*
Y7362630D01*
G01X18466550Y7379570D02*
X18395770Y7472700D01*
G01X18382900Y7426130D02*
X18479420D01*
G01X18784390Y7383800D02*
Y7510800D01*
X18816560D01*
X18829430Y7504450D01*
X18839080Y7495980D01*
X18847130Y7483290D01*
X18853560Y7468460D01*
X18855170Y7447300D01*
X18853560Y7426130D01*
X18847130Y7411310D01*
X18839080Y7398610D01*
X18829430Y7390150D01*
X18816560Y7383800D01*
X18784390D01*
G01X18930020Y7510800D02*
X18968620D01*
G01X18949320D02*
Y7383800D01*
G01X18930020D02*
X18968620D01*
G01X19111030D02*
X19046690D01*
Y7510800D01*
X19111030D01*
G01X19085290Y7449420D02*
X19046690D01*
G01X19176230Y7510800D02*
Y7383800D01*
X19240570D01*
G01X19370110D02*
X19305770D01*
Y7510800D01*
X19370110D01*
G01X19344370Y7449420D02*
X19305770D01*
G01X19502870Y7500220D02*
X19493220Y7506570D01*
X19481960Y7510800D01*
X19469090D01*
X19454610Y7504450D01*
X19443350Y7493870D01*
X19435310Y7481170D01*
X19428870Y7460000D01*
X19427260Y7440950D01*
X19430480Y7421900D01*
X19435310Y7409200D01*
X19444960Y7396500D01*
X19456220Y7388030D01*
X19467480Y7383800D01*
X19478740D01*
X19490000Y7388030D01*
X19499650Y7394380D01*
X19507700Y7402850D01*
G01X19597020Y7510800D02*
Y7383800D01*
G01X19560020Y7510800D02*
X19634020D01*
G01X19694390Y7383800D02*
Y7510800D01*
X19734600D01*
X19747470Y7504450D01*
X19755520Y7495980D01*
X19758730Y7479050D01*
X19755520Y7462120D01*
X19745860Y7451530D01*
X19734600Y7445180D01*
X19694390D01*
G01X19734600D02*
X19758730Y7383800D01*
G01X19836800Y7510800D02*
X19875400D01*
G01X19856100D02*
Y7383800D01*
G01X19836800D02*
X19875400D01*
G01X20021030Y7500220D02*
X20011380Y7506570D01*
X20000120Y7510800D01*
X19987250D01*
X19972770Y7504450D01*
X19961510Y7493870D01*
X19953470Y7481170D01*
X19947030Y7460000D01*
X19945420Y7440950D01*
X19948640Y7421900D01*
X19953470Y7409200D01*
X19963120Y7396500D01*
X19974380Y7388030D01*
X19985640Y7383800D01*
X19996900D01*
X20008160Y7388030D01*
X20017810Y7394380D01*
X20025860Y7402850D01*
G01X18139910Y8688680D02*
Y8561680D01*
X18204250D01*
G01X18271050Y8667510D02*
X18280710Y8680210D01*
X18291970Y8686560D01*
X18304840Y8688680D01*
X18320920Y8684450D01*
X18332190Y8673860D01*
X18335400Y8661170D01*
X18333790Y8648460D01*
X18327360Y8637880D01*
X18295190Y8616710D01*
X18280710Y8601900D01*
X18271050Y8580730D01*
X18267840Y8561680D01*
X18335400D01*
G01X18528530D02*
Y8688680D01*
X18567130D01*
X18580000Y8682330D01*
X18589660Y8667510D01*
X18592870Y8650580D01*
X18589660Y8633650D01*
X18581610Y8620950D01*
X18567130Y8614590D01*
X18528530D01*
G01X18690240Y8561680D02*
X18677370Y8563800D01*
X18666110Y8572260D01*
X18656460Y8584960D01*
X18650020Y8599780D01*
X18646800Y8616710D01*
Y8633650D01*
X18650020Y8650580D01*
X18656460Y8665400D01*
X18666110Y8678100D01*
X18677370Y8686560D01*
X18690240Y8688680D01*
X18703110Y8686560D01*
X18714370Y8678100D01*
X18724020Y8665400D01*
X18730460Y8650580D01*
X18733680Y8633650D01*
Y8616710D01*
X18730460Y8599780D01*
X18724020Y8584960D01*
X18714370Y8572260D01*
X18703110Y8563800D01*
X18690240Y8561680D01*
G01X18771520Y8688680D02*
X18794040Y8561680D01*
X18819780Y8688680D01*
X18845520Y8561680D01*
X18868040Y8688680D01*
G01X18981490Y8561680D02*
X18917150D01*
Y8688680D01*
X18981490D01*
G01X18955750Y8627300D02*
X18917150D01*
G01X19046690Y8561680D02*
Y8688680D01*
X19086900D01*
X19099770Y8682330D01*
X19107820Y8673860D01*
X19111030Y8656930D01*
X19107820Y8640000D01*
X19098160Y8629410D01*
X19086900Y8623060D01*
X19046690D01*
G01X19086900D02*
X19111030Y8561680D01*
G01X19305770D02*
Y8688680D01*
X19344370D01*
X19357240Y8682330D01*
X19366900Y8667510D01*
X19370110Y8650580D01*
X19366900Y8633650D01*
X19358850Y8620950D01*
X19344370Y8614590D01*
X19305770D01*
G01X19435310Y8688680D02*
Y8561680D01*
X19499650D01*
G01X19556800D02*
X19597020Y8688680D01*
X19637240Y8561680D01*
G01X19622760Y8606130D02*
X19571280D01*
G01X19689560Y8561680D02*
Y8688680D01*
X19763560Y8561680D01*
Y8688680D01*
G01X19888270Y8561680D02*
X19823930D01*
Y8688680D01*
X19888270D01*
G01X19862530Y8627300D02*
X19823930D01*
G01X20083010Y8561680D02*
Y8688680D01*
X20121610D01*
X20134480Y8682330D01*
X20144140Y8667510D01*
X20147350Y8650580D01*
X20144140Y8633650D01*
X20136090Y8620950D01*
X20121610Y8614590D01*
X20083010D01*
G01X20212550Y8688680D02*
Y8561680D01*
X20276890D01*
G01X20334040D02*
X20374260Y8688680D01*
X20414480Y8561680D01*
G01X20400000Y8606130D02*
X20348520D01*
G01X20466800Y8561680D02*
Y8688680D01*
X20540800Y8561680D01*
Y8688680D01*
G01X20665510Y8561680D02*
X20601170D01*
Y8688680D01*
X20665510D01*
G01X20639770Y8627300D02*
X20601170D01*
G01X18395770Y9763100D02*
X18466550Y9856230D01*
G01X18431160Y9873160D02*
Y9746160D01*
G01X18466550Y9763100D02*
X18395770Y9856230D01*
G01X18382900Y9809660D02*
X18479420D01*
G01X18784390Y9767330D02*
Y9894330D01*
X18816560D01*
X18829430Y9887980D01*
X18839080Y9879510D01*
X18847130Y9866820D01*
X18853560Y9851990D01*
X18855170Y9830830D01*
X18853560Y9809660D01*
X18847130Y9794840D01*
X18839080Y9782140D01*
X18829430Y9773680D01*
X18816560Y9767330D01*
X18784390D01*
G01X18930020Y9894330D02*
X18968620D01*
G01X18949320D02*
Y9767330D01*
G01X18930020D02*
X18968620D01*
G01X19111030D02*
X19046690D01*
Y9894330D01*
X19111030D01*
G01X19085290Y9832950D02*
X19046690D01*
G01X19176230Y9894330D02*
Y9767330D01*
X19240570D01*
G01X19370110D02*
X19305770D01*
Y9894330D01*
X19370110D01*
G01X19344370Y9832950D02*
X19305770D01*
G01X19502870Y9883750D02*
X19493220Y9890100D01*
X19481960Y9894330D01*
X19469090D01*
X19454610Y9887980D01*
X19443350Y9877400D01*
X19435310Y9864700D01*
X19428870Y9843530D01*
X19427260Y9824480D01*
X19430480Y9805430D01*
X19435310Y9792730D01*
X19444960Y9780030D01*
X19456220Y9771560D01*
X19467480Y9767330D01*
X19478740D01*
X19490000Y9771560D01*
X19499650Y9777910D01*
X19507700Y9786380D01*
G01X19597020Y9894330D02*
Y9767330D01*
G01X19560020Y9894330D02*
X19634020D01*
G01X19694390Y9767330D02*
Y9894330D01*
X19734600D01*
X19747470Y9887980D01*
X19755520Y9879510D01*
X19758730Y9862580D01*
X19755520Y9845650D01*
X19745860Y9835060D01*
X19734600Y9828710D01*
X19694390D01*
G01X19734600D02*
X19758730Y9767330D01*
G01X19836800Y9894330D02*
X19875400D01*
G01X19856100D02*
Y9767330D01*
G01X19836800D02*
X19875400D01*
G01X20021030Y9883750D02*
X20011380Y9890100D01*
X20000120Y9894330D01*
X19987250D01*
X19972770Y9887980D01*
X19961510Y9877400D01*
X19953470Y9864700D01*
X19947030Y9843530D01*
X19945420Y9824480D01*
X19948640Y9805430D01*
X19953470Y9792730D01*
X19963120Y9780030D01*
X19974380Y9771560D01*
X19985640Y9767330D01*
X19996900D01*
X20008160Y9771560D01*
X20017810Y9777910D01*
X20025860Y9786380D01*
G01X18395770Y11152640D02*
X18466550Y11245770D01*
G01X18431160Y11262700D02*
Y11135700D01*
G01X18466550Y11152640D02*
X18395770Y11245770D01*
G01X18382900Y11199200D02*
X18479420D01*
G01X18786000Y11173800D02*
X18798870Y11163220D01*
X18813350Y11156870D01*
X18826210D01*
X18839080Y11163220D01*
X18848740Y11173800D01*
X18853560Y11188620D01*
X18850350Y11203430D01*
X18842300Y11216140D01*
X18827820Y11224600D01*
X18808520Y11228840D01*
X18797260Y11237300D01*
X18792430Y11252120D01*
X18795650Y11266940D01*
X18803690Y11277520D01*
X18814950Y11283870D01*
X18826210D01*
X18837480Y11279640D01*
X18847130Y11269050D01*
G01X18913930Y11283870D02*
Y11192850D01*
X18920360Y11173800D01*
X18933230Y11161100D01*
X18949320Y11156870D01*
X18965410Y11161100D01*
X18978280Y11173800D01*
X18984710Y11192850D01*
Y11283870D01*
G01X19046690Y11156870D02*
Y11283870D01*
X19086900D01*
X19099770Y11277520D01*
X19107820Y11269050D01*
X19111030Y11252120D01*
X19107820Y11235190D01*
X19098160Y11224600D01*
X19086900Y11218250D01*
X19046690D01*
G01X19086900D02*
X19111030Y11156870D01*
G01X19177830D02*
Y11283870D01*
X19238970D01*
G01X19216440Y11222490D02*
X19177830D01*
G01X19297720Y11156870D02*
X19337940Y11283870D01*
X19378160Y11156870D01*
G01X19363680Y11201320D02*
X19312200D01*
G01X19502870Y11273290D02*
X19493220Y11279640D01*
X19481960Y11283870D01*
X19469090D01*
X19454610Y11277520D01*
X19443350Y11266940D01*
X19435310Y11254240D01*
X19428870Y11233070D01*
X19427260Y11214020D01*
X19430480Y11194970D01*
X19435310Y11182270D01*
X19444960Y11169570D01*
X19456220Y11161100D01*
X19467480Y11156870D01*
X19478740D01*
X19490000Y11161100D01*
X19499650Y11167450D01*
X19507700Y11175920D01*
G01X19629190Y11156870D02*
X19564850D01*
Y11283870D01*
X19629190D01*
G01X19603450Y11222490D02*
X19564850D01*
G01X18139910Y11072210D02*
Y10945210D01*
X18204250D01*
G01X18301620D02*
Y11072210D01*
X18282320Y11046810D01*
G01Y10945210D02*
X18320920D01*
G01X18560700Y11072210D02*
Y10945210D01*
G01X18523700Y11072210D02*
X18597700D01*
G01X18690240Y10945210D02*
X18677370Y10947330D01*
X18666110Y10955790D01*
X18656460Y10968490D01*
X18650020Y10983310D01*
X18646800Y11000240D01*
Y11017180D01*
X18650020Y11034110D01*
X18656460Y11048930D01*
X18666110Y11061630D01*
X18677370Y11070090D01*
X18690240Y11072210D01*
X18703110Y11070090D01*
X18714370Y11061630D01*
X18724020Y11048930D01*
X18730460Y11034110D01*
X18733680Y11017180D01*
Y11000240D01*
X18730460Y10983310D01*
X18724020Y10968490D01*
X18714370Y10955790D01*
X18703110Y10947330D01*
X18690240Y10945210D01*
G01X18787610D02*
Y11072210D01*
X18826210D01*
X18839080Y11065860D01*
X18848740Y11051040D01*
X18851950Y11034110D01*
X18848740Y11017180D01*
X18840690Y11004480D01*
X18826210Y10998120D01*
X18787610D01*
G01X19114250Y11061630D02*
X19104600Y11067980D01*
X19093340Y11072210D01*
X19080470D01*
X19065990Y11065860D01*
X19054730Y11055280D01*
X19046690Y11042580D01*
X19040250Y11021410D01*
X19038640Y11002360D01*
X19041860Y10983310D01*
X19046690Y10970610D01*
X19056340Y10957910D01*
X19067600Y10949440D01*
X19078860Y10945210D01*
X19090120D01*
X19101380Y10949440D01*
X19111030Y10955790D01*
X19119080Y10964260D01*
G01X19208400Y10945210D02*
X19195530Y10947330D01*
X19184270Y10955790D01*
X19174620Y10968490D01*
X19168180Y10983310D01*
X19164960Y11000240D01*
Y11017180D01*
X19168180Y11034110D01*
X19174620Y11048930D01*
X19184270Y11061630D01*
X19195530Y11070090D01*
X19208400Y11072210D01*
X19221270Y11070090D01*
X19232530Y11061630D01*
X19242180Y11048930D01*
X19248620Y11034110D01*
X19251840Y11017180D01*
Y11000240D01*
X19248620Y10983310D01*
X19242180Y10968490D01*
X19232530Y10955790D01*
X19221270Y10947330D01*
X19208400Y10945210D01*
G01X19300940D02*
Y11072210D01*
X19374940Y10945210D01*
Y11072210D01*
G01X19432090Y10945210D02*
Y11072210D01*
X19464260D01*
X19477130Y11065860D01*
X19486780Y11057390D01*
X19494830Y11044700D01*
X19501260Y11029870D01*
X19502870Y11008710D01*
X19501260Y10987540D01*
X19494830Y10972720D01*
X19486780Y10960020D01*
X19477130Y10951560D01*
X19464260Y10945210D01*
X19432090D01*
G01X19561630Y11072210D02*
Y10981190D01*
X19568060Y10962140D01*
X19580930Y10949440D01*
X19597020Y10945210D01*
X19613110Y10949440D01*
X19625980Y10962140D01*
X19632410Y10981190D01*
Y11072210D01*
G01X19761950Y11061630D02*
X19752300Y11067980D01*
X19741040Y11072210D01*
X19728170D01*
X19713690Y11065860D01*
X19702430Y11055280D01*
X19694390Y11042580D01*
X19687950Y11021410D01*
X19686340Y11002360D01*
X19689560Y10983310D01*
X19694390Y10970610D01*
X19704040Y10957910D01*
X19715300Y10949440D01*
X19726560Y10945210D01*
X19737820D01*
X19749080Y10949440D01*
X19758730Y10955790D01*
X19766780Y10964260D01*
G01X19856100Y11072210D02*
Y10945210D01*
G01X19819100Y11072210D02*
X19893100D01*
G01X19985640Y10945210D02*
X19972770Y10947330D01*
X19961510Y10955790D01*
X19951860Y10968490D01*
X19945420Y10983310D01*
X19942200Y11000240D01*
Y11017180D01*
X19945420Y11034110D01*
X19951860Y11048930D01*
X19961510Y11061630D01*
X19972770Y11070090D01*
X19985640Y11072210D01*
X19998510Y11070090D01*
X20009770Y11061630D01*
X20019420Y11048930D01*
X20025860Y11034110D01*
X20029080Y11017180D01*
Y11000240D01*
X20025860Y10983310D01*
X20019420Y10968490D01*
X20009770Y10955790D01*
X19998510Y10947330D01*
X19985640Y10945210D01*
G01X20083010D02*
Y11072210D01*
X20123220D01*
X20136090Y11065860D01*
X20144140Y11057390D01*
X20147350Y11040460D01*
X20144140Y11023530D01*
X20134480Y11012940D01*
X20123220Y11006590D01*
X20083010D01*
G01X20123220D02*
X20147350Y10945210D01*
G01X18310450Y14334300D02*
Y14588300D01*
X18389820D01*
X18415220Y14575590D01*
X18431100Y14558670D01*
X18437450Y14524800D01*
X18431100Y14490930D01*
X18412050Y14469770D01*
X18389820Y14457060D01*
X18310450D01*
G01X18389820D02*
X18437450Y14334300D01*
G01X18691450D02*
X18564450D01*
Y14588300D01*
X18691450D01*
G01X18640650Y14465540D02*
X18564450D01*
G01X18802570Y14588300D02*
X18881950Y14334300D01*
X18961330Y14588300D01*
G01X19097850D02*
X19174040D01*
G01X19135950D02*
Y14334300D01*
G01X19097850D02*
X19174040D01*
G01X19323270Y14368160D02*
X19348680Y14347000D01*
X19377250Y14334300D01*
X19402650D01*
X19428050Y14347000D01*
X19447100Y14368160D01*
X19456630Y14397800D01*
X19450280Y14427430D01*
X19434400Y14452830D01*
X19405820Y14469770D01*
X19367730Y14478230D01*
X19345500Y14495160D01*
X19335970Y14524800D01*
X19342330Y14554430D01*
X19358200Y14575590D01*
X19380420Y14588300D01*
X19402650D01*
X19424880Y14579840D01*
X19443930Y14558670D01*
G01X19605850Y14588300D02*
X19682040D01*
G01X19643950D02*
Y14334300D01*
G01X19605850D02*
X19682040D01*
G01X19897950D02*
X19872550Y14338530D01*
X19850330Y14355460D01*
X19831270Y14380860D01*
X19818570Y14410500D01*
X19812220Y14444370D01*
Y14478230D01*
X19818570Y14512100D01*
X19831270Y14541740D01*
X19850330Y14567130D01*
X19872550Y14584070D01*
X19897950Y14588300D01*
X19923350Y14584070D01*
X19945570Y14567130D01*
X19964630Y14541740D01*
X19977330Y14512100D01*
X19983680Y14478230D01*
Y14444370D01*
X19977330Y14410500D01*
X19964630Y14380860D01*
X19945570Y14355460D01*
X19923350Y14338530D01*
X19897950Y14334300D01*
G01X20078930D02*
Y14588300D01*
X20224970Y14334300D01*
Y14588300D01*
G01X20339270Y14368160D02*
X20364680Y14347000D01*
X20393250Y14334300D01*
X20418650D01*
X20444050Y14347000D01*
X20463100Y14368160D01*
X20472630Y14397800D01*
X20466280Y14427430D01*
X20450400Y14452830D01*
X20421820Y14469770D01*
X20383730Y14478230D01*
X20361500Y14495160D01*
X20351970Y14524800D01*
X20358330Y14554430D01*
X20374200Y14575590D01*
X20396420Y14588300D01*
X20418650D01*
X20440880Y14579840D01*
X20459930Y14558670D01*
G01X19167700Y-4652200D02*
Y-3636200D01*
G01X19447100Y-4017200D02*
Y-3763200D01*
X19510600D01*
X19536000Y-3775910D01*
X19555050Y-3792830D01*
X19570930Y-3818230D01*
X19583630Y-3847870D01*
X19586800Y-3890200D01*
X19583630Y-3932540D01*
X19570930Y-3962170D01*
X19555050Y-3987570D01*
X19536000Y-4004500D01*
X19510600Y-4017200D01*
X19447100D01*
G01X19675700Y-3763200D02*
X19720150Y-4017200D01*
X19770950Y-3763200D01*
X19821750Y-4017200D01*
X19866200Y-3763200D01*
G01X20044000Y-3890200D02*
X20107500D01*
Y-3966400D01*
X20088450Y-3991810D01*
X20066220Y-4008740D01*
X20034480Y-4017200D01*
X20002730Y-4008740D01*
X19980500Y-3991810D01*
X19961450Y-3966400D01*
X19948750Y-3936770D01*
X19942400Y-3902900D01*
Y-3873270D01*
X19948750Y-3847870D01*
X19961450Y-3818230D01*
X19980500Y-3792830D01*
X19999550Y-3775910D01*
X20024950Y-3763200D01*
X20047170D01*
X20072570Y-3771660D01*
X20091630Y-3788600D01*
G01X20459930Y-4017200D02*
Y-3763200D01*
X20605970Y-4017200D01*
Y-3763200D01*
G01X20786950Y-4017200D02*
X20761550Y-4012970D01*
X20739330Y-3996040D01*
X20720270Y-3970640D01*
X20707570Y-3941000D01*
X20701220Y-3907130D01*
Y-3873270D01*
X20707570Y-3839400D01*
X20720270Y-3809760D01*
X20739330Y-3784370D01*
X20761550Y-3767430D01*
X20786950Y-3763200D01*
X20812350Y-3767430D01*
X20834570Y-3784370D01*
X20853630Y-3809760D01*
X20866330Y-3839400D01*
X20872680Y-3873270D01*
Y-3907130D01*
X20866330Y-3941000D01*
X20853630Y-3970640D01*
X20834570Y-3996040D01*
X20812350Y-4012970D01*
X20786950Y-4017200D01*
G01X19407860Y-36250D02*
Y281250D01*
X19588960Y-36250D01*
Y281250D01*
G01X19813370Y-36250D02*
X19781870Y-30960D01*
X19754320Y-9800D01*
X19730690Y21960D01*
X19714940Y59000D01*
X19707070Y101330D01*
Y143670D01*
X19714940Y186000D01*
X19730690Y223040D01*
X19754320Y254790D01*
X19781870Y275960D01*
X19813370Y281250D01*
X19844860Y275960D01*
X19872420Y254790D01*
X19896050Y223040D01*
X19911800Y186000D01*
X19919670Y143670D01*
Y101330D01*
X19911800Y59000D01*
X19896050Y21960D01*
X19872420Y-9800D01*
X19844860Y-30960D01*
X19813370Y-36250D01*
G01X20037780D02*
Y281250D01*
X20218880Y-36250D01*
Y281250D01*
G01X20392110Y69580D02*
X20494470D01*
G01X20679510Y-36250D02*
Y281250D01*
X20774000D01*
X20805490Y265370D01*
X20829120Y228330D01*
X20836990Y186000D01*
X20829120Y143670D01*
X20809430Y111910D01*
X20774000Y96030D01*
X20679510D01*
G01X20994470Y281250D02*
Y-36250D01*
X21151950D01*
G01X21289740D02*
X21388170Y281250D01*
X21486600Y-36250D01*
G01X21451160Y74870D02*
X21325170D01*
G01X21703130Y281250D02*
Y-36250D01*
G01X21612580Y281250D02*
X21793680D01*
G01X22096830Y-36250D02*
X21939350D01*
Y281250D01*
X22096830D01*
G01X22033840Y127800D02*
X21939350D01*
G01X22246440Y-36250D02*
Y281250D01*
X22325170D01*
X22356670Y265370D01*
X22380290Y244210D01*
X22399980Y212460D01*
X22415730Y175410D01*
X22419660Y122500D01*
X22415730Y69580D01*
X22399980Y32540D01*
X22380290Y780D01*
X22356670Y-20380D01*
X22325170Y-36250D01*
X22246440D01*
G01X19301560Y3615000D02*
Y-195000D01*
G01X20049590Y598750D02*
Y916250D01*
X20144080D01*
X20175570Y900370D01*
X20199200Y863330D01*
X20207070Y821000D01*
X20199200Y778670D01*
X20179510Y746910D01*
X20144080Y731030D01*
X20049590D01*
G01X20364550Y916250D02*
Y598750D01*
X20522030D01*
G01X20659820D02*
X20758250Y916250D01*
X20856680Y598750D01*
G01X20821240Y709870D02*
X20695250D01*
G01X21073210Y916250D02*
Y598750D01*
G01X20982660Y916250D02*
X21163760D01*
G01X21466910Y598750D02*
X21309430D01*
Y916250D01*
X21466910D01*
G01X21403920Y762800D02*
X21309430D01*
G01X21616520Y598750D02*
Y916250D01*
X21695250D01*
X21726750Y900370D01*
X21750370Y879210D01*
X21770060Y847460D01*
X21785810Y810410D01*
X21789740Y757500D01*
X21785810Y704580D01*
X21770060Y667540D01*
X21750370Y635780D01*
X21726750Y614620D01*
X21695250Y598750D01*
X21616520D01*
G01X20049590Y1233750D02*
Y1551250D01*
X20144080D01*
X20175570Y1535370D01*
X20199200Y1498330D01*
X20207070Y1456000D01*
X20199200Y1413670D01*
X20179510Y1381910D01*
X20144080Y1366030D01*
X20049590D01*
G01X20364550Y1551250D02*
Y1233750D01*
X20522030D01*
G01X20659820D02*
X20758250Y1551250D01*
X20856680Y1233750D01*
G01X20821240Y1344870D02*
X20695250D01*
G01X21073210Y1551250D02*
Y1233750D01*
G01X20982660Y1551250D02*
X21163760D01*
G01X21466910Y1233750D02*
X21309430D01*
Y1551250D01*
X21466910D01*
G01X21403920Y1397800D02*
X21309430D01*
G01X21616520Y1233750D02*
Y1551250D01*
X21695250D01*
X21726750Y1535370D01*
X21750370Y1514210D01*
X21770060Y1482460D01*
X21785810Y1445410D01*
X21789740Y1392500D01*
X21785810Y1339580D01*
X21770060Y1302540D01*
X21750370Y1270780D01*
X21726750Y1249620D01*
X21695250Y1233750D01*
X21616520D01*
G01X20049590Y1868750D02*
Y2186250D01*
X20144080D01*
X20175570Y2170370D01*
X20199200Y2133330D01*
X20207070Y2091000D01*
X20199200Y2048670D01*
X20179510Y2016910D01*
X20144080Y2001030D01*
X20049590D01*
G01X20364550Y2186250D02*
Y1868750D01*
X20522030D01*
G01X20659820D02*
X20758250Y2186250D01*
X20856680Y1868750D01*
G01X20821240Y1979870D02*
X20695250D01*
G01X21073210Y2186250D02*
Y1868750D01*
G01X20982660Y2186250D02*
X21163760D01*
G01X21466910Y1868750D02*
X21309430D01*
Y2186250D01*
X21466910D01*
G01X21403920Y2032800D02*
X21309430D01*
G01X21616520Y1868750D02*
Y2186250D01*
X21695250D01*
X21726750Y2170370D01*
X21750370Y2149210D01*
X21770060Y2117460D01*
X21785810Y2080410D01*
X21789740Y2027500D01*
X21785810Y1974580D01*
X21770060Y1937540D01*
X21750370Y1905780D01*
X21726750Y1884620D01*
X21695250Y1868750D01*
X21616520D01*
G01X20049590Y2503750D02*
Y2821250D01*
X20144080D01*
X20175570Y2805370D01*
X20199200Y2768330D01*
X20207070Y2726000D01*
X20199200Y2683670D01*
X20179510Y2651910D01*
X20144080Y2636030D01*
X20049590D01*
G01X20364550Y2821250D02*
Y2503750D01*
X20522030D01*
G01X20659820D02*
X20758250Y2821250D01*
X20856680Y2503750D01*
G01X20821240Y2614870D02*
X20695250D01*
G01X21073210Y2821250D02*
Y2503750D01*
G01X20982660Y2821250D02*
X21163760D01*
G01X21466910Y2503750D02*
X21309430D01*
Y2821250D01*
X21466910D01*
G01X21403920Y2667800D02*
X21309430D01*
G01X21616520Y2503750D02*
Y2821250D01*
X21695250D01*
X21726750Y2805370D01*
X21750370Y2784210D01*
X21770060Y2752460D01*
X21785810Y2715410D01*
X21789740Y2662500D01*
X21785810Y2609580D01*
X21770060Y2572540D01*
X21750370Y2540780D01*
X21726750Y2519620D01*
X21695250Y2503750D01*
X21616520D01*
G01X20049590Y3138750D02*
Y3456250D01*
X20144080D01*
X20175570Y3440370D01*
X20199200Y3403330D01*
X20207070Y3361000D01*
X20199200Y3318670D01*
X20179510Y3286910D01*
X20144080Y3271030D01*
X20049590D01*
G01X20364550Y3456250D02*
Y3138750D01*
X20522030D01*
G01X20659820D02*
X20758250Y3456250D01*
X20856680Y3138750D01*
G01X20821240Y3249870D02*
X20695250D01*
G01X21073210Y3456250D02*
Y3138750D01*
G01X20982660Y3456250D02*
X21163760D01*
G01X21466910Y3138750D02*
X21309430D01*
Y3456250D01*
X21466910D01*
G01X21403920Y3302800D02*
X21309430D01*
G01X21616520Y3138750D02*
Y3456250D01*
X21695250D01*
X21726750Y3440370D01*
X21750370Y3419210D01*
X21770060Y3387460D01*
X21785810Y3350410D01*
X21789740Y3297500D01*
X21785810Y3244580D01*
X21770060Y3207540D01*
X21750370Y3175780D01*
X21726750Y3154620D01*
X21695250Y3138750D01*
X21616520D01*
G01X21199700Y-5414200D02*
Y-4652200D01*
X25517700D01*
G01X20691700Y12556300D02*
Y11794300D01*
G01Y12302300D02*
Y13318300D01*
G01D02*
Y14080300D01*
G01X21482270Y-4999340D02*
X21507680Y-5020500D01*
X21536250Y-5033200D01*
X21561650D01*
X21587050Y-5020500D01*
X21606100Y-4999340D01*
X21615630Y-4969700D01*
X21609280Y-4940070D01*
X21593400Y-4914670D01*
X21564820Y-4897730D01*
X21526730Y-4889270D01*
X21504500Y-4872340D01*
X21494970Y-4842700D01*
X21501330Y-4813070D01*
X21517200Y-4791910D01*
X21539420Y-4779200D01*
X21561650D01*
X21583880Y-4787660D01*
X21602930Y-4808830D01*
G01X21736270Y-5033200D02*
Y-4779200D01*
G01X21869630D02*
Y-5033200D01*
G01Y-4906200D02*
X21736270D01*
G01X22120450Y-5033200D02*
X21993450D01*
Y-4779200D01*
X22120450D01*
G01X22069650Y-4901960D02*
X21993450D01*
G01X22374450Y-5033200D02*
X22247450D01*
Y-4779200D01*
X22374450D01*
G01X22323650Y-4901960D02*
X22247450D01*
G01X22564950Y-4779200D02*
Y-5033200D01*
G01X22491930Y-4779200D02*
X22637970D01*
G01X21352100Y13572300D02*
Y13826300D01*
X21415600D01*
X21441000Y13813590D01*
X21460050Y13796670D01*
X21475930Y13771270D01*
X21488630Y13741630D01*
X21491800Y13699300D01*
X21488630Y13656960D01*
X21475930Y13627330D01*
X21460050Y13601930D01*
X21441000Y13585000D01*
X21415600Y13572300D01*
X21352100D01*
G01X21596570D02*
X21675950Y13826300D01*
X21755330Y13572300D01*
G01X21726750Y13661200D02*
X21625150D01*
G01X21929950Y13826300D02*
Y13572300D01*
G01X21856930Y13826300D02*
X22002970D01*
G01X22247450Y13572300D02*
X22120450D01*
Y13826300D01*
X22247450D01*
G01X22196650Y13703540D02*
X22120450D01*
G01X22529900Y3615000D02*
Y-195000D01*
G01X23561390Y-36250D02*
Y281250D01*
X23415720Y53710D01*
X23612580D01*
G01X23561390Y598750D02*
Y916250D01*
X23415720Y688710D01*
X23612580D01*
G01X23439340Y1366030D02*
X23466910Y1403090D01*
X23490530Y1424250D01*
X23522030Y1434830D01*
X23549590Y1424250D01*
X23569270Y1403090D01*
X23585020Y1371330D01*
X23588960Y1334290D01*
X23585020Y1302540D01*
X23569270Y1270780D01*
X23545640Y1244330D01*
X23518090Y1233750D01*
X23486590Y1244330D01*
X23459030Y1276070D01*
X23443280Y1323710D01*
X23439340Y1376620D01*
X23447220Y1445410D01*
X23459030Y1482460D01*
X23478710Y1519500D01*
X23506270Y1545960D01*
X23533830Y1551250D01*
X23561390Y1540670D01*
X23581080Y1514210D01*
G01X23281860Y2133330D02*
X23305490Y2165080D01*
X23333050Y2180960D01*
X23364550Y2186250D01*
X23403910Y2175670D01*
X23431480Y2149210D01*
X23439350Y2117460D01*
X23435410Y2085700D01*
X23419660Y2059250D01*
X23340920Y2006330D01*
X23305490Y1969290D01*
X23281860Y1916360D01*
X23273990Y1868750D01*
X23439350D01*
G01X23671630Y2186250D02*
X23640130Y2175670D01*
X23616510Y2149210D01*
X23600760Y2117460D01*
X23588950Y2075120D01*
X23585020Y2027500D01*
X23588950Y1979870D01*
X23600760Y1937540D01*
X23616510Y1905780D01*
X23640130Y1879330D01*
X23671630Y1868750D01*
X23703120Y1879330D01*
X23726750Y1905780D01*
X23742500Y1937540D01*
X23754310Y1979870D01*
X23758240Y2027500D01*
X23754310Y2075120D01*
X23742500Y2117460D01*
X23726750Y2149210D01*
X23703120Y2175670D01*
X23671630Y2186250D01*
G01X23270060Y2567250D02*
X23293670Y2530200D01*
X23325170Y2509040D01*
X23360610Y2503750D01*
X23392110Y2509040D01*
X23423600Y2535490D01*
X23443280Y2567250D01*
X23447220Y2599000D01*
X23439350Y2636030D01*
X23411790Y2662500D01*
X23384230Y2673090D01*
X23348790D01*
G01X23384230D02*
X23407850Y2688960D01*
X23427540Y2715410D01*
X23435410Y2747160D01*
X23427540Y2778920D01*
X23407850Y2805370D01*
X23372420Y2821250D01*
X23336990Y2815960D01*
X23301550Y2794790D01*
G01X23585020Y2567250D02*
X23608630Y2530200D01*
X23640130Y2509040D01*
X23675570Y2503750D01*
X23707070Y2509040D01*
X23738560Y2535490D01*
X23758240Y2567250D01*
X23762180Y2599000D01*
X23754310Y2636030D01*
X23726750Y2662500D01*
X23699190Y2673090D01*
X23663750D01*
G01X23699190D02*
X23722810Y2688960D01*
X23742500Y2715410D01*
X23750370Y2747160D01*
X23742500Y2778920D01*
X23722810Y2805370D01*
X23687380Y2821250D01*
X23651950Y2815960D01*
X23616510Y2794790D01*
G01X23199190Y3138750D02*
X23167690Y3144040D01*
X23140140Y3165200D01*
X23116510Y3196960D01*
X23100760Y3234000D01*
X23092890Y3276330D01*
Y3318670D01*
X23100760Y3361000D01*
X23116510Y3398040D01*
X23140140Y3429790D01*
X23167690Y3450960D01*
X23199190Y3456250D01*
X23230680Y3450960D01*
X23258240Y3429790D01*
X23281870Y3398040D01*
X23297620Y3361000D01*
X23305490Y3318670D01*
Y3276330D01*
X23297620Y3234000D01*
X23281870Y3196960D01*
X23258240Y3165200D01*
X23230680Y3144040D01*
X23199190Y3138750D01*
G01X23230680Y3223420D02*
X23277930Y3138750D01*
G01X23514150Y3456250D02*
Y3138750D01*
G01X23423600Y3456250D02*
X23604700D01*
G01X23829110Y3138750D02*
Y3281620D01*
X23750370Y3456250D01*
G01X23907850D02*
X23829110Y3281620D01*
G01X22977700Y12556300D02*
Y11794300D01*
G01Y12556300D02*
Y13318300D01*
G01X23247570Y13572300D02*
X23326950Y13826300D01*
X23406330Y13572300D01*
G01X23377750Y13661200D02*
X23276150D01*
G01X23517450Y13572300D02*
Y13826300D01*
X23593650D01*
X23619050Y13813590D01*
X23638100Y13783970D01*
X23644450Y13750100D01*
X23638100Y13716230D01*
X23622220Y13690830D01*
X23593650Y13678130D01*
X23517450D01*
G01X23771450Y13572300D02*
Y13826300D01*
X23847650D01*
X23873050Y13813590D01*
X23892100Y13783970D01*
X23898450Y13750100D01*
X23892100Y13716230D01*
X23876220Y13690830D01*
X23847650Y13678130D01*
X23771450D01*
G01X24025450Y13572300D02*
Y13826300D01*
X24104820D01*
X24130220Y13813590D01*
X24146100Y13796670D01*
X24152450Y13762800D01*
X24146100Y13728930D01*
X24127050Y13707770D01*
X24104820Y13695060D01*
X24025450D01*
G01X24104820D02*
X24152450Y13572300D01*
G01X24342950D02*
X24317550Y13576530D01*
X24295330Y13593460D01*
X24276270Y13618860D01*
X24263570Y13648500D01*
X24257220Y13682370D01*
Y13716230D01*
X24263570Y13750100D01*
X24276270Y13779740D01*
X24295330Y13805130D01*
X24317550Y13822070D01*
X24342950Y13826300D01*
X24368350Y13822070D01*
X24390570Y13805130D01*
X24409630Y13779740D01*
X24422330Y13750100D01*
X24428680Y13716230D01*
Y13682370D01*
X24422330Y13648500D01*
X24409630Y13618860D01*
X24390570Y13593460D01*
X24368350Y13576530D01*
X24342950Y13572300D01*
G01X24517570Y13826300D02*
X24596950Y13572300D01*
X24676330Y13826300D01*
G01X24914450Y13572300D02*
X24787450D01*
Y13826300D01*
X24914450D01*
G01X24863650Y13703540D02*
X24787450D01*
G01X25035100Y13572300D02*
Y13826300D01*
X25098600D01*
X25124000Y13813590D01*
X25143050Y13796670D01*
X25158930Y13771270D01*
X25171630Y13741630D01*
X25174800Y13699300D01*
X25171630Y13656960D01*
X25158930Y13627330D01*
X25143050Y13601930D01*
X25124000Y13585000D01*
X25098600Y13572300D01*
X25035100D01*
G01X22977700Y13318300D02*
Y14080300D01*
G01X25517700Y14842300D02*
Y11794300D01*
M02*
