G04 ================== begin FILE IDENTIFICATION RECORD ==================*
G04 Layout Name:  PCB EDITOR TUTORIAL.brd*
G04 Film Name:    ASSEMBLY*
G04 File Format:  Gerber RS274X*
G04 File Origin:  Cadence Allegro 17.2-S037*
G04 Origin Date:  Thu Apr 12 20:21:19 2018*
G04 *
G04 Layer:  REF DES/ASSEMBLY_TOP*
G04 Layer:  PIN/TOP*
G04 Layer:  PACKAGE GEOMETRY/ASSEMBLY_TOP*
G04 Layer:  DRAWING FORMAT/OUTLINE*
G04 Layer:  DRAWING FORMAT/TITLE_BLOCK*
G04 Layer:  DRAWING FORMAT/TITLE_DATA*
G04 Layer:  DRAWING FORMAT/REVISION_BLOCK*
G04 Layer:  DRAWING FORMAT/REVISION_DATA*
G04 Layer:  BOARD GEOMETRY/DESIGN_OUTLINE*
G04 *
G04 Offset:    (0.0000 0.0000)*
G04 Mirror:    No*
G04 Mode:      Positive*
G04 Rotation:  0*
G04 FullContactRelief:  No*
G04 UndefLineWidth:     0.1270*
G04 ================== end FILE IDENTIFICATION RECORD ====================*
%FSLAX25Y25*MOMM*%
%IR0*IPPOS*OFA0.00000B0.00000*MIA0B0*SFA1.00000B1.00000*%
%ADD21R,1.8999X1.8999*%
%ADD23R,.35X1.4*%
%ADD13R,1.397X.4318*%
%ADD19R,.2949X1.5999*%
%ADD16R,1.5999X.2949*%
%ADD24C,1.4224*%
%ADD10C,4.064*%
%ADD11R,2.X1.1999*%
%ADD18R,.95X.445*%
%ADD20R,2.1001X1.5999*%
%ADD17R,1.8999X1.1001*%
%ADD15C,1.8796*%
%ADD22R,1.8001X1.8999*%
%ADD14R,.8999X.7*%
%ADD12R,.7X.8999*%
%ADD25C,.2032*%
%ADD26C,.127*%
%ADD27C,.1524*%
G75*
%LPD*%
G75*
G54D10*
X400000Y400000D03*
Y4600000D03*
X9600000Y400000D03*
Y4600000D03*
G54D20*
X1624000Y4245000D03*
X2244000D03*
G54D11*
X400000Y1494600D03*
Y1174600D03*
G54D12*
Y2100000D03*
X270000D03*
X400000Y1800000D03*
X270000D03*
X400000Y2400000D03*
X530000D03*
X2930000Y1700000D03*
X2800000D03*
Y2400000D03*
X2930000D03*
G54D21*
X1814000Y4500000D03*
X2054000D03*
G54D22*
X1554000D03*
X2314000D03*
G54D13*
X641960Y2997500D03*
Y2932500D03*
Y2867500D03*
Y2802500D03*
X200000D03*
Y2867500D03*
Y2932500D03*
Y2997500D03*
G54D14*
Y3665000D03*
Y3535000D03*
X465000Y3665000D03*
Y3535000D03*
X881500Y2565000D03*
Y2435000D03*
X1554000Y565000D03*
Y435000D03*
X2800000Y2035000D03*
Y2165000D03*
G54D23*
X1869000Y4235000D03*
X1934000D03*
X1999000D03*
X1804000D03*
X2064000D03*
G54D15*
X1300000Y1200000D03*
X2062000Y1174600D03*
X1808000Y1200000D03*
X1554000Y1174600D03*
X2570000D03*
X2316000Y1200000D03*
G54D24*
X3650000Y1600000D03*
Y1800000D03*
Y2000000D03*
Y2200000D03*
Y2400000D03*
Y2600000D03*
Y2800000D03*
Y3000000D03*
Y3200000D03*
Y3400000D03*
X3850000Y1600000D03*
Y1800000D03*
Y2000000D03*
Y2200000D03*
Y2400000D03*
Y2600000D03*
Y2800000D03*
Y3000000D03*
Y3200000D03*
Y3400000D03*
G54D25*
G01X1338000Y2009000D02*
X2320000D01*
G01X1338000Y2991000D02*
Y2009000D01*
G01X2320000Y2991000D02*
X1338000D01*
G01X1594000Y4715000D02*
X1534000Y4775000D01*
G01X2320000Y2009000D02*
Y2991000D01*
G01X2274000Y4715000D02*
X2334000Y4775000D01*
G54D16*
X1269000Y2125000D03*
Y2175000D03*
Y2225000D03*
Y2275000D03*
Y2325000D03*
Y2375000D03*
Y2425000D03*
Y2475000D03*
Y2525000D03*
Y2575000D03*
Y2625000D03*
Y2675000D03*
Y2725000D03*
Y2775000D03*
Y2825000D03*
Y2875000D03*
X2389000Y2275000D03*
Y2225000D03*
Y2175000D03*
Y2125000D03*
Y2875000D03*
Y2825000D03*
Y2775000D03*
Y2725000D03*
Y2675000D03*
Y2625000D03*
Y2575000D03*
Y2525000D03*
Y2475000D03*
Y2425000D03*
Y2375000D03*
Y2325000D03*
G54D26*
G01X270000Y1174600D02*
Y1494600D01*
G01D02*
X530000D01*
G01D02*
Y1174600D01*
G01D02*
X270000D01*
G01X1594000Y4215000D02*
X1714000D01*
G01X1594000D02*
Y4645000D01*
G01X2154000Y4355000D02*
X1714000D01*
G01D02*
Y4215000D01*
G01X2154000Y4355000D02*
Y4215000D01*
G01X2274000D02*
X2154000D01*
G01X1634000Y4715000D02*
X1594000D01*
G01Y4645000D02*
Y4715000D01*
G01X2274000Y4645000D02*
X1594000D01*
G01X2214000Y4780000D02*
X1659000D01*
G01X1634000Y4760000D02*
Y4715000D01*
G01X1659000Y4780000D02*
G03X1634000Y4760000I-1500J-23750D01*
G01X2274000Y4645000D02*
Y4215000D01*
G01Y4715000D02*
X2234000D01*
G01X2274000D02*
Y4645000D01*
G01X2234000Y4715000D02*
Y4755000D01*
G01D02*
G03X2214000Y4780000I-23750J1500D01*
G01X3350000Y650000D02*
X9450000D01*
G01X3350000Y4350000D02*
Y650000D01*
G01Y4350000D02*
X9450000D01*
G01Y2050000D02*
Y650000D01*
G01X10550000Y2050000D02*
X9450000D01*
G01D02*
Y2950000D01*
G01Y4350000D02*
Y2950000D01*
G01D02*
X10550000D01*
G01D02*
Y2050000D01*
G01X-1787300Y-6112700D02*
Y15477300D01*
X26343200D01*
Y-6112700D01*
X-1787300D01*
G01X-1038000Y-5439600D02*
Y14880400D01*
X25505000D01*
Y-5439600D01*
X-1038000D01*
G01X0Y0D02*
Y5000000D01*
X10000000D01*
Y0D01*
X0D01*
G01X279600Y2069520D02*
Y2129510D01*
X309600D01*
Y2069520D01*
X279600D01*
G01X360880D02*
Y2129510D01*
X390880D01*
Y2069520D01*
X360880D01*
G01X279600Y1769520D02*
Y1829510D01*
X309600D01*
Y1769520D01*
X279600D01*
G01X360880D02*
Y1829510D01*
X390880D01*
Y1769520D01*
X360880D01*
G01X520400Y2430480D02*
Y2370490D01*
X490400D01*
Y2430480D01*
X520400D01*
G01X439120D02*
Y2370490D01*
X409120D01*
Y2430480D01*
X439120D01*
G01X390500Y3054940D02*
G03X451460I30480J0D01*
G01X266040D02*
Y2745060D01*
G01X575920D02*
Y3054940D01*
G01X266040Y2745060D02*
X575920D01*
G01X676250Y3016550D02*
X575920D01*
G01Y2978450D02*
X676250D01*
G01X575920Y3016550D02*
Y2978450D01*
G01X676250Y2951550D02*
X575920D01*
G01Y2913450D02*
X676250D01*
G01X575920Y2951550D02*
Y2913450D01*
G01X676250Y2886550D02*
X575920D01*
G01Y2848450D02*
X676250D01*
G01X575920Y2886550D02*
Y2848450D01*
G01X676250Y2821550D02*
X575920D01*
G01Y2783450D02*
X676250D01*
G01X575920Y2821550D02*
Y2783450D01*
G01X165710D02*
X266040D01*
G01X165710Y2821550D02*
Y2783450D01*
G01X266040Y2821550D02*
X165710D01*
G01X266040Y2783450D02*
Y2821550D01*
G01X165710Y2848450D02*
X266040D01*
G01X165710Y2886550D02*
Y2848450D01*
G01X266040Y2886550D02*
X165710D01*
G01X266040Y2848450D02*
Y2886550D01*
G01X165710Y2913450D02*
X266040D01*
G01X165710Y2951550D02*
Y2913450D01*
G01X266040Y2951550D02*
X165710D01*
G01X266040Y2913450D02*
Y2951550D01*
G01X165710Y2978450D02*
X266040D01*
G01X165710Y3016550D02*
Y2978450D01*
G01X266040Y3016550D02*
X165710D01*
G01X266040Y2978450D02*
Y3016550D01*
G01X230480Y3544600D02*
X170490D01*
Y3574600D01*
X230480D01*
Y3544600D01*
G01Y3625880D02*
X170490D01*
Y3655880D01*
X230480D01*
Y3625880D01*
G01X495480Y3544600D02*
X435490D01*
Y3574600D01*
X495480D01*
Y3544600D01*
G01Y3625880D02*
X435490D01*
Y3655880D01*
X495480D01*
Y3625880D01*
G01X268750Y3106590D02*
X339530Y3199720D01*
G01X304140Y3216650D02*
Y3089650D01*
G01X339530Y3106590D02*
X268750Y3199720D01*
G01X255880Y3153150D02*
X352400D01*
G01X575920Y3054940D02*
X266040D01*
G01X1270790Y1158090D02*
Y1216510D01*
X1329210D01*
Y1158090D01*
X1270790D01*
G01X1334000Y2260000D02*
X1239010D01*
Y2289990D01*
X1334000D01*
Y2260000D01*
G01Y2210010D02*
X1239010D01*
Y2240010D01*
X1334000D01*
Y2210010D01*
G01Y2160000D02*
X1239010D01*
Y2189990D01*
X1334000D01*
Y2160000D01*
G01Y2110010D02*
X1239010D01*
Y2140010D01*
X1334000D01*
Y2110010D01*
G01Y2859990D02*
X1239010D01*
Y2889990D01*
X1334000D01*
Y2859990D01*
G01Y2810010D02*
X1239010D01*
Y2840000D01*
X1334000D01*
Y2810010D01*
G01Y2759990D02*
X1239010D01*
Y2789990D01*
X1334000D01*
Y2759990D01*
G01Y2710010D02*
X1239010D01*
Y2740000D01*
X1334000D01*
Y2710010D01*
G01Y2659990D02*
X1239010D01*
Y2689990D01*
X1334000D01*
Y2659990D01*
G01Y2610010D02*
X1239010D01*
Y2640000D01*
X1334000D01*
Y2610010D01*
G01Y2559990D02*
X1239010D01*
Y2589990D01*
X1334000D01*
Y2559990D01*
G01Y2510010D02*
X1239010D01*
Y2540010D01*
X1334000D01*
Y2510010D01*
G01Y2459990D02*
X1239010D01*
Y2489990D01*
X1334000D01*
Y2459990D01*
G01Y2410010D02*
X1239010D01*
Y2440010D01*
X1334000D01*
Y2410010D01*
G01Y2360000D02*
X1239010D01*
Y2389990D01*
X1334000D01*
Y2360000D01*
G01Y2310010D02*
X1239010D01*
Y2340010D01*
X1334000D01*
Y2310010D01*
G01X911980Y2444600D02*
X851990D01*
Y2474600D01*
X911980D01*
Y2444600D01*
G01Y2525880D02*
X851990D01*
Y2555880D01*
X911980D01*
Y2525880D01*
G01X676250Y2978450D02*
Y3016550D01*
G01Y2913450D02*
Y2951550D01*
G01Y2848450D02*
Y2886550D01*
G01Y2783450D02*
Y2821550D01*
G01X1781500Y412250D02*
X1876500D01*
G01X1781500Y587250D02*
Y412250D01*
G01X1876500Y587250D02*
X1781500D01*
G01X1876500Y412250D02*
Y587250D01*
G01X1765500Y285250D02*
X1892500D01*
G01X1829000Y209050D02*
X1841700Y285250D01*
G01X1829000Y209050D02*
X1854400Y285250D01*
G01X1829000Y209050D02*
X1867100Y285250D01*
G01X1829000Y209050D02*
X1879800Y285250D01*
G01X1829000Y209050D02*
X1892500Y285250D01*
G01X1829000Y209050D02*
X1816300Y285250D01*
G01X1829000Y209050D02*
X1803600Y285250D01*
G01X1829000Y209050D02*
X1790900Y285250D01*
G01X1829000Y209050D02*
X1778200Y285250D01*
G01X1829000Y209050D02*
X1765500Y285250D01*
G01Y209050D02*
X1892500D01*
G01X1829000Y310650D02*
Y183650D01*
G01X1584480Y444600D02*
X1524490D01*
Y474600D01*
X1584480D01*
Y444600D01*
G01Y525880D02*
X1524490D01*
Y555880D01*
X1584480D01*
Y525880D01*
G01X1524790Y1158090D02*
Y1216510D01*
X1583210D01*
Y1158090D01*
X1524790D01*
G01X1778790D02*
Y1216510D01*
X1837210D01*
Y1158090D01*
X1778790D01*
G01X2032790D02*
Y1216510D01*
X2091210D01*
Y1158090D01*
X2032790D01*
G01X1469010Y1910010D02*
X1439010D01*
Y2005000D01*
X1469010D01*
Y1910010D01*
G01X1518990D02*
X1489000D01*
Y2005000D01*
X1518990D01*
Y1910010D01*
G01X1569010D02*
X1539010D01*
Y2005000D01*
X1569010D01*
Y1910010D01*
G01X1618990D02*
X1589000D01*
Y2005000D01*
X1618990D01*
Y1910010D01*
G01X1669010D02*
X1639010D01*
Y2005000D01*
X1669010D01*
Y1910010D01*
G01X1718990D02*
X1689000D01*
Y2005000D01*
X1718990D01*
Y1910010D01*
G01X1769010D02*
X1739010D01*
Y2005000D01*
X1769010D01*
Y1910010D01*
G01X1818990D02*
X1788990D01*
Y2005000D01*
X1818990D01*
Y1910010D01*
G01X1869010D02*
X1839010D01*
Y2005000D01*
X1869010D01*
Y1910010D01*
G01X1918990D02*
X1888990D01*
Y2005000D01*
X1918990D01*
Y1910010D01*
G01X1969000D02*
X1939010D01*
Y2005000D01*
X1969000D01*
Y1910010D01*
G01X2018990D02*
X1988990D01*
Y2005000D01*
X2018990D01*
Y1910010D01*
G01X2069000D02*
X2039010D01*
Y2005000D01*
X2069000D01*
Y1910010D01*
G01X2118990D02*
X2088990D01*
Y2005000D01*
X2118990D01*
Y1910010D01*
G01X2169000D02*
X2139010D01*
Y2005000D01*
X2169000D01*
Y1910010D01*
G01Y2995000D02*
X2139010D01*
Y3089990D01*
X2169000D01*
Y2995000D01*
G01X2118990D02*
X2088990D01*
Y3089990D01*
X2118990D01*
Y2995000D01*
G01X2069000D02*
X2039010D01*
Y3089990D01*
X2069000D01*
Y2995000D01*
G01X2018990D02*
X1988990D01*
Y3089990D01*
X2018990D01*
Y2995000D01*
G01X1969000D02*
X1939010D01*
Y3089990D01*
X1969000D01*
Y2995000D01*
G01X1918990D02*
X1888990D01*
Y3089990D01*
X1918990D01*
Y2995000D01*
G01X1869010D02*
X1839010D01*
Y3089990D01*
X1869010D01*
Y2995000D01*
G01X1818990D02*
X1788990D01*
Y3089990D01*
X1818990D01*
Y2995000D01*
G01X1769010D02*
X1739010D01*
Y3089990D01*
X1769010D01*
Y2995000D01*
G01X1718990D02*
X1689000D01*
Y3089990D01*
X1718990D01*
Y2995000D01*
G01X1669010D02*
X1639010D01*
Y3089990D01*
X1669010D01*
Y2995000D01*
G01X1618990D02*
X1589000D01*
Y3089990D01*
X1618990D01*
Y2995000D01*
G01X1569010D02*
X1539010D01*
Y3089990D01*
X1569010D01*
Y2995000D01*
G01X1518990D02*
X1489000D01*
Y3089990D01*
X1518990D01*
Y2995000D01*
G01X1469010D02*
X1439010D01*
Y3089990D01*
X1469010D01*
Y2995000D01*
G01X2286790Y1158090D02*
Y1216510D01*
X2345210D01*
Y1158090D01*
X2286790D01*
G01X2540790D02*
Y1216510D01*
X2599210D01*
Y1158090D01*
X2540790D01*
G01X2218990Y1910010D02*
X2188990D01*
Y2005000D01*
X2218990D01*
Y1910010D01*
G01X2418990Y2110010D02*
X2324000D01*
Y2140010D01*
X2418990D01*
Y2110010D01*
G01Y2160000D02*
X2324000D01*
Y2189990D01*
X2418990D01*
Y2160000D01*
G01Y2210010D02*
X2324000D01*
Y2240010D01*
X2418990D01*
Y2210010D01*
G01Y2260000D02*
X2324000D01*
Y2289990D01*
X2418990D01*
Y2260000D01*
G01X2769520Y2155400D02*
X2829510D01*
Y2125400D01*
X2769520D01*
Y2155400D01*
G01Y2074120D02*
X2829510D01*
Y2044120D01*
X2769520D01*
Y2074120D01*
G01X2809600Y1669520D02*
Y1729510D01*
X2839600D01*
Y1669520D01*
X2809600D01*
G01X2890880D02*
Y1729510D01*
X2920880D01*
Y1669520D01*
X2890880D01*
G01X2418990Y2310010D02*
X2324000D01*
Y2340010D01*
X2418990D01*
Y2310010D01*
G01Y2360000D02*
X2324000D01*
Y2389990D01*
X2418990D01*
Y2360000D01*
G01Y2410010D02*
X2324000D01*
Y2440010D01*
X2418990D01*
Y2410010D01*
G01Y2459990D02*
X2324000D01*
Y2489990D01*
X2418990D01*
Y2459990D01*
G01Y2510010D02*
X2324000D01*
Y2540010D01*
X2418990D01*
Y2510010D01*
G01Y2559990D02*
X2324000D01*
Y2589990D01*
X2418990D01*
Y2559990D01*
G01Y2610010D02*
X2324000D01*
Y2640000D01*
X2418990D01*
Y2610010D01*
G01Y2659990D02*
X2324000D01*
Y2689990D01*
X2418990D01*
Y2659990D01*
G01Y2710010D02*
X2324000D01*
Y2740000D01*
X2418990D01*
Y2710010D01*
G01Y2759990D02*
X2324000D01*
Y2789990D01*
X2418990D01*
Y2759990D01*
G01Y2810010D02*
X2324000D01*
Y2840000D01*
X2418990D01*
Y2810010D01*
G01Y2859990D02*
X2324000D01*
Y2889990D01*
X2418990D01*
Y2859990D01*
G01X2218990Y2995000D02*
X2188990D01*
Y3089990D01*
X2218990D01*
Y2995000D01*
G01X2920400Y2430480D02*
Y2370490D01*
X2890400D01*
Y2430480D01*
X2920400D01*
G01X2839120D02*
Y2370490D01*
X2809120D01*
Y2430480D01*
X2839120D01*
G01X5705700Y-5414200D02*
Y-842200D01*
X25517700D01*
G01X5913890Y-3953700D02*
Y-3826700D01*
X5975030D01*
G01X5952500Y-3888080D02*
X5913890D01*
G01X6041830Y-3953700D02*
Y-3826700D01*
X6082040D01*
X6094910Y-3833050D01*
X6102960Y-3841520D01*
X6106170Y-3858450D01*
X6102960Y-3875380D01*
X6093300Y-3885970D01*
X6082040Y-3892320D01*
X6041830D01*
G01X6082040D02*
X6106170Y-3953700D01*
G01X6163320D02*
X6203540Y-3826700D01*
X6243760Y-3953700D01*
G01X6229280Y-3909250D02*
X6177800D01*
G01X6368470Y-3837280D02*
X6358820Y-3830930D01*
X6347560Y-3826700D01*
X6334690D01*
X6320210Y-3833050D01*
X6308950Y-3843630D01*
X6300910Y-3856330D01*
X6294470Y-3877500D01*
X6292860Y-3896550D01*
X6296080Y-3915600D01*
X6300910Y-3928300D01*
X6310560Y-3941000D01*
X6321820Y-3949470D01*
X6333080Y-3953700D01*
X6344340D01*
X6355600Y-3949470D01*
X6365250Y-3943120D01*
X6373300Y-3934650D01*
G01X6462620Y-3826700D02*
Y-3953700D01*
G01X6425620Y-3826700D02*
X6499620D01*
G01X6572860D02*
X6611460D01*
G01X6592160D02*
Y-3953700D01*
G01X6572860D02*
X6611460D01*
G01X6721700D02*
X6708830Y-3951580D01*
X6697570Y-3943120D01*
X6687920Y-3930420D01*
X6681480Y-3915600D01*
X6678260Y-3898670D01*
Y-3881730D01*
X6681480Y-3864800D01*
X6687920Y-3849980D01*
X6697570Y-3837280D01*
X6708830Y-3828820D01*
X6721700Y-3826700D01*
X6734570Y-3828820D01*
X6745830Y-3837280D01*
X6755480Y-3849980D01*
X6761920Y-3864800D01*
X6765140Y-3881730D01*
Y-3898670D01*
X6761920Y-3915600D01*
X6755480Y-3930420D01*
X6745830Y-3943120D01*
X6734570Y-3951580D01*
X6721700Y-3953700D01*
G01X6814240D02*
Y-3826700D01*
X6888240Y-3953700D01*
Y-3826700D01*
G01X6947000Y-3936770D02*
X6959870Y-3947350D01*
X6974350Y-3953700D01*
X6987210D01*
X7000080Y-3947350D01*
X7009740Y-3936770D01*
X7014560Y-3921950D01*
X7011350Y-3907140D01*
X7003300Y-3894430D01*
X6988820Y-3885970D01*
X6969520Y-3881730D01*
X6958260Y-3873270D01*
X6953430Y-3858450D01*
X6956650Y-3843630D01*
X6964690Y-3833050D01*
X6975950Y-3826700D01*
X6987210D01*
X6998480Y-3830930D01*
X7008130Y-3841520D01*
G01X7222160Y-3911370D02*
X7260770D01*
G01X7239860Y-3883850D02*
Y-3938890D01*
G01X5904240Y-3572700D02*
X5944460Y-3445700D01*
X5984680Y-3572700D01*
G01X5970200Y-3528250D02*
X5918720D01*
G01X6037000Y-3572700D02*
Y-3445700D01*
X6111000Y-3572700D01*
Y-3445700D01*
G01X6213190Y-3509200D02*
X6245370D01*
Y-3547300D01*
X6235710Y-3560000D01*
X6224450Y-3568470D01*
X6208370Y-3572700D01*
X6192280Y-3568470D01*
X6181020Y-3560000D01*
X6171370Y-3547300D01*
X6164930Y-3532480D01*
X6161710Y-3515550D01*
Y-3500730D01*
X6164930Y-3488040D01*
X6171370Y-3473210D01*
X6181020Y-3460520D01*
X6190670Y-3452050D01*
X6203540Y-3445700D01*
X6214800D01*
X6227670Y-3449930D01*
X6237320Y-3458400D01*
G01X6300910Y-3445700D02*
Y-3572700D01*
X6365250D01*
G01X6494790D02*
X6430450D01*
Y-3445700D01*
X6494790D01*
G01X6469050Y-3507080D02*
X6430450D01*
G01X6558380Y-3555770D02*
X6571250Y-3566350D01*
X6585730Y-3572700D01*
X6598590D01*
X6611460Y-3566350D01*
X6621120Y-3555770D01*
X6625940Y-3540950D01*
X6622730Y-3526140D01*
X6614680Y-3513430D01*
X6600200Y-3504970D01*
X6580900Y-3500730D01*
X6569640Y-3492270D01*
X6564810Y-3477450D01*
X6568030Y-3462630D01*
X6576070Y-3452050D01*
X6587330Y-3445700D01*
X6598590D01*
X6609860Y-3449930D01*
X6619510Y-3460520D01*
G01X6833540Y-3530370D02*
X6872150D01*
G01X6851240Y-3502850D02*
Y-3557890D01*
G01X5909070Y-3166300D02*
X5918720Y-3181120D01*
X5931590Y-3189580D01*
X5946070Y-3191700D01*
X5958940Y-3189580D01*
X5971810Y-3179000D01*
X5979850Y-3166300D01*
X5981460Y-3153600D01*
X5978240Y-3138790D01*
X5966980Y-3128200D01*
X5955720Y-3123970D01*
X5941240D01*
G01X5955720D02*
X5965370Y-3117620D01*
X5973420Y-3107040D01*
X5976630Y-3094330D01*
X5973420Y-3081630D01*
X5965370Y-3071050D01*
X5950890Y-3064700D01*
X5936420Y-3066820D01*
X5921940Y-3075280D01*
G01X6171370Y-3191700D02*
Y-3064700D01*
X6209970D01*
X6222840Y-3071050D01*
X6232500Y-3085870D01*
X6235710Y-3102800D01*
X6232500Y-3119730D01*
X6224450Y-3132430D01*
X6209970Y-3138790D01*
X6171370D01*
G01X6300910Y-3064700D02*
Y-3191700D01*
X6365250D01*
G01X6556770D02*
Y-3064700D01*
X6588940D01*
X6601810Y-3071050D01*
X6611460Y-3079520D01*
X6619510Y-3092210D01*
X6625940Y-3107040D01*
X6627550Y-3128200D01*
X6625940Y-3149370D01*
X6619510Y-3164190D01*
X6611460Y-3176890D01*
X6601810Y-3185350D01*
X6588940Y-3191700D01*
X6556770D01*
G01X6753870D02*
X6689530D01*
Y-3064700D01*
X6753870D01*
G01X6728130Y-3126080D02*
X6689530D01*
G01X6886630Y-3075280D02*
X6876980Y-3068930D01*
X6865720Y-3064700D01*
X6852850D01*
X6838370Y-3071050D01*
X6827110Y-3081630D01*
X6819070Y-3094330D01*
X6812630Y-3115500D01*
X6811020Y-3134550D01*
X6814240Y-3153600D01*
X6819070Y-3166300D01*
X6828720Y-3179000D01*
X6839980Y-3187470D01*
X6851240Y-3191700D01*
X6862500D01*
X6873760Y-3187470D01*
X6883410Y-3181120D01*
X6891460Y-3172650D01*
G01X6961480Y-3064700D02*
X7000080D01*
G01X6980780D02*
Y-3191700D01*
G01X6961480D02*
X7000080D01*
G01X7068490D02*
Y-3064700D01*
X7110320Y-3170530D01*
X7152150Y-3064700D01*
Y-3191700D01*
G01X7199640D02*
X7239860Y-3064700D01*
X7280080Y-3191700D01*
G01X7265600Y-3147250D02*
X7214120D01*
G01X7337230Y-3064700D02*
Y-3191700D01*
X7401570D01*
G01X7465160Y-3174770D02*
X7478030Y-3185350D01*
X7492510Y-3191700D01*
X7505370D01*
X7518240Y-3185350D01*
X7527900Y-3174770D01*
X7532720Y-3159950D01*
X7529510Y-3145140D01*
X7521460Y-3132430D01*
X7506980Y-3123970D01*
X7487680Y-3119730D01*
X7476420Y-3111270D01*
X7471590Y-3096450D01*
X7474810Y-3081630D01*
X7482850Y-3071050D01*
X7494110Y-3064700D01*
X7505370D01*
X7516640Y-3068930D01*
X7526290Y-3079520D01*
G01X7740320Y-3149370D02*
X7778930D01*
G01X7758020Y-3121850D02*
Y-3176890D01*
G01X5913890Y-2704870D02*
X5923550Y-2692170D01*
X5934810Y-2685820D01*
X5947680Y-2683700D01*
X5963760Y-2687930D01*
X5975030Y-2698520D01*
X5978240Y-2711210D01*
X5976630Y-2723920D01*
X5970200Y-2734500D01*
X5938030Y-2755670D01*
X5923550Y-2770480D01*
X5913890Y-2791650D01*
X5910680Y-2810700D01*
X5978240D01*
G01X6171370D02*
Y-2683700D01*
X6209970D01*
X6222840Y-2690050D01*
X6232500Y-2704870D01*
X6235710Y-2721800D01*
X6232500Y-2738730D01*
X6224450Y-2751430D01*
X6209970Y-2757790D01*
X6171370D01*
G01X6300910Y-2683700D02*
Y-2810700D01*
X6365250D01*
G01X6556770D02*
Y-2683700D01*
X6588940D01*
X6601810Y-2690050D01*
X6611460Y-2698520D01*
X6619510Y-2711210D01*
X6625940Y-2726040D01*
X6627550Y-2747200D01*
X6625940Y-2768370D01*
X6619510Y-2783190D01*
X6611460Y-2795890D01*
X6601810Y-2804350D01*
X6588940Y-2810700D01*
X6556770D01*
G01X6753870D02*
X6689530D01*
Y-2683700D01*
X6753870D01*
G01X6728130Y-2745080D02*
X6689530D01*
G01X6886630Y-2694280D02*
X6876980Y-2687930D01*
X6865720Y-2683700D01*
X6852850D01*
X6838370Y-2690050D01*
X6827110Y-2700630D01*
X6819070Y-2713330D01*
X6812630Y-2734500D01*
X6811020Y-2753550D01*
X6814240Y-2772600D01*
X6819070Y-2785300D01*
X6828720Y-2798000D01*
X6839980Y-2806470D01*
X6851240Y-2810700D01*
X6862500D01*
X6873760Y-2806470D01*
X6883410Y-2800120D01*
X6891460Y-2791650D01*
G01X6961480Y-2683700D02*
X7000080D01*
G01X6980780D02*
Y-2810700D01*
G01X6961480D02*
X7000080D01*
G01X7068490D02*
Y-2683700D01*
X7110320Y-2789530D01*
X7152150Y-2683700D01*
Y-2810700D01*
G01X7199640D02*
X7239860Y-2683700D01*
X7280080Y-2810700D01*
G01X7265600Y-2766250D02*
X7214120D01*
G01X7337230Y-2683700D02*
Y-2810700D01*
X7401570D01*
G01X7465160Y-2793770D02*
X7478030Y-2804350D01*
X7492510Y-2810700D01*
X7505370D01*
X7518240Y-2804350D01*
X7527900Y-2793770D01*
X7532720Y-2778950D01*
X7529510Y-2764140D01*
X7521460Y-2751430D01*
X7506980Y-2742970D01*
X7487680Y-2738730D01*
X7476420Y-2730270D01*
X7471590Y-2715450D01*
X7474810Y-2700630D01*
X7482850Y-2690050D01*
X7494110Y-2683700D01*
X7505370D01*
X7516640Y-2687930D01*
X7526290Y-2698520D01*
G01X7740320Y-2768370D02*
X7778930D01*
G01X7758020Y-2740850D02*
Y-2795890D01*
G01X5944460Y-2302700D02*
Y-2429700D01*
G01X5907460Y-2302700D02*
X5981460D01*
G01X6074000Y-2429700D02*
X6061130Y-2427580D01*
X6049870Y-2419120D01*
X6040220Y-2406420D01*
X6033780Y-2391600D01*
X6030560Y-2374670D01*
Y-2357730D01*
X6033780Y-2340800D01*
X6040220Y-2325980D01*
X6049870Y-2313280D01*
X6061130Y-2304820D01*
X6074000Y-2302700D01*
X6086870Y-2304820D01*
X6098130Y-2313280D01*
X6107780Y-2325980D01*
X6114220Y-2340800D01*
X6117440Y-2357730D01*
Y-2374670D01*
X6114220Y-2391600D01*
X6107780Y-2406420D01*
X6098130Y-2419120D01*
X6086870Y-2427580D01*
X6074000Y-2429700D01*
G01X6171370Y-2302700D02*
Y-2429700D01*
X6235710D01*
G01X6365250D02*
X6300910D01*
Y-2302700D01*
X6365250D01*
G01X6339510Y-2364080D02*
X6300910D01*
G01X6430450Y-2429700D02*
Y-2302700D01*
X6470660D01*
X6483530Y-2309050D01*
X6491580Y-2317520D01*
X6494790Y-2334450D01*
X6491580Y-2351380D01*
X6481920Y-2361970D01*
X6470660Y-2368320D01*
X6430450D01*
G01X6470660D02*
X6494790Y-2429700D01*
G01X6551940D02*
X6592160Y-2302700D01*
X6632380Y-2429700D01*
G01X6617900Y-2385250D02*
X6566420D01*
G01X6684700Y-2429700D02*
Y-2302700D01*
X6758700Y-2429700D01*
Y-2302700D01*
G01X6886630Y-2313280D02*
X6876980Y-2306930D01*
X6865720Y-2302700D01*
X6852850D01*
X6838370Y-2309050D01*
X6827110Y-2319630D01*
X6819070Y-2332330D01*
X6812630Y-2353500D01*
X6811020Y-2372550D01*
X6814240Y-2391600D01*
X6819070Y-2404300D01*
X6828720Y-2417000D01*
X6839980Y-2425470D01*
X6851240Y-2429700D01*
X6862500D01*
X6873760Y-2425470D01*
X6883410Y-2419120D01*
X6891460Y-2410650D01*
G01X7012950Y-2429700D02*
X6948610D01*
Y-2302700D01*
X7012950D01*
G01X6987210Y-2364080D02*
X6948610D01*
G01X7076540Y-2412770D02*
X7089410Y-2423350D01*
X7103890Y-2429700D01*
X7116750D01*
X7129620Y-2423350D01*
X7139280Y-2412770D01*
X7144100Y-2397950D01*
X7140890Y-2383140D01*
X7132840Y-2370430D01*
X7118360Y-2361970D01*
X7099060Y-2357730D01*
X7087800Y-2349270D01*
X7082970Y-2334450D01*
X7086190Y-2319630D01*
X7094230Y-2309050D01*
X7105490Y-2302700D01*
X7116750D01*
X7128020Y-2306930D01*
X7137670Y-2317520D01*
G01X7369400Y-2429700D02*
X7356530Y-2427580D01*
X7345270Y-2419120D01*
X7335620Y-2406420D01*
X7329180Y-2391600D01*
X7325960Y-2374670D01*
Y-2357730D01*
X7329180Y-2340800D01*
X7335620Y-2325980D01*
X7345270Y-2313280D01*
X7356530Y-2304820D01*
X7369400Y-2302700D01*
X7382270Y-2304820D01*
X7393530Y-2313280D01*
X7403180Y-2325980D01*
X7409620Y-2340800D01*
X7412840Y-2357730D01*
Y-2374670D01*
X7409620Y-2391600D01*
X7403180Y-2406420D01*
X7393530Y-2419120D01*
X7382270Y-2427580D01*
X7369400Y-2429700D01*
G01X7461940D02*
Y-2302700D01*
X7535940Y-2429700D01*
Y-2302700D01*
G01X7628480Y-2433930D02*
X7625260Y-2431820D01*
Y-2427580D01*
X7628480Y-2425470D01*
X7631700Y-2427580D01*
Y-2431820D01*
X7628480Y-2433930D01*
G01Y-2376790D02*
X7625260Y-2374670D01*
Y-2370430D01*
X7628480Y-2368320D01*
X7631700Y-2370430D01*
Y-2374670D01*
X7628480Y-2376790D01*
G01X5909070Y-1985200D02*
Y-1858200D01*
X5941240D01*
X5954110Y-1864550D01*
X5963760Y-1873020D01*
X5971810Y-1885710D01*
X5978240Y-1900540D01*
X5979850Y-1921700D01*
X5978240Y-1942870D01*
X5971810Y-1957690D01*
X5963760Y-1970390D01*
X5954110Y-1978850D01*
X5941240Y-1985200D01*
X5909070D01*
G01X6054700Y-1858200D02*
X6093300D01*
G01X6074000D02*
Y-1985200D01*
G01X6054700D02*
X6093300D01*
G01X6161710D02*
Y-1858200D01*
X6203540Y-1964030D01*
X6245370Y-1858200D01*
Y-1985200D01*
G01X6365250D02*
X6300910D01*
Y-1858200D01*
X6365250D01*
G01X6339510Y-1919580D02*
X6300910D01*
G01X6425620Y-1985200D02*
Y-1858200D01*
X6499620Y-1985200D01*
Y-1858200D01*
G01X6558380Y-1968270D02*
X6571250Y-1978850D01*
X6585730Y-1985200D01*
X6598590D01*
X6611460Y-1978850D01*
X6621120Y-1968270D01*
X6625940Y-1953450D01*
X6622730Y-1938640D01*
X6614680Y-1925930D01*
X6600200Y-1917470D01*
X6580900Y-1913230D01*
X6569640Y-1904770D01*
X6564810Y-1889950D01*
X6568030Y-1875130D01*
X6576070Y-1864550D01*
X6587330Y-1858200D01*
X6598590D01*
X6609860Y-1862430D01*
X6619510Y-1873020D01*
G01X6702400Y-1858200D02*
X6741000D01*
G01X6721700D02*
Y-1985200D01*
G01X6702400D02*
X6741000D01*
G01X6851240D02*
X6838370Y-1983080D01*
X6827110Y-1974620D01*
X6817460Y-1961920D01*
X6811020Y-1947100D01*
X6807800Y-1930170D01*
Y-1913230D01*
X6811020Y-1896300D01*
X6817460Y-1881480D01*
X6827110Y-1868780D01*
X6838370Y-1860320D01*
X6851240Y-1858200D01*
X6864110Y-1860320D01*
X6875370Y-1868780D01*
X6885020Y-1881480D01*
X6891460Y-1896300D01*
X6894680Y-1913230D01*
Y-1930170D01*
X6891460Y-1947100D01*
X6885020Y-1961920D01*
X6875370Y-1974620D01*
X6864110Y-1983080D01*
X6851240Y-1985200D01*
G01X6943780D02*
Y-1858200D01*
X7017780Y-1985200D01*
Y-1858200D01*
G01X7076540Y-1968270D02*
X7089410Y-1978850D01*
X7103890Y-1985200D01*
X7116750D01*
X7129620Y-1978850D01*
X7139280Y-1968270D01*
X7144100Y-1953450D01*
X7140890Y-1938640D01*
X7132840Y-1925930D01*
X7118360Y-1917470D01*
X7099060Y-1913230D01*
X7087800Y-1904770D01*
X7082970Y-1889950D01*
X7086190Y-1875130D01*
X7094230Y-1864550D01*
X7105490Y-1858200D01*
X7116750D01*
X7128020Y-1862430D01*
X7137670Y-1873020D01*
G01X7329180Y-1985200D02*
X7369400Y-1858200D01*
X7409620Y-1985200D01*
G01X7395140Y-1940750D02*
X7343660D01*
G01X7466770Y-1985200D02*
Y-1858200D01*
X7506980D01*
X7519850Y-1864550D01*
X7527900Y-1873020D01*
X7531110Y-1889950D01*
X7527900Y-1906880D01*
X7518240Y-1917470D01*
X7506980Y-1923820D01*
X7466770D01*
G01X7506980D02*
X7531110Y-1985200D01*
G01X7660650D02*
X7596310D01*
Y-1858200D01*
X7660650D01*
G01X7634910Y-1919580D02*
X7596310D01*
G01X7868260Y-1858200D02*
X7906860D01*
G01X7887560D02*
Y-1985200D01*
G01X7868260D02*
X7906860D01*
G01X7980100D02*
Y-1858200D01*
X8054100Y-1985200D01*
Y-1858200D01*
G01X8256880D02*
X8295480D01*
G01X8276180D02*
Y-1985200D01*
G01X8256880D02*
X8295480D01*
G01X8368720D02*
Y-1858200D01*
X8442720Y-1985200D01*
Y-1858200D01*
G01X8570650Y-1868780D02*
X8561000Y-1862430D01*
X8549740Y-1858200D01*
X8536870D01*
X8522390Y-1864550D01*
X8511130Y-1875130D01*
X8503090Y-1887830D01*
X8496650Y-1909000D01*
X8495040Y-1928050D01*
X8498260Y-1947100D01*
X8503090Y-1959800D01*
X8512740Y-1972500D01*
X8524000Y-1980970D01*
X8535260Y-1985200D01*
X8546520D01*
X8557780Y-1980970D01*
X8567430Y-1974620D01*
X8575480Y-1966150D01*
G01X8631020Y-1985200D02*
Y-1858200D01*
G01X8698580D02*
Y-1985200D01*
G01Y-1921700D02*
X8631020D01*
G01X8826510Y-1985200D02*
X8762170D01*
Y-1858200D01*
X8826510D01*
G01X8800770Y-1919580D02*
X8762170D01*
G01X8890100Y-1968270D02*
X8902970Y-1978850D01*
X8917450Y-1985200D01*
X8930310D01*
X8943180Y-1978850D01*
X8952840Y-1968270D01*
X8957660Y-1953450D01*
X8954450Y-1938640D01*
X8946400Y-1925930D01*
X8931920Y-1917470D01*
X8912620Y-1913230D01*
X8901360Y-1904770D01*
X8896530Y-1889950D01*
X8899750Y-1875130D01*
X8907790Y-1864550D01*
X8919050Y-1858200D01*
X8930310D01*
X8941580Y-1862430D01*
X8951230Y-1873020D01*
G01X5705700Y-1604200D02*
X14849700D01*
G01X5909070Y-1159700D02*
Y-1250720D01*
X5915500Y-1269770D01*
X5928370Y-1282470D01*
X5944460Y-1286700D01*
X5960550Y-1282470D01*
X5973420Y-1269770D01*
X5979850Y-1250720D01*
Y-1159700D01*
G01X6037000Y-1286700D02*
Y-1159700D01*
X6111000Y-1286700D01*
Y-1159700D01*
G01X6171370D02*
Y-1286700D01*
X6235710D01*
G01X6365250D02*
X6300910D01*
Y-1159700D01*
X6365250D01*
G01X6339510Y-1221080D02*
X6300910D01*
G01X6428840Y-1269770D02*
X6441710Y-1280350D01*
X6456190Y-1286700D01*
X6469050D01*
X6481920Y-1280350D01*
X6491580Y-1269770D01*
X6496400Y-1254950D01*
X6493190Y-1240140D01*
X6485140Y-1227430D01*
X6470660Y-1218970D01*
X6451360Y-1214730D01*
X6440100Y-1206270D01*
X6435270Y-1191450D01*
X6438490Y-1176630D01*
X6446530Y-1166050D01*
X6457790Y-1159700D01*
X6469050D01*
X6480320Y-1163930D01*
X6489970Y-1174520D01*
G01X6558380Y-1269770D02*
X6571250Y-1280350D01*
X6585730Y-1286700D01*
X6598590D01*
X6611460Y-1280350D01*
X6621120Y-1269770D01*
X6625940Y-1254950D01*
X6622730Y-1240140D01*
X6614680Y-1227430D01*
X6600200Y-1218970D01*
X6580900Y-1214730D01*
X6569640Y-1206270D01*
X6564810Y-1191450D01*
X6568030Y-1176630D01*
X6576070Y-1166050D01*
X6587330Y-1159700D01*
X6598590D01*
X6609860Y-1163930D01*
X6619510Y-1174520D01*
G01X6851240Y-1286700D02*
X6838370Y-1284580D01*
X6827110Y-1276120D01*
X6817460Y-1263420D01*
X6811020Y-1248600D01*
X6807800Y-1231670D01*
Y-1214730D01*
X6811020Y-1197800D01*
X6817460Y-1182980D01*
X6827110Y-1170280D01*
X6838370Y-1161820D01*
X6851240Y-1159700D01*
X6864110Y-1161820D01*
X6875370Y-1170280D01*
X6885020Y-1182980D01*
X6891460Y-1197800D01*
X6894680Y-1214730D01*
Y-1231670D01*
X6891460Y-1248600D01*
X6885020Y-1263420D01*
X6875370Y-1276120D01*
X6864110Y-1284580D01*
X6851240Y-1286700D01*
G01X6980780Y-1159700D02*
Y-1286700D01*
G01X6943780Y-1159700D02*
X7017780D01*
G01X7076540Y-1286700D02*
Y-1159700D01*
G01X7144100D02*
Y-1286700D01*
G01Y-1223200D02*
X7076540D01*
G01X7272030Y-1286700D02*
X7207690D01*
Y-1159700D01*
X7272030D01*
G01X7246290Y-1221080D02*
X7207690D01*
G01X7337230Y-1286700D02*
Y-1159700D01*
X7377440D01*
X7390310Y-1166050D01*
X7398360Y-1174520D01*
X7401570Y-1191450D01*
X7398360Y-1208380D01*
X7388700Y-1218970D01*
X7377440Y-1225320D01*
X7337230D01*
G01X7377440D02*
X7401570Y-1286700D01*
G01X7450680Y-1159700D02*
X7473200Y-1286700D01*
X7498940Y-1159700D01*
X7524680Y-1286700D01*
X7547200Y-1159700D01*
G01X7609180D02*
X7647780D01*
G01X7628480D02*
Y-1286700D01*
G01X7609180D02*
X7647780D01*
G01X7724240Y-1269770D02*
X7737110Y-1280350D01*
X7751590Y-1286700D01*
X7764450D01*
X7777320Y-1280350D01*
X7786980Y-1269770D01*
X7791800Y-1254950D01*
X7788590Y-1240140D01*
X7780540Y-1227430D01*
X7766060Y-1218970D01*
X7746760Y-1214730D01*
X7735500Y-1206270D01*
X7730670Y-1191450D01*
X7733890Y-1176630D01*
X7741930Y-1166050D01*
X7753190Y-1159700D01*
X7764450D01*
X7775720Y-1163930D01*
X7785370Y-1174520D01*
G01X7919730Y-1286700D02*
X7855390D01*
Y-1159700D01*
X7919730D01*
G01X7893990Y-1221080D02*
X7855390D01*
G01X8112860Y-1269770D02*
X8125730Y-1280350D01*
X8140210Y-1286700D01*
X8153070D01*
X8165940Y-1280350D01*
X8175600Y-1269770D01*
X8180420Y-1254950D01*
X8177210Y-1240140D01*
X8169160Y-1227430D01*
X8154680Y-1218970D01*
X8135380Y-1214730D01*
X8124120Y-1206270D01*
X8119290Y-1191450D01*
X8122510Y-1176630D01*
X8130550Y-1166050D01*
X8141810Y-1159700D01*
X8153070D01*
X8164340Y-1163930D01*
X8173990Y-1174520D01*
G01X8244010Y-1286700D02*
Y-1159700D01*
X8282610D01*
X8295480Y-1166050D01*
X8305140Y-1180870D01*
X8308350Y-1197800D01*
X8305140Y-1214730D01*
X8297090Y-1227430D01*
X8282610Y-1233790D01*
X8244010D01*
G01X8437890Y-1286700D02*
X8373550D01*
Y-1159700D01*
X8437890D01*
G01X8412150Y-1221080D02*
X8373550D01*
G01X8570650Y-1170280D02*
X8561000Y-1163930D01*
X8549740Y-1159700D01*
X8536870D01*
X8522390Y-1166050D01*
X8511130Y-1176630D01*
X8503090Y-1189330D01*
X8496650Y-1210500D01*
X8495040Y-1229550D01*
X8498260Y-1248600D01*
X8503090Y-1261300D01*
X8512740Y-1274000D01*
X8524000Y-1282470D01*
X8535260Y-1286700D01*
X8546520D01*
X8557780Y-1282470D01*
X8567430Y-1276120D01*
X8575480Y-1267650D01*
G01X8645500Y-1159700D02*
X8684100D01*
G01X8664800D02*
Y-1286700D01*
G01X8645500D02*
X8684100D01*
G01X8763770D02*
Y-1159700D01*
X8824910D01*
G01X8802380Y-1221080D02*
X8763770D01*
G01X8904580Y-1159700D02*
X8943180D01*
G01X8923880D02*
Y-1286700D01*
G01X8904580D02*
X8943180D01*
G01X9085590D02*
X9021250D01*
Y-1159700D01*
X9085590D01*
G01X9059850Y-1221080D02*
X9021250D01*
G01X9147570Y-1286700D02*
Y-1159700D01*
X9179740D01*
X9192610Y-1166050D01*
X9202260Y-1174520D01*
X9210310Y-1187210D01*
X9216740Y-1202040D01*
X9218350Y-1223200D01*
X9216740Y-1244370D01*
X9210310Y-1259190D01*
X9202260Y-1271890D01*
X9192610Y-1280350D01*
X9179740Y-1286700D01*
X9147570D01*
G01X9515700Y-842200D02*
Y-5414200D01*
G01Y-4525200D02*
X14849700D01*
G01X9515700Y-3890200D02*
X14849700D01*
G01X9515700Y-3128200D02*
X14849700D01*
G01X9515700Y-2366200D02*
X14849700D01*
G01X10613110Y-1265370D02*
X10629020Y-1278700D01*
X10646930Y-1286700D01*
X10662850D01*
X10678770Y-1278700D01*
X10690710Y-1265370D01*
X10696670Y-1246690D01*
X10692690Y-1228030D01*
X10682740Y-1212030D01*
X10664840Y-1201350D01*
X10640960Y-1196020D01*
X10627040Y-1185360D01*
X10621060Y-1166690D01*
X10625050Y-1148020D01*
X10634990Y-1134680D01*
X10648920Y-1126680D01*
X10662850D01*
X10676780Y-1132010D01*
X10688720Y-1145350D01*
G01X10791030Y-1126680D02*
X10838780D01*
G01X10814910D02*
Y-1286700D01*
G01X10791030D02*
X10838780D01*
G01X10986870Y-1206690D02*
X11026660D01*
Y-1254700D01*
X11014720Y-1270700D01*
X11000800Y-1281370D01*
X10980900Y-1286700D01*
X10961000Y-1281370D01*
X10947080Y-1270700D01*
X10935140Y-1254700D01*
X10927180Y-1236030D01*
X10923200Y-1214690D01*
Y-1196020D01*
X10927180Y-1180020D01*
X10935140Y-1161350D01*
X10947080Y-1145350D01*
X10959010Y-1134680D01*
X10974930Y-1126680D01*
X10988860D01*
X11004770Y-1132010D01*
X11016710Y-1142680D01*
G01X11089190Y-1286700D02*
Y-1126680D01*
X11180710Y-1286700D01*
Y-1126680D01*
G01X11245230Y-1286700D02*
X11294970Y-1126680D01*
X11344710Y-1286700D01*
G01X11326800Y-1230700D02*
X11263130D01*
G01X11454990Y-1126680D02*
Y-1286700D01*
G01X11409230Y-1126680D02*
X11500750D01*
G01X11571240D02*
Y-1241360D01*
X11579190Y-1265370D01*
X11595110Y-1281370D01*
X11615010Y-1286700D01*
X11634910Y-1281370D01*
X11650830Y-1265370D01*
X11658780Y-1241360D01*
Y-1126680D01*
G01X11735240Y-1286700D02*
Y-1126680D01*
X11784980D01*
X11800900Y-1134680D01*
X11810850Y-1145350D01*
X11814820Y-1166690D01*
X11810850Y-1188020D01*
X11798910Y-1201350D01*
X11784980Y-1209360D01*
X11735240D01*
G01X11784980D02*
X11814820Y-1286700D01*
G01X11974840D02*
X11895260D01*
Y-1126680D01*
X11974840D01*
G01X11943010Y-1204020D02*
X11895260D01*
G01X12053290Y-1265370D02*
X12069200Y-1278700D01*
X12087110Y-1286700D01*
X12103030D01*
X12118950Y-1278700D01*
X12130890Y-1265370D01*
X12136850Y-1246690D01*
X12132870Y-1228030D01*
X12122920Y-1212030D01*
X12105020Y-1201350D01*
X12081140Y-1196020D01*
X12067220Y-1185360D01*
X12061240Y-1166690D01*
X12065230Y-1148020D01*
X12075170Y-1134680D01*
X12089100Y-1126680D01*
X12103030D01*
X12116960Y-1132010D01*
X12128900Y-1145350D01*
G01X12817700Y-3826700D02*
Y-3890200D01*
G01Y-3826700D02*
Y-842200D01*
G01Y12556300D02*
Y11794300D01*
G01Y14842300D02*
Y12556300D01*
G01Y13318300D02*
X25517700D01*
G01X12817700Y14080300D02*
X25517700D01*
G01X13468620Y-1286700D02*
Y-1126680D01*
X13508410D01*
X13524330Y-1134680D01*
X13536270Y-1145350D01*
X13546220Y-1161350D01*
X13554170Y-1180020D01*
X13556160Y-1206690D01*
X13554170Y-1233360D01*
X13546220Y-1252030D01*
X13536270Y-1268030D01*
X13524330Y-1278700D01*
X13508410Y-1286700D01*
X13468620D01*
G01X13622670D02*
X13672410Y-1126680D01*
X13722150Y-1286700D01*
G01X13704240Y-1230700D02*
X13640570D01*
G01X13832430Y-1126680D02*
Y-1286700D01*
G01X13786670Y-1126680D02*
X13878190D01*
G01X14032240Y-1286700D02*
X13952660D01*
Y-1126680D01*
X14032240D01*
G01X14000410Y-1204020D02*
X13952660D01*
G01X12976450Y13572300D02*
Y13826300D01*
X13055820D01*
X13081220Y13813590D01*
X13097100Y13796670D01*
X13103450Y13762800D01*
X13097100Y13728930D01*
X13078050Y13707770D01*
X13055820Y13695060D01*
X12976450D01*
G01X13055820D02*
X13103450Y13572300D01*
G01X13357450D02*
X13230450D01*
Y13826300D01*
X13357450D01*
G01X13306650Y13703540D02*
X13230450D01*
G01X13468570Y13826300D02*
X13547950Y13572300D01*
X13627330Y13826300D01*
G01X13833700Y12556300D02*
Y11794300D01*
G01Y12556300D02*
Y14080300D01*
G01X14849700Y-842200D02*
Y-5414200D01*
G01X15005270Y-4999340D02*
X15030680Y-5020500D01*
X15059250Y-5033200D01*
X15084650D01*
X15110050Y-5020500D01*
X15129100Y-4999340D01*
X15138630Y-4969700D01*
X15132280Y-4940070D01*
X15116400Y-4914670D01*
X15087820Y-4897730D01*
X15049730Y-4889270D01*
X15027500Y-4872340D01*
X15017970Y-4842700D01*
X15024330Y-4813070D01*
X15040200Y-4791910D01*
X15062420Y-4779200D01*
X15084650D01*
X15106880Y-4787660D01*
X15125930Y-4808830D01*
G01X15395800Y-4800370D02*
X15376750Y-4787660D01*
X15354530Y-4779200D01*
X15329130D01*
X15300550Y-4791910D01*
X15278330Y-4813070D01*
X15262450Y-4838470D01*
X15249750Y-4880800D01*
X15246570Y-4918900D01*
X15252930Y-4957000D01*
X15262450Y-4982400D01*
X15281500Y-5007810D01*
X15303730Y-5024740D01*
X15325950Y-5033200D01*
X15348170D01*
X15370400Y-5024740D01*
X15389450Y-5012040D01*
X15405330Y-4995110D01*
G01X15500570Y-5033200D02*
X15579950Y-4779200D01*
X15659330Y-5033200D01*
G01X15630750Y-4944300D02*
X15529150D01*
G01X15770450Y-4779200D02*
Y-5033200D01*
X15897450D01*
G01X16151450D02*
X16024450D01*
Y-4779200D01*
X16151450D01*
G01X16100650Y-4901960D02*
X16024450D01*
G01X21199700Y-4652200D02*
X14849700D01*
G01X15005270Y-3983340D02*
X15030680Y-4004500D01*
X15059250Y-4017200D01*
X15084650D01*
X15110050Y-4004500D01*
X15129100Y-3983340D01*
X15138630Y-3953700D01*
X15132280Y-3924070D01*
X15116400Y-3898670D01*
X15087820Y-3881730D01*
X15049730Y-3873270D01*
X15027500Y-3856340D01*
X15017970Y-3826700D01*
X15024330Y-3797070D01*
X15040200Y-3775910D01*
X15062420Y-3763200D01*
X15084650D01*
X15106880Y-3771660D01*
X15125930Y-3792830D01*
G01X15287850Y-3763200D02*
X15364040D01*
G01X15325950D02*
Y-4017200D01*
G01X15287850D02*
X15364040D01*
G01X15519620Y-3763200D02*
X15640280D01*
X15519620Y-4017200D01*
X15640280D01*
G01X15897450D02*
X15770450D01*
Y-3763200D01*
X15897450D01*
G01X15846650Y-3885960D02*
X15770450D01*
G01X25517700Y-3636200D02*
X14849700D01*
G01X25517700Y-2112200D02*
X14849700D01*
G01X15637100Y13572300D02*
Y13826300D01*
X15700600D01*
X15726000Y13813590D01*
X15745050Y13796670D01*
X15760930Y13771270D01*
X15773630Y13741630D01*
X15776800Y13699300D01*
X15773630Y13656960D01*
X15760930Y13627330D01*
X15745050Y13601930D01*
X15726000Y13585000D01*
X15700600Y13572300D01*
X15637100D01*
G01X16024450D02*
X15897450D01*
Y13826300D01*
X16024450D01*
G01X15973650Y13703540D02*
X15897450D01*
G01X16148270Y13606160D02*
X16173680Y13585000D01*
X16202250Y13572300D01*
X16227650D01*
X16253050Y13585000D01*
X16272100Y13606160D01*
X16281630Y13635800D01*
X16275280Y13665430D01*
X16259400Y13690830D01*
X16230820Y13707770D01*
X16192730Y13716230D01*
X16170500Y13733160D01*
X16160970Y13762800D01*
X16167330Y13792430D01*
X16183200Y13813590D01*
X16205420Y13826300D01*
X16227650D01*
X16249880Y13817840D01*
X16268930Y13796670D01*
G01X16538800Y13805130D02*
X16519750Y13817840D01*
X16497530Y13826300D01*
X16472130D01*
X16443550Y13813590D01*
X16421330Y13792430D01*
X16405450Y13767030D01*
X16392750Y13724700D01*
X16389570Y13686600D01*
X16395930Y13648500D01*
X16405450Y13623100D01*
X16424500Y13597690D01*
X16446730Y13580760D01*
X16468950Y13572300D01*
X16491170D01*
X16513400Y13580760D01*
X16532450Y13593460D01*
X16548330Y13610390D01*
G01X16659450Y13572300D02*
Y13826300D01*
X16738820D01*
X16764220Y13813590D01*
X16780100Y13796670D01*
X16786450Y13762800D01*
X16780100Y13728930D01*
X16761050Y13707770D01*
X16738820Y13695060D01*
X16659450D01*
G01X16738820D02*
X16786450Y13572300D01*
G01X16938850Y13826300D02*
X17015040D01*
G01X16976950D02*
Y13572300D01*
G01X16938850D02*
X17015040D01*
G01X17167450D02*
Y13826300D01*
X17243650D01*
X17269050Y13813590D01*
X17288100Y13783970D01*
X17294450Y13750100D01*
X17288100Y13716230D01*
X17272220Y13690830D01*
X17243650Y13678130D01*
X17167450D01*
G01X17484950Y13826300D02*
Y13572300D01*
G01X17411930Y13826300D02*
X17557970D01*
G01X17700850D02*
X17777040D01*
G01X17738950D02*
Y13572300D01*
G01X17700850D02*
X17777040D01*
G01X17992950D02*
X17967550Y13576530D01*
X17945330Y13593460D01*
X17926270Y13618860D01*
X17913570Y13648500D01*
X17907220Y13682370D01*
Y13716230D01*
X17913570Y13750100D01*
X17926270Y13779740D01*
X17945330Y13805130D01*
X17967550Y13822070D01*
X17992950Y13826300D01*
X18018350Y13822070D01*
X18040570Y13805130D01*
X18059630Y13779740D01*
X18072330Y13750100D01*
X18078680Y13716230D01*
Y13682370D01*
X18072330Y13648500D01*
X18059630Y13618860D01*
X18040570Y13593460D01*
X18018350Y13576530D01*
X17992950Y13572300D01*
G01X18173930D02*
Y13826300D01*
X18319970Y13572300D01*
Y13826300D01*
G01X16119700Y-4652200D02*
Y-3636200D01*
G01X16408620Y-4017200D02*
Y-3763200D01*
X16529280D01*
G01X16484820Y-3885960D02*
X16408620D01*
G01X16656270Y-3983340D02*
X16681680Y-4004500D01*
X16710250Y-4017200D01*
X16735650D01*
X16761050Y-4004500D01*
X16780100Y-3983340D01*
X16789630Y-3953700D01*
X16783280Y-3924070D01*
X16767400Y-3898670D01*
X16738820Y-3881730D01*
X16700730Y-3873270D01*
X16678500Y-3856340D01*
X16668970Y-3826700D01*
X16675330Y-3797070D01*
X16691200Y-3775910D01*
X16713420Y-3763200D01*
X16735650D01*
X16757880Y-3771660D01*
X16776930Y-3792830D01*
G01X17046800Y-3784370D02*
X17027750Y-3771660D01*
X17005530Y-3763200D01*
X16980130D01*
X16951550Y-3775910D01*
X16929330Y-3797070D01*
X16913450Y-3822470D01*
X16900750Y-3864800D01*
X16897570Y-3902900D01*
X16903930Y-3941000D01*
X16913450Y-3966400D01*
X16932500Y-3991810D01*
X16954730Y-4008740D01*
X16976950Y-4017200D01*
X16999170D01*
X17021400Y-4008740D01*
X17040450Y-3996040D01*
X17056330Y-3979110D01*
G01X17148400Y-4017200D02*
Y-3763200D01*
X17230950Y-3974870D01*
X17313500Y-3763200D01*
Y-4017200D01*
G01X17665930D02*
Y-3763200D01*
X17811970Y-4017200D01*
Y-3763200D01*
G01X17992950Y-4017200D02*
X17967550Y-4012970D01*
X17945330Y-3996040D01*
X17926270Y-3970640D01*
X17913570Y-3941000D01*
X17907220Y-3907130D01*
Y-3873270D01*
X17913570Y-3839400D01*
X17926270Y-3809760D01*
X17945330Y-3784370D01*
X17967550Y-3767430D01*
X17992950Y-3763200D01*
X18018350Y-3767430D01*
X18040570Y-3784370D01*
X18059630Y-3809760D01*
X18072330Y-3839400D01*
X18078680Y-3873270D01*
Y-3907130D01*
X18072330Y-3941000D01*
X18059630Y-3970640D01*
X18040570Y-3996040D01*
X18018350Y-4012970D01*
X17992950Y-4017200D01*
G01X16786450Y-1604200D02*
X16659450D01*
Y-1350200D01*
X16786450D01*
G01X16735650Y-1472960D02*
X16659450D01*
G01X16894400Y-1604200D02*
Y-1350200D01*
X16976950Y-1561870D01*
X17059500Y-1350200D01*
Y-1604200D01*
G01X17151570D02*
X17230950Y-1350200D01*
X17310330Y-1604200D01*
G01X17281750Y-1515300D02*
X17180150D01*
G01X17669100Y-1604200D02*
Y-1350200D01*
X17732600D01*
X17758000Y-1362910D01*
X17777050Y-1379830D01*
X17792930Y-1405230D01*
X17805630Y-1434870D01*
X17808800Y-1477200D01*
X17805630Y-1519540D01*
X17792930Y-1549170D01*
X17777050Y-1574570D01*
X17758000Y-1591500D01*
X17732600Y-1604200D01*
X17669100D01*
G01X18056450D02*
X17929450D01*
Y-1350200D01*
X18056450D01*
G01X18005650Y-1472960D02*
X17929450D01*
G01X18180270Y-1570340D02*
X18205680Y-1591500D01*
X18234250Y-1604200D01*
X18259650D01*
X18285050Y-1591500D01*
X18304100Y-1570340D01*
X18313630Y-1540700D01*
X18307280Y-1511070D01*
X18291400Y-1485670D01*
X18262820Y-1468730D01*
X18224730Y-1460270D01*
X18202500Y-1443340D01*
X18192970Y-1413700D01*
X18199330Y-1384070D01*
X18215200Y-1362910D01*
X18237420Y-1350200D01*
X18259650D01*
X18281880Y-1358660D01*
X18300930Y-1379830D01*
G01X18462850Y-1350200D02*
X18539040D01*
G01X18500950D02*
Y-1604200D01*
G01X18462850D02*
X18539040D01*
G01X18774000Y-1477200D02*
X18837500D01*
Y-1553400D01*
X18818450Y-1578810D01*
X18796220Y-1595740D01*
X18764480Y-1604200D01*
X18732730Y-1595740D01*
X18710500Y-1578810D01*
X18691450Y-1553400D01*
X18678750Y-1523770D01*
X18672400Y-1489900D01*
Y-1460270D01*
X18678750Y-1434870D01*
X18691450Y-1405230D01*
X18710500Y-1379830D01*
X18729550Y-1362910D01*
X18754950Y-1350200D01*
X18777170D01*
X18802570Y-1358660D01*
X18821630Y-1375600D01*
G01X18935930Y-1604200D02*
Y-1350200D01*
X19081970Y-1604200D01*
Y-1350200D01*
G01X19437570Y-1604200D02*
X19516950Y-1350200D01*
X19596330Y-1604200D01*
G01X19567750Y-1515300D02*
X19466150D01*
G01X19701100Y-1350200D02*
Y-1532230D01*
X19713800Y-1570340D01*
X19739200Y-1595740D01*
X19770950Y-1604200D01*
X19802700Y-1595740D01*
X19828100Y-1570340D01*
X19840800Y-1532230D01*
Y-1350200D01*
G01X20024950D02*
Y-1604200D01*
G01X19951930Y-1350200D02*
X20097970D01*
G01X20278950Y-1604200D02*
X20253550Y-1599970D01*
X20231330Y-1583040D01*
X20212270Y-1557640D01*
X20199570Y-1528000D01*
X20193220Y-1494130D01*
Y-1460270D01*
X20199570Y-1426400D01*
X20212270Y-1396760D01*
X20231330Y-1371370D01*
X20253550Y-1354430D01*
X20278950Y-1350200D01*
X20304350Y-1354430D01*
X20326570Y-1371370D01*
X20345630Y-1396760D01*
X20358330Y-1426400D01*
X20364680Y-1460270D01*
Y-1494130D01*
X20358330Y-1528000D01*
X20345630Y-1557640D01*
X20326570Y-1583040D01*
X20304350Y-1599970D01*
X20278950Y-1604200D01*
G01X20450400D02*
Y-1350200D01*
X20532950Y-1561870D01*
X20615500Y-1350200D01*
Y-1604200D01*
G01X20707570D02*
X20786950Y-1350200D01*
X20866330Y-1604200D01*
G01X20837750Y-1515300D02*
X20736150D01*
G01X21040950Y-1350200D02*
Y-1604200D01*
G01X20967930Y-1350200D02*
X21113970D01*
G01X21256850D02*
X21333040D01*
G01X21294950D02*
Y-1604200D01*
G01X21256850D02*
X21333040D01*
G01X21548950D02*
X21523550Y-1599970D01*
X21501330Y-1583040D01*
X21482270Y-1557640D01*
X21469570Y-1528000D01*
X21463220Y-1494130D01*
Y-1460270D01*
X21469570Y-1426400D01*
X21482270Y-1396760D01*
X21501330Y-1371370D01*
X21523550Y-1354430D01*
X21548950Y-1350200D01*
X21574350Y-1354430D01*
X21596570Y-1371370D01*
X21615630Y-1396760D01*
X21628330Y-1426400D01*
X21634680Y-1460270D01*
Y-1494130D01*
X21628330Y-1528000D01*
X21615630Y-1557640D01*
X21596570Y-1583040D01*
X21574350Y-1599970D01*
X21548950Y-1604200D01*
G01X21729930D02*
Y-1350200D01*
X21875970Y-1604200D01*
Y-1350200D01*
G01X17135700Y-4652200D02*
Y-5414200D01*
G01X18310450Y14334300D02*
Y14588300D01*
X18389820D01*
X18415220Y14575590D01*
X18431100Y14558670D01*
X18437450Y14524800D01*
X18431100Y14490930D01*
X18412050Y14469770D01*
X18389820Y14457060D01*
X18310450D01*
G01X18389820D02*
X18437450Y14334300D01*
G01X18691450D02*
X18564450D01*
Y14588300D01*
X18691450D01*
G01X18640650Y14465540D02*
X18564450D01*
G01X18802570Y14588300D02*
X18881950Y14334300D01*
X18961330Y14588300D01*
G01X19097850D02*
X19174040D01*
G01X19135950D02*
Y14334300D01*
G01X19097850D02*
X19174040D01*
G01X19323270Y14368160D02*
X19348680Y14347000D01*
X19377250Y14334300D01*
X19402650D01*
X19428050Y14347000D01*
X19447100Y14368160D01*
X19456630Y14397800D01*
X19450280Y14427430D01*
X19434400Y14452830D01*
X19405820Y14469770D01*
X19367730Y14478230D01*
X19345500Y14495160D01*
X19335970Y14524800D01*
X19342330Y14554430D01*
X19358200Y14575590D01*
X19380420Y14588300D01*
X19402650D01*
X19424880Y14579840D01*
X19443930Y14558670D01*
G01X19605850Y14588300D02*
X19682040D01*
G01X19643950D02*
Y14334300D01*
G01X19605850D02*
X19682040D01*
G01X19897950D02*
X19872550Y14338530D01*
X19850330Y14355460D01*
X19831270Y14380860D01*
X19818570Y14410500D01*
X19812220Y14444370D01*
Y14478230D01*
X19818570Y14512100D01*
X19831270Y14541740D01*
X19850330Y14567130D01*
X19872550Y14584070D01*
X19897950Y14588300D01*
X19923350Y14584070D01*
X19945570Y14567130D01*
X19964630Y14541740D01*
X19977330Y14512100D01*
X19983680Y14478230D01*
Y14444370D01*
X19977330Y14410500D01*
X19964630Y14380860D01*
X19945570Y14355460D01*
X19923350Y14338530D01*
X19897950Y14334300D01*
G01X20078930D02*
Y14588300D01*
X20224970Y14334300D01*
Y14588300D01*
G01X20339270Y14368160D02*
X20364680Y14347000D01*
X20393250Y14334300D01*
X20418650D01*
X20444050Y14347000D01*
X20463100Y14368160D01*
X20472630Y14397800D01*
X20466280Y14427430D01*
X20450400Y14452830D01*
X20421820Y14469770D01*
X20383730Y14478230D01*
X20361500Y14495160D01*
X20351970Y14524800D01*
X20358330Y14554430D01*
X20374200Y14575590D01*
X20396420Y14588300D01*
X20418650D01*
X20440880Y14579840D01*
X20459930Y14558670D01*
G01X19167700Y-4652200D02*
Y-3636200D01*
G01X19447100Y-4017200D02*
Y-3763200D01*
X19510600D01*
X19536000Y-3775910D01*
X19555050Y-3792830D01*
X19570930Y-3818230D01*
X19583630Y-3847870D01*
X19586800Y-3890200D01*
X19583630Y-3932540D01*
X19570930Y-3962170D01*
X19555050Y-3987570D01*
X19536000Y-4004500D01*
X19510600Y-4017200D01*
X19447100D01*
G01X19675700Y-3763200D02*
X19720150Y-4017200D01*
X19770950Y-3763200D01*
X19821750Y-4017200D01*
X19866200Y-3763200D01*
G01X20044000Y-3890200D02*
X20107500D01*
Y-3966400D01*
X20088450Y-3991810D01*
X20066220Y-4008740D01*
X20034480Y-4017200D01*
X20002730Y-4008740D01*
X19980500Y-3991810D01*
X19961450Y-3966400D01*
X19948750Y-3936770D01*
X19942400Y-3902900D01*
Y-3873270D01*
X19948750Y-3847870D01*
X19961450Y-3818230D01*
X19980500Y-3792830D01*
X19999550Y-3775910D01*
X20024950Y-3763200D01*
X20047170D01*
X20072570Y-3771660D01*
X20091630Y-3788600D01*
G01X20459930Y-4017200D02*
Y-3763200D01*
X20605970Y-4017200D01*
Y-3763200D01*
G01X20786950Y-4017200D02*
X20761550Y-4012970D01*
X20739330Y-3996040D01*
X20720270Y-3970640D01*
X20707570Y-3941000D01*
X20701220Y-3907130D01*
Y-3873270D01*
X20707570Y-3839400D01*
X20720270Y-3809760D01*
X20739330Y-3784370D01*
X20761550Y-3767430D01*
X20786950Y-3763200D01*
X20812350Y-3767430D01*
X20834570Y-3784370D01*
X20853630Y-3809760D01*
X20866330Y-3839400D01*
X20872680Y-3873270D01*
Y-3907130D01*
X20866330Y-3941000D01*
X20853630Y-3970640D01*
X20834570Y-3996040D01*
X20812350Y-4012970D01*
X20786950Y-4017200D01*
G01X21199700Y-5414200D02*
Y-4652200D01*
X25517700D01*
G01X20691700Y12556300D02*
Y11794300D01*
G01Y12302300D02*
Y13318300D01*
G01D02*
Y14080300D01*
G01X21482270Y-4999340D02*
X21507680Y-5020500D01*
X21536250Y-5033200D01*
X21561650D01*
X21587050Y-5020500D01*
X21606100Y-4999340D01*
X21615630Y-4969700D01*
X21609280Y-4940070D01*
X21593400Y-4914670D01*
X21564820Y-4897730D01*
X21526730Y-4889270D01*
X21504500Y-4872340D01*
X21494970Y-4842700D01*
X21501330Y-4813070D01*
X21517200Y-4791910D01*
X21539420Y-4779200D01*
X21561650D01*
X21583880Y-4787660D01*
X21602930Y-4808830D01*
G01X21736270Y-5033200D02*
Y-4779200D01*
G01X21869630D02*
Y-5033200D01*
G01Y-4906200D02*
X21736270D01*
G01X22120450Y-5033200D02*
X21993450D01*
Y-4779200D01*
X22120450D01*
G01X22069650Y-4901960D02*
X21993450D01*
G01X22374450Y-5033200D02*
X22247450D01*
Y-4779200D01*
X22374450D01*
G01X22323650Y-4901960D02*
X22247450D01*
G01X22564950Y-4779200D02*
Y-5033200D01*
G01X22491930Y-4779200D02*
X22637970D01*
G01X21352100Y13572300D02*
Y13826300D01*
X21415600D01*
X21441000Y13813590D01*
X21460050Y13796670D01*
X21475930Y13771270D01*
X21488630Y13741630D01*
X21491800Y13699300D01*
X21488630Y13656960D01*
X21475930Y13627330D01*
X21460050Y13601930D01*
X21441000Y13585000D01*
X21415600Y13572300D01*
X21352100D01*
G01X21596570D02*
X21675950Y13826300D01*
X21755330Y13572300D01*
G01X21726750Y13661200D02*
X21625150D01*
G01X21929950Y13826300D02*
Y13572300D01*
G01X21856930Y13826300D02*
X22002970D01*
G01X22247450Y13572300D02*
X22120450D01*
Y13826300D01*
X22247450D01*
G01X22196650Y13703540D02*
X22120450D01*
G01X22977700Y12556300D02*
Y11794300D01*
G01Y12556300D02*
Y13318300D01*
G01X23247570Y13572300D02*
X23326950Y13826300D01*
X23406330Y13572300D01*
G01X23377750Y13661200D02*
X23276150D01*
G01X23517450Y13572300D02*
Y13826300D01*
X23593650D01*
X23619050Y13813590D01*
X23638100Y13783970D01*
X23644450Y13750100D01*
X23638100Y13716230D01*
X23622220Y13690830D01*
X23593650Y13678130D01*
X23517450D01*
G01X23771450Y13572300D02*
Y13826300D01*
X23847650D01*
X23873050Y13813590D01*
X23892100Y13783970D01*
X23898450Y13750100D01*
X23892100Y13716230D01*
X23876220Y13690830D01*
X23847650Y13678130D01*
X23771450D01*
G01X24025450Y13572300D02*
Y13826300D01*
X24104820D01*
X24130220Y13813590D01*
X24146100Y13796670D01*
X24152450Y13762800D01*
X24146100Y13728930D01*
X24127050Y13707770D01*
X24104820Y13695060D01*
X24025450D01*
G01X24104820D02*
X24152450Y13572300D01*
G01X24342950D02*
X24317550Y13576530D01*
X24295330Y13593460D01*
X24276270Y13618860D01*
X24263570Y13648500D01*
X24257220Y13682370D01*
Y13716230D01*
X24263570Y13750100D01*
X24276270Y13779740D01*
X24295330Y13805130D01*
X24317550Y13822070D01*
X24342950Y13826300D01*
X24368350Y13822070D01*
X24390570Y13805130D01*
X24409630Y13779740D01*
X24422330Y13750100D01*
X24428680Y13716230D01*
Y13682370D01*
X24422330Y13648500D01*
X24409630Y13618860D01*
X24390570Y13593460D01*
X24368350Y13576530D01*
X24342950Y13572300D01*
G01X24517570Y13826300D02*
X24596950Y13572300D01*
X24676330Y13826300D01*
G01X24914450Y13572300D02*
X24787450D01*
Y13826300D01*
X24914450D01*
G01X24863650Y13703540D02*
X24787450D01*
G01X25035100Y13572300D02*
Y13826300D01*
X25098600D01*
X25124000Y13813590D01*
X25143050Y13796670D01*
X25158930Y13771270D01*
X25171630Y13741630D01*
X25174800Y13699300D01*
X25171630Y13656960D01*
X25158930Y13627330D01*
X25143050Y13601930D01*
X25124000Y13585000D01*
X25098600Y13572300D01*
X25035100D01*
G01X22977700Y13318300D02*
Y14080300D01*
G01X25517700Y14842300D02*
Y11794300D01*
G54D17*
X1015000Y3665000D03*
X1385000Y3435000D03*
X1015000D03*
X1385000Y3665000D03*
G54D27*
G01X310500Y2122400D02*
X359500D01*
G01Y2077600D02*
X310500D01*
G01Y1822400D02*
X359500D01*
G01Y1777600D02*
X310500D01*
G01X489500Y2377600D02*
X440500D01*
G01Y2422400D02*
X489500D01*
G01X177600Y3575500D02*
Y3624500D01*
G01X222400D02*
Y3575500D01*
G01X442600D02*
Y3624500D01*
G01X487400D02*
Y3575500D01*
G01X859100Y2475500D02*
Y2524500D01*
G01X903900D02*
Y2475500D01*
G01X1531600Y475500D02*
Y524500D01*
G01X1576400D02*
Y475500D01*
G01X2822400Y2124500D02*
Y2075500D01*
G01X2777600D02*
Y2124500D01*
G01X2840500Y1722400D02*
X2889500D01*
G01Y1677600D02*
X2840500D01*
G01X2889500Y2377600D02*
X2840500D01*
G01Y2422400D02*
X2889500D01*
G54D18*
X1829000Y565000D03*
Y434500D03*
G54D19*
X2154000Y1940000D03*
X2104000D03*
X2054000D03*
X2004000D03*
X1954000D03*
X1904000D03*
X1854000D03*
X1804000D03*
X1754000D03*
X1704000D03*
X1654000D03*
X1604000D03*
X1554000D03*
X1504000D03*
X1454000D03*
Y3060000D03*
X1504000D03*
X1554000D03*
X1604000D03*
X1654000D03*
X1704000D03*
X1754000D03*
X1804000D03*
X1854000D03*
X1904000D03*
X1954000D03*
X2004000D03*
X2054000D03*
X2104000D03*
X2154000D03*
X2204000Y1940000D03*
Y3060000D03*
M02*
