G04 ================== begin FILE IDENTIFICATION RECORD ==================*
G04 Layout Name:  PCB EDITOR TUTORIAL.brd*
G04 Film Name:    TOP*
G04 File Format:  Gerber RS274X*
G04 File Origin:  Cadence Allegro 17.2-S037*
G04 Origin Date:  Thu Apr 12 20:21:19 2018*
G04 *
G04 Layer:  ETCH/TOP*
G04 Layer:  PIN/TOP*
G04 Layer:  VIA CLASS/TOP*
G04 *
G04 Offset:    (0.0000 0.0000)*
G04 Mirror:    No*
G04 Mode:      Positive*
G04 Rotation:  0*
G04 FullContactRelief:  No*
G04 UndefLineWidth:     0.0000*
G04 ================== end FILE IDENTIFICATION RECORD ====================*
%FSLAX25Y25*MOMM*%
%IR0*IPPOS*OFA0.00000B0.00000*MIA0B0*SFA1.00000B1.00000*%
%ADD22R,1.8999X1.8999*%
%ADD24R,.35X1.4*%
%ADD12C,.6096*%
%ADD14R,1.397X.4318*%
%ADD20R,.2949X1.5999*%
%ADD17R,1.5999X.2949*%
%ADD25C,1.4224*%
%ADD10C,4.064*%
%ADD11R,2.X1.1999*%
%ADD19R,.95X.445*%
%ADD21R,2.1001X1.5999*%
%ADD18R,1.8999X1.1001*%
%ADD16C,1.8796*%
%ADD23R,1.8001X1.8999*%
%ADD15R,.8999X.7*%
%ADD13R,.7X.8999*%
%ADD26C,.28*%
%ADD27C,.127*%
%ADD28C,.381*%
G75*
%LPD*%
G75*
G54D10*
X400000Y400000D03*
Y4600000D03*
X9600000Y400000D03*
Y4600000D03*
G54D11*
X400000Y1494600D03*
Y1174600D03*
G54D20*
X2154000Y1940000D03*
X2104000D03*
X2054000D03*
X2004000D03*
X1954000D03*
X1904000D03*
X1854000D03*
X1804000D03*
X1754000D03*
X1704000D03*
X1654000D03*
X1604000D03*
X1554000D03*
X1504000D03*
X1454000D03*
Y3060000D03*
X1504000D03*
X1554000D03*
X1604000D03*
X1654000D03*
X1704000D03*
X1754000D03*
X1804000D03*
X1854000D03*
X1904000D03*
X1954000D03*
X2004000D03*
X2054000D03*
X2104000D03*
X2154000D03*
X2204000Y1940000D03*
Y3060000D03*
G54D21*
X1624000Y4245000D03*
X2244000D03*
G54D12*
X400000Y1071420D03*
X478180Y2100000D03*
Y1800000D03*
X400000Y1597770D03*
X191820Y2100000D03*
Y1800000D03*
X321820Y2400000D03*
X86970Y2802500D03*
Y2997500D03*
X465000Y3743180D03*
X200000D03*
X465000Y3456820D03*
X200000D03*
X754990Y2802500D03*
X881500Y2643180D03*
X1015000Y3763180D03*
X1829000Y369070D03*
X1554000Y356820D03*
X1854000Y1816820D03*
X1904000Y2080000D03*
X1523170Y3435000D03*
X1804000Y3183170D03*
X1954000D03*
X2104000D03*
X1804000Y4121820D03*
X2800000Y1956820D03*
X2512170Y2275000D03*
X2800000Y2243180D03*
X2721820Y1700000D03*
X2215000Y2225000D03*
X2721820Y2400000D03*
X2566280Y2525000D03*
X2215000Y2575000D03*
G54D13*
X400000Y2100000D03*
X270000D03*
X400000Y1800000D03*
X270000D03*
X400000Y2400000D03*
X530000D03*
X2930000Y1700000D03*
X2800000D03*
Y2400000D03*
X2930000D03*
G54D22*
X1814000Y4500000D03*
X2054000D03*
G54D23*
X1554000D03*
X2314000D03*
G54D14*
X641960Y2997500D03*
Y2932500D03*
Y2867500D03*
Y2802500D03*
X200000D03*
Y2867500D03*
Y2932500D03*
Y2997500D03*
G54D15*
Y3665000D03*
Y3535000D03*
X465000Y3665000D03*
Y3535000D03*
X881500Y2565000D03*
Y2435000D03*
X1554000Y565000D03*
Y435000D03*
X2800000Y2035000D03*
Y2165000D03*
G54D24*
X1869000Y4235000D03*
X1934000D03*
X1999000D03*
X1804000D03*
X2064000D03*
G54D16*
X1300000Y1200000D03*
X2062000Y1174600D03*
X1808000Y1200000D03*
X1554000Y1174600D03*
X2570000D03*
X2316000Y1200000D03*
G54D25*
X3650000Y1600000D03*
Y1800000D03*
Y2000000D03*
Y2200000D03*
Y2400000D03*
Y2600000D03*
Y2800000D03*
Y3000000D03*
Y3200000D03*
Y3400000D03*
X3850000Y1600000D03*
Y1800000D03*
Y2000000D03*
Y2200000D03*
Y2400000D03*
Y2600000D03*
Y2800000D03*
Y3000000D03*
Y3200000D03*
Y3400000D03*
G54D26*
G01X1854000Y1940000D02*
Y1816820D01*
G01X1904000Y1940000D02*
Y2080000D01*
G01X1804000Y3060000D02*
Y3183170D01*
G01X1954000Y3060000D02*
Y3183170D01*
G01X2104000Y3060000D02*
Y3183170D01*
G01X2389000Y2275000D02*
X2512170D01*
G01X2389000Y2225000D02*
X2215000D01*
G01X2389000Y2525000D02*
X2566280D01*
G01X2389000Y2575000D02*
X2215000D01*
G54D17*
X1269000Y2125000D03*
Y2175000D03*
Y2225000D03*
Y2275000D03*
Y2325000D03*
Y2375000D03*
Y2425000D03*
Y2475000D03*
Y2525000D03*
Y2575000D03*
Y2625000D03*
Y2675000D03*
Y2725000D03*
Y2775000D03*
Y2825000D03*
Y2875000D03*
X2389000Y2275000D03*
Y2225000D03*
Y2175000D03*
Y2125000D03*
Y2875000D03*
Y2825000D03*
Y2775000D03*
Y2725000D03*
Y2675000D03*
Y2625000D03*
Y2575000D03*
Y2525000D03*
Y2475000D03*
Y2425000D03*
Y2375000D03*
Y2325000D03*
G54D27*
G01X530000Y2400000D02*
Y2844450D01*
X553050Y2867500D01*
X641960D01*
G01X3650000Y2800000D02*
X3722470D01*
X3812640Y2709830D01*
X3867690D01*
X3940170Y2637350D01*
Y1562650D01*
X3439090Y1061570D01*
X1278580D01*
X1049500Y1290650D01*
Y2375000D01*
X1269000D01*
G01X1754000Y1940000D02*
Y1654000D01*
X1300000Y1200000D01*
G01X881500Y2435000D02*
X982500D01*
X1072500Y2525000D01*
X1269000D01*
G01X641960Y2867500D02*
Y2932500D01*
G01D02*
Y2997500D01*
G01X2154000Y3060000D02*
Y2960940D01*
X1397560D01*
X1361000Y2997500D01*
X641960D01*
G01X1904000Y3060000D02*
Y3597500D01*
X1836500Y3665000D01*
X1385000D01*
G01X1854000Y3060000D02*
Y3253800D01*
X1821300Y3286500D01*
X1326000D01*
X1177500Y3435000D01*
X1015000D01*
G01X1554000Y565000D02*
X1829000D01*
G01X2389000Y2175000D02*
X2246500D01*
X2237800Y2166300D01*
Y1350400D01*
X2062000Y1174600D01*
G01X3850000Y3400000D02*
X3709500Y3540500D01*
X2153530D01*
G01D02*
Y3162650D01*
X2154000Y3162180D01*
Y3060000D01*
G01X2064000Y4235000D02*
Y4072500D01*
X2153530Y3982970D01*
Y3540500D01*
G01X1999000Y4235000D02*
Y4145950D01*
X1959400Y4106350D01*
Y3443830D01*
X2029400Y3373830D01*
Y3184040D01*
X2054000Y3159440D01*
Y3060000D01*
G01X1934000Y4235000D02*
Y3433300D01*
X2004000Y3363300D01*
Y3060000D01*
G01X2389000Y2125000D02*
X2488060D01*
Y1372060D01*
X2316000Y1200000D01*
G01X3650000Y2600000D02*
X2798500D01*
X2523500Y2325000D01*
X2389000D01*
G01X3650000Y3000000D02*
X2690500D01*
X2565500Y2875000D01*
X2389000D01*
G01X3850000Y3000000D02*
X3755500Y2905500D01*
X2659500D01*
X2579000Y2825000D01*
X2389000D01*
G01X3850000Y2600000D02*
X3740170Y2709830D01*
X2664670D01*
X2649500Y2725000D01*
X2389000D01*
G01X2930000Y2400000D02*
Y1710000D01*
G01D02*
X2960000D01*
X3650000Y2400000D01*
G01X2930000Y1710000D02*
Y1700000D01*
G54D18*
X1015000Y3665000D03*
X1385000Y3435000D03*
X1015000D03*
X1385000Y3665000D03*
G54D28*
G01X400000Y1494600D02*
Y1597770D01*
G01Y1174600D02*
Y1071420D01*
G01Y2100000D02*
X478180D01*
G01X400000Y1800000D02*
X478180D01*
G01X270000Y2100000D02*
X191820D01*
G01X270000Y1800000D02*
X191820D01*
G01X400000Y2400000D02*
X321820D01*
G01X200000Y2802500D02*
X86970D01*
G01X641960D02*
X754990D01*
G01X200000Y2932500D02*
Y2867500D01*
G01Y2997500D02*
X86970D01*
G01X200000Y2932500D02*
Y2997500D01*
G01X465000Y3665000D02*
Y3743180D01*
G01X200000Y3665000D02*
Y3743180D01*
G01X465000Y3535000D02*
Y3456820D01*
G01X200000Y3535000D02*
Y3456820D01*
G01X881500Y2565000D02*
Y2643180D01*
G01X1015000Y3665000D02*
Y3763180D01*
G01X1385000Y3435000D02*
X1523170D01*
G01X1829000Y434500D02*
Y369070D01*
G01X1554000Y435000D02*
Y356820D01*
G01X1804000Y4235000D02*
Y4121820D01*
G01X2800000Y2035000D02*
Y1956820D01*
G01Y2165000D02*
Y2243180D01*
G01Y1700000D02*
X2721820D01*
G01X2800000Y2400000D02*
X2721820D01*
G54D19*
X1829000Y565000D03*
Y434500D03*
M02*
